<svg xmlns="http://www.w3.org/2000/svg" viewBox="0 0 511.84 511.79"><defs><style>.cls-1{fill:#3a678d;}.cls-2{fill:#ecb320;}.cls-3{fill:#ee3532;}.cls-4{fill:#3788c8;}.cls-5{fill:#fcc6a1;}.cls-6{fill:#559bd4;}.cls-7{fill:#f05455;}.cls-8{fill:#ffcb2a;}.cls-9{fill:#2c5270;}.cls-10{fill:#faae7b;}.cls-11{fill:#ebb320;}.cls-12{fill:#559ad3;}.cls-13{fill:#ef3a3b;}.cls-14{fill:#e4eff8;}.cls-15{fill:#c5dcef;}</style></defs><g id="Layer_2" data-name="Layer 2"><g id="Layer_1-2" data-name="Layer 1"><path class="cls-1" d="M190.92,487.64c-45.43,0-90.87.41-136.31,0C29,487.37,8.16,469.93,1.79,445.27c-.39-1.51-.22-3.37-1.79-4.45V71C1.57,69.89,1.4,68,1.79,66.52c6.33-24.5,27-42,52.32-42.31,45.6-.5,91.21-.09,136.82-.06,10.93.28,20.82,3.29,29.41,10.42,13.27,11,20.81,25.09,21.51,42.18.72,17.78.19,35.6.15,53.4,0,2.52-.05,5-2.29,6.82-5.49,1.53-11,2.23-16.28-.58a8.54,8.54,0,0,1-1.63-5.63c0-17.45-.31-34.9.17-52.35-2.2-13.11-10.41-20.23-23.68-20.24q-70-.09-139.93,0c-15.5,0-24.18,8.64-24.19,24.11q0,121.68,0,243.35,0,48.48,0,96.95c0,9.92,4.19,17.24,13.38,21.43a45.48,45.48,0,0,0,13.79,1.68q67.85-.07,135.69,0c6.9,0,13.12-1.5,18.19-6.61,4.63-4.67,6.47-10.33,6.51-16.71.09-13.13,0-26.27.06-39.41,0-2.64-.23-5.37,1.7-7.6,5.26-2.69,10.66-2,16.08-.61,2.13,1.54,2.41,3.83,2.42,6.21.07,18.26,1,36.58-.24,54.77-1.52,22.8-13.19,39.54-34.27,49.16C202.27,487.24,196.48,486.92,190.92,487.64Z"/><path class="cls-2" d="M511.84,305.87c-1.94,3.58-2.84,7.67-5.5,10.89-5.78,7-13,11.14-22.29,11.12-18.94-.05-37.88,0-56.83,0a23.34,23.34,0,0,1-16.31-6c1.67-3,4.89-3.25,7.65-4.15,15.6-5.1,30.42-11.79,43.35-22,13.81-10.94,24.11-24.26,26.87-42.3.33-2.18.75-4.3,3-5.36,8.9,5.63,13.38,14.44,17,23.82,1.26,3.26,2,6.7,3,10.05Z"/><path class="cls-3" d="M491.91,431.52c10.42,8.08,16.16,19,18.91,31.61.21,1,.08,2,1,2.68v24c-1,5.73-2.45,11-6.91,15.44s-9.56,5.54-15.09,6.55h-68c-3.57-2.11-8.05-2.58-10.91-6,1.63-3,4.86-3.29,7.62-4.18,15-4.81,29.15-11.26,41.87-20.62,15.2-11.19,25.37-25.63,28.59-44.54C489.36,434.52,489.76,432.47,491.91,431.52Z"/><path class="cls-4" d="M511.84,122c-2.41,5.18-4.33,10.58-8.86,14.54-5.32,4.66-11.28,7.44-18.41,7.45q-28.69,0-57.37,0a23.27,23.27,0,0,1-16.31-6c1.83-3.11,5.23-3.31,8.14-4.24,17.39-5.59,33.65-13.19,47.48-25.44C478.06,98,485.74,85.54,488.76,70.34c.48-2.45.63-5,2.82-6.69,3.35-1,5.13,1.32,7.09,3.35a45.89,45.89,0,0,1,13.17,31Z"/><path class="cls-5" d="M460.85,0c2.45,1.64,5.72,1.14,8.06,3.08,3,1.72,4.17,4.63,4.61,7.83a34,34,0,0,1-38.74,38.74c-3.21-.44-6.11-1.56-7.83-4.61A31.65,31.65,0,0,1,445,2c1.63-.6,3.63-.38,4.89-1.95Z"/><path class="cls-6" d="M264.26,183.78l-8.27.28c-4.93,3.64-10.48,1.56-15.79,1.74a92.32,92.32,0,0,1-15.42,0c-11.79.49-23.59.19-35.39.23-33.94.12-63.39,25.77-68.57,59.41-.6,3.89.56,8.54-3.3,11.61a4,4,0,0,1-1.37.57c-13.68.61-27.36,1.1-41-.25a5,5,0,0,1-1.54-.95c-2.07-4.68-.2-9.3,1.12-13.48C88.89,198,119,170.2,165.05,160a104.85,104.85,0,0,1,23.28-2.22c22.8.13,45.61,0,68.41.07,2.94,0,6.1-.47,8.25,2.42C266.35,168.16,267.55,176,264.26,183.78Z"/><path class="cls-7" d="M73.93,256.06l43.87-.16c2.13,1.13,2,3.21,2.26,5.19,2.57,22.85,13.08,41,32.38,53.67a67.31,67.31,0,0,0,36.8,11c11.83.13,23.65-.27,35.48.24a92.08,92.08,0,0,1,15.4,0c5.31.19,10.86-1.9,15.8,1.71l8,.33c.85.78,1.79,1.61,1.83,2.82.19,6.83,1.26,13.7-.73,20.45-1.59,2.43-4.09,2.61-6.63,2.61-26,.06-52,.94-77.92-.25S131.36,343,111.39,325.94c-17.34-14.79-28.95-33.18-36.12-54.62-1.34-4-1.41-8.17-2.51-12.18A2.8,2.8,0,0,1,73.93,256.06Z"/><path class="cls-6" d="M478.72,54.87c4.44,2.87,9.43,4.91,13.16,8.82a67.72,67.72,0,0,1-21,43.46,110.5,110.5,0,0,1-38.26,23.74c-7.14,2.68-14.19,5.62-21.74,7A24,24,0,0,1,400.56,121c-3-23.35,1.89-45.16,23.53-60.73,2.81-2,5.94-3.59,8.92-5.38,2.44-.82,4.12.85,5.91,1.94q17,10.35,33.89,0C474.6,55.71,476.27,54,478.72,54.87Z"/><path class="cls-7" d="M491.91,431.52a68.44,68.44,0,0,1-21.36,43.79c-10.89,10.41-23.9,17.8-37.89,23.37-7.09,2.82-14.2,5.59-21.72,7.12a23.74,23.74,0,0,1-10.26-16.43c-3.43-24.31,2.32-46.09,23.37-61.24,2.81-2,5.95-3.6,8.93-5.38,2.43-.86,4.11.78,5.87,1.87,11.36,7.07,22.67,7.07,34,0,1.76-1.1,3.44-2.73,5.86-1.87C483.2,425.56,488.14,427.67,491.91,431.52Z"/><path class="cls-8" d="M491.81,248c-1.53,7.1-2.35,14.33-5.5,21.08-7.69,16.48-20.54,28-35.85,36.84-12.37,7.15-25.48,12.83-39.55,15.93A24.53,24.53,0,0,1,400.32,304c-1.82-17.13.15-33.55,11.12-47.8,5.8-7.53,13.23-13,21.56-17.36,2.19-.84,3.84.43,5.48,1.5q17.4,11.3,34.78,0c1.64-1.06,3.28-2.34,5.47-1.47C483.2,241.73,488.4,243.59,491.81,248Z"/><path class="cls-3" d="M73.93,256.06C77.3,276.57,86,294.65,99.19,310.57c18.27,22,41.92,34.79,69.91,39.75a86.22,86.22,0,0,0,15.32,1.55q39.68-.06,79.33,0l.83.52c2.08,7.82,3,15.62-.66,23.28l-8,.33a15.22,15.22,0,0,1-16,0h-16a6.57,6.57,0,0,1-5,1.89c-14,0-28,.91-41.93-.24a113.84,113.84,0,0,1-62.55-25c-26.2-20.89-40.61-48.31-44.31-81.39-.56-5.08-1.79-10.62,1.42-15.54a2.09,2.09,0,0,1,2.4,0Z"/><path class="cls-4" d="M74,255.76l-1.84.14c-2.3-1.29-2.21-3.56-2.21-5.7,0-27.29,8.89-51.49,25.94-72.65,18.48-22.93,42.47-36.76,71.36-42.11a80.25,80.25,0,0,1,15.33-1.62c11.47.12,22.94,0,34.41.05,2.49,0,5.05-.19,6.93,2l16.1,0a15,15,0,0,1,16,0l8,.34c2.7,4.78,1,10,1.26,15,.14,3,1.2,6.3-1.49,8.88-27.47,0-55-.86-82.4.2-25.94,1-49,10.46-69,27.62s-31.89,38.37-37.76,63.54C74.33,252.79,74.2,254.29,74,255.76Z"/><path class="cls-9" d="M256,135.81H240c0-18.76,0-37.53-.09-56.3a56.11,56.11,0,0,0-42.73-54c-2.08-.5-4.37,0-6.25-1.37,18.82-1.62,35.72,2.74,49.18,16.64a54.1,54.1,0,0,1,15.8,38.65C256,98.23,256,117,256,135.81Z"/><path class="cls-9" d="M239.92,376h16q0,27.93,0,55.86a55.57,55.57,0,0,1-56,55.92c-3,0-6-.1-9-.15,10.19-2,19.76-5.42,28-12.1,13.41-10.92,20.51-25.11,20.93-42.24C240.27,414.21,239.91,395.11,239.92,376Z"/><path class="cls-5" d="M427,412.89a31.59,31.59,0,0,1,42-42c3,1.72,4.17,4.63,4.61,7.83a34,34,0,0,1-38.74,38.74C431.57,417.06,428.67,415.93,427,412.89Z"/><path class="cls-5" d="M427,229a31.59,31.59,0,0,1,42-42c3,1.72,4.17,4.62,4.61,7.82a34.05,34.05,0,0,1-38.74,38.75C431.57,233.14,428.67,232,427,229Z"/><path class="cls-9" d="M255.92,327.7h-16a5.28,5.28,0,0,1-2-4.34c-.14-19-.34-37.92.11-56.88,0-.83.34-1.63.43-2.44a5.69,5.69,0,0,1,2.68-5c4-2.56,3.32-4.94.21-7.69a7.31,7.31,0,0,1-2.86-5.54,32.23,32.23,0,0,1,0-11.95c1.65-5.82,12-16.07,17.26-17q.11,32.7.21,65.4Q256,305,255.92,327.7Z"/><path class="cls-10" d="M427,412.89a31.61,31.61,0,0,0,42-42c15.75,5.36,25.82,28.34,13.68,46.64-1.18,1.79-2.56,3.45-3.85,5.17-15.48,12.57-30.28,12.57-45.76,0C430.87,419.53,427.76,416.91,427,412.89Z"/><path class="cls-10" d="M478.72,54.87c-15.91,12.5-29.78,12.5-45.71,0-2.19-3.18-5.23-5.83-6.06-9.84a32.13,32.13,0,0,0,35.8-6.51,32.07,32.07,0,0,0,6.16-35.45c15.74,5.36,25.82,28.34,13.69,46.63C481.41,51.5,480,53.15,478.72,54.87Z"/><path class="cls-10" d="M427,229a31.61,31.61,0,0,0,42-42c15.75,5.36,25.82,28.35,13.68,46.64-1.19,1.79-2.57,3.45-3.86,5.17-16.47,12.44-29.38,12.44-45.73,0C430.83,235.63,427.78,233,427,229Z"/><path class="cls-11" d="M239.78,247a11,11,0,0,0,.85,1.18c2.34,2.53,6.48,5,6.56,7.57.1,2.88-5.07,4-7.41,6.5-3.34,6.43-10.07,8.81-15.36,12.9C217,280.57,209.58,286,202,291.24c-1.88,1.31-3.69,2.85-6.25,2.37-2.61-1.51-1.49-3.13-.26-4.91,6.2-9,13.41-17.3,20.16-25.91a42,42,0,0,1,3.08-3.91c2.22-2.24,2.22-4.58.81-7.24-6.92-13-6.2-11.42,2.21-24,3.19-4.76,5.47-10.36,10.91-13.33,2.55-.86,5.15-.27,7.73-.28a77.82,77.82,0,0,1,10.47-.22,5.57,5.57,0,0,1,4.8,2.15,1.19,1.19,0,0,1,0,.87,201.84,201.84,0,0,0-15.94,16C236.24,237.55,236.23,242.26,239.78,247Z"/><path class="cls-7" d="M263.82,160q.12-11.93.23-23.84a1.5,1.5,0,0,1,1,0,6.87,6.87,0,0,1,1.13,1.4c1.73,4.68.63,9.55.91,14.32.3,5,.86,5.74,5.91,5.86,5.82.14,11.65,0,17.47.1,2.16,0,4.4,0,5.63,2.35,0,6.77,0,13.55.15,20.32,0,2.37-.43,3.63-3.23,3.57-9.57-.21-19.16-.21-28.74-.3C264,175.85,264.82,167.91,263.82,160Z"/><path class="cls-6" d="M263.75,351.88q.08-11.92.17-23.85c9.64,0,19.28,0,28.93-.21,2.37,0,3.17.67,3.1,3.08-.19,7-.16,14-.21,20.94-1.35,1.81-3.29,2.1-5.35,2.13q-10.49.15-21,0c-2.06,0-4-.34-5.35-2.13Z"/><path class="cls-4" d="M264.05,351.84h31.69c.05,7,0,14,.21,21,.06,2.39-.71,3.14-3.1,3.1-9.65-.17-19.29-.16-28.93-.21Q264,363.76,264.05,351.84Z"/><path class="cls-3" d="M296.08,160.19c-8.76-.07-17.51-.27-26.27-.15-3.52.05-5.16-.9-5-4.73.28-6.1.16-12.22.22-18.33,7.75-1.23,15.55-.2,23.32-.53,2.49-.11,5,.18,7.47-.18C297.4,144.23,296.93,152.2,296.08,160.19Z"/><path class="cls-9" d="M255.7,216l-15.78-.24c-1.76-1.32-2.08-3.23-2.11-5.26-.1-7.06-.11-14.11,0-21.17,0-2.05.39-3.93,2.17-5.24h16Q255.86,200,255.7,216Z"/><path class="cls-7" d="M335.82,199.89c-2.82,0-5.67.18-8.47,0a7.7,7.7,0,0,1-7.43-7.86,7.55,7.55,0,0,1,7.31-7.94,169.09,169.09,0,0,1,17.44,0,7.63,7.63,0,0,1,7.2,8.06,7.77,7.77,0,0,1-7.58,7.74C341.48,200.06,338.65,199.89,335.82,199.89Z"/><path class="cls-12" d="M336,327.83c-2.83,0-5.66.17-8.48,0-4.53-.34-7.45-3.45-7.57-7.72a7.63,7.63,0,0,1,7.65-8.12c5.64-.24,11.32-.26,17,0a7.57,7.57,0,0,1,7.33,7.93,7.69,7.69,0,0,1-7.41,7.87C341.64,328,338.8,327.83,336,327.83Z"/><path class="cls-12" d="M359.75,359.81c-2.82,0-5.67.2-8.47,0a7.66,7.66,0,0,1-7.37-7.91,7.53,7.53,0,0,1,7.36-7.89,172.34,172.34,0,0,1,17.46,0,7.45,7.45,0,0,1,7.09,8.11c-.3,4.37-2.7,7.16-7.09,7.64A86.69,86.69,0,0,1,359.75,359.81Z"/><path class="cls-7" d="M359.94,167.9c-2.83,0-5.66.18-8.47,0a7.93,7.93,0,0,1,.12-15.84c5.47-.24,11-.23,16.45,0a7.72,7.72,0,0,1,7.82,8c0,4.43-3.14,7.6-7.94,7.89-2.65.16-5.32,0-8,0Z"/><path class="cls-12" d="M335.86,375.86c2.66,0,5.33-.12,8,0,4.87.27,7.92,3.33,8,7.81a7.67,7.67,0,0,1-7.72,8.07c-5.48.23-11,.23-16.46,0a7.65,7.65,0,0,1-7.76-8c.06-4.49,3.1-7.58,8-7.86C330.53,375.73,333.2,375.86,335.86,375.86Z"/><path class="cls-7" d="M336,135.91c-2.83,0-5.67.18-8.48,0-4.71-.35-7.76-3.75-7.61-8.18a7.63,7.63,0,0,1,7.62-7.67c5.64-.23,11.31-.25,16.94,0a7.61,7.61,0,0,1,7.39,7.89,7.74,7.74,0,0,1-7.39,7.91C341.68,136.1,338.83,135.91,336,135.91Z"/><path class="cls-13" d="M295.83,136.27c-8.24,1.53-16.55.28-24.81.66-2,.09-4,0-6,0a3.75,3.75,0,0,1,0-.82C275.3,135.86,285.57,135.67,295.83,136.27Z"/><path class="cls-14" d="M223.9,135.84c-13.15,0-26.3,0-39.46.12-52.83.26-101.49,41.56-110.5,93.64a110.53,110.53,0,0,0-1.8,26.3c-3,56.53,38.64,108.57,94.06,118.07,10.76,1.85,21.49,1.82,32.28,1.88,8.48,0,17,.11,25.45.16,0,15.49,0,31,0,46.48,0,15.31-10,25.3-25.37,25.31q-70.71.06-141.43,0c-3.51,0-7-.13-10.12-2-1.82-1.78-2.12-4-2.12-6.43,0-27.31-.6-54.63.25-81.91.5-16.26.54-32.56,1.81-48.8,2.89-36.83,7.24-73.44,18.34-108.85,10.51-33.52,26.39-64,53.06-87.73C134.65,97.57,153.61,87.83,174.61,82c14-3.87,28.2-6.32,42.78-6.13,2.34,0,4.72-.06,6.35,2.11Q223.83,106.93,223.9,135.84Z"/><path class="cls-15" d="M223.74,78a157.9,157.9,0,0,0-72.13,14.82c-18.53,8.5-34.08,21.12-47.17,36.86-23.29,28-35.48,60.88-43.66,95.74-5.39,23-8.48,46.37-10.56,69.83-1.25,14-1.84,28.15-2.35,42.26-1.3,36.1-.69,72.21-.87,108.32-8.11-2.72-14.52-10.94-15-19.27-.07-1.32,0-2.66,0-4,0-113.78.15-227.56-.19-341.34,0-14.22,11.89-25.57,25.31-25.44,47.81.5,95.63.18,143.44.21A23.12,23.12,0,0,1,223.74,78Z"/><path class="cls-14" d="M196,293l27.77-19.14c2.27,1.29,2.23,3.55,2.25,5.69.13,14.12.11,28.24,0,42.36,0,2.19-.14,4.35-2.13,5.83-16.6-.29-33.33,2-49.75-1.68-32.52-7.23-55.06-34.77-56.21-68.14,0-.66-.11-1.32-.17-2,.76-37.61,26.41-62.22,52.51-69.26a69.06,69.06,0,0,1,18.18-2.7l35.43.07a5.11,5.11,0,0,1,2,3.81c0,8.88.76,17.77-.4,26.62-1.53,3.77-5,3.75-8,3.36-6.55-.83-10.62,2-13.56,7.53a77.92,77.92,0,0,1-6.59,9.95c-2.36,3.19-2.49,5.76.74,8.53,2.89,2.47,5.45,5.33,8.09,8.08A7.75,7.75,0,0,1,208,261c-4.08,9.59-7,19.7-12.47,28.68C194.38,291.52,194.47,291.57,196,293Z"/><path class="cls-1" d="M223.93,215.74q0-15.86,0-31.73l16.07.06q0,15.84-.07,31.67l-8.06.34C229.16,217.23,226.44,219.1,223.93,215.74Z"/><path class="cls-1" d="M223.93,327.7q-.08-26.94-.14-53.88a165.56,165.56,0,0,1,16-11.59q.08,32.73.14,65.47Z"/><path class="cls-1" d="M239.78,247c-9-8.63-9-5.55,0-14.16Q239.76,239.9,239.78,247Z"/><path class="cls-8" d="M223.93,215.74l7.93.34C227.24,223,222.74,230,218,236.72c-1.72,2.42-1.89,4.52-.21,6.75,6.14,8.17,5.82,15.07-2,22.65-7.06,6.87-12.54,15.36-18.71,23.15-.84,1.07-2.64,1.91-1,3.69l-4.1,2.74c4.82-12,9-23.05,13.74-33.82,2-4.52,1.72-7.48-2.22-10.59-3.37-2.67-6.1-6.14-9.28-9.07-1.81-1.66-2-2.91-.54-5,4.29-6.13,8.41-12.4,12.44-18.71,1.35-2.1,3-2.72,5.39-2.65C215.6,216,219.77,215.8,223.93,215.74Z"/><path class="cls-6" d="M128,407.85c5.16,0,10.32-.11,15.47,0s8.39,3.21,8.42,7.88-3.09,7.94-8.29,8q-15.72.21-31.43,0c-5.15-.07-8.28-3.42-8.17-8.12.1-4.5,3.11-7.58,8-7.75C117.37,407.71,122.69,407.85,128,407.85Z"/><path class="cls-6" d="M72,407.89c2.83,0,5.67-.19,8.47,0a7.59,7.59,0,0,1,7.42,7.84c0,4.35-2.78,7.71-7.31,7.93a172,172,0,0,1-17.44,0,7.35,7.35,0,0,1-7.13-8c.22-4.42,2.62-7.19,7-7.67a83.62,83.62,0,0,1,9-.06Z"/><path class="cls-6" d="M184,423.8c-2.66,0-5.33.13-8,0-4.9-.28-7.91-3.3-8-7.8s2.88-7.86,7.7-8.06c5.47-.23,11-.22,16.45,0,4.83.19,7.81,3.49,7.75,8s-3.07,7.56-8,7.85C189.28,423.93,186.62,423.8,184,423.8Z"/></g></g></svg>