<svg xmlns="http://www.w3.org/2000/svg" viewBox="0 0 479.97 487.8"><defs><style>.cls-1{fill:#3a529d;}.cls-2{fill:#c5d93c;}.cls-3{fill:#5bb7e7;}.cls-4{fill:#ace1f8;}.cls-5{fill:#f8e101;}.cls-6{fill:#fabc16;}.cls-7{fill:#fabb16;}.cls-8{fill:#f9bb16;}.cls-9{fill:#f79d8e;}.cls-10{fill:#a3cd3a;}.cls-11{fill:#f26651;}.cls-12{fill:#f16651;}.cls-13{fill:#cc5244;}.cls-14{fill:#cb5245;}.cls-15{fill:#abe0f7;}.cls-16{fill:#ace0f8;}</style></defs><g id="Layer_2" data-name="Layer 2"><g id="Layer_1-2" data-name="Layer 1"><path class="cls-1" d="M255.92,337.48c6.13,1.45,8,3.7,8,10,0,23.81.11,47.63-.07,71.43,0,3.91.95,5.31,4.92,4.94a72,72,0,0,1,11,0c4.58.26,7.81,2.88,8,7.4.32,8.78,1,17.67-1.16,26.34-4.61,18.09-20.36,30.11-39.77,30.15q-61.95.12-123.9,0-39.47,0-78.93,0C16.49,487.78,0,471.24,0,443.6c0-3.67-.11-7.34,0-11,.2-5.5,3.28-8.5,8.78-8.79.67,0,1.34,0,2,0,4.26-.31,10.07,1.9,12.36-.94,2.15-2.67.8-8.25.8-12.54q0-75.43,0-150.86c0-9,2.53-11.57,11.53-11.57H104c6.77,0,8.84,1.61,10.63,8,1.65,3.93-.57,6.27-3.48,8.23a10,10,0,0,1-5.63,1.68c-13.87,0-27.75.43-41.62-.19-5.31.58-10.64.16-16,.33-5,.16-5.75.8-5.81,5.91-.12,11.31,0,22.63,0,33.94q0,53.91,0,107.83c0,7.93.15,8.09,8.11,8.09H237.42c.67,0,1.33,0,2,0,5.74-.13,6.31-.7,6.46-6.29.13-5.15-.28-10.32.31-15.46-.6-17.8-.37-35.61-.14-53.41C246.13,339.73,250.25,336.33,255.92,337.48Z"/><path class="cls-1" d="M141.83,256q31.66-25.92,63.32-51.86c10.17-8.34,20.25-16.78,30.44-25.1,6.13-5,10.49-4.09,14.6,2.85,1.94,3.29,3.88,6.59,5.75,9.92,3.35,5.94,2.95,8.45-1.95,13.09-3.92,3.08-8.13,2.7-11.31-2.07-2.66-4-4.37-3.46-7.62-.78-29,23.9-58,48-87.06,71.8-6.53,5.36-6.34,5.38-2.06,12.89,5,8.82,10.5,17.39,15,26.48,2.35,4.7,2.06,9-2.26,12.55-6.36,3.38-10.44,2.44-14.34-3.64-5.47-8.55-10.28-17.5-15.33-26.3-3.19-5.56-3.63-5.82-9.18-2.38-7.34,4.56-15.28,8.15-22.16,13.45-5.59,6.11-6.47,11.52-2.67,18.58,4.48,8.33,9.3,16.49,14.17,24.6,5.47,9.1,12.71,10.87,22,5.88,11.26-6.05,21.93-13.17,33.51-18.63q60.09-22.58,120.17-45.17c.78-.29,1.55-.61,2.35-.86,3.27-1,4.31-2.86,2.25-5.93-1-1.52-1.83-3.17-2.71-4.78-9.55-16.09-18.77-32.38-28.14-48.58-1.42-2.45-2.59-5.11-1.94-8s1.66-5.49,5.33-5.48c6.36-1.57,8.56-.82,11.63,4.48q19.11,33,38.08,66.08c3.73,6.51,2,10.87-5.18,13.61-15.2,5.76-30.45,11.42-45.67,17.14-1.7.64-3.34,1.45-5,2.18-1.63,2.33-4.13,3.23-6.65,4.16-17.34,6.42-34.63,13-51.94,19.49-6.05,2.28-6.07,2.39-2.91,8s6.49,10.87,9.51,16.43c5.79,10.67,5.69,21-2,30.8-9.31,12-30.47,12-39.61-1-5.33-7.44-9.34-15.66-14.07-23.46-3.12-5.14-3.19-5.28-8.47-2.57-12.59,6.45-24.84,6.55-36.65-1.79-2.55-1.8-4.92-1.57-7.4-.08a33.4,33.4,0,0,1-10,4.35c-14.18,1.28-23.51-3.5-28.77-14.71A25.25,25.25,0,0,1,64.83,331a26.19,26.19,0,0,1,3.35-2.16c4.22-1.93,5.64-4.65,5.46-9.75-.46-12.59,4.55-23,15.52-30,7.87-5,16-9.62,24.16-14.07a115.51,115.51,0,0,0,20.43-14.25A21.26,21.26,0,0,1,141.83,256Z"/><path class="cls-2" d="M262,218.53c-4.8,4.61-5.19,6.92-2,12.59q13.9,24.39,27.86,48.74c-.1,3.65-3.3,3.73-5.58,4.6-24.56,9.42-49.33,18.3-73.9,27.67-14.45,5.52-29.36,10-42.58,18.33a7,7,0,0,1-4.72,1.34c-3-1.1-4.19-3.24-3.69-6.37,4.61-5.28,4.82-7.14,1.27-13.29-5.81-10.05-11.59-20.13-17.54-30.1-1.48-2.5-1.18-3.83,1.11-5.71q47.46-38.91,94.71-78.1c2.57-2.13,3.45-1.79,5,1,3.51,6.31,5.42,7.05,12,5.75Z"/><path class="cls-1" d="M343.92,56.12c-6.53-2.06-8.09-4-8-10.73.13-6.14-.74-12.31.69-18.41,2.57-11,11.46-18.83,22.72-18.9q48.45-.3,96.91,0a23.6,23.6,0,0,1,23.51,23.68q.3,48.19,0,96.41a23.59,23.59,0,0,1-23.52,23.66q-48.47.36-96.92,0c-13.09-.11-23.19-10.67-23.37-23.83-.21-15.48,0-31-.08-46.45,0-5.55,2.66-8.7,8-9.72,4.25-2.16,6.54.53,8.5,3.6C354,77.89,354,80.8,354,83.64c0,13.31,0,26.62,0,39.93,0,8.59,1.7,10.29,10.18,10.31q43.41,0,86.84,0c9.29,0,10.4-1.14,10.85-10.66,0-1.17.29-2.31.28-3.48-.64-6.65-.28-13.31-.3-20-.05-21.13,0-42.27,0-63.4,0-8.62-1.68-10.3-10.19-10.32q-38-.06-75.89,0a35.29,35.29,0,0,1-7-.3c-2.47,0-4.94.22-7.41.32-5.1.21-7.11,2.24-7.36,7.37-.23,4.62.1,9.26-.2,13.88-.22,3.45-1.35,6.5-4.35,8.51C347.7,57,345.84,57.54,343.92,56.12Z"/><path class="cls-1" d="M471.87,351.7c6.5,2,8.09,4,8,10.72-.12,6.14.73,12.31-.69,18.41-2.58,11-11.43,18.82-22.72,18.89q-48.46.33-96.91,0A23.58,23.58,0,0,1,336,376q-.3-48.19,0-96.4a23.73,23.73,0,0,1,24-23.7q48-.23,95.91,0a23.79,23.79,0,0,1,23.87,23.86c.22,15.48,0,31,.08,46.45,0,5.54-2.68,8.69-8,9.74-4,1.69-6.27-.8-8.18-3.67-1.73-2.6-1.85-5.64-1.86-8.67,0-13.33.06-26.65,0-40C461.75,275.77,460,274,452,274c-25.49-.06-51,0-76.47,0a47.74,47.74,0,0,1-7.47-.32c-2.49.31-5,.25-7.48.43-3.89.27-6.06,2.39-6.49,6.28a46.06,46.06,0,0,0-.14,5q0,42.69,0,85.4c0,1,0,2,0,3,.28,5.82,2.17,7.77,7.89,8,2.66.12,5.33,0,8,0q40,0,79.92,0c10.79,0,11.47-.68,12.09-11.47,0-.67.16-1.33.25-2-.25-3.79-.66-7.59.75-11.25C464.62,352.58,467.39,350.93,471.87,351.7Z"/><path class="cls-1" d="M0,151.68q0-30.48,0-61C.05,82.73,2.85,80,10.9,80q45.22,0,90.46,0C109.08,80,112,82.82,112,90.45q0,61.47,0,122.94c0,7.63-2.92,10.49-10.61,10.5q-45.24,0-90.46,0C2.86,223.89.05,221.11,0,213.15Q0,182.42,0,151.68Z"/><path class="cls-1" d="M199.86,143.93c-39,.12-71.68-32.33-71.85-71.31C127.83,32.87,160.13.09,199.55,0c39.71-.09,72.26,32.21,72.36,71.81S239.59,143.8,199.86,143.93Z"/><path class="cls-2" d="M367.91,272q43.88-.07,87.75-.13c5.41,0,8.19,3.15,8.2,9,0,14.79,0,29.58,0,44.37,0,6.69,1.45,8.57,8,10.74v15.7c-6.55,2.12-7.93,4-8,10.68,0,1.81-.1,3.63-.16,5.45a5.48,5.48,0,0,1-4.42,1.93c-14.56-.25-29.2,1.43-43.61-2a41,41,0,0,1-10.7-3.94c-1.63-.91-4.45-1.75-2.34-4.73,1.92-1.26,4.15-1,6.28-1.22,14.9-1.49,25.36-10.42,28.21-24.09,3.42-16.38-6.73-31.56-23.66-35.37-14.88-3.36-30.82,7-34.61,22.34-1,4.05-.47,8.33-2.13,12.24-3.61,2.29-4.27-1.2-5.2-3A52.45,52.45,0,0,1,366,307.9c-.38-10-.12-19.95-.09-29.93C365.91,275.78,366.09,273.63,367.91,272Z"/><path class="cls-3" d="M343.92,56.12c6.31-1.75,7.92-3.74,8-10,0-4.13,0-8.26,0-12.39.08-6.85,2.81-9.62,9.6-9.7,2.14,0,4.29.09,6.43.14,2.1,1.93,1.86,4.51,1.87,7,.07,8.29-.06,16.59.05,24.89.21,16.61,5.47,31.23,17.46,43.07,1.9,1.88,3.37,4.1,5.18,6,1.25,2.09,1,4.48,1.35,6.75,1,6,5.9,7.86,10.49,4,1.39-1.16,2.44-2.8,4.62-2.39A69.25,69.25,0,0,0,436.82,118c6.81-.21,13.63-.06,20.45,0,2.34,0,4.7,0,6.45,2,.74,14.75-.48,16-15.21,16H362.73c-8.27,0-10.8-2.48-10.81-10.61,0-14.46,0-28.93,0-43.39,0-6.38-1.65-8.38-8-10.11Z"/><path class="cls-4" d="M201.06,399.79c6.9-10.19,6.8-20.33.19-30.7-3.93-6.15-7.27-12.67-11-19-1.22-2.06-1.56-3.26,1.27-4.3C213,338,234.44,330,255.89,322l0,15.46c-6.12,1.42-7.93,3.64-8,10q-.12,26.14-.17,52.28c-1.69,2.05-4,2.08-6.39,2.09-11.33,0-22.65.05-34,0C205.1,401.85,202.7,402,201.06,399.79Z"/><path class="cls-4" d="M141.83,256c-9,8.24-18.45,15.69-29.27,21.42-7,3.73-13.9,7.85-20.78,11.9-12.37,7.29-18,19-16,33.24.36,2.51-.1,4.06-2.45,5.2C70.82,329,68.43,330.56,66,332c-3.32-.78-3.85-3.54-3.89-6.17-.26-19-.17-37.91-.08-56.86A6,6,0,0,1,64.06,264q20.2-.07,40.41-.17c6.35,0,8.44-1.72,10.16-8Z"/><path class="cls-1" d="M327.94,239.85c-4.62,0-8.23-3-8.73-7.2-.49-4,2.55-7.76,7.2-8.7q19.47-3.94,39-7.82c5.21-1,9.37,1.43,10.41,6a7.81,7.81,0,0,1-5.92,9.55c-13.45,2.87-26.95,5.47-40.43,8.15A7.5,7.5,0,0,1,327.94,239.85Z"/><path class="cls-1" d="M343.92,175.52a9.09,9.09,0,0,1-3.71,7c-10.34,7.77-20.64,15.62-31.07,23.28-4.28,3.14-8.6,2.49-11.44-1.24s-2.26-8.07,2-11.3c10.28-7.87,20.66-15.59,31-23.32,2.69-2,5.59-2.77,8.82-1C342.28,170.46,343.38,172.91,343.92,175.52Z"/><path class="cls-1" d="M311.94,135.72a11.18,11.18,0,0,1-2.35,5.86q-11.34,15.13-22.73,30.23c-2,2.7-4.59,4.5-8.05,3.92a8,8,0,0,1-6.42-5.6c-1-2.86,0-5.26,1.63-7.43q11.6-15.57,23.31-31c2.27-3,5.22-4.55,9.13-3.1C310,129.86,311.47,132.62,311.94,135.72Z"/><path class="cls-3" d="M64.06,264q0,29.94,0,59.87c0,2.83.07,5.66,1.94,8-7.84,6.7-11.41,15.06-8.81,25.23,2.2,8.66,7.91,14.36,16.52,17.06,4.08,1.29,8.23.6,12.35.57,2.89.58,5.06,2.39,7.2,4.23,15,12.86,32.46,18.83,52.11,18.92,5.94,0,11.93-.71,17.8.81,9.37,11.58,26.25,13.25,37.91,1h46.73c.06,6.49-.12,13,.25,19.46.22,3.89-1.21,4.66-4.82,4.65-36-.13-71.92-.08-107.88-.08-30.13,0-60.27-.07-90.4.09-3.9,0-5-1-5-5q.2-75.15,0-150.32c0-3.61.75-5,4.64-4.81C51.06,264.16,57.57,264,64.06,264Z"/><path class="cls-5" d="M34,440c1.66,0,3.32-.15,5-.15q113.87,0,227.74-.12c4.38,0,5.85,1,5.35,5.39-.42,3.61.19,7.33-1.51,10.76-2,1.77-4.42,2-7,2-9.29,0-18.58-.07-27.88,0-3.41,0-6.48-1.16-9.67-2h-4.06a39,39,0,0,1-13.72,2q-64.21-.12-128.45,0a39.08,39.08,0,0,1-13.72-2H62c-11,3-20.36-.2-26.8-9.25C33.79,444.67,32.07,442.61,34,440Z"/><path class="cls-6" d="M66,455.9H221.93c-5,2.23-6.51,6.31-6,11.39.35,3.15-.19,4.61-4.07,4.6q-67.92-.24-135.84,0c-3.87,0-4.43-1.44-4.08-4.59C72.55,462.21,71,458.14,66,455.9Z"/><path class="cls-7" d="M34,440c1,6.77,11.06,15.6,20.6,15.82,2.48.06,4.95.08,7.43.12-5.25,2.32-6.54,6.69-5.94,11.86.39,3.27-.76,4.36-4,4.08-6.42-.55-13,.9-19.3-1.1C20.81,467,13,453,16,441.36c.54-2.06,1.86-1.53,3-1.53C24,439.82,29,439.91,34,440Z"/><path class="cls-8" d="M226,455.9l44.53-.06c-4.08,10.43-12,15.89-23.2,16h-5.47c-3,0-6.51.95-8.79-.33-2.7-1.51-.69-5.39-1.14-8.21C231.34,459.59,229,457.48,226,455.9Z"/><path class="cls-9" d="M157.46,325.43l3.53,5.44a1.41,1.41,0,0,1,.06,1.55c-9.06,8.17-20,9.71-31.34,7.76-16.23-2.81-27.35-12.32-32.76-28.1-.76-2.23-1.42-4.48-.06-6.74,8.71-6.14,18.34-10.73,27.36-16.34,2.64-1.63,3.07.64,3.91,2.09,5.68,9.78,11.3,19.59,17,29.36C148.53,326.27,150.9,327.2,157.46,325.43Z"/><path class="cls-10" d="M160.88,331.63c0-.26.08-.51.11-.76,39.26-20.76,82.18-32.26,123.08-48.87,1.39-.57,2.87-.89,3.86-2.14,7.29,10.55,7.28,10.52-4.25,14.83q-57,21.3-114,42.64c-1.52.56-2.95,1.59-4.72,1.28C161.66,337.44,160.79,334.82,160.88,331.63Z"/><path class="cls-4" d="M163.15,398.78c-.41.27-.8.74-1.23.77-28,2.36-53.78-2.59-74.7-23.14A13.36,13.36,0,0,1,86,374.82a3.8,3.8,0,0,1,.84-.53c4.53-1.33,8.17-5.3,12.51-5.88s7.15,4.64,11.38,6.21c10.84,4,21,2.58,30.45-3.59,3.39-2.21,5-2,7,1.79C152.92,381.64,158.15,390.15,163.15,398.78Z"/><path class="cls-11" d="M160.88,331.63l4.12,7c-10.94,6.31-21.86,12.67-32.84,18.93-10.18,5.8-18.58,3.53-24.47-6.56-4.87-8.33-9.78-16.63-14.49-25.05-4.24-7.57-2.86-14.64,3.69-20.59,3.91,17.31,13.91,28.91,31.59,32.83a38.1,38.1,0,0,0,27.54-4C157.62,333.28,159.26,332.47,160.88,331.63Z"/><path class="cls-12" d="M176.92,359.78c4.06,6.86,8.25,13.64,12.13,20.6,2.36,4.24,1.09,8.7-2.6,10.9-4,2.36-8.6,1.3-11.18-3.06-4.32-7.28-8.34-14.74-12.48-22.12C164.59,360.81,171.4,357.77,176.92,359.78Z"/><path class="cls-13" d="M81.06,359.05c-4.43.05-7-1.54-8.37-4.75s-.6-6.13,1.74-8.66a9.51,9.51,0,0,1,1.15-.95c6.77-5.16,7-5.12,11.14,2.11a5.33,5.33,0,0,1,.47.88c.82,2.37,4.45,4.7,2.57,6.78C87.49,357,84,359,81.06,359.05Z"/><path class="cls-14" d="M176.92,359.78c-5.49.37-10,3-14.13,6.32-3.5-3.49-3.51-6.28,1.56-8.16a17.13,17.13,0,0,0,2.58-1.42C173.42,352.81,173.42,352.81,176.92,359.78Z"/><path class="cls-4" d="M463.72,119.9c-14.44-.39-28.94,1.25-43.31-1.07-4.47-.72-9.35-1-12.67-4.91-1.78-1.44-1.72-3.52-1.75-5.49-.09-5.32-.15-10.64.05-16,.15-4,2.15-6.11,6.15-6.4,1.81-.13,3.65-.1,5.36-.95,2.45-1.22,4-3,3.76-5.87-.22-2.61-1.8-4.18-4.35-4.81a20.51,20.51,0,0,0-2.44-.45c-7.18-.88-8.3-1.82-8.51-7.14-.26-6.79,2.64-11.24,8.34-12.38,4.6-.93,9.29-.36,13.94-.48,2.19-.05,4.34-.12,6.23-1.38a5.47,5.47,0,0,0,2.77-5.46c-.3-2.34-1.51-4.28-4-4.5-9.89-.89-20-2.61-29.11,3.1-6.7,4.19-9.79,10.66-10.27,18.4-.55,8.67-.5,8.67-9,9.87-4.49.64-6.77,2.64-6.57,6,.24,4.21,3.21,5.4,6.79,5.87,7.9,1,8.71,1.79,8.61,9.62-.05,3.49,1.25,7.4-2.09,10.28C375.94,92.54,367.9,75.64,367.91,55q0-15.42,0-30.84c29.24-.05,58.49-.14,87.73-.1,5,0,8.14,3.11,8.14,8.14C463.86,61.42,463.77,90.66,463.72,119.9Z"/><path class="cls-10" d="M404,359.77c-2.49,1.9.52,1.8.93,2a60.93,60.93,0,0,0,25.4,6c11.11.26,22.23.06,33.35.06.86,12.9.3,16.35-15.06,16.12-28.95-.43-57.91-.11-86.87-.13-7.27,0-9.86-2.6-9.86-9.87q0-45.43,0-90.86c0-9.08,2.1-11.22,11-11.21,1.66,0,3.32.11,5,.16,0,11.62-.18,23.24.06,34.85a58.67,58.67,0,0,0,6.63,25.26,3.13,3.13,0,0,0,.63.69l.75-1.12c2.49.18,2.5,2.35,3,4,3.23,10.85,10.23,17.86,21.09,21.09C401.68,357.26,403.85,357.28,404,359.77Z"/><path class="cls-2" d="M32,96.12C52.34,96.06,72.66,96,93,95.9c2.41,0,3.09.71,3.08,3.09q-.19,46.47-.21,92.92c-6.63,3.31-13.27,3.09-19.93.12-1-1.68-.06-3.15.52-4.68,2.08-5.44-.11-9-6.08-9.35s-12.23-.08-18.34-.14c-2.63,0-5.3.16-7.84-.83-4.88-3.24-7.49-8.15-9.59-13.37-.89-2.22-1.17-4.57,1.76-5.77,10.45,0,20.91.1,31.36,0,6.33,0,9.86-2.3,9.75-6.12S74,146,67.91,146c-7.64-.07-15.28,0-22.92,0-3,0-6,.22-8.68,1.73-1.3.71-2.75,1.25-4.28.47-2-1.7-2-4.06-2-6.39-.06-13.07,0-26.15,0-39.23C30,100.15,30,97.81,32,96.12Z"/><path class="cls-10" d="M32,96.12c0,15.37,0,30.73,0,46.1,0,1.92-.59,4,1,5.69a67.66,67.66,0,0,1,3,11c-1.52,4.77,2.35,7.68,4,11.29,1,2,2.65,3.7,4,5.53-1.21,2.21-3.7,2-5.58,2.9-2.28,1.12-3.9,2.76-3.83,5.32.07,2.78,1.87,4.47,4.44,5.41a15.48,15.48,0,0,0,5.41.55c8.8,0,17.59.08,26.39,0,1.79,0,3.68-.49,5.19,1,6.5,2.21,13.21.41,19.8,1,0,5.13,1.83,11.66-.64,15-2.35,3.17-9.31.93-14.23,1-20.14.11-40.28-.07-60.42.14-3.77,0-4.63-.94-4.61-4.65q.24-51.42,0-102.85c0-3.72.84-5,4.62-4.62S28.2,96.06,32,96.12Z"/><path class="cls-9" d="M162,31.21c14.8-13.78,32.2-18.27,51.64-13.36C234.35,23.08,248,36.47,253.75,57c5.56,19.85,1.09,37.81-13.09,53.08-5.38,4.25-11.76,4-18,3.85a62.27,62.27,0,0,1-26.85-6.41c-2.21-1.1-4.53-2.17-5.37-4.83,0-3.43,2.8-4.28,5.09-5.44,11-5.57,22-11.06,33-16.57,1.49-.75,3-1.44,4.43-2.3,6.1-3.71,6.19-9.3-.05-12.72-8.76-4.81-17.82-9.05-26.76-13.51-5.66-2.83-11.22-5.89-17-8.4-7.65-3.32-11.15-1.13-11.28,7.12-.16,10.83,0,21.65-.08,32.48,0,2.42.43,5.08-1.89,6.93-2.56.13-3.88-1.72-5.11-3.44-10.07-14.08-14.27-29.71-12.2-46.94A15.66,15.66,0,0,1,162,31.21Z"/><path class="cls-11" d="M162,31.21c-4.84,21-1,40.18,12.37,57.26a14.21,14.21,0,0,0,1.45,1.34c1.92,1.1,1.72,3.07,2,4.83.93,6.14,2.86,7.63,9,6.87,1.3-.16,2.63-.65,3.79.41,8.46,6.63,18.47,8.89,28.8,9.9A61.89,61.89,0,0,0,240.66,110c-14.26,15.16-31.88,20.76-52,16.63-20.39-4.19-34.43-16.71-41.51-36.33C139.59,69.42,146.1,44.38,162,31.21Z"/><path class="cls-1" d="M404,359.77c-8.76-1.94-16.39-5.69-21.89-13.15-3.32-4.49-4.71-9.69-6.16-14.9-.24-19.18,9.49-31.91,26.87-35.19,16.25-3.06,32.88,8.24,36.1,24.54,3.46,17.56-7.26,34.41-24,37.82A42.84,42.84,0,0,1,404,359.77Z"/><path class="cls-1" d="M391.71,105.82c.06-4.83,0-9.66.23-14.47.12-2.56-.62-3.7-3.32-3.43a21.46,21.46,0,0,1-5.49-.09c-4.29-.72-6.86-3.33-7.13-7.73-.26-4,3-7.43,7.32-8.08,2.75-.41,6.49,1.28,8-.9,1.36-1.94.45-5.43.62-8.24a24,24,0,0,1,22.88-22.82c5.48-.27,11-.19,16.48,0,5.09.14,8.52,3.5,8.52,7.94s-3.45,7.78-8.53,8c-4.82.17-9.66,0-14.49.07-7.18.15-12.12,8.63-8.8,15,.6,1.16,1.6,1,2.55,1,1.83,0,3.67-.09,5.49.08,4.65.42,7.93,3.93,7.79,8.16-.14,4.08-3.31,7.19-7.77,7.74-2.59.32-6.2-1.27-7.53.78s-.58,5.43-.63,8.23c-.1,5.66-.12,11.32-.17,17-1.87,4.16-4.79,6.88-9.61,5.71s-6.4-4.73-6.25-9.38C391.93,108.78,391.77,107.3,391.71,105.82Z"/><path class="cls-1" d="M76,190.91c-7.7,2-15.54.62-23.3,1-3.65.17-7.32.08-11,0-5.78-.1-9.59-3.24-9.68-7.88s3.65-7.82,9.45-8.1c.83,0,1.66-.11,2.49-.17,8.6.06,17.19.16,25.79.15,4.08,0,7.5.94,9.36,5C81.13,185.24,78.87,188.15,76,190.91Z"/><path class="cls-1" d="M36,158.93c-3.48-3-4.85-6.57-3-11a11,11,0,0,1,9.16-4c9.3.14,18.61,0,27.91.06,6.07,0,10,3.36,9.87,8.15s-4,7.77-9.74,7.81c-9.46.06-18.93.07-28.39,0A38.19,38.19,0,0,1,36,158.93Z"/><path class="cls-1" d="M64,127.92c-2.49,0-5,.13-7.48,0-4.9-.3-8.53-3.87-8.44-8.1A8.26,8.26,0,0,1,56.29,112c5.15-.21,10.32-.22,15.47,0A8.26,8.26,0,0,1,80,119.83c.07,4.07-3.37,7.67-8,8C69.33,128.09,66.66,127.91,64,127.92Z"/><path class="cls-1" d="M190.58,101.92c-1.37.51-2.73,1.06-4.12,1.51a7.84,7.84,0,0,1-10.39-6.73c-.28-2.27-.18-4.59-.26-6.89q.09-19.71.17-39.42c.05-9.27,5.35-12.56,13.73-8.42,14.59,7.22,29.11,14.59,43.71,21.79,3.5,1.73,6.36,3.91,6.41,8.08.06,4.44-3,6.63-6.64,8.45C219,87.43,204.78,94.7,190.58,101.92Z"/><path class="cls-3" d="M423,323.7c2,7.22-.72,14.21-7,17.91a16,16,0,0,1-21.92-21.94c3.68-6.24,10.67-8.95,17.92-7,.09,1.58-.87,2.79-1.47,4.12-1.2,2.65-1,5.17,1.05,7.27s4.62,2.26,7.27,1.07C420.24,324.57,421.44,323.6,423,323.7Z"/><path class="cls-15" d="M423,323.7c-4.13,4.77-9.16,5.48-12.82,1.83s-2.92-8.7,1.85-12.82C418.06,314,421.64,317.77,423,323.7Z"/><path class="cls-16" d="M214.1,71.94l-21.76,11V61.05Z"/></g></g></svg>