<svg xmlns="http://www.w3.org/2000/svg" viewBox="0 0 511.82 480.03"><defs><style>.cls-1{fill:#c5d3dd;}.cls-2{fill:#abc1d1;}.cls-3{fill:#fcb443;}.cls-4{fill:#a0adbb;}.cls-5{fill:#8d9cac;}.cls-6{fill:#f89945;}.cls-7{fill:#f8bb60;}.cls-8{fill:#f7bb60;}.cls-9{fill:#73a8da;}.cls-10{fill:#374a5e;}.cls-11{fill:#f9ce6a;}.cls-12{fill:#5792cd;}.cls-13{fill:#ee6262;}.cls-14{fill:#e84444;}.cls-15{fill:#f5f6f6;}.cls-16{fill:#e0e1e0;}</style></defs><g id="Layer_2" data-name="Layer 2"><g id="Layer_1-2" data-name="Layer 1"><path class="cls-1" d="M0,413.83c2.27-4.23,6.14-4.42,10.26-4.17,2.15.12,4.32,0,6.48,0a8,8,0,0,1,5.48-1.91c9.59.09,19.19-.34,28.78.25a64.77,64.77,0,0,1,7-.29q64.62,0,129.24,0c3,0,6-.43,8.87.78,2.31,1.17,3,3.43,3.7,5.66,1.53,4.76,2.75,9.62,3.81,14.48,3.44,15.73,12.91,20.5,25.84,21,17.64.62,35.33.69,53,0,14.2-.56,22.85-6,25.89-21.4.91-4.56,2.16-9.07,3.41-13.56.68-2.42,1.44-4.83,3.94-6.11,2.21-1,4.57-.78,6.88-.79,36.06,0,72.12-.19,108.18.1,9.95.08,19.91.52,29.87.38,8.09-.91,16.13.25,24.19.52,3.78,2.06,5.13,5.38,5.11,9.54,0,9.49.39,19-.12,28.46-.6,10.94-5.83,19.68-14.71,26-4.81,3.42-7.83,1.79-8.16-4.13a91.23,91.23,0,0,0-.93-10.42c-2-11.73-10.65-20.06-22.42-20.25-22.8-.35-45.62-.39-68.43,0-13.29.24-23.25,11.79-22.23,23.39a68.79,68.79,0,0,1-.08,11.48c-.28,3.5-2.06,5.51-5.8,5.4-1.5,0-3,0-4.49,0H136.18c-1.49,0-3,0-4.49,0-3.53,0-5.15-1.7-5.21-5.19-.06-4,.41-8-1.1-11.85a15.92,15.92,0,0,0-1.27-3.2c-1.2-2-3-3.18-5.33-2.8a5.46,5.46,0,0,0-4.67,5.1c-.53,3.94-.14,7.92-.31,11.87-.1,2.46,0,5-2.43,6.67a33.75,33.75,0,0,1-18-.13C91,477,91.12,474.47,91,472c-.14-3.62.11-7.26-.18-10.89-.27-3.43-2.15-5.73-5.63-5.69s-5.08,2.59-5.19,6c-.12,3.63,0,7.26-.11,10.89-.09,2.3-.1,4.68-2.17,6.33a33,33,0,0,1-18.25.18c-2.39-1.63-2.32-4.21-2.43-6.68-.16-3.47.14-7-.21-10.43s-2-6.05-5.78-6.33c-3-.21-4.9,2.46-5.07,6.67-.13,3.48.06,7-.14,10.44-.13,2.17-.44,4.31-2.28,5.84-11.53,3.34-21.89.45-31.28-6.39A28.63,28.63,0,0,1,0,449.81Z"/><path class="cls-2" d="M511.82,449.81c-2.65,8.32-6.3,16-13.7,21.25-5.81,4.15-12.16,6.72-19.35,6.72q-174.6,0-349.2,0c-.83,0-1.66-.09-2.49-.14-3.15-4.54-3.11-13.63.07-17.87,1.66,3.84.85,7.89.71,11.8-.16,4.27,1.46,5.31,5.49,5.3,41.28-.13,82.56-.08,123.84-.08,29.29,0,58.58-.09,87.88.1,4.62,0,6.3-1.32,5.86-5.92-.34-3.46.29-7-.13-10.47-1.44-11.55,10.52-24.75,24.66-24.71,22.14.06,44.27,0,66.41,0,16,0,26.34,10.66,26.93,27.64.08,2.33.07,4.66,0,7-.07,3.13,1.33,3.53,3.63,1.93,8.92-6.21,14.7-14.54,15.28-25.54.52-10,0-20,.2-30,.06-3-1.56-4.94-3.1-7.06,1.48-1.82,3.68-1.8,5.5-1.39,5.2,1.16,10.51.48,15.71,1.28,2.8-.6,3.76,2.25,5.79,3.1Z"/><path class="cls-3" d="M119,128.07c.15-2,.41-3.95.42-5.92q0-50.43,0-100.84C119.44,6.17,125.51.06,140.5.06c35.11,0,70.23.08,105.34-.06,6.76,0,12.2,2,16.89,7,6.89,7.23,14.13,14.11,21.14,21.22a19.23,19.23,0,0,0,12.18,6.11c7.93.54,15.87.13,23.81.22,9.12.11,14,3.46,15.89,12.45,1.55,7.17,2.92,14.61-.87,21.69-2.14,1.23-4.5.79-6.78.83-10.05.19-20.11-.29-30.15.3-6.69.58-11.89-2.53-16.45-6.94-6.82-6.59-13.5-13.32-20.14-20.1a21.67,21.67,0,0,0-16.51-6.79c-23.79.14-47.59,0-71.39.09-10.61.06-15.79,4.46-18,14.84-1.3,3.87-1.18,7.87-1,11.84.36,10.75-1,21.55.85,32.26a37,37,0,0,1,0,15.19,30.84,30.84,0,0,0-.83,6.4c.05,24.05-.16,48.1.12,72.14.12,8-3.65,13.42-11.3,16.16a48.71,48.71,0,0,1-5.74,1.59c-10.19.19-17.32-5.31-19.61-16-2.07-9.61-.85-19.43-.72-29.16-.63-9.45-.22-18.9-.24-28.35A6.15,6.15,0,0,1,119,128.07Z"/><path class="cls-4" d="M119,128.07v33.86c-1.9,2.08-4.42,2.07-6.94,2.08-12.32,0-24.68.51-37-.12-16-.82-22.28,6.64-22.2,21.92.38,71.61.18,143.23.13,214.84,0,3.07.82,6.43-2,8.93l-34.3.12c.1-2.16.28-4.32.28-6.47q0-119.57,0-239.14c0-16.88,9.16-29.78,24.26-34.44A34.52,34.52,0,0,1,51.59,128Z"/><path class="cls-5" d="M393,128q33.74,0,67.47,0a34,34,0,0,1,34.37,34.49q0,123.19,0,246.38c-7.43,1.08-14.91.26-22.36.45-2.36.06-3.06-1.74-3.42-3.6a39.68,39.68,0,0,1-.26-7.47q0-117.59,0-235.17c0-12.43-5.15-22.1-16-28.54a23.44,23.44,0,0,0-12.29-3.5q-20,.09-39.95,0c-2.47,0-5,.33-7.21-1.34A1.21,1.21,0,0,1,393,128Z"/><path class="cls-4" d="M393,128.94c15.15,0,30.33.67,45.44-.18,12.47-.71,26.05,9.14,30.25,21.09A36.08,36.08,0,0,1,470.9,162q-.12,119.85-.06,239.71c0,7.09,0,7.09,7,7.1h17c3.67,1.09,7.56-.45,11.21.89l-21.21.11-24-.18a6.22,6.22,0,0,1-1.17-1.53c-1.37-2.85-.82-5.89-.82-8.85q-.06-108,0-216c0-5.47-.58-10.57-4.85-14.65-2.39-2.28-5.1-4.09-8.27-4.22-7.28-.28-14.56-1.14-21.86-.31-8.26-.08-16.52,0-24.78-.05-2.32,0-4.65,0-6.56-1.67a3.47,3.47,0,0,1-1-1.68c-1.15-9.77-.86-19.56-.17-29.35A3.22,3.22,0,0,1,393,128.94Z"/><path class="cls-6" d="M154,109.92V95c2.31-2.42,5.33-1.48,8-1.49q99.45-.07,198.9,0c8.49,0,16.95-1,25.45-.58,2.14.09,4.37-.25,6.24,1.23a115.8,115.8,0,0,1,0,16.66c-7.12,2.56-14.47,1-21.72,1-2.79,0-5.63-.33-8.46-.33q-100.2,0-200.4,0C159.3,111.42,156.28,112.37,154,109.92Z"/><path class="cls-7" d="M154,109.92q115.89,0,231.76.09c2.31,0,4.68-.35,6.86.79L393,128a1.47,1.47,0,0,0,0,1q0,16.53,0,33.05c1.71,1.64,1.94,3.76,1.94,6,0,8.48.14,17,0,25.44-.19,9.07-4.61,13.4-13.59,13.56-4.16.08-8.32,0-12.47,0-2.18,0-4.36-.06-6-1.83-.19-.65-.34-1.46.1-1.92,4.81-5.06,3.91-11.39,3.91-17.49q0-32.73,0-65.46c0-6.69-.48-7.19-7-7.2q-98.44,0-196.88,0c-6.33,0-6.81.5-6.83,6.87-.05,21,0,42-.07,62.95,0,2.65.71,5.83-3,7.05q0-37.63,0-75.28C153,113,152.65,111.28,154,109.92Z"/><path class="cls-8" d="M392.6,94.14c-2.19,1.15-4.56.81-6.87.81L154,95a4.16,4.16,0,0,1-1-3.2V53.22a4.44,4.44,0,0,1,.93-3.24c2.37,1.77,2.07,4.39,2.09,6.85.07,9.16,0,18.32,0,27.48,0,7.34.27,7.6,7.59,7.6q88.44,0,176.89,0c6.82,0,13.65.08,20.48,0,5.08-.09,6.11-1.33,5.73-6.39-.69-8.94-6.32-14.35-15.3-14.41-15.83-.11-31.65,0-47.47-.09-2.64,0-5.84.74-7-3l38-.08a5.87,5.87,0,0,1,3.94-1.9q8-.32,16,0A5.5,5.5,0,0,1,358.74,68c5,0,9.91,0,14.87.08,11.77.07,19,7.31,19.13,19.15C392.77,89.52,392.65,91.83,392.6,94.14Z"/><path class="cls-6" d="M358.74,68H334.92c-.5-6.91.83-13.88-1-20.74-2.13-8.09-7.33-12-15.73-12.27-7.39-.21-14.83.93-22.17-.68,15.25-.08,30.5-.35,45.74-.18,9.8.11,16.44,7.7,16.78,18.48C358.73,57.71,358.69,62.85,358.74,68Z"/><path class="cls-9" d="M362.93,204.72c6.32.07,12.63.19,18.95.19,7.56,0,10.79-3.28,10.86-11,.1-10.63.15-21.27.22-31.91l31,.06c10.63,2.3,14.91,7.79,14.92,19.51q.09,107.4,0,214.79c0,10.41,0,10.29,10.33,10.48,3.86.07,8.07-1.28,11.46,1.9a7.32,7.32,0,0,1,.09.93q-35.48,0-71,.09-37.47,0-75,0c-5.44,2.18-11.25.33-16.78,1.55a28.56,28.56,0,0,1-5.45.57q-37,0-73.93,0a17.19,17.19,0,0,1-5-.5c-5.52-1.36-11.37.62-16.81-1.61q-69.7,0-139.42,0c-2.16,0-4.33-.11-6.49-.17q0-115.15,0-230.3c0-10,7.46-17.25,17.52-17.3,16.82-.08,33.64,0,50.46,0,.11,8.1.13,16.19.36,24.28.33,11.59,7.54,18.66,18.69,18.52,20.11-3.56,40.39-1.35,60.59-1.82,12.62-.3,25.24-.08,37.86,0,2.31,0,4.67-.27,6.89.63,2,1,2.42,2.23.24,3.54a15.56,15.56,0,0,1-4.74,1.47c-35.22,7.9-60,33.83-65.36,69.66-6.92,46.17,24.94,86.05,66.84,93.73,2,.35,3.95.58,5.91,1,23.21,2.94,44-3.41,61.91-17.87,16.81-13.55,27.29-31.22,30.27-52.93,6.1-44.5-22-81.67-59.59-92.24-3.05-.86-6.19-1.37-9.22-2.27-1.34-.4-3.75-.47-2.38-3.15,1.94-1.7,4.32-1.54,6.63-1.54q41.3-.06,82.59,0C358.78,202.88,361.18,202.7,362.93,204.72Z"/><path class="cls-2" d="M197,409.78a30.57,30.57,0,0,1,16,0,10.84,10.84,0,0,1,3.31,6c.92,3.7,1.77,7.43,2.84,11.1,1.28,4.33,4.21,6.81,8.72,6.85q28.17.25,56.33,0c4.51,0,7.49-2.54,8.58-6.95.87-3.55,1.71-7.1,2.55-10.66.58-2.47,1.46-4.77,3.65-6.32a30.57,30.57,0,0,1,16,0c-2,7.89-3.91,15.79-5.92,23.67-2.34,9.14-10.32,15.94-19.71,17.41-11.1,1.73-22.24.86-33.35.85-10.94,0-21.91.87-32.84-.82-10-1.54-17.8-8.19-20.29-18C200.79,425.21,198.88,417.49,197,409.78Z"/><path class="cls-10" d="M93.1,477.67l-15.46-.06c0-5.45,0-10.91.1-16.36.13-4.91,3.13-8.17,7.36-8.29,4.41-.13,7.73,3.3,7.86,8.36C93.1,466.77,93.06,472.22,93.1,477.67Z"/><path class="cls-10" d="M127.15,459.79q0,8.94-.07,17.87l-15.35,0c0-5.12.18-10.25,0-15.37-.13-4.77,1.59-8.32,6.45-9.1S126,455.18,127.15,459.79Z"/><path class="cls-10" d="M59.08,477.69,43,477.74c1.12-4.75.38-9.57.51-14.35.18-6.78,3-10.6,7.88-10.44s7.51,3.83,7.56,10.31Q59,470.48,59.08,477.69Z"/><path class="cls-1" d="M409.4,476.81c-12.8,0-25.61-.12-38.41.07-3.83.06-5.53-1-5.18-5.06.31-3.46-.1-7,.13-10.46.42-6.34,3.95-9.55,10.24-9.56h66.35c6.59,0,10.16,3.46,10.3,10,.07,3.49-.16,7,.06,10.47s-1.08,4.67-4.58,4.63C435.34,476.72,422.37,476.81,409.4,476.81Z"/><path class="cls-11" d="M245.08,204.94q-49.29,0-98.59-.05c-2.82,0-5.63-.11-8.45-.16,8.13-1.76,14.3-5.5,15-14.8,1.46-1.73.91-3.82.91-5.76,0-22.47.14-44.94-.08-67.4,0-4.6,1.31-5.91,5.91-5.9q101.61.21,203.22,0c5,0,6,1.73,6,6.33q-.3,37.94,0,75.88c.05,5.27-1.65,9-6,11.66q-44.91.08-89.84.17c-2.09,0-4.32-.65-6.27.77-2.12,2.36-4.91,1.37-7.35,1.17-3.74-.31-7.46-.39-11.2-.41A3.38,3.38,0,0,1,245.08,204.94Z"/><path class="cls-11" d="M296.9,68c1.73,1.47,3.81.91,5.76.92,16.64,0,33.29.37,49.92-.08,11.05-.3,18.16,10.73,16.15,23.17-.23,1.41-1.28,1.84-2.55,1.89s-2.66,0-4,0H160.47c-6.52,0-6.52,0-6.53-6.57q0-18.72-.05-37.44c.92-9.61,7.16-15.78,17.18-15.86,25.81-.23,51.63-.13,77.44,0A17.45,17.45,0,0,1,261,39.57q11.29,11.31,22.62,22.6C287.28,65.79,291.52,68.24,296.9,68Z"/><path class="cls-12" d="M460.7,408.73c-6.66,0-13.32,0-20,.13-2.73.05-4.07-.93-3.88-3.77.09-1.32,0-2.66,0-4,0-72.61-.13-145.23.15-217.84,0-10.35-3.78-17.16-13-21.22,6.16,0,12.32-.08,18.48-.06,11.35,0,18.37,7.06,18.37,18.46q0,105.66,0,211.31C460.81,397.41,460.74,403.07,460.7,408.73Z"/><path class="cls-13" d="M245.08,204.94l3,.16a72.09,72.09,0,0,1,28.4,10.06c24.11,15,38.49,36.32,42,64.54,3.46,27.52-5.36,51.25-24,71.26-10.4,11.15-23.55,18.33-38.15,22.79-3.39,1-7,0-10.36.9-40.45-5.53-71.38-36.77-75-75.75-4.19-45.34,25.81-84.67,70.89-92.91C243,205.78,244.27,206.05,245.08,204.94Z"/><path class="cls-14" d="M246,374.65c13.71-3.17,26.69-8,37.89-16.79,19.52-15.32,30.88-35.22,33-60.06,2.8-32.35-9.89-57.86-35.3-77.27a74.87,74.87,0,0,0-26.87-12.71c-2.27-.59-5.13-.14-6.64-2.72,6.26-.31,12.51-.6,18.73.56,33.16,2.82,64.28,30.55,72,64.16,11.39,49.54-20.21,96.64-70.46,104.75C261,375.76,253.46,376.16,246,374.65Z"/><path class="cls-1" d="M298.9,409.78c-1.37,5.82-2.75,11.64-4.1,17.47-1.28,5.52-4.81,8.52-10.66,8.54-18.82.07-37.65,0-56.47,0-5.27,0-9-2.45-10.38-7.61-1.63-6.09-2.93-12.27-4.37-18.42Z"/><path class="cls-15" d="M312.83,170c-4-1-5.62-4-5.75-7.7-.19-5.64-.2-11.29,0-16.92s3.07-8.48,8.73-8.64c3.64-.11,7.29.06,10.94.1,5.85-.36,8.6,1.28,9.59,6.8a59,59,0,0,1,0,19.8c-.84,5.12-3.42,7-8.68,7C322.73,170.34,317.76,171,312.83,170Z"/><path class="cls-16" d="M312.83,170l13-.06c5.83,0,8.62-2.34,9-8.18a120.11,120.11,0,0,0,0-16.43c-.35-4.65-2.61-8.24-8-8.48,8.06-1.45,16.18-.92,24.24-.37,5,.33,7.48,4.08,7.68,8.93.22,5.46.24,11,0,16.42-.25,5.31-3.38,8.91-8.17,9-11.94.18-23.89,0-35.83-.09A5.4,5.4,0,0,1,312.83,170Z"/><path class="cls-15" d="M204.73,76c-5.32,0-10.64.06-16,0s-8.7-3-8.8-7.49,3.28-7.68,8.5-7.72q16.22-.15,32.44,0c5.39.06,8.69,3.16,8.57,7.65S226,75.92,220.7,76,210.06,76,204.73,76Z"/><path class="cls-16" d="M243.91,239.88c7.83-1.91,15.8-1.37,23.6-.37,3.85.49,5.5,4.29,5.47,8.45-.08,12.31,0,24.63,0,36.94,0,6.35.84,7.14,7.21,7.18,2.83,0,5.68-.18,8.49.08,4.92.46,6.72,4.18,3.65,8-10.73,13.14-21.62,26.16-32.51,39.16-2.35,2.81-5.23,3.08-7.63.17-2.84-3.45-6.18-6.52-8.32-10.53.17-3.11,2.42-5,4.2-7.18,5.63-6.79,11.3-13.55,16.91-20.37,1.13-1.37,2.73-2.88,1.93-4.83-.85-2.1-3.08-1.59-4.85-1.68-13.64-.67-15-2.11-15.05-15.7,0-8-.12-16,0-24C247.15,249.8,247,244.56,243.91,239.88Z"/><path class="cls-15" d="M243.91,239.88c4.25,1.11,5,4.41,5,8.12,0,12,0,24,0,35.93,0,7,1.88,8.88,8.82,8.94,2.49,0,5-.14,7.48.06,4.37.36,6,3.32,3.29,6.81-5.76,7.48-11.8,14.75-18,21.89-2.15,2.48-3.53,5.72-6.68,7.29q-12-14.3-24.07-28.6c-1.21-1.44-2.25-2.94-1.41-5s2.67-2.81,4.82-2.81c3.16,0,6.32-.07,9.48,0,4.39.07,6.28-2,6.23-6.41-.12-12.47,0-24.95,0-37.42C238.85,244.74,239.89,241.48,243.91,239.88Z"/></g></g></svg>