<svg xmlns="http://www.w3.org/2000/svg" viewBox="0 0 511.8 511.8"><defs><style>.cls-1{fill:#ffcb2a;}.cls-2{fill:#ee3532;}.cls-3{fill:#f79656;}.cls-4{fill:#f57f2e;}.cls-5{fill:#c5dcef;}.cls-6{fill:#ecb320;}.cls-7{fill:#e4eff8;}.cls-8{fill:#f15858;}.cls-9{fill:#c5daec;}.cls-10{fill:#3788c8;}.cls-11{fill:#e3eef5;}.cls-12{fill:#559bd4;}.cls-13{fill:#e5edf6;}.cls-14{fill:#ffcb2b;}</style></defs><g id="Layer_2" data-name="Layer 2"><g id="Layer_1-2" data-name="Layer 1"><path class="cls-1" d="M0,437.83V191.92c2.88-1.22,4.74.88,6.65,2.26,13.4,9.69,27.18,18.86,40.16,29.14a9.18,9.18,0,0,0,2.17,1.2c31.86,23.25,64.24,46,94.49,71.17,31.89,26.58,66.88,48.69,99.48,74.13,3.75,2.92,6.51,2.67,10.14,0q46.87-34,94-67.72c31.34-22.55,62.61-45.2,94-67.65a54.17,54.17,0,0,1,5.64-4.11c8.83-7.41,17.55-15,26.51-22.21,2.69-2.18,5-5.57,9.28-4.82,2.73,1.92,2.22,4.56,1.6,7.21a286.75,286.75,0,0,1-17.82,53.38,267.89,267.89,0,0,1-41.94,65.82c-18.21,20.93-39.22,38.7-62.33,54.08-29,19.29-60.23,33.87-93,45.5C232.62,442.28,195.16,451.09,157,457c-16.24,2.53-32.5,4.55-48.95,5.54-9.86.59-19.88.88-29.6,3.28-16.11.35-32.23.61-48.31,0A31.94,31.94,0,0,1,3.77,451.06C1.09,447,1.15,442.27,0,437.83Z"/><path class="cls-2" d="M438.83,511.8c-3.27-4.25-7.86-7-11.86-10.4-1.18-1-2.51-.65-3.79-.44s-2.22.6-3.34.87c-13.61,3.25-13.61,3.25-17.91-10.95,1.17-3.05,4.13-3.78,6.66-4.83a137.51,137.51,0,0,0,33.75-20c20.69-16.66,34.12-37.8,38.53-64.34.6-3.6-.28-7.82,3.14-10.67,4.34-.84,8.49-.86,11.73,2.85,2.66,1.09,2.4,3.49,2,5.45-2.3,10.43,1.68,17.54,11.09,22,1,.47,1.73,1.52,3,1.5v2c-1.47,4.39-2.05,9.08-4.63,13.07a3.49,3.49,0,0,0,.08,3.81c2.45,4.06,3.1,8.72,4.55,13.11v2a20.09,20.09,0,0,1-7.31,7.28,8.81,8.81,0,0,0-4.64,8.63c.48,14.88-.23,14.15-13.59,16.68-4,.75-5.91,2.6-7.48,6.14-5.22,11.7-5.67,11.86-18.06,8.7-3.79-1-7.25-1.28-10.15,1.8-2.71,2.88-6.23,4.29-9.74,5.75Z"/><path class="cls-3" d="M205.6,31.86q19-14.28,37.92-28.57c1.25-.94,3-1.44,3.38-3.29h2c5.28,5.72,12.11,9.47,18.15,14.21,7.66,6,15.5,11.78,23.26,17.65-1.25,2.35-3.54,2.28-5.67,2.29q-36.69.26-73.36,0C209.15,34.14,206.85,34.2,205.6,31.86Z"/><path class="cls-4" d="M0,182.93l1.81-.28c3,0,5.3,1.76,7.6,3.41Q25,197.3,40.7,208.38A59.89,59.89,0,0,1,49,215.49a4.05,4.05,0,0,1,.43,1.59c.18,3.09,2,6.48-1.6,8.87L0,191.92Z"/><path class="cls-5" d="M47.84,226l.27-10c2.41-1.1,4.16.4,5.88,1.64q53.6,38.57,107.16,77.16c3.42,2.46,6.74,4.82,11.13,4.95,2.35,1,3.44,3.07,4.34,5.23,1,2.31,2.23,4.49,3.12,6.81,2.46,6.44,6.68,11,13.33,13.17,3.61,2.43,7.46,1.05,11,.23,13.44-3.13,20.39-15.47,16.06-28.57-2.28-6.92-5.58-13.47-8.89-20-2.56-5-4.69-10.25-7.07-15.36-.91-1.94-1.79-4-.13-6.08,3.8-2.43,8.06-1.38,12.09-1.29,4.67.09,6.92-1.71,7.83-6.25,1.06-5.34,2.57-10.6,3.9-15.88.64-2.57,1.26-5.16,3.35-7.05a6,6,0,0,1,5.28-.56c23.38,6.42,46.77,12.85,68.33,24.37,2.54,1.36,5.59,2.59,5.35,6.4-2.37,2.24-4.69.7-6.91-.24A390,390,0,0,0,249,236.47c-6.44-1.68-6.44-1.63-8.06,4.77-1.38,5.47-2.72,11-4.13,16.42-1.44,5.64-3.43,7-9.07,7.37-3.26.2-7.78-1.54-9.47,1s2.05,5.8,3.1,8.87c1.3,3.78,3.37,7.23,5,10.88,1.39,3.19,3.42,4,6.74,3.11a301.35,301.35,0,0,0,42.92-14.51,316.11,316.11,0,0,0,30.39-15,7.77,7.77,0,0,1,5.23-1.26,5.67,5.67,0,0,1,3.49,3.21c2.4,4.71,6.38,7.23,11.39,8.36A26.45,26.45,0,0,0,342,268c5.59-2.54,7.53-7.56,7.69-13.46.23-8.29-.47-16.59.45-24.87,2.62-5.29,8.44-7.8,11.24-12.94a14.27,14.27,0,0,1,4.11-3.55A53.59,53.59,0,0,0,386,187.66c1.06-2.59,1.74-5.38,3.65-7.58,5.06-6.47,8-14.09,11.53-21.36,12-24.91,19.14-51.31,23.16-78.58,2-13.48,2.69-27.08,3.3-40.67.12-2.61-.45-5.43,2.15-7.32,9.26-2.21,18.31,7.53,18.19,16.78-.43,33.11-.11,66.23-.07,99.35a14.56,14.56,0,0,1,2.13,8.54c-.24,20.73.55,41.47-.43,62.19a7.91,7.91,0,0,0,.4,2.45,17.18,17.18,0,0,1-2.06,10.3q-32.69,23.69-65.37,47.35-65.1,47-130.19,93.91c-3.45,2.5-5.52,2.47-8.86,0-29.42-21.49-60-41.51-88.2-64.53-25-20.43-51.09-39.31-76.51-59.11C68.62,241.44,58.18,233.76,47.84,226Z"/><path class="cls-6" d="M495.74,393.85l-11.94-1.69c-3.23,2.21-5.29.3-7.09-2.12-1.91-2.57-2.8-5.67-4.08-8.55s-3.19-4.14-6.33-3c-1.09.41-2.31.36-3.39.83-6.51,2.83-11.87.88-16.85-3.69-5.67-5.2-6.21-5.53-11.43-.48-5.85,5.66-11.9,6.21-19.2,3.88-5.89-1.88-6.49-1.69-8.64,4-2.9,7.74-7.81,12.07-16.16,12.36-4.39.15-6.21,2.56-5.67,6.85,0,.33,0,.68,0,1,1.23,7.93-2.31,13.25-8.81,17.44-5.12,3.31-5.41,4-2.11,9.23,4.35,6.93,4.38,13.29-.24,19.89-2.62,3.74-1.89,6.69,2.08,9.08,1.59,1,3.48,2.18,2.6,4.71-1.33,0-2.66.15-4,.15l-292.07,0c-1.16,0-2.32-.11-3.48-.17,5.45-1.86,11.2-1.18,16.76-1.58a729.07,729.07,0,0,0,94.59-13.3c42.63-8.86,84.05-21.46,123.49-40.28,29-13.83,56-30.67,80.28-51.65a267.77,267.77,0,0,0,62-77.34,292.17,292.17,0,0,0,26-69.93c.47-2,1.22-3.86-.23-5.71.93-5.22,8.91-11.66,13.76-11.09.05,13,.15,25.94.15,38.91Q495.79,312.77,495.74,393.85Z"/><path class="cls-4" d="M495.65,192.78c-5.11,3-9.24,7.31-13.76,11.09L448,231.76c0-3.28,0-6.56,0-9.84,1.86-5.85,7.22-8.42,11.41-12.07,8.75-7.62,17.83-14.86,26.65-22.41a31.7,31.7,0,0,1,7.8-5.25C497.33,185.21,495.35,189.19,495.65,192.78Z"/><path class="cls-7" d="M172.11,300.85c-3.94,1.36-6.8-.44-9.94-2.72Q105.23,256.9,48.11,215.9l-.29.07a15.34,15.34,0,0,1-2.11-8.52q0-25.32,0-50.64a14.9,14.9,0,0,1,2.13-8.53L48,50.44C48,38.22,54.18,32,66.33,32l139.27-.13h84.71L423.85,32c2,0,4,.11,6,.16.08,33.32-4.3,66-14.57,97.75a223.8,223.8,0,0,1-22.58,49.36,23.86,23.86,0,0,1-2.22,2.62c-1.84-1.75-1.43-3.86-1.15-6,2.18-17.05-2.77-31.91-14-44.74-2.15-2.45-3.73-5.62-7.18-6.72-4.35-2.56-8.91-4.72-13.39-7a9.24,9.24,0,0,1-4.39-3.76c-1.36-6.88-.43-13.85-.66-20.78-.14-4.13.12-8.28-.11-12.41-.48-8.57-5.68-13.85-14.19-14.11-2.93-.09-5.86-1.44-8.8-.17-8.31,1.22-11.51,7.25-13.56,14.38-2.38,2.32-4.22,5.29-7.64,6.35-16.14,10-34.21,15.18-52.17,20.5A414.83,414.83,0,0,1,195,120.5c-1.16.17-2.31.15-3.47.22-5,0-10,2.47-15.1.53a3.22,3.22,0,0,1-1.88-1.48c-2.05-4.8-6.09-6-10.76-6-5.42.78-10.93-.21-16.33.69-14.88,2.48-25.4,10.52-31,24.68-.72,1.84-1.26,3.78-2.67,5.26-1.94,1.41-4.32,1.66-6.51,2.35C90,152.2,84.9,169.23,96.41,183.37c4.61,4.85,11.08,5.66,16.94,7.79,3.78,5.2,5.21,11.66,9,16.84,7.41,7.84,16.31,12.75,27.13,14a4.94,4.94,0,0,1,3.38,1.89c1.6,2.57,1.2,5.45,1.22,8.23.16,24.49.12,24.5,10.75,46.44,2.46,5.07,4.52,10.31,7,15.35C173,296.08,174.05,298.47,172.11,300.85Z"/><path class="cls-3" d="M493.82,182.19c-1.68,4.75-6.3,6.66-9.7,9.6C472.25,202.05,460,211.91,448,221.92q0-36.82,0-73.64,19.88,14.82,39.77,29.63C489.7,179.4,491.78,180.77,493.82,182.19Z"/><path class="cls-8" d="M378.49,463.66a5.18,5.18,0,0,0-.67-.73c-9.49-7.41-9.8-7.59-3.89-17.77,2.65-4.57,1.49-7.84-.67-11.81-5.18-9.5-5.26-9.87,3.65-15.88,4.74-3.19,6.76-6.8,5.89-12.34-.34-2.12.06-4.34-.2-6.47-.37-3,1.13-4.6,3.81-4.56,11.35.19,17.51-5.85,20.27-16.26.64-2.41,2.1-3.22,4.45-2.15.15.07.34,0,.49.11,10.19,4.76,18.77,2.65,25.86-6,1.59-1.94,3.32-1.95,5,0,7.29,8.59,16,10.8,26.35,5.94,2.31-1.09,3.65-.17,4.57,2.12,1.31,3.23,3.08,6.28,4.26,9.55,1.11,3,3,4.65,6.17,4.75a95.89,95.89,0,0,1-23,58.89C445,469.82,425,482.75,401.93,490.87c-1.12-3.41-4.32-3.18-6.92-3.8-4-1-9.32-.2-11.71-3s-.55-8-.4-12.07C383,468.16,382.48,465.11,378.49,463.66Z"/><path class="cls-3" d="M47.86,148.28q0,33.84,0,67.69Q25.44,200.08,3.06,184.18a7.26,7.26,0,0,1-1.25-1.53Z"/><path class="cls-9" d="M464,455.81a7.81,7.81,0,0,1,7.84,7.88,8,8,0,0,1-7.78,8.05,8.22,8.22,0,0,1-8.16-8.24A7.94,7.94,0,0,1,464,455.81Z"/><path class="cls-10" d="M304.92,85.08l6.81-4.91c2,1,2.15,2.8,2.27,4.66.15,2.16.14,4.33.14,6.5q0,76.95,0,153.91c0,3.28.61,6.68-1,9.81-1.1,1.26-2.15,1.47-3.07-.2-4.41-4.5-10.17-6.76-15.74-9.21-20.06-8.85-41-15.13-62.26-20.26-2.7,1.7-5.45.86-8.2.17-8-1.86-16.17-3.08-24.17-5-5.41-.22-10.71-1.31-16.09-1.81a11.25,11.25,0,0,1-8.71-2.92c-1.36-2.11-1.09-4.5-1.1-6.8q-.12-40.71,0-81.42c0-2.69-.74-5.82,2.36-7.65l15.81-1c2.64,2.09,2.15,5.07,2.15,7.85q.06,34.71,0,69.43c0,1.33,0,2.66,0,4,0,3.85,2,3.39,4.59,2.31,8.91-3.75,17.53-8.1,26-12.66,18.77-10.06,35.72-22.56,50-38.46,15.16-16.91,25.23-36.23,27-59.25C301.91,89.23,303.52,87.29,304.92,85.08Z"/><path class="cls-8" d="M311.73,255.79c0-21.29.14-42.57.14-63.86q0-55.87-.14-111.76c.75-8.39,5-13.9,13.31-16,9.68,2.83,13,7,13,17.17q.17,86.57,0,173.12c0,10.19-3.33,14.33-13,17.16-7-1.5-11-6.22-13.17-12.74A2.11,2.11,0,0,1,311.73,255.79Z"/><path class="cls-8" d="M176,215.83l7.92,1.2a5.71,5.71,0,0,1,2.1,4.84,54.5,54.5,0,0,1,0,8c-1.59,12.46,2.34,23.52,8,34.31A262.88,262.88,0,0,1,207.84,294c3.69,9.88,2.19,19.25-4.92,27.46-2.9,3.35-6.35,5.26-10.83,5.14-6.28-1.73-10.52-5.76-13.22-11.6-2.2-4.75-4.5-9.46-6.76-14.18-6-13.47-12-27-18.06-40.39a22.66,22.66,0,0,1-2.16-10c.12-8.8,0-17.61-.06-26.41,1-2,2.79-2.09,4.62-2.19,2.8-.14,5.6-.14,8.4-.09,3.68.06,6.85-.78,8.84-4.22A3.25,3.25,0,0,1,176,215.83Z"/><path class="cls-2" d="M325,271.66c8.62-4.69,11.06-12,11-21.61q-.51-82.11,0-164.23c.06-9.63-2.36-16.92-11-21.61,3.8-.08,7.61-.27,11.41-.21a15.62,15.62,0,0,1,15.39,15.55c.13,11.6.11,23.2.16,34.79,2.35,2.61,2.12,5.84,2.1,9-.15,24.43.41,48.88-.31,73.31.63,8.31.29,16.62.1,24.94.44,2.7-.84,5-1.86,7.28-.06,9-.09,17.93-.18,26.89-.08,9.27-6.73,16-15.88,16.12C332.32,271.91,328.67,271.74,325,271.66Z"/><path class="cls-7" d="M311.73,255.79c0,1,.09,2.09.13,3.13-18.9,10.57-38.36,19.92-59.05,26.46-7.13,2.26-14.38,4.11-21.55,6.24-2.8.82-4.56.36-5.88-2.61-3.37-7.59-7-15.08-10.71-22.51-1.59-3.19-.32-3.71,2.54-3.63,3.66.11,7.33-.13,11,.07s5.42-1,6.21-4.72c1.5-7.15,3.76-14.14,5.18-21.31.82-4.11,2.62-4.53,6.22-3.6,20.95,5.43,41.57,11.78,61.34,20.7a21.22,21.22,0,0,0,2.85.84Z"/><path class="cls-2" d="M192.09,326.63c8.62-4.22,14.29-10.59,15.3-20.52.59-5.85-1.14-11.14-3.54-16.28Q195,270.89,185.93,252a18.61,18.61,0,0,1-2-8.59c.12-8.8.05-17.61.05-26.41,5.48-.48,10.75.68,16,1.95,2,1.48,2.09,3.62,2.16,5.81.17,5.3,0,10.6-.22,15.88.34,3.41.63,6.81,2.1,10a5.72,5.72,0,0,1,.2,5.22q8,17.28,16,34.57c2.76,5.95,4.36,12,2.83,18.72A23.77,23.77,0,0,1,192.09,326.63Z"/><path class="cls-6" d="M352,221.81V196.92a32.13,32.13,0,0,1,5.33-7.13c15.42-14.14,21-38.19,11.46-60-2.06-4.7-2-4.73.16-7,16.76,11.33,26.31,34.5,22.31,54.09-.34,1.63-.55,3.28-.81,4.92a59,59,0,0,1-27.65,35.59C359.58,219.86,357.1,224.12,352,221.81Z"/><path class="cls-6" d="M204.19,255.9c-2.28-4.43-5.23-8.67-4.09-14.09a10.42,10.42,0,0,1,5-5.89c6.62-3.63,11.63-9.75,19-12.28l8,1.74c-2.33,8.91-4.9,17.77-6.87,26.76-.71,3.29-2.13,3.9-5,3.81C214.8,255.78,209.49,255.9,204.19,255.9Z"/><path class="cls-11" d="M352,221.81l10.81-4.34c-2.71,4.62-6.93,7.83-10.77,11.4Q352,225.33,352,221.81Z"/><path class="cls-12" d="M304.92,85.08c-1.47,7.82-1.54,15.82-3.68,23.59-4.69,17.06-13.51,31.69-25.27,44.71-21.81,24.13-49.36,39.62-78.79,52.25-5.18,2.22-5.25,2.08-5.25-3.78q0-41.44,0-82.89a505.92,505.92,0,0,0,58.23-13C268.93,100.39,287.64,94.59,304.92,85.08Z"/><path class="cls-8" d="M121,209c-4.36-4.91-6.63-10.84-8.28-17.08a7.38,7.38,0,0,1-2.9-6.45c.15-7.57-.63-15.16.55-22.7.4-2.51-.24-4.91-.82-7.31.64-4-.86-8.49,3.16-11.51,6.29-21.61,20.18-32,42.84-32,2.82,0,5.65.1,8.47.15,3.15,2.78,2.74,6.86,2.83,10.24.64,24.46-3.36,47.73-19.41,67.4a80.41,80.41,0,0,1-21.19,18A9.5,9.5,0,0,1,121,209Z"/><path class="cls-2" d="M121,209c.7-1.71,2.38-2.2,3.79-3.05,25-14.95,36.67-37.67,39.38-66.06.89-9.35.08-18.52-.15-27.78,8.45-.41,10.65,1,12.13,7.84q0,47.94-.08,95.88c-1.41,6.28-3.47,8-9.82,8.07-4.79.06-9.58.07-14.37.1C139.26,223.7,128.86,218.91,121,209Z"/><path class="cls-1" d="M369,122.87c-1,1.87.5,3.15,1.17,4.55a56,56,0,0,1-15.88,68.49,10.35,10.35,0,0,1-2.24,1V114.34A50.89,50.89,0,0,1,369,122.87Z"/><path class="cls-12" d="M112.66,144l-.87,11c-.63,10.51-6.26,18.69-12.38,26.66a9.72,9.72,0,0,1-4.4,3.12c-7.28-7.8-9.22-16.8-4.85-26.52C94.42,148.78,102.21,144.07,112.66,144Z"/><path class="cls-10" d="M95,184.76c3.46-5.24,7.19-10.34,10.3-15.78,2.54-4.45,4.35-9.32,6.48-14,.06,8.88,0,17.76.2,26.65.05,3.43.44,6.86.68,10.29A22.25,22.25,0,0,1,95,184.76Z"/><path class="cls-7" d="M416.53,471.93a8.08,8.08,0,0,1-7.84-4.33,7.2,7.2,0,0,1,.34-8,17.84,17.84,0,0,1,2.3-2.62q22.74-22.77,45.49-45.56c2.64-2.65,5.49-4.38,9.31-3.43,5.95,1.49,7.85,8.84,3.18,13.59-15.76,16-31.7,31.83-47.59,47.7C420.17,470.83,418.37,472,416.53,471.93Z"/><path class="cls-13" d="M415.91,423.75a8.17,8.17,0,0,1-8-7.9,7.93,7.93,0,0,1,8.25-8,7.82,7.82,0,0,1,7.68,8.06A8,8,0,0,1,415.91,423.75Z"/><path class="cls-14" d="M224,223.64c-4.37,5.56-10.53,8.89-16.13,12.91-2.55,1.83-5.2,3.51-7.8,5.26L200,219C208.19,219.43,216.12,221.47,224,223.64Z"/></g></g></svg>