<svg xmlns="http://www.w3.org/2000/svg" viewBox="0 0 511.83 489.05"><defs><style>.cls-1{fill:#f8f7f9;}.cls-2{fill:#84aedc;}.cls-3{fill:#dfdbee;}.cls-4{fill:#578fcb;}.cls-5{fill:#f16570;}.cls-6{fill:#7b6e7a;}.cls-7{fill:#fee178;}.cls-8{fill:#fdc167;}.cls-9{fill:#a6ce39;}.cls-10{fill:#f04b58;}.cls-11{fill:#bdd96e;}</style></defs><g id="Layer_2" data-name="Layer 2"><g id="Layer_1-2" data-name="Layer 1"><path class="cls-1" d="M511.83,131.66v284.9c-1.22,19.75-9.87,36.11-24,49.37-15.07,14.13-33,22.15-54.07,22.08-24.63-.09-49.25,0-73.87-.06-2.71,0-5.77.74-7.8-2.08-1-2.38-.83-4.91-.83-7.39q0-63.14,0-126.28c0-1.17,0-2.33.06-3.5.33-5.27,1.39-6.33,6.68-6.51,8.47-.28,17,.4,25.41-.39,1.76-.42,3.61-.47,5.37-.94,8.47-2.28,14.46-7.15,16.62-16a56.65,56.65,0,0,0,.52-22.2c-1.78-11.65-9.63-17.17-20.55-19.26-8.64-.85-17.29-.19-25.93-.37-7.07-.16-8.13-1-8.14-8.12q-.11-68.63,0-137.25c0-2.15-.06-4.35,1.35-6.22,2.17-1.65,4.73-1.43,7.21-1.43q72.45,0,144.9,0C507.19,130,509.76,129.82,511.83,131.66Z"/><path class="cls-2" d="M511.83,131.66l-158.93.05c-1.78,1.57-4,1.59-6.13,1.59q-92.83.07-185.67,0c-.67,0-1.33-.1-2-.14-36,.32-71.94.07-107.9.12-4.82,0-9.66.37-14.46-.36a5.39,5.39,0,0,1-1.63-.71,5.28,5.28,0,0,1-1.43-4.11c-.32-15.52-.21-31,5.51-45.79,8.55-22,23.58-37.92,45.56-47,2.08-.85,4.24-2.23,6.6-.59,1.28,1.94,1,4.14,1,6.28.07,6.81-.24,13.63.1,20.43.7,13.8,12.34,22.48,25,18.83,10.06-3.84,13.76-11.78,14-21.87.16-7.44,0-14.89.09-22.34,0-2.25-.29-4.74,2.13-6.23,2.39-1,4.91-.8,7.4-.8q114.75,0,229.5,0c2.49,0,5-.18,7.4.71,2.7,1.52,2.27,4.21,2.31,6.62.13,8.28-.22,16.58.14,24.86.59,13.69,12.07,22.43,24.78,19.11,10.35-3.8,14.19-11.77,14.21-22.19,0-7,0-13.93,0-20.9,0-2.14-.22-4.33.86-6.33,1-1.33,2.56-1.39,4.05-1.53C463,25.76,499.87,51.32,510.17,89c1.14,4.16.59,8.54,1.66,12.72Z"/><path class="cls-3" d="M0,417.56V131.66a7.19,7.19,0,0,1,5.08-1.58q12.63-.15,25.27,0a7.09,7.09,0,0,1,4.65,1.4l0,.44c2.28,2.55,1.53,5.69,1.53,8.6q.07,76.64,0,153.27c0,35.79-.12,71.57.06,107.35.07,14.6,2.24,28.91,9.41,41.95q19.72,35.91,60.35,41.8c1.64.23,3.34.14,4.88.87.81.51,1.19,1.2.41,2a4.41,4.41,0,0,1-3.24,1.08c-14.63,0-29.34,1.28-43.8-1.86-31.48-6.84-52.1-25.89-62.54-56.22C.58,426.44,1.07,421.89,0,417.56Z"/><path class="cls-4" d="M35,131.48l-35,.18v-31c1.92-7.12,2.93-14.52,6.12-21.24C20.47,49.14,44,32.22,77.9,30.64c4.31-.2,8.64-.1,13-.14a2.68,2.68,0,0,1,0,4.15c-31.19,10.76-49,32.93-54.72,65C34.23,110.14,35.16,120.86,35,131.48Z"/><path class="cls-3" d="M352.94,486.73c-1.49,1.1-3.22.61-4.83.61q-92.21,0-184.4,0c-1.61,0-3.34.5-4.83-.61-1.44-1.83-1.56-4-1.56-6.17q-.06-20.49,0-41c0-2,0-4,1.17-5.8,2.62-2.49,5.93-1.79,9-1.79q62.92-.08,125.83,0c4.18,0,8.31-.08,12.12-2.22a22,22,0,0,0,11.67-18.1,91.47,91.47,0,0,0,0-16c-1-12.47-9.89-20.49-22.59-20.51-42.28-.06-84.55,0-126.82-.05-3.1,0-6.39.66-9.11-1.64-1.77-2.71-1.3-5.78-1.3-8.73q-.06-50.14,0-100.3c0-1.66-.1-3.33,0-5,.23-3.89-1.63-5.25-5.38-5.22-10.31.07-20.62,0-30.94,0-15.13,0-30.27.07-45.41-.07-2.43,0-5.48.77-6.7-2.65C70.46,250,72.5,250,74.48,250c27.86,0,55.73-.24,83.59.11,14,0,27.94.06,41.92,0,13.64-.07,22.17-7.94,23.28-21.53a90,90,0,0,0,0-15c-1-12.21-9.91-20.38-22.15-20.45-14.31-.09-28.62,0-42.93,0-28.63.36-57.25.12-85.87.12-1.83,0-3.68-.07-5.2-1.36.11-3.43,2.93-2.6,4.77-2.74,4.63-.36,9.29-.13,13.94-.14q32.15,0,64.28,0c7,0,7.18-.18,7.19-7.32,0-14.12,0-28.24,0-42.36,0-2.62-.36-5.37,1.61-7.6h194q0,72.38-.12,144.76c0,4.26,1.36,5.37,5.41,5.23,8-.29,16-.11,23.95-.07,1.62,0,3.37-.47,4.76.85-1.45,1.73-3.51,1.7-5.46,1.7-9.39,0-18.77.24-28.16-.09-33.27.18-66.54.08-99.82.06-9.27,0-15.89,4-20.1,12.16a17.34,17.34,0,0,0-1.86,8.18c0,4.83,0,9.65,0,14.48.07,13.06,8.78,22,21.87,22,27.12.11,54.24,0,81.36,0,6.15,0,12.31-.12,18.46.07,8.76-.32,17.51-.13,26.26-.09,1.95,0,4,0,5.46,1.72-6.69,1.91-13.52.63-20.28.77-11.75.25-11.76.07-11.76,11.78Q352.92,421,352.94,486.73Z"/><path class="cls-5" d="M432.59,433.64c-7.65,0-15.31.1-22.95,0a22.9,22.9,0,0,1-22.71-22.52c-.14-5-.13-10,0-15,.32-12.62,10-22.46,22.57-22.61q23.2-.28,46.4,0a22.39,22.39,0,0,1,22.06,22c.16,5.15.14,10.31,0,15.47-.29,13-9.94,22.5-22.94,22.67C447.56,433.72,440.07,433.64,432.59,433.64Z"/><path class="cls-2" d="M384.91,342.73l-32.13-.31c-1.77-1.92-1.51-4.33-1.52-6.63q-.08-23.21,0-46.42c0-2.3-.23-4.71,1.54-6.63l34.1-.26c13.58,2.66,20.86,11.32,20.81,25.08,0,5.3.59,10.62-.59,15.91C404.49,335.22,397,341.81,384.91,342.73Z"/><path class="cls-6" d="M438.55,164.73c-5.82,0-11.65.09-17.48,0-4.91-.09-8.17-3.19-8.21-7.52s3.24-7.56,8.09-7.6q17.24-.15,34.47,0c4.94,0,8.27,3.23,8.27,7.48s-3.27,7.53-8.15,7.64C449.88,164.83,444.22,164.73,438.55,164.73Z"/><path class="cls-1" d="M69,251.82c1.78,1.38,3.86.75,5.8.76,26.3,0,52.61.11,78.92-.06,4.12,0,5.36,1.12,5.34,5.3-.17,38.46-.12,76.91-.14,115.37a2.41,2.41,0,0,1-1.26,1.27c-2.58.94-5.26.64-7.91.64-25.8,0-51.6,0-77.4,0-15.58,0-23.76,8.18-23.81,23.63,0,3.83-.05,7.66,0,11.49.19,12.86,8.82,21.65,21.71,21.72,26.47.15,52.93,0,79.4.06,2.65,0,5.33-.28,7.93.6a2.66,2.66,0,0,1,1.32,1.22q0,26.45,0,52.89l-46.61,0a74.24,74.24,0,0,1-45.11-16.16c-18.68-14.6-29.27-33.67-31.32-57.62-1.28-14.8-.75-29.56-.77-44.33q-.23-118.33-.1-236.67a23,23,0,0,1,2.47-.28l121.5.07c0,17.62-.15,35.25.13,52.86.07,4.7-1.08,6.22-6,6.18-26.77-.24-53.54-.13-80.3-.09-1.94,0-4-.6-5.79.76-1.13,2-3.29,2.12-5.08,2.88Q48.53,200,48.36,214.49c-.06,4.65,0,9.32,0,14,.1,10.43,5.88,18.08,15.82,21.05C65.88,250,67.85,250.09,69,251.82Z"/><path class="cls-7" d="M406.84,1.68C416,5,420,12,420.51,21.31c.18,3.11.23,6.23.34,9.34-.06,9.92-.09,19.84-.2,29.76-.11,10.58-4.8,17.22-14.77,21.1a19.71,19.71,0,0,1-13.27-17.64c-.48-15.14-.55-30.31,0-45.45C393,9.46,399.38,2.5,406.84,1.68Z"/><path class="cls-7" d="M118.92,1.69C128,5.07,132.06,12,132.53,21.33c.16,3.11.25,6.22.38,9.33-.07,9.91,0,19.82-.21,29.73-.17,10.66-4.84,17.23-14.74,21.11-7.94-2.72-12.67-8.76-13.12-16.6a456.67,456.67,0,0,1,0-46.95C105.19,9.2,111.62,2.48,118.92,1.69Z"/><path class="cls-8" d="M118.92,1.69c-9.35,4.09-13.28,11.3-13,21.42.29,12.31.38,24.66,0,37-.29,8.8,3.54,14.91,10.34,19.73A15.72,15.72,0,0,1,118,81.5C105.18,86.07,91.46,76.21,91.07,62c-.24-9.12-.16-18.24-.23-27.36l0-4.15c.54-5.1-.34-10.26,1.09-15.34C95.42,2.8,110-3.17,118.92,1.69Z"/><path class="cls-8" d="M406.84,1.68c-9.34,4.09-13.33,11.28-13,21.4.3,10.48.62,21-.08,31.46-.77,11.45,2.35,20.57,12.17,27-13,4.62-26.63-5.47-26.9-20-.18-10.28-.14-20.56-.2-30.84.57-5.11-.32-10.28,1.1-15.37C383.34,2.8,397.86-3.17,406.84,1.68Z"/><path class="cls-9" d="M158.91,373.19q66.66,0,133.32,0c7.6,0,14.47,1.44,20,7.18,9.5,9.91,9.73,36,.34,46.05-5.1,5.46-11.45,7.51-18.83,7.47-21.3-.12-42.6-.05-63.91,0l-70.9,0,.1-.38c-1.8-1.86-1.67-4.24-1.68-6.55q-.07-23.36,0-46.72c0-2.31-.11-4.69,1.66-6.57Z"/><path class="cls-4" d="M352.8,282.74q0,29.83,0,59.68c-11.65.1-23.3.25-34.94.27-21,.05-42-.52-62.93.2-13.86.48-26.49-10.56-25.25-25.12.44-5.13,0-10.33.26-15.47.57-9.4,9.72-19.43,19-19.56C283.55,282.23,318.17,282.16,352.8,282.74Z"/><path class="cls-5" d="M69,251.82c-14.48-1.82-22.15-10.46-22.23-25q0-5.24,0-10.47c.08-13.83,6.59-21.84,20.23-24.89l85.54.09c2.15,0,4.3.11,6.45.17,1.73,1.9,1.59,4.28,1.6,6.58q.06,23.33,0,46.64c0,2.28.23,4.68-1.57,6.56l-82.56.19C74,251.66,71.47,251.76,69,251.82Z"/><path class="cls-10" d="M159,251.46q0-29.88,0-59.78a391.76,391.76,0,0,1,46.86.13c9.63.71,17.76,9.82,18.71,20.49.65,7.24,1,14.62-.62,21.86-2.14,9.27-10.41,17.13-19.53,17.34C189.27,251.85,174.13,251.51,159,251.46Z"/><path class="cls-6" d="M255.81,164.74c-5.49,0-11,0-16.46,0s-8.57-2.76-8.64-7.45c-.07-4.85,2.84-7.66,8.34-7.7q17-.12,33.92,0c5.21.05,8.07,2.79,8.14,7.4s-3,7.66-8.34,7.74C267.12,164.81,261.46,164.73,255.81,164.74Z"/><path class="cls-11" d="M159,373.62q0,29.92,0,59.84c-30.47,0-60.95.26-91.42,0-10.55-.08-20-9.67-20.63-20.2a166.41,166.41,0,0,1,0-19.47c.62-10.59,10-20.11,20.61-20.2C98,373.37,128.5,373.59,159,373.62Z"/><path class="cls-6" d="M79.61,164.73c-5.48,0-11,.08-16.45,0s-8.45-3-8.36-7.75c.08-4.48,3.11-7.35,8.2-7.39q17-.13,33.91,0c5.43,0,8.43,3,8.34,7.73-.09,4.5-3.1,7.33-8.18,7.42C91.25,164.81,85.43,164.73,79.61,164.73Z"/></g></g></svg>