<svg xmlns="http://www.w3.org/2000/svg" viewBox="0 0 499.87 500.18"><defs><style>.cls-1{fill:#4373b9;}.cls-2{fill:#275eac;}.cls-3{fill:#215baa;}.cls-4{fill:#235dab;}.cls-5{fill:#2b61ad;}.cls-6{fill:#2d62ae;}.cls-7{fill:#fff;}.cls-8{fill:#195297;}.cls-9{fill:#1d58a4;}.cls-10{fill:#1e59a7;}.cls-11{fill:#1d56a1;}.cls-12{fill:#1a539b;}.cls-13{fill:#1c549f;}.cls-14{fill:#195092;}.cls-15{fill:#185194;}.cls-16{fill:#195399;}.cls-17{fill:#1b5195;}.cls-18{fill:#194f90;}.cls-19{fill:#194f8f;}.cls-20{fill:#1a5092;}.cls-21{fill:#1c55a0;}.cls-22{fill:#194e8f;}</style></defs><g id="Layer_2" data-name="Layer 2"><g id="Layer_1-2" data-name="Layer 1"><path class="cls-1" d="M289.72,496.81a237.35,237.35,0,0,1-64.64,2.07c-47.57-5-90.53-21.9-128.31-51.44q-67.62-52.87-89.15-136A244.72,244.72,0,0,1,.78,230.87c3.74-48.21,19.88-91.78,49-130.26C88.08,49.87,138.53,17.86,201,5A240.86,240.86,0,0,1,274.93,1.3c47.39,5,90.21,21.78,127.87,51.19q67.88,53,89.45,136.43a224.11,224.11,0,0,1,7.38,55.1c-5.34.68-6.84-4.16-9.85-6.83-4.48-3.51-8-8-12.14-11.86-3.82-3.47-7.29-7.3-11-10.88a103.27,103.27,0,0,1-8.86-9.26c-3.1-2.3-5.52-5.29-8.16-8.06-3.26-2.54-5.91-5.71-8.88-8.56-2.84-1.33-3.56-4.75-6.21-6.27-8.05-7.79-15.8-15.88-23.85-23.67-4.76-3.09-8.28-7.47-12-11.63-4.6-5.62-10.24-10.26-14.92-15.81a160.6,160.6,0,0,1-14.91-15c-3.1-2.32-5.54-5.3-8.19-8.08-7.57-7-14.76-14.29-21.76-21.82a8.6,8.6,0,0,0-3.5-1.1c-4.2-1.3-8.61-1.09-12.88-1.33-18.06-1-36.19-3.06-54.08,1.64-27.71,7.29-44.07,25.33-50.14,53.1-2.15,9.84-2.22,19.8-2.13,29.8s.12,20,0,30c-.1,7.47-1.38,8.79-8.75,8.89-12,.16-24,0-35.95.08-6.39.05-7.17.83-7.2,7.26-.06,13.82-.08,27.64,0,41.45,0,5.78.91,6.62,6.74,6.67,12.15.11,24.3-.06,36.45.1,2.41,0,5.13-.44,6.66,2.3a1.54,1.54,0,0,1-.33,1.51c-2.12,1.65-4.64,1.59-7.14,1.6-10.49,0-21,0-31.47,0-1.62,0-3.31-.4-5.28.65,7.31,8.32,15.73,15.36,22.83,23.65A258,258,0,0,1,215,315.33a4.31,4.31,0,0,1,.95,2.27c.67,20.46.09,40.91.31,61.36.14,12.8-.42,25.6.35,38.38a9.64,9.64,0,0,0,3.21,5.26,255.44,255.44,0,0,1,18.15,18.2c4.1,3.95,8.47,7.64,12,12.16a143.92,143.92,0,0,1,11.2,10.89c4.26,4.39,8.88,8.44,13,12.94,2.88,3.89,7.24,6.34,10,10.32a34.58,34.58,0,0,1,4.86,4.66C290.2,493.28,291.64,494.86,289.72,496.81Z"/><path class="cls-2" d="M289.72,496.81c-.89-4-5.09-5.44-6.88-8.74-.83-3.16,1.83-4.43,3.49-6.08q44-43.89,87.88-87.9,57.19-57.16,114.38-114.35c1.87-1.87,3.51-4.12,6.17-4.94,2.35-.72,4.15-.46,3.14,2.78-1.38,16.32-4.36,32.3-10,47.74-3,1.65-4.46,4.79-6.79,7.11q-74.55,74.34-148.88,148.9c-2.32,2.33-5.46,3.78-7.11,6.8C313.71,492.56,301.73,494.75,289.72,496.81Z"/><path class="cls-3" d="M490.78,236.13l8.85,7.89c.05,7.44.83,14.91-.71,22.3-1.73-.52-1.68-2.34-2.58-3.56-1.85.61-2.82,2.25-4.08,3.51Q389.32,369.14,286.42,472.09c-1.76,1.76-3.47,3.59-5.41,5.18-2.55,2.09-5.24,2.85-8.19.77a115.73,115.73,0,0,1-13-13c.89-3.38,4.19-4.58,6.35-6.77,15.56-15.74,31.24-31.34,46.89-47Q398.28,326,483.53,240.84C485.58,238.79,487.21,235.91,490.78,236.13Z"/><path class="cls-4" d="M272.82,478c4.36.36,7-2.43,9.74-5.18Q388,367.4,493.42,262c1.37-1.38,2.48-3.13,5.08-4.05.15,2.93.28,5.65.42,8.37-.18,3.77.47,7.61-1,11.26-.36-2.05-1.59-1.95-2.84-1a47.21,47.21,0,0,0-4,3.73Q390.41,381,289.77,481.6c-2.23,2.23-4.61,4.31-6.93,6.47A70.37,70.37,0,0,1,272.82,478Z"/><path class="cls-5" d="M325.14,488.13c-.86-.25-1.73-.64-1-1.67a24,24,0,0,1,2.7-2.92q78.24-78.26,156.58-156.43c1-.95,1.66-4.74,4.5-1.79a152,152,0,0,1-13,32.81c-3.16,2-4.9,5.35-7.48,7.92q-51,50.64-101.62,101.62c-2.56,2.59-5.92,4.32-7.9,7.49A150.15,150.15,0,0,1,325.14,488.13Z"/><path class="cls-6" d="M462.9,380.24a236.89,236.89,0,0,1-40.18,50.38,216,216,0,0,1-39.9,30.49c-1,.58-1.86,1.32-2.78,2-2-1.78-2-2.29.2-5a118.51,118.51,0,0,1,15.09-15.85c4.71-4,8.62-8.71,12.94-13.05,15.46-15.53,30.89-31.09,46.47-46.51a13.9,13.9,0,0,1,5.7-3.87C461.43,378.54,463.29,377.71,462.9,380.24Z"/><path class="cls-5" d="M462.9,380.24c-3-.2-4.71,2.07-6.46,3.8-15,14.84-30.34,29.38-44.68,44.85-9.83,10.6-21.45,19.4-30.24,31-.72.95-2.5,1.48-1.48,3.24a96.67,96.67,0,0,1-17.19,9.72c-1.75-2.9,1.13-3.84,2.43-5.15q34.79-35,69.72-69.81c10.93-10.93,21.82-21.88,32.81-32.74,1.23-1.21,2.19-3.75,4.79-2.08A99.66,99.66,0,0,1,462.9,380.24Z"/><path class="cls-6" d="M472.6,363c-2.15.37-3.34,2.08-4.74,3.47q-50.79,50.76-101.55,101.56c-1.39,1.39-3.09,2.59-3.46,4.75l-4.9,2.34c.06-2.26,1.76-3.49,3.15-4.88q54.48-54.51,109-109c1.39-1.39,2.62-3.09,4.88-3.16C474.18,359.77,473.39,361.4,472.6,363Z"/><path class="cls-7" d="M214.93,420c-1.8-1.61-1-3.75-1-5.65q-.15-49.22-.2-98.42c-.74-1.66-1.76-3.28-1.82-5.11-.46-14.37-.77-28.74.85-43.07a3.88,3.88,0,0,1,.95-1.72c-1.12-1.94-3-1-4.47-1-14.32-.08-28.63-.17-42.95,0-3.51.05-4.46-.9-4.42-4.41q.27-25.47,0-50.95c0-3.84.88-5.12,4.91-5.05,14.15.25,28.3,0,42.45.18,3.71.05,4.82-1,4.77-4.74-.21-15-.5-30,.05-44.95.88-24.13,8.47-45.37,28.7-60.41a69.22,69.22,0,0,1,34-13.22c20.44-2.3,40.86-.93,61.2,1.71,1.27,2.07,1.39,4.38,1.43,6.73.23,14.12-.5,28.24.5,42.36.35,4.84-1.17,6.15-6.87,7.06-11.42-.24-22.9-.8-34.24.41-13.86,1.49-19.21,8.14-19.69,22.2,0,.83-.05,1.65-.1,2.48-2.08,8.63-1.53,17.42-1.6,26.17a21.56,21.56,0,0,0,2.06,10.1,9.69,9.69,0,0,0,1.27,1.13c2.77,2.08,6,1.53,9.11,1.67,13.57.66,27.11-1.14,40.67-.68,5.67.19,6.34.91,7.17,6.62a236.25,236.25,0,0,1-3.24,24.71q-1.11,13.34-3.26,26.54c-.33,2-.36,4-2.33,5.22-12.1,1.28-24.25.28-36.37.56a54.28,54.28,0,0,0-8.43.79c-3.4.63-5.24,2.35-5.79,5.82a52.83,52.83,0,0,0-.86,8.42q0,55.92,0,111.86c0,7.15,1.17,14.26.72,21.43-.35,5.65-1.68,7.08-7.24,7.33a91.91,91.91,0,0,1-13-.08c-11,.26-21.94.2-32.91.22C221.44,422.34,218,422,214.93,420Z"/><path class="cls-8" d="M328.66,264.78c1-10.33,2.1-20.66,4.12-30.86,2.44-.36,3.26-2.67,4.72-4.13q34-33.9,67.93-67.89c1.87-1.88,3.64-3.89,6.38-4.54a286.94,286.94,0,0,1,24,23.83c1.43,1.84.55,3.43-.6,4.95a31.56,31.56,0,0,1-3.07,3.26q-73.35,73.38-146.72,146.73c-1.76,1.75-3.32,3.79-5.62,4.88-2,1-3.63.82-3.4-2.11,0-22.77.11-45.52-.09-68.27,0-4.25,1.29-5.22,5.32-5.15,14.11.24,28.23.12,42.35.06C325.53,265.53,327.29,266.25,328.66,264.78Z"/><path class="cls-9" d="M328.66,264.78c-1.54,1.86-3.67,1.27-5.6,1.27-13.8.05-27.6.09-41.39,0-3.34,0-4.8,1-4.78,4.56.16,23.44.17,46.89.23,70.33,2,1.46,2,3.59,1.81,5.7a11.89,11.89,0,0,0,.36,5.24c-.13,5.3,0,10.61-.5,15.9a78.93,78.93,0,0,1-.11,16.55c1,4.37-.23,8.9.72,13.62,2.45-.78,3.63-2.67,5.09-4.12Q372.47,305.9,460.4,218c2.1-2.09,4-4.61,7.34-4.7a60.54,60.54,0,0,1,11.05,10.88c1.43,1.85.56,3.45-.59,5a35.49,35.49,0,0,1-3.42,3.63Q366.35,341.09,258,449.49c-2.46,2.47-4.55,6.13-9.13,4.58a103.9,103.9,0,0,1-12-12,5.11,5.11,0,0,1,1.57-4c6.43-6.08,11.77-13.34,19.51-18,4.65-.07,9.31-.38,13.94-.15,3.52.18,4.5-1,4.47-4.49-.16-18.62-.08-37.23-.09-55.85,0-29.76.08-59.52-.11-89.28,0-4.11,1.05-5.29,5.21-5.25C297.09,265.18,312.88,264.91,328.66,264.78Z"/><path class="cls-10" d="M248.83,454.07a19.21,19.21,0,0,0,6-4.43Q365.11,339.29,475.44,229c1.39-1.4,3.09-2.61,3.35-4.81a83.37,83.37,0,0,1,12,12c-1.33,1.49-2.58,3-4,4.45L267.53,459.88c-2.23,2.23-4.3,4.7-7.72,5.16A86.21,86.21,0,0,1,248.83,454.07Z"/><path class="cls-11" d="M467.74,213.26c-1.22,1.35-2.38,2.77-3.67,4.06Q373.41,308,282.7,398.66c-1.41,1.4-2.61,4.34-4.93,3.25-1.83-.86-.78-3.66-.82-5.58-.07-3.48.11-7,.18-10.47a21.84,21.84,0,0,1,5.46-8.21q84.66-84.55,169.29-169.14c1.94-1.94,3.53-4.61,6.9-4.35A43.43,43.43,0,0,1,467.74,213.26Z"/><path class="cls-12" d="M277.15,368l0-16.11a21.3,21.3,0,0,1,5.43-8.22Q358.51,267.86,434.39,192c2.1-2.1,4-4.6,7.35-4.67a40.64,40.64,0,0,1,9,8.87c.83,1.8,0,3.22-1.1,4.55-.95,1.16-2,2.2-3.1,3.26q-80.07,79.95-160,160a33.77,33.77,0,0,1-4,3.74C280.83,369,279,369.87,277.15,368Z"/><path class="cls-13" d="M277.15,368c2.26.11,3.63-1.37,5.06-2.8Q365.39,282,448.55,198.85c.82-.82,1.48-1.79,2.22-2.68a37,37,0,0,1,8,8c-1.32,1.48-2.58,3-4,4.44Q368,295.42,281.2,382.22c-1.29,1.28-2.72,2.43-4.07,3.64Q277.13,377,277.15,368Z"/><path class="cls-14" d="M369.79,115.25a124.76,124.76,0,0,1,15,15c1.16,3.28-1.38,4.9-3.17,6.71q-28.06,28.29-56.32,56.38c-13.31,13.25-8.67,11.13-27.66,11.27-5.15,0-10.29.12-15.44-.07-1.77-1.59-.46-3,.34-4.38a13.54,13.54,0,0,1,2.31-2.6c26.4-26.31,52.65-52.76,79.09-79C365.57,116.89,367,114.89,369.79,115.25Z"/><path class="cls-15" d="M282,203.86c8.81.07,17.63.12,26.44.21a6.54,6.54,0,0,0,4.93-2q35.42-35.53,70.85-71a4.78,4.78,0,0,0,.55-.83c5.39,4.93,11.18,9.48,15.1,15.82,1,2.51-.56,4.12-2.09,5.67Q369.68,180,341.41,208.06c-1.48,1.47-3,3.3-5.57,2,1-4.78-1.31-5.6-5.61-5.53-16,.24-31.9.12-47.84.07-1.78,0-3.66.55-5.33-.54C278.63,202.36,280.29,202.33,282,203.86Z"/><path class="cls-16" d="M441.74,187.3c-1.11,1.24-2.16,2.53-3.33,3.7q-78.78,78.81-157.58,157.59c-1.17,1.17-2.46,2.22-3.7,3.33,0-3.67,0-7.33,0-11,1.36-1.22,2.78-2.39,4.07-3.68Q356.46,262,431.72,186.69c1.61-1.62,3.7-2.94,4.08-5.5C438.54,182.49,439.53,185.49,441.74,187.3Z"/><path class="cls-17" d="M335.84,210.09c2.54-2.36,5.16-4.66,7.62-7.11q26.28-26.22,52.48-52.48c1.4-1.41,2.64-3,3.95-4.46l11.92,11.31c-.27,1.79-1.59,2.87-2.76,4q-35.79,35.81-71.64,71.53c-1,1-2.26,4.73-4.63,1C332.73,225.84,334.28,218,335.84,210.09Z"/><path class="cls-18" d="M282,203.86l-5,.22-.14-.12c-1.09-3.46-.24-7-.51-10.49.44-3.5,2.59-6.05,4.94-8.41,14.46-14.49,29-28.91,43.37-43.48,2.09-2.11,4.69-3.07,7.15-4.41,5.42.78,6.23-1.92,6.14-6.76-.31-15.71-.07-31.43-.05-47.15l1.82,1.95A23.72,23.72,0,0,1,341.11,94c-.06,10.14,0,20.28,0,31.1,5.35-5.08,10-10,14.82-14.71,1.65-1.59,3.13-3.59,5.89-3.15a36.7,36.7,0,0,1,8,8c-1.33,1.48-2.6,3-4,4.43q-39.86,39.9-79.73,79.78C284.64,200.86,283.36,202.39,282,203.86Z"/><path class="cls-18" d="M191.81,294.29l-26.94-28h48c1.48,5.29,0,9.69-3.94,13.44s-8,8-12,11.94C195.5,293.07,194,294.31,191.81,294.29Z"/><path class="cls-19" d="M361.8,107.26l-22.56,21.59c-.16,0-.33-.69-.33-1.36,0-13,0-26,0-39a13.45,13.45,0,0,1,.85-3.31A272.83,272.83,0,0,1,361.8,107.26Z"/><path class="cls-20" d="M191.81,294.29c5-6.28,10.94-11.59,16.66-17.12,3.25-3.14,5.12-6.4,4.45-10.92a6.82,6.82,0,0,0,.78-.19q0,24.94,0,49.9C205.93,309.23,198.88,301.76,191.81,294.29Z"/><path class="cls-21" d="M257.9,420.07c-.93,3.65-4.14,5.46-6.51,7.89-4.73,4.83-9.7,9.42-14.57,14.11a291.79,291.79,0,0,1-21.89-22Z"/><path class="cls-22" d="M331.86,137.17c-9.29,9.44-18.53,18.93-27.88,28.32-8.89,8.92-17.88,17.73-26.82,26.6-1.56-3.3-.72-6.8-.7-10.19,0-6.11-.61-12.25.38-18.34-1-15.77,7-25.42,22.78-26.3C310.34,136.67,321.11,137.16,331.86,137.17Z"/><path class="cls-14" d="M276.84,163.56q.15,14.26.31,28.53c-.07,3.95-.16,7.91-.24,11.87-1.52-4.67-.63-9.47-.6-14.18C276.39,181,275.51,172.27,276.84,163.56Z"/></g></g></svg>