<svg xmlns="http://www.w3.org/2000/svg" viewBox="0 0 502.03 501.99"><defs><style>.cls-1{fill:#e8eef8;}.cls-2{fill:#f9a11c;}.cls-3{fill:#3bbb99;}.cls-4{fill:#ef506b;}.cls-5{fill:#a8bbe1;}.cls-6{fill:#a8bbe0;}.cls-7{fill:#4554a4;}.cls-8{fill:#566ab2;}.cls-9{fill:#f0506b;}.cls-10{fill:#fff;}.cls-11{fill:#f9f8fc;}.cls-12{fill:#fefefe;}</style></defs><g id="Layer_2" data-name="Layer 2"><g id="Layer_1-2" data-name="Layer 1"><path class="cls-1" d="M271.06,482.7a210.57,210.57,0,0,1-40.09,0c-3-.1-4.42-1.68-4.48-4.7-.1-4.33,0-8.65-.09-13a29.92,29.92,0,0,0-.14-3c-.64-5.35-4.25-9.31-8.25-9s-7,3.81-7.29,9.29c-.25,4.32.17,8.66-.24,13-.19,2-.19,4.7-3.64,3.82a181.83,181.83,0,0,1-46.45-13.91C94.94,436.21,50.49,387.88,28.88,319.59c-33.79-106.78,15.33-223.54,114.9-275a222.77,222.77,0,0,1,51.4-19.31c.16,2.94-2.23,4.31-3.86,6.1C176.15,48,168,67.59,168.68,90c1.31,43.79,34.59,74.89,71.86,79.74,41.58,5.4,83-22.31,91.26-66.34C337,75.83,329,51.79,310.37,31.06c-1.51-1.68-3.7-3-3.49-5.75,48.27,11.88,88.47,37,120.83,74.52,28.4,32.92,46.34,71.06,52.9,114,10.09,66.12-4.95,126.41-45.83,179.51-34.51,44.85-80.12,72.85-135.3,85.29A30.48,30.48,0,0,1,296,479c-2.11,1-3.47.31-4.15-1.88-.15-.47-.21-1-.33-1.44-1.55-6.39-4.39-9.29-8.69-8.87s-6.63,3.6-7.29,10.27C275.27,480,275.05,482.79,271.06,482.7Z"/><path class="cls-2" d="M306.88,25.31c12.24,12,21.18,25.81,25.43,42.64,12.24,48.45-21.2,97.29-70.88,103.2-45.13,5.38-86.22-25.07-93.13-69.58-4.23-27.32,3.55-51.28,22.42-71.57,1.46-1.58,3-3.13,4.46-4.69C206,17,217.53,10,231.1,6.92Q270.34-2,302.45,22.12C303.91,23.21,305.4,24.25,306.88,25.31Z"/><path class="cls-2" d="M465.07,0a13.73,13.73,0,1,1-.28,27.45,13.92,13.92,0,0,1-13.7-13.63A13.92,13.92,0,0,1,465.07,0Z"/><path class="cls-3" d="M502,451.21a13.73,13.73,0,0,1-27.46,0,13.74,13.74,0,1,1,27.46,0Z"/><path class="cls-3" d="M13.62,55.35C5.7,55.31-.07,49.4,0,41.41S6,27.82,14,27.94A13.4,13.4,0,0,1,27.49,41.58,13.5,13.5,0,0,1,13.62,55.35Z"/><path class="cls-4" d="M46.19,502a13.72,13.72,0,1,1,0-27.44,13.72,13.72,0,1,1,0,27.44Z"/><path class="cls-5" d="M206.84,479.05c2.57-.48,2.2-2.5,2.21-4.29,0-4.32-.06-8.64,0-13,.1-6.36,4-10.77,9.35-10.84,4.63-.06,9.25,4.76,9.49,10.39.24,5.47.24,11,0,16.44a4.44,4.44,0,0,0,3.06,4.9C222.81,482.25,214.69,481.5,206.84,479.05Z"/><path class="cls-6" d="M271.06,482.7c2.53-.94,3.2-2.74,3.07-5.38-.2-3.87.37-7.76,3.78-10.28,6.37-4.71,14.28-.74,15,7.53.2,2.19-.22,4.51,3.08,4.4C287.89,481.46,279.49,482.2,271.06,482.7Z"/><path class="cls-7" d="M385,238.09q-22.92,37.12-45.84,74.23-17.44,28.2-35,56.33a13.35,13.35,0,0,0-2.14,7.46c.1,18.65.06,37.31.05,56,0,10.38-3.62,13.65-13.73,11.87q-39.74-7-79.43-14.28c-6.53-1.19-9-4.32-9-11.06,0-13.83-.11-27.65.05-41.47a16.46,16.46,0,0,0-2.67-9.32q-38.65-62-77.12-124.12c-1.13-1.83-2.14-3.74-3.21-5.61.26-2.56,2.4-2.42,4.11-2.73a33.11,33.11,0,0,1,6-.21H375a33.18,33.18,0,0,1,6,.21C382.65,235.67,384.79,235.53,385,238.09Z"/><path class="cls-8" d="M385,238.09c-1.45-1.64-3.41-1.05-5.17-1.05Q251,237,122.18,237c-1.76,0-3.72-.59-5.18,1-1.86-1.6-4.11-1.06-6.22-1-22.54.44-23.15,0-22.68-22.95.08-4,0-8,0-12,.06-8.2,3.25-11.42,11.55-11.43q58.7,0,117.38,0h183.3c11,0,13.57,2.51,13.58,13.42,0,3.17-.06,6.33,0,9.49.49,23.86-.16,23.86-23.18,23.45C388.8,237,386.73,236.57,385,238.09Z"/><path class="cls-9" d="M130.05,100.74c0,4.16.09,8.32,0,12.47-.06,2.16.7,3,2.87,2.87a50,50,0,0,1,6.48,0c7.44.51,11.7,7.68,7.81,14-6,9.73-12.43,19.26-19.1,28.57-3.85,5.37-11.06,5.27-14.87-.12q-9.78-13.81-18.8-28.18c-4-6.44.21-13.76,7.88-14.26,9-.58,9-.58,9-9.68,0-5.65-.11-11.31,0-17,.19-6.69,3.81-10.53,9.52-10.44S130,83.14,130,89.77C130.09,93.43,130.05,97.09,130.05,100.74Z"/><path class="cls-9" d="M390.69,100.93c0,1.17,0,2.33,0,3.49.05,3.49-1,7.62.46,10.3,1.78,3.17,6.32.87,9.62,1.37,6.74,1,10.66,8,7.05,13.83-6,9.74-12.41,19.27-19,28.62-3.83,5.4-11,5.45-14.87.06-6.66-9.32-13.06-18.84-19.1-28.58-3.87-6.26.43-13.4,7.87-13.94,9.29-.68,9.29-.68,9.29-9.88,0-5.82-.1-11.64,0-17.46.13-5.61,3.63-9.43,8.64-9.73,5.42-.32,9.39,3.06,9.87,9,.35,4.29.07,8.63.07,13Z"/><path class="cls-10" d="M260.76,60.12c-3,0-6-.09-9,0-5.92.22-9.75,3.77-9.91,9-.17,5.59,3.48,9.52,9.68,9.77A27.75,27.75,0,0,1,264.33,131c-3.3,1.78-4.39,3.62-4.27,7.25.21,6.35-3.48,10.25-9,10.3s-9-3.65-9.12-10.15c-.08-2.87-1-3.86-3.76-3.66a30.51,30.51,0,0,1-6.48-.19c-5.22-.74-8.74-4.67-8.63-9.36.13-5,4-8.88,9.45-9.07,5.66-.2,11.33,0,17-.07,6.42,0,10.37-3.3,10.62-8.71.28-5.84-3.18-9.62-10-10a27.7,27.7,0,0,1-18.74-8.12c-13.08-13-10.14-35,6-43.86,3.15-1.72,4.63-3.34,4.5-7.1-.25-6.6,3.13-10.23,8.76-10.35s9.3,3.29,9.3,9.83c0,3.56,1.41,4.27,4.45,4.07A35.08,35.08,0,0,1,271,42a9.08,9.08,0,0,1-.23,18c-3.31.27-6.65,0-10,0Z"/><path class="cls-11" d="M181.29,283.72c-2.81,0-5.62.07-8.43,0-3.19-.11-5.67-1.47-5.54-5,.11-3.13,2.34-4.58,5.4-4.59,5.79,0,11.58-.1,17.37,0,2.72.06,4.81,1.28,5,4.4.18,3.36-1.86,4.85-4.84,5.06s-5.95,0-8.93,0Z"/><path class="cls-12" d="M181.51,251c3,0,6-.07,9,0s4.62,1.73,4.55,4.75c-.07,2.79-1.68,4.31-4.42,4.34-6.32.07-12.64,0-19,0a4,4,0,0,1-4.34-4.42c0-2.83,1.66-4.65,4.71-4.68S178.35,251,181.51,251Z"/></g></g></svg>