<svg xmlns="http://www.w3.org/2000/svg" viewBox="0 0 511.83 464.26"><defs><style>.cls-1{fill:#4daf4f;}.cls-2{fill:#3e83c4;}.cls-3{fill:#488fcc;}.cls-4{fill:#fdc113;}.cls-5{fill:#fcb317;}.cls-6{fill:#44a147;}.cls-7{fill:#cea42a;}</style></defs><g id="Layer_2" data-name="Layer 2"><g id="Layer_1-2" data-name="Layer 1"><path class="cls-1" d="M57.8,462.1c-24.68-5.4-41.53-20.23-52-42.88C3.06,413.37,2.38,406.93,0,401V380c2.82-11.28,6.45-22.21,12.86-32.07a42.1,42.1,0,0,1,4.27-5.89c12.8-18.39,31.07-26.06,52.8-27.27,23.06-1.29,42.47,6.84,58.31,23.12,7.25,7.44,14,15.7,15.15,26.82-1.4,7.23-5.93,13-9.43,19.12-8.63,15.19-17.27,30.37-26.19,45.38a74.31,74.31,0,0,1-38.28,32C65.68,462.7,61.74,462.43,57.8,462.1Z"/><path class="cls-2" d="M511.83,400c-1.48,5.33-2.57,10.81-4.49,16a73.86,73.86,0,0,1-76.53,47.87c-2.69-.25-5.59-.32-8.06-1.86.76-2.24,2.74-2.64,4.67-3.24,32.64-10.13,53.2-39.61,51.12-73.59-.75-12.2-5.16-23.3-11.22-33.81q-30-52.08-60-104.2Q381.9,203,356.41,159q-25.56-44.31-51.07-88.64c-6.65-11.52-13.08-23.18-20.07-34.5C276.8,22.14,264.78,13,250,7c-2.71-1.09-7.1-.85-7.06-5.66A72.62,72.62,0,0,1,319,35.8c21.71,37.16,43.12,74.5,64.61,111.79q58,100.67,116.06,201.34A104.58,104.58,0,0,1,511.83,381Z"/><path class="cls-3" d="M242.92,1.32c1.33,2.12,3.78,2,5.74,2.67,20,7.1,33.72,21,43.93,39.3,15.48,27.73,31.64,55.09,47.5,82.62q25.53,44.33,51,88.66,21.92,38.06,43.82,76.11c12.82,22.36,26.15,44.46,38.18,67.25,14.69,27.82,8.67,61.41-13.39,83.8-10.37,10.53-22.38,17.65-37,20.27-21.32-4.26-37.18-16.3-48-34.78-16.8-28.6-33.21-57.42-49.76-86.15Q291.78,283.52,258.64,226c-.81-1.41-1.82-2.7-2.74-4-2.39-.73-3.75-2.47-4.92-4.57-4-7.2-8.25-14.25-12-21.6-5.58-7.67-9.69-16.22-14.45-24.38-11-18.93-21.78-38-32.92-56.9A81.33,81.33,0,0,1,180,74.81c-.25-9,1.28-17.81,6.19-25.68C192.48,33.8,201.84,20.91,216,11.89A71.65,71.65,0,0,1,242.92,1.32Z"/><path class="cls-4" d="M186.17,49.13c-2.41,10.18-4.52,20.33-3.51,31a76.67,76.67,0,0,0,10.05,31.41q24,41.8,48,83.66c-.08,6.82-4.86,11.56-7.91,16.94q-23.92,42.09-48.25,83.95c-12.58,21.74-25,43.54-37.63,65.28-.9,1.57-1.63,3.33-3.58,4a.91.91,0,0,1-1.18-.61c-9.68-25.53-28.12-41.26-54.65-46.48-25.76-5.07-48.25,2.45-66.94,21-1,1-1.82,2.42-3.4,2.82-.28-1.69,1-2.75,1.7-4Q101,195.37,183.24,52.74C184,51.45,184.11,49.44,186.17,49.13Z"/><path class="cls-5" d="M143,365c4-9.75,9.9-18.43,15.08-27.52,17-29.76,34.13-59.42,51.24-89.11Q224.11,222.68,239,197a12.42,12.42,0,0,1,1.65-1.84c5.29,8.8,10.73,17.51,15.23,26.76q-26,45-52.07,90-29.52,51-59,102.1a2.13,2.13,0,0,1-2.14-1.29c-.88-1.6-.46-3.24-.06-4.86a72.19,72.19,0,0,0,.09-34.57C142.06,370.55,141.62,367.74,143,365Z"/><path class="cls-6" d="M143,365a81.05,81.05,0,0,1,.92,47.94,27.51,27.51,0,0,1-.9,4.12c-10.21,21.59-25.53,37.54-49.14,44.2-11.92,3.36-23.94,4.19-36,.81,20.15-4,36-14.78,46.65-32.16,13.09-21.42,25.16-43.46,37.67-65.23A3.65,3.65,0,0,1,143,365Z"/><path class="cls-7" d="M143,417.09c-.74-1.6-.17-2.91.9-4.12l.95,1C144.21,415,143.59,416.07,143,417.09Z"/></g></g></svg>