<svg xmlns="http://www.w3.org/2000/svg" viewBox="0 0 479.94 511.84"><defs><style>.cls-1{fill:#2f3233;}.cls-2{fill:#2f3133;}.cls-3{fill:#1b1c1d;}.cls-4{fill:#1d1f20;}.cls-5{fill:#6acad6;}.cls-6{fill:#c1ced4;}.cls-7{fill:#c0ced3;}.cls-8{fill:#f15836;}.cls-9{fill:#4ba9b6;}.cls-10{fill:#bd462a;}.cls-11{fill:#24292a;}.cls-12{fill:#c0cdd3;}.cls-13{fill:#f05736;}.cls-14{fill:#fff;}.cls-15{fill:#feffff;}.cls-16{fill:#fefefe;}.cls-17{fill:#fefeff;}.cls-18{fill:#12292d;}.cls-19{fill:#010101;}.cls-20{fill:#bd4629;}.cls-21{fill:#69c5d1;}.cls-22{fill:#24282a;}</style></defs><g id="Layer_2" data-name="Layer 2"><g id="Layer_1-2" data-name="Layer 1"><path class="cls-1" d="M303.63,500.73c6.6,0,13.21.35,19.8.06,4.37-.2,6.13,1.23,5.57,5.6a43,43,0,0,0-.05,5.45H171c.24-12.08-1.66-10.92,11.2-11l14.79,0a6.72,6.72,0,0,1,5.4-2.08q47.91-.13,95.82,0C300.25,498.77,302.24,498.92,303.63,500.73Z"/><path class="cls-2" d="M261,58.94c-6.38-7-13.85-12.82-21.07-18.87-7.46-6.26-7.78-6.67-1-13.45,14.44-14.45,31.55-23.48,52-25.66,2.22-1.24,4.82.35,7-1h6c2.55,1.34,5.46-.31,8,1,5.58-.79,5.36,3,4.9,6.54-1.14,8.79-2.47,17.56-3.65,26.34-.23,1.79-.13,3.61-.18,5.42.9,1.55,1.36,3-.75,4-3-3-6.77-3.56-10.73-3.64-1.83.26-3.63.36-5.21-.83-1.61-2,.18-2.84,1.44-3.24,2.79-.9,3.15-3,3.43-5.41.54-4.44,1.33-8.85,1.8-13.3.29-2.75-.75-3.9-3.59-3.93-17.6-.2-32.61,6.44-46.11,17.18-2.79,2.22-1.17,4,.65,5.65,5,4.6,10.48,8.65,15.2,13.56a3,3,0,0,1,.3,1.39c-1.88,3.27-4.58,5.85-7.19,8.51A1.48,1.48,0,0,1,261,58.94Z"/><path class="cls-3" d="M312,1c-2.68-.25-5.53.86-8-1h8Q312,.48,312,1Z"/><path class="cls-4" d="M298,0c-2.15,1.72-4.67.76-7,1q0-.48,0-1Z"/><path class="cls-5" d="M62,250.63,26.84,286.55c-1.24-4.94-.66-8.83-.72-12.65-.11-6.31-.21-12.64,0-18.95.14-3.36-.62-4.7-4.29-4.5-5.8.33-11.64-.12-17.45.17-3.49.16-4.43-.91-4.42-4.41Q.2,180.6.12,115c1.7-1,3.56-.51,5.34-.52,19.56-.12,39.11.14,58.66-.16,2.16.65,3.46,2.43,5,3.91,12.41,11.82,28.34,12,40.95.44,1.8-1.65,3.45-3.59,6-4.17,37.34-.1,74.66,0,112,0,1.28,0,2.67-.39,3.82.59q.14,24.85.28,49.7l-.55.83A6.53,6.53,0,0,1,227,167q-13.68.15-27.36,0a8,8,0,0,1-4.7-1.33c-2.11-1.89-2-4.45-2-6.94-.08-8.82,0-17.64-.05-26.46,0-3.1-.95-5.09-4.52-5.18s-5.23,1.29-5.24,4.93c0,8.65,0,17.31,0,26,0,2.47.27,5-1.56,7.14a3.88,3.88,0,0,1-4.13.63,4.64,4.64,0,0,1-2.26-4.2c-.07-3.38-1.61-4.59-5-4.63-3.58-.05-5.22,1.27-5.3,4.87a5,5,0,0,1-2.3,4.24,8.21,8.21,0,0,1-3.84,1q-16,.19-31.94,0a11.81,11.81,0,0,1-3.4-.68,4.75,4.75,0,0,1-1.63-.83c-1.51-1.55-1.72-3.52-1.77-5.55,0-2.66.14-5.34-.08-8-.27-3.15,1.51-7.61-4.24-7.79-3.78-.12-4.5,1.1-4.52,7.55s0,12.65,0,19c0,14.65,0,29.29,0,43.94,0,1.93-.38,4.11,1.6,5.48a4.47,4.47,0,0,0,7.08-3.66c.28-6.31,0-12.64.12-19,0-2.65-.3-5.33.46-7.94a4.75,4.75,0,0,1,.79-1.36,2.41,2.41,0,0,1,1.25-.68c1.27.23,2.54.59,3.84,0a2.28,2.28,0,0,1,1.36.55,4.61,4.61,0,0,1,.89,1.34c1.24,8.74.24,17.53.59,26.28.1,2.4.15,4.71,3.42,5.05,3.72.39,5.26-.87,5.33-5.17.14-9.27,0-18.55.07-27.83,0-2.29-.22-4.68,1.56-6.58,4.14-.34,3,2.92,3.44,5.06-.55,2.81,3.29,2,3.51,4.14,1.36,8.43.35,16.92.63,25.38.1,3.11.91,5.07,4.51,5.11,3.45,0,5.33-1.09,5.32-4.84,0-6.32-.05-12.64,0-19,0-2.33-.05-4.71,1.83-6.53a3.9,3.9,0,0,1,4.33-.09c2,1.73,1.93,4.09,2,6.42.07,5.8,0,11.6,0,17.4.06,5.57.89,6.48,5,6.58,4.73.11,4.77-3,4.77-6.35,0-5.8,0-11.61,0-17.41,0-2.32-.05-4.68,1.8-6.51a3.91,3.91,0,0,1,4.38-.13c2,1.73,1.93,4.09,1.95,6.41.07,6,0,11.92.06,17.88.07,5.1,1,6,5,6.1,4.68.11,4.81-3,4.81-6.32,0-6,0-11.92,0-17.88,0-2.33.06-4.68,2.06-6.39,3.51-1.51,7.19-.65,10.79-.73,6.79-.14,13.58-.06,20.37,0,1.8,0,3.69-.28,5.21,1.1,1.29,1.56,1.09,3.44,1.09,5.25q.06,24.44,0,48.87c0,5.89-.81,6.71-6.61,6.72q-64.08.08-128.15,0c-1.65,0-3.35.08-4.81-1a3.14,3.14,0,0,1-1.1-2.15c-.16-8.38-.88-16.78.42-25.14A5.4,5.4,0,0,1,97,220.94c4,0,5.07-2.1,5-5.69-.09-6.79-.06-13.57,0-20.36,0-2-.18-4,.72-5.84a3.82,3.82,0,0,1,.91-1.2c.78-.67,2.71.13,2.46-1.93,0-3.52,0-7,0-10.5-.05-8.36-.06-8.26-8.26-8.43-3.92-.08-8,.92-11.72-1.25a4.93,4.93,0,0,1-1.87-3.93c.06-4.58-2.74-4.95-6.3-4.79-4,.17-3.72,3-3.79,5.65s.22,5.68-1.2,8.31a13.49,13.49,0,0,0-2.38,8.47c.09,20-.14,40,.64,59.92.06,1.66,0,3.33,0,5-.23,5.38-.84,6-6.11,6.06A11.91,11.91,0,0,0,62,250.63Z"/><path class="cls-2" d="M197.34,453,86,452.87c-13.17,0-16.9-3.76-16.92-17q0-12.48-.08-25l.65-.76c3.41-1.78,7.12-1.43,10.76-1.43l295.5,0a91.87,91.87,0,0,0,12-.38c13.32-1.24,26.66-.42,40-.48a5.57,5.57,0,0,1,4,1.77c-.2,10.77,1.07,21.59-.71,32.3-1.28,7.68-5.36,10.87-13.55,10.9-17.44.08-34.88,0-52.33,0q-27.66,0-55.32,0c-2.09,0-4.38-.61-6.1,1.28-1.85,1-3.88.8-5.85.8q-46.34,0-92.67,0C202.5,454.94,199.49,455.57,197.34,453Z"/><path class="cls-6" d="M429,169.88c2.69,3.32,2.71,7.32,2.72,11.26q.07,31.38,0,62.74a2.75,2.75,0,0,1-.44,2.14c-.64.76-1.15,1.61-1.81,2.35-5.2,5.69-7.35,5.75-12.91.26-3.39-3.35-6.95-6.56-9.52-10.66a6,6,0,0,1-.61-2.54c-1.3-9.28-.41-18.6-.64-27.9-.1-4.16,0-8.32-.06-12.47-.05-3.27-1.62-4.89-4.9-4.94-2,0-4-.05-6-.05q-76.83,0-153.65,0c-3.26,0-6.71.69-9.61-1.64-2.56-7.85-3.14-15.67.39-23.42l.2-.2,153.62-.08a3.17,3.17,0,0,1,2.11.68c.93.94,2,1.68,3,2.59,10.29,9.72,21.2,10.83,33.1,3.43C425.54,170.46,426.9,169,429,169.88Z"/><path class="cls-6" d="M197.34,453c9,.09,17.93.25,26.89.26,24.59,0,49.17,0,73.76,0,1.95,0,4-.51,5.77.88q-.08,23.28-.13,46.56c-10.63.09-21.25.25-31.88.25q-37.38,0-74.75-.14C197.16,484.89,196.5,468.93,197.34,453Z"/><path class="cls-7" d="M431.77,409.64,388,410c-.56-.38-1.23-.81-1.32-1.43-1-7.33-2.07-14.66.67-21.88,3.29-2.87,7.29-1.71,11-1.85,6.86-.24,7.43-.62,7.43-7.45q.06-56.7,0-113.41c0-3-.23-6,.37-9,1.18-3.22,3.22-2.86,5.39-1.13a80.15,80.15,0,0,1,8.2,8c2.33,2.47,4.37,3.25,7,.37,1.23-1.35,2.63-3.17,5-2Z"/><path class="cls-6" d="M312,43.13c.92-1.14.83-2.54,1-3.87q22.17,5.91,32,26.65c.32,2.69-1.92,3.2-3.6,4.07-4.56,2.37-9.36,4.24-14,6.41-2.93,1.36-4.16,3.19-3.8,6.58.93,8.72-2.06,16-9.1,21.37a12.59,12.59,0,0,1-6.1,3.25c-4.86.88-6.75,3.51-7.06,8.41-.26,4.15-.27,8.29-.42,12.43-.06,1.83,0,3.67-1,5.34a2.52,2.52,0,0,1-1.25,1c-35.6-1.72-57.34-40.28-40.34-71.57.79-1.45,1.7-2.83,2.55-4.24a8.14,8.14,0,0,0,1,.19c3.92.1,6.12,3.1,8.68,5.35C280.35,73,290.18,81.5,300,90a9.27,9.27,0,0,0,3.72,2.42c1.51-7.83,2.18-15.56,3.27-23.21,1-7.08,1.84-14.18,2.91-21.25C310.16,46.15,310.19,44.23,312,43.13Z"/><path class="cls-8" d="M386.86,165.84l-1.05-1.15c-8.64-17.73.34-32.16,10.94-37.69A26.89,26.89,0,0,1,429,169.05c-12.48-3.19-25.23-1.66-37.86-2.1C389.66,166.9,388.34,166.07,386.86,165.84Z"/><path class="cls-2" d="M225.84,113.9q-51.66-.09-103.31,0H116.6c.64-1.32,1-2,1.31-2.74,8.84-20.77-4.57-43.85-28-43.69C67,67.59,53.71,88.86,61.46,109.32c1.64,4.31.38,4.62-3.33,4.59-17.47-.12-34.94-.08-52.41,0-1.89,0-4-.76-5.6,1.12q30.63-.11,61.26-.24A5.72,5.72,0,0,1,65,116c5,1.52,10.28.85,15.41,1.22a58.7,58.7,0,0,1,19.48-.18c5.06-.2,10.18.63,15.12-1.14,1.83-1.63,4.08-1.11,6.18-1.11q45.63,0,91.27,0c6.48,0,13,.17,19.43.26C230.22,113,227.88,113.9,225.84,113.9Zm-118-6.4c-2.19,4.41-5.23,7.1-10.57,6.41a60,60,0,0,0-7.47,0h-6c-7.39,0-11.62-3.3-13.38-10.45-2.13-8.68,1.66-18.26,8.92-22.54,7.94-4.69,18.11-3.7,24.48,2.38C110.44,89.58,112,99.09,107.8,107.5Z"/><path class="cls-5" d="M346,66.12c4.09-1.79,8.25-3.42,12.23-5.43,2.42-1.22,3.25-.75,4.26,1.75,10,24.86,2.55,55.79-17.6,73.07-2,1.71-2.85,1.28-4.25-.45-1.11-1.36-1.74-3.25-3.63-3.91-4-.11-5.09-3.14-6.13-6.21a4.48,4.48,0,0,1,.14-1.59c1.43-3.25,4.33-5.36,6.44-8.1q14.47-18.75,8.51-41.59C345.26,71.14,343.92,68.63,346,66.12Z"/><path class="cls-9" d="M346,66.12c.29,4.52,2.57,8.51,3.15,13,2.26,17.77-3.54,32.28-16.66,44.13a3.6,3.6,0,0,0-.5.86c-1.52.56-2.64-.25-3.52-1.26-4.7-5.4-9.22-11-13.41-16.77a4.11,4.11,0,0,1-.74-3.32c6.31-6.28,9.43-13.56,6.9-22.52-.74-2.65.91-3.45,2.8-4.41,6.94-3.53,14.43-5.88,21.1-10A1.69,1.69,0,0,1,346,66.12Z"/><path class="cls-9" d="M105,188a3.84,3.84,0,0,0-.76-.08c-3-1.88-2.26-5-2.27-7.67,0-3.48-1.22-5.23-5-5.16s-4.94,1.94-4.9,5.33c.17,14.3-.44,28.61.39,42.91,0,8.48,0,17,0,25.45,0,.62,0,1.24,0,1.85A2.91,2.91,0,0,1,91.35,252a52.15,52.15,0,0,1-21.83.14A11.45,11.45,0,0,1,68,251l-6-.38c7-2.06,7-2.06,7-10.13q0-30.75,0-61.48c0-3.33-.06-6.72,3-9.07,2.48,1.71,2.1,4.36,2.12,6.8.09,12.65,0,25.29.07,37.93,0,2.66-.2,5.5,3.62,6,4.25.58,6-.82,6.07-5.55.14-14.3,0-28.61.09-42.92,0-2.58-.52-5.44,2.19-7.25,5.94,0,11.89.05,17.83-.1,3-.08,4.1,1.11,4,4.08-.15,6.27-.08,12.55-.1,18.82A1.89,1.89,0,0,1,105,188Z"/><path class="cls-2" d="M430.88,244.91l.85-1c9.78-8.29,18.23-17.94,27.42-26.83.55-.52,1.17-1.48,1-2.08-.26-1.21-1.55-1-2.5-1-2.33,0-4.66,0-7,0-5.45,0-7.15-2.48-5.69-7.85.61-2.25,2.22-2.17,3.88-2.17,9,0,18,.06,26.94,0,3,0,4.13,1.12,4.09,4.11-.12,8.65-.19,17.3,0,25.94.11,4.58-2.84,3.94-5.66,4-3.08.11-5.71.05-5.4-4.28a34.44,34.44,0,0,0-1-11.25l-35,35.47c-3.28-.73-2.77-3.44-3-5.77C429.59,249.63,430.31,247.28,430.88,244.91Z"/><path class="cls-2" d="M68,251a1.71,1.71,0,0,1,1,0c2.08,1.65,2.18,4,2.17,6.33-.12,25.05.4,50.1-.28,75.14a8.55,8.55,0,0,0,.45,2.93c.33,5.29-.92,10.57-.16,15.88,0,16.14,0,32.29,0,48.44a36.71,36.71,0,0,1-1,9.4,5.37,5.37,0,0,1-1,1.62l-.24.2c-1.39-1.76-.92-3.83-.92-5.79,0-15.48,0-31,0-46.46,0-1.57.55-3.28-.55-4.8-1.88.33-2.71,1.91-3.84,3-10.28,10.22-20.68,20.31-30.65,30.81-3.48,3.66-4.93,1.45-7.41-.76-2.83-2.54-3.07-4.17-.12-7,13-12.66,25.67-25.67,38.63-38.38a12.16,12.16,0,0,0,4-9.59C67.94,305,68,278,68,251Z"/><path class="cls-10" d="M386.86,165.84c1.55-1.37,3.44-.93,5.21-.94,8.08,0,16.17.13,24.24-.07,4.85-.12,9.14.83,12.73,4.22a5.79,5.79,0,0,1-.06.83c-12.6,11.78-28.54,9.67-37.73,1.26A21,21,0,0,1,386.86,165.84Z"/><path class="cls-11" d="M430.88,244.91c1.83,2.39.73,5.15,1,7.73.19,1.78-.43,3.7,1,5.25-.37.75-.73,1.5-1.1,2.26-2.78,1.31-4.52,3.82-6.56,5.94-1.53,1.58-2.42,1.49-3.91,0-4.3-4.34-8.76-8.54-13.16-12.79a2.81,2.81,0,0,1-2.08-2.57c.17-2.74-.5-5.48-.13-8.22.26-1.85.14-4,2.7-4.5,3.75,3.69,7.67,7.24,11.2,11.13,2.34,2.57,4,3.4,6.42.14C427.49,247.59,429.32,246.35,430.88,244.91Z"/><path class="cls-12" d="M179.1,75.05A10.71,10.71,0,1,1,157.69,75a11.12,11.12,0,0,1,10.75-10.89A11,11,0,0,1,179.1,75.05Z"/><path class="cls-13" d="M331.79,125.15l5.17,6c-10.15,9.44-22.52,12.78-36,13.08-1.73,0-2.28-.89-2.24-2.5.07-2.33,0-4.66,0-7l.15.16c1.7-1.94,4.13-2.07,6.39-2.35a53.49,53.49,0,0,0,20.61-6.91C327.69,124.6,329.66,123.23,331.79,125.15Z"/><path class="cls-11" d="M312,43.13c-2.18,17.69-4.36,35.38-6.68,54.29L261.92,59.13A10.38,10.38,0,0,1,268.83,51c2.61-1.21,4,.9,5.58,2.19C279.82,57.64,285,62.34,290.24,67c1.46,1.28,2.79,2.78,5.15,3.53,1.8-8.74,2.3-17.36,3.61-25.86.39-2.52.81-4.94,2.95-6.65,1.66,0,3.32,0,5,0C310.4,38,312.22,39.53,312,43.13Z"/><path class="cls-6" d="M302,38c-1.66,12.12-3.32,24.24-5.07,37.1L268.83,51c0-.36,0-.72,0-1.07a50.57,50.57,0,0,1,27.14-12.16Z"/><path class="cls-14" d="M195.16,190.94c0,9.27-.23,18.54-.1,27.8.05,3.28-1.05,4.31-4.27,4.22-11.76-.31-9.48,1.41-9.69-9.68-.14-7.45-.12-14.89-.17-22.34a5.45,5.45,0,0,1-1.51-3.45c-.86-6-.23-12.11-.38-18.16A5.76,5.76,0,0,1,181,165c.05-11.63.26-23.28,0-34.91-.07-4.14,1.16-5.49,5.33-5.34,10.22.39,8.55-1.07,8.66,8.84.12,10.47.1,20.95.15,31.42a6.07,6.07,0,0,1,1.89,4.38c-.05,6,.56,12.1-.4,18.12A5.76,5.76,0,0,1,195.16,190.94Z"/><path class="cls-9" d="M195.16,187.89l0-22.92H232l.12,23c1.62,1.47,1.95,3.39,2,5.45.08,17.32.14,34.64,0,52-.06,5.93-1.94,7.56-8.57,7.59-23.64.12-47.29,0-70.93.05q-26.73,0-53.45,0c-2.48,0-5,.34-7.38-.82A3.8,3.8,0,0,1,92.15,251l-.05-1.15c.24-.43.56-.51,1-.18q66.91.07,133.83.22c3.91,0,4.21-1.92,4.2-5-.09-18-.06-36-.07-53.94-1.49-1.78-3.55-1.5-5.52-1.5q-12.42,0-24.85,0C198.68,189.43,196.6,189.77,195.16,187.89Z"/><path class="cls-14" d="M122.36,187.94c-.06,10-.28,20-.1,29.95.07,3.86-1,5.26-5,5.11-9.73-.38-8.39,1-8.42-8.64-.06-22.13.12-44.27-.13-66.4-.05-4.78,1.23-6.39,6.09-6.13,8.28.45,7.32-.79,7.41,7.64q.07,7.74.13,15.48A46.13,46.13,0,0,1,122.36,187.94Z"/><path class="cls-15" d="M162.89,165c0-.82.11-1.64.12-2.46.12-7.88-1.21-7.34,7.45-7.36,6.2,0,6.2,0,6.6,9.81a5.73,5.73,0,0,1,1.92,4.37c-.15,6,.47,12.12-.37,18.16a5.51,5.51,0,0,1-1.52,3.45c-.05,9.27-.22,18.54-.09,27.8,0,3.29-1.1,4.31-4.31,4.22-11.74-.29-9.45,1.31-9.65-9.18-.16-7.61-.13-15.23-.19-22.84a5.77,5.77,0,0,1-1.44-3.47c-1-6-.36-12.08-.41-18.12A6,6,0,0,1,162.89,165Z"/><path class="cls-15" d="M86.17,165c0,17.61-.22,35.22,0,52.83,0,4.22-1.2,5.33-5.3,5.21-8.7-.27-8.69,0-8.71-8.7q0-22.18-.13-44.36c0-3.79.19-7.58.09-11.37-.06-2.58,1-3.33,3.52-3.48C85.76,154.48,85.76,154.4,86.17,165Z"/><path class="cls-9" d="M162.89,165l0,22.92c-5,3.17-10.5,1.26-15.74,1.22-1.85,0-4.3.37-6-1.34-.44-2.26.76-4.77-1.06-6.81-2.94,3.19-7.06,1.35-10.47,2.49-2,.81-2,3.31-3.62,4.44h0a2,2,0,0,1-2.89,0h0a98.71,98.71,0,0,1,0-22.92Z"/><path class="cls-16" d="M92,223.06c-2.32-.64-1.7-2.58-1.71-4.13,0-13.66.09-27.32-.09-41,0-3.65,1-5,4.78-4.92,9.12.1,9.11-.09,9.13,8.85,0,2,.11,4,.17,6-.06,9.76-.34,19.52-.09,29.27.11,4.41-1,6.52-5.7,5.82a32,32,0,0,0-5.44.1C92.7,223.54,92.35,223.51,92,223.06Z"/><path class="cls-14" d="M127.06,181l13,0c.06,12.31,0,24.62.26,36.92.09,3.87-1,5.27-5,5.11-9.81-.37-8.28,1-8.4-8.61-.12-8.81-.13-17.62-.19-26.44C126.63,185.62,126,183.26,127.06,181Z"/><path class="cls-17" d="M49.87,205.44c0,4.65-.08,9.3,0,13.95.06,2.51-.86,3.43-3.46,3.58C36,223.59,36,223.68,36,213.44c0-7.47.1-14.95-.05-22.42-.06-3,.83-4.15,4-4.08,12.11.26,9.68-1.29,9.94,9.52C49.93,199.45,49.87,202.44,49.87,205.44Z"/><path class="cls-17" d="M159,190.94c-.06,9.15-.24,18.3-.1,27.44.05,3.43-.94,4.71-4.51,4.6-11.31-.34-9.26,1.28-9.37-9.07-.1-8.31.11-16.63.18-24.94,4-1.17,8.13-.3,12.19-.48C159,188.42,160,189.14,159,190.94Z"/><path class="cls-18" d="M99.9,115c5,.45,10.2-1.16,15.13.92-13.26,17.74-37,17.79-50,.1,5.07-2,10.17-1.25,15.28-.19C86.85,116.06,93.46,117.57,99.9,115Z"/><path class="cls-15" d="M67.94,209c0,3.32-.16,6.66,0,10,.2,3.14-1.14,4-4.09,3.93-12.08-.27-9.56,1.42-9.82-9.6-.11-4.83.14-9.66-.07-14.48-.13-3.13,1.12-4,4.08-3.94,12.07.27,9.55-1.39,9.85,9.61C68,206,68,207.54,67.94,209Z"/><path class="cls-17" d="M31.32,213.91v.5c0,8.22-3.46,10.73-11.44,8.47-1.73-.49-1.91-1.6-1.92-3,0-4.15,0-8.3,0-12.45,0-2.27.85-3.15,3.18-3.37C31.11,203.14,31.32,203.27,31.32,213.91Z"/><path class="cls-5" d="M195.16,187.89q15.68,0,31.36.06c2.13,0,4.6-.42,4.49,3H195.16Z"/><path class="cls-9" d="M177.09,187.91l0-22.95H181l0,22.95A2.62,2.62,0,0,1,177.09,187.91Z"/><path class="cls-5" d="M159,190.94c-.69-2.49-2.74-1.88-4.45-1.92-3.12-.07-6.23,0-9.35-.05-1.89,1.43-4,3.6-4.06-1.2l21.73.12c0,1,0,2,0,3.05Z"/><path class="cls-5" d="M92,223.06h1v26.57a4.41,4.41,0,0,1-1,.17Q92.06,236.43,92,223.06Z"/><path class="cls-5" d="M123.07,165v22.92l-.71.05a207.43,207.43,0,0,1,0-23Z"/><path class="cls-5" d="M177.09,187.91h3.83c0,1,0,2,0,3h-3.84Z"/><path class="cls-5" d="M123.09,187.9H126c0,1.14.13,2.65-1.45,2.65S123.14,189,123.09,187.9Z"/><path class="cls-5" d="M105,188l2.89-.18c0,1.14.27,2.67-1.31,2.77S105.16,189.08,105,188Z"/><path class="cls-5" d="M127.06,181q-.18,3.48-.35,6.95l-.72-.05C126.4,185.6,125.2,183.06,127.06,181Z"/><path class="cls-19" d="M250.12,420.88H414.05c6.85,0,6.85,0,6.86,6.77,0,3.5-.1,7,0,10.5.11,3.23-1.57,4.52-4.53,4.64-1.33,0-2.66,0-4,0H87.55c-8.12,0-8.46-.35-8.47-8.44,0-2.83.22-5.68,0-8.49-.39-4,1.31-5.11,5.17-5.09,23.49.14,47,.07,70.47.07Z"/><path class="cls-20" d="M69.19,410.74l0-1.3A99.51,99.51,0,0,1,93.11,385.5c.59-.07,1.16-.11,1.75-.15a51.14,51.14,0,0,1,10-.61H374.57c10.21,0,10.22,0,10.22-10.19q0-39.72,0-79.44c0-3.5,0-7,1.35-10.31,2.28-2.05,2.84.17,3.41,1.54.71,1.7.48,3.6.48,5.42q0,43.83,0,87.66c0,2.64.27,5.38-2,7.45q0,11.53-.1,23.07c-1.25,1.16-2.82.84-4.28.83Q226.45,410.78,69.19,410.74Z"/><path class="cls-2" d="M93,250.94v60.58c4.95-3.22,8.34-7.09,11.58-10.88,3.51-4.11,5.64-3.28,9,.21,10.5,10.91,21.45,21.39,32,32.28,2.93,3,4.55,3.52,7.77.17,11.42-11.89,23.29-23.33,34.81-35.12,2.55-2.6,4.06-3,6.68-.1,4.45,4.93,9.48,9.35,14,14.23,2.7,2.91,4.6,2.73,7.33,0,16.39-16.57,33-32.94,49.33-49.55,2.93-3,4.59-3.63,7.76-.18,6.63,7.23,13.88,13.9,20.69,21,2.31,2.39,3.83,2.27,6.07-.06,6.59-6.83,13.44-13.4,20.05-20.21,2.06-2.11,3.6-2.46,5.7-.1,2.43,2.73,5.22,5.14,7.71,7.82,2,2.17,3.64,2,5.9.09,16.82-14.3,33.78-28.43,50.61-42.72,3.41-2.9,6.05-3.89,9.35.33a36.37,36.37,0,0,0,8.62,8.25c.23.36.45.72.67,1.09-2.06,4.11.78,8.89-1.76,12.94-3.28.79-4.72-1.89-6.54-3.63-6.26-6-6.23-6.06-13-.45-14.86,12.34-29.63,24.79-44.44,37.19-6,5-8.33,5.05-14.1-.35-6-5.59-5.08-6.58-12,.35-4.58,4.6-9.15,9.22-13.79,13.77-5.34,5.25-6.87,5.23-12.32-.15C284.8,291.82,278.83,286,273.1,280c-2.72-2.85-4.61-2.68-7.32.06C250.93,295.09,235.92,310,221,325c-1.17,1.18-2.32,2.39-3.57,3.49-3.9,3.39-6.07,3.42-10-.18s-7.79-7.75-11.71-11.61c-4.13-4.06-4.31-4.09-8.34-.08-10.5,10.45-20.95,21-31.45,31.42-5.85,5.82-7,5.81-12.94-.12q-14.52-14.46-29-29c-5-4.94-5-4.92-9.81-.15-2.61,2.57-5.08,5.29-7.85,7.69-1.33,1.16-2.73,2.68-4.81,1.22-2-2.34-1.56-5.17-1.49-7.86a20,20,0,0,0-.43-5.73c.71-18.41.1-36.82.33-55.23,0-2.77-.44-5.73,2.09-7.86l.11,0A.91.91,0,0,1,93,250.94Z"/><path class="cls-10" d="M331.79,125.15c-1.63-.16-2.84.78-4.08,1.6-8.73,5.82-18.45,8.11-28.81,8.16.31-8.23.64-16.46.94-24.68.06-1.74.08-3.31,2.54-3.21,4.5.17,8.19-2.07,11.88-4.22,6.08,7,11.16,14.75,17.68,21.35Z"/><path class="cls-21" d="M99.9,115c-6.35,4.64-13,3.46-19.6.83C86.75,113.62,93.36,115.16,99.9,115Z"/><path class="cls-6" d="M92,251q0,29.1,0,58.19c0,2,.33,4-1.16,5.64a2.35,2.35,0,0,1-.19,1.46,113.47,113.47,0,0,1-19.22,19.28,1.91,1.91,0,0,1-1.46.12c-2-1.34-.92-3.34-.93-5C69,304.13,69,277.57,69,251Z"/><path class="cls-6" d="M92.2,386.55l-23,22.89q0-29,0-58.07c1-4.67,4.47-7.63,7.67-10.76,3.44-3.37,6.71-6.91,10.29-10.13,1.24-1.1,2.71-2.34,4.43-1.61s.92,2.65.93,4c.13,17.43-.12,34.86.16,52.29A2.68,2.68,0,0,1,92.2,386.55Z"/><path class="cls-22" d="M92.2,386.55V328.92l-23,22.45c.1-5.23-1-10.53.8-15.69l20.87-20.86c2,2.22.89,4.95,1.18,7.45.21,1.89-.49,3.93,1,5.59q0,25.67,0,51.32c0,1.95-.5,4,.93,5.76.58,1.25-.45,1.48-1.21,1.88A1.24,1.24,0,0,0,92.2,386.55Z"/><path class="cls-8" d="M92.78,386.82,94,384.94c10.29-10.18,20.66-20.28,30.79-30.6,2.46-2.5,3.81-2.52,6.23,0,7.61,7.93,15.55,15.52,23.2,23.41,2,2.08,3.14,2,5.09,0,8-8.22,16.28-16.2,24.26-24.46,2.32-2.39,4.07-3.16,6.21-.11a2.32,2.32,0,0,0,.35.35c3.91,3.55,7.29,10.47,11.44,10.15s7.72-6.65,11.49-10.4c8.62-8.57,17.3-17.07,25.72-25.83,2.5-2.6,3.89-2.42,6.21.1,4.5,4.89,9.47,9.36,14,14.23,2,2.14,3.16,1.91,5.05-.09,4.45-4.72,9.23-9.13,13.69-13.84,1.81-1.9,2.87-1.82,4.75,0,7,6.71,7,6.63,14.39.47,10.32-8.66,20.76-17.2,30.92-26,2.57-2.24,3.87-1.79,5.93.39,4.8,5.08,10,9.81,14.73,14.93,2.17,2.34,3.36,2.05,5.45-.1,9.65-9.88,19.48-19.59,29.27-29.34,1.16-1.15,2.47-2.15,3.72-3.22,0,32.29-.06,64.59.07,96.88,0,3.84-1,5.18-5,5.18Q237.35,386.78,92.78,386.82Z"/><path class="cls-5" d="M306.63,219.19a14.06,14.06,0,0,1,14.5-14.39,14.54,14.54,0,0,1,14.62,14.47,15.12,15.12,0,0,1-14.7,14.6A14.62,14.62,0,0,1,306.63,219.19Z"/></g></g></svg>