<svg xmlns="http://www.w3.org/2000/svg" viewBox="0 0 511.8 511.81"><defs><style>.cls-1{fill:#b13192;}.cls-2{fill:#b42e91;}.cls-3{fill:#bf1c8d;}.cls-4{fill:#fdbf20;}.cls-5{fill:#fdb61c;}.cls-6{fill:#b82990;}.cls-7{fill:#b82a90;}.cls-8{fill:#fcb01e;}.cls-9{fill:#bb238f;}.cls-10{fill:#fdb71c;}.cls-11{fill:#fdbb1e;}.cls-12{fill:#fcb21d;}.cls-13{fill:#fcb31d;}.cls-14{fill:#aa238d;}.cls-15{fill:#ac228b;}.cls-16{fill:#eaad21;}.cls-17{fill:#c1922d;}.cls-18{fill:#c08a2c;}.cls-19{fill:#792062;}.cls-20{fill:#a4752b;}.cls-21{fill:#681e5c;}.cls-22{fill:#671d5b;}.cls-23{fill:#be892c;}.cls-24{fill:#7e5a24;}.cls-25{fill:#7d6026;}.cls-26{fill:#ed1e25;}.cls-27{fill:#c21a8d;}.cls-28{fill:#fbab1d;}.cls-29{fill:#f9a11f;}.cls-30{fill:#faa61e;}.cls-31{fill:#f8971f;}.cls-32{fill:#f99c1f;}.cls-33{fill:#c61988;}.cls-34{fill:#f79320;}.cls-35{fill:#ca1980;}.cls-36{fill:#f68a20;}.cls-37{fill:#ce1b76;}.cls-38{fill:#f15f23;}.cls-39{fill:#f05423;}.cls-40{fill:#c4198a;}.cls-41{fill:#c71985;}.cls-42{fill:#f47721;}.cls-43{fill:#f26622;}.cls-44{fill:#ef4723;}.cls-45{fill:#f78e21;}.cls-46{fill:#f36f22;}.cls-47{fill:#e91f26;}.cls-48{fill:#f68620;}.cls-49{fill:#f58320;}.cls-50{fill:#ee3924;}.cls-51{fill:#cf1b73;}.cls-52{fill:#f15a23;}.cls-53{fill:#f57e21;}.cls-54{fill:#d01b71;}.cls-55{fill:#ee2d24;}.cls-56{fill:#dd1e46;}.cls-57{fill:#cc1a7c;}.cls-58{fill:#cc1a7a;}.cls-59{fill:#f26b22;}.cls-60{fill:#d51d60;}.cls-61{fill:#ef3f24;}.cls-62{fill:#ed2624;}.cls-63{fill:#d91d54;}.cls-64{fill:#d41d63;}.cls-65{fill:#d31c69;}.cls-66{fill:#e11f40;}.cls-67{fill:#da1e50;}.cls-68{fill:#f37321;}.cls-69{fill:#c81983;}.cls-70{fill:#ca1a7e;}.cls-71{fill:#f04d23;}.cls-72{fill:#ee3424;}.cls-73{fill:#d81d57;}.cls-74{fill:#f47a21;}.cls-75{fill:#d21c6e;}.cls-76{fill:#d11c6c;}.cls-77{fill:#dc1e4a;}.cls-78{fill:#d41c67;}.cls-79{fill:#d71d5b;}.cls-80{fill:#e11f3d;}.cls-81{fill:#e21f39;}.cls-82{fill:#e7202c;}.cls-83{fill:#db1e4d;}.cls-84{fill:#e81f29;}.cls-85{fill:#d61d5d;}.cls-86{fill:#e31f35;}.cls-87{fill:#e41f31;}.cls-88{fill:#e6202f;}.cls-89{fill:#f8981f;}.cls-90{fill:#f68720;}.cls-91{fill:#e92026;}.cls-92{fill:#ef3a24;}.cls-93{fill:#d41d67;}.cls-94{fill:#a93895;}.cls-95{fill:#ac3694;}.cls-96{fill:#a53a95;}.cls-97{fill:#ffd122;}.cls-98{fill:#ffc821;}.cls-99{fill:#ffcc1e;}.cls-100{fill:#ffd422;}.cls-101{fill:#ffcf22;}.cls-102{fill:#fdc422;}.cls-103{fill:#fff;}.cls-104{fill:#f47621;}.cls-105{fill:#f68b20;}.cls-106{fill:#faa21f;}.cls-107{fill:#faa81d;}.cls-108{fill:#f58220;}.cls-109{fill:#f47b21;}.cls-110{fill:#f37221;}.cls-111{fill:#f16022;}.cls-112{fill:#ef4623;}.cls-113{fill:#ee2624;}.cls-114{fill:#d51d5f;}.cls-115{fill:#f15923;}.cls-116{fill:#f36b22;}.cls-117{fill:#fbac1d;}.cls-118{fill:#ce1b77;}.cls-119{fill:#fbaf1f;}.cls-120{fill:#c61a88;}.cls-121{fill:#bb258f;}.cls-122{fill:#fcb31f;}.cls-123{fill:#c4198b;}.cls-124{fill:#c71a85;}.cls-125{fill:#c51c8b;}.cls-126{fill:#f36e22;}.cls-127{fill:#f99d1f;}.cls-128{fill:#f04e23;}.cls-129{fill:#f05223;}.cls-130{fill:#de1e46;}.cls-131{fill:#ee3324;}.cls-132{fill:#ef4124;}.cls-133{fill:#ef4724;}.cls-134{fill:#e82029;}.cls-135{fill:#e11f41;}.cls-136{fill:#df2147;}</style></defs><g id="Layer_2" data-name="Layer 2"><g id="Layer_1-2" data-name="Layer 1"><path class="cls-1" d="M508.92,220.92l2.88,16v3c-.43.54-.64,1.28-1.42,1.5-3.87.13-5.86-2.85-8.16-5.14q-34.14-34-68.2-68.14c-2.09-2.09-4-4.48-7.22-5a5.24,5.24,0,0,1-2-3.32c-1.55-7.55-4.62-14.67-6.35-22.18.57-4.08,2.81-4,5.62-2.15a30.19,30.19,0,0,1,4.4,4.06q37.83,37.81,75.67,75.59C506,217,507.2,219.12,508.92,220.92Z"/><path class="cls-1" d="M274.89,0l16,2.86c3.38,2.19,6.06,5.15,8.87,8Q335.92,47,372.08,83.16a28.68,28.68,0,0,1,4.37,4.78c1.69,2.67,1.56,4.75-2.11,5.39a118.22,118.22,0,0,1-21-7,71,71,0,0,0-7.62-8.54Q310.91,43.07,276.2,8.24c-2.11-2.13-5.89-4-3.3-8.24Z"/><path class="cls-2" d="M272.9,0c-.29,3,1.94,4.43,3.67,6.16q36.32,36.35,72.66,72.67c1.89,1.88,3.87,3.68,4.56,6.41a3.11,3.11,0,0,1-2.59,1.33c-7-.66-14.18-.79-21-3-.31-.38-.72-1.16-.52-1.28,5.1-2.94,1.43-5-.71-7.14Q295.14,41.24,261.32,7.34C259.42,5.43,256,3.84,257.9,0h1a10.51,10.51,0,0,0,7,0h4a1.31,1.31,0,0,0,2,0Z"/><path class="cls-3" d="M511.8,275.9c-1.93,2.7-.65,6.16-2.08,9-3.68,1.25-5.49-1.64-7.5-3.63q-19.65-19.41-39.1-39c-11-11-22.16-21.93-33-33.15-1.43-3.36-.82-6.91-.65-10.35s2.17-4.3,5.12-2.59a27,27,0,0,1,5.19,4.66c24,24,48.11,48,72,72.11Z"/><path class="cls-3" d="M226.92,2.07c3.12-1.67,7,0,10-2.07h2q37.14,36.83,74,73.94a13.79,13.79,0,0,1,2.49,3.1c1.8,3.29.93,5.17-2.78,5.31-3.27.13-6.63.69-9.85-.58q-35.89-35.59-71.5-71.48C229.06,8.08,225.72,6.2,226.92,2.07Z"/><path class="cls-4" d="M234.91,511.81c-1.67-2.09-4.46-.34-6.29-1.86.82-2.74-1.47-3.85-2.91-5.29q-35.19-35.27-70.43-70.48a29.55,29.55,0,0,1-4-4.4c-1.24-1.86-2.23-3.82.06-5.71,4.6-1.08,8.71.5,12.77,2.34,4.51,5.09,9.88,9.29,14.67,14.12,20.26,20.45,40.7,40.73,61,61.15,2.39,2.4,5.53,4.56,4.8,8.75-.34.7-1.08.93-1.64,1.38Z"/><path class="cls-2" d="M427.66,163.3c.36-1.61,1.1-2.56,2.7-1.23,1.27,1.06,2.4,2.29,3.57,3.47q35.25,35.24,70.48,70.49c1.89,1.89,3.74,3.78,6.23,4.88.73-.06.78.66,1.16,1v13c-3.51.84-5-2.07-6.87-3.93Q470.82,217,436.86,183a23.56,23.56,0,0,0-4.22-3.85c-2,.27-1.37,4.05-4.21,2.6C426.48,175.65,424.61,169.58,427.66,163.3Z"/><path class="cls-4" d="M1.84,283.2c-1.51-1.84.24-4.63-1.84-6.31v-4a1.31,1.31,0,0,0,0-2v-3c2-1.78,3.7-.66,5.34.56a41,41,0,0,1,4.35,4.09c23.82,23.86,47.74,47.61,71.44,71.58,1.3,1.31,3.13,1.92,4.17,3.5,1.91,4,3.41,8.13,2.5,12.7-1.83,2.43-3.84,1.22-5.68.11a30.16,30.16,0,0,1-5.56-5q-34.71-34.7-69.43-69.38C5.7,284.65,4.58,282.35,1.84,283.2Z"/><path class="cls-5" d="M0,259.9v-11c2.25-1.92,4-.48,5.73.88a63.54,63.54,0,0,1,5,4.83c23.84,23.62,47.25,47.67,71.35,71a5.06,5.06,0,0,1,.86,1.22,7.91,7.91,0,0,1,.76,3.62c-.9,2.5,1.18,6.37-2.28,7.51-3.26,1.09-5.37-2-7.44-4.09q-36.53-36.5-73-73C.67,260.55.33,260.23,0,259.9Z"/><path class="cls-6" d="M429.73,182.14c.58-2.15-1.18-5.48,1.2-6.33,2.17-.77,3.62,2.4,5.2,4q35.65,35.52,71.23,71.15c1.4,1.4,3,2.65,4.44,4v9c-1.65,1.4-3.13.41-4.57-.39a16,16,0,0,1-3.53-2.77c-24.92-25-50.2-49.64-74.73-75A3.07,3.07,0,0,1,429.73,182.14Z"/><path class="cls-7" d="M257.9,0c.21,2.43,2.18,3.65,3.67,5.14Q296.79,40.42,332,75.68c1.57,1.58,4.75,3,4,5.2-.85,2.37-4.18.61-6.33,1.2a3.08,3.08,0,0,1-3.55.75C308,65.67,290.76,47.68,273,30.15c-7.45-7.37-14.91-14.74-22.18-22.27C249,6,246.37,4.1,248,.69c1.58-.59,3.39.4,4.91-.69Z"/><path class="cls-8" d="M277.89,510.65c-.95.51-2.45-.4-3,1.16h-6a73.82,73.82,0,0,1-9.34-8.24Q227.82,471.76,196,440c-1.76-1.77-3.71-3.4-4.83-5.68-1.31-2.69-.76-4.66,2.54-4.86,2.46-.15,5-.55,7.37.6q36.75,36.53,73.25,73.28C276.25,505.25,279.66,506.8,277.89,510.65Z"/><path class="cls-9" d="M247.9,1c1,2.54,2.92,4.39,4.81,6.28Q287.45,42,322.15,76.78c1.5,1.49,3.47,2.7,3.73,5.11-.2.27-.35.7-.61.77a47,47,0,0,1-24.62.11c-.49-.13-.62-.73-.89-1.14.61-1.88,1.86-1.37,3.12-.84,2.82.06,5.65.2,8.47.14,1.21,0,2.95.76,3.52-.88.47-1.38-.85-2.41-1.77-3.34Q303.07,66.65,293,56.6L242.22,5.81c-1.63-1.63-3.59-3.08-3.31-5.81h7C246.39.69,247.47.25,247.9,1Z"/><path class="cls-9" d="M429.91,185.93c2.41.26,3.62,2.23,5.11,3.72Q469.4,224,503.74,258.33c2.35,2.35,4.7,4.69,8.06,5.57v4a2.33,2.33,0,0,0,0,3v2c-3,.28-4.43-2-6.17-3.69q-34.47-34.44-68.92-68.9c-.94-.95-1.86-1.92-2.84-2.81-1.95-1.76-3-1.16-3,1.32,0,3.33,0,6.67,0,10l-1,.07a4.06,4.06,0,0,1-2-3.29,127.89,127.89,0,0,1,0-16.38A4.07,4.07,0,0,1,429.91,185.93Z"/><path class="cls-10" d="M257.9,511.81h-9a1.47,1.47,0,0,1-.4-1.23c.53-2.7-1.71-3.82-3.16-5.27q-33-33.09-66.05-66.1c-.59-.59-1.22-1.14-1.76-1.77-1.79-2.1-5.05-3.86-4-7,1.22-3.48,4.92-1.65,7.54-2.15a5.7,5.7,0,0,1,2.08.63c25.12,25.39,50.5,50.54,75.71,75.84.35.36.7.71,1,1.09C263.45,509.9,263.16,510.76,257.9,511.81Z"/><path class="cls-11" d="M1,259.91c2.4-.65,3,1.63,4.17,2.76q34.67,34.47,69.18,69.08a15.52,15.52,0,0,0,1.41,1.4c1.76,1.36,3,4.58,5.44,3.49,1.88-.86.37-4,.89-6a2.28,2.28,0,0,1,2.16,1.78c.89,5.16,1.93,10.36-.3,15.47-2.56-1-4.4-2.91-6.28-4.79Q41.93,307.31,6.15,271.57c-1.73-1.73-3.2-4-6.15-3.67v-2C1.29,264.06-.29,261.75,1,259.91Z"/><path class="cls-12" d="M81.89,326.87c-2.54-1-4.38-2.94-6.27-4.82Q40.91,287.29,6.16,252.58c-1.73-1.73-3.21-4-6.16-3.67v-3c.74-.73.42-1.67.5-2.53A4.47,4.47,0,0,1,1,240.74c3.53-1.49,5.2,1.4,7.07,3.25q23.4,23.19,46.64,46.56c7.75,7.75,15.49,15.53,23.41,23.38,1.53-1.3.94-2.95,1.38-4.25.18-1.66-.16-3.63,2.33-3.9a3.57,3.57,0,0,1,1.92,2.72,71.46,71.46,0,0,1,0,15.61A3.65,3.65,0,0,1,81.89,326.87Z"/><path class="cls-13" d="M257.9,511.81c4.21-1.27,2.77-2.82.54-5Q223,471.52,187.72,436.14c-1.89-1.89-3.82-3.73-4.79-6.31a5.05,5.05,0,0,1,4.34-2c4.81-.15,9.63-.2,14.43,0,1.89.09,3.64.55,4.42,2.6-1.51,2.18-3.28,1.81-5.15.54-3,.23-7.58-1.74-8.71.87s3.17,4.89,5.32,7.05q33.75,33.94,67.65,67.75c1.49,1.5,3.46,2.71,3.67,5.15h-1a5.51,5.51,0,0,0-5,0Z"/><path class="cls-8" d="M80.81,310.78a2,2,0,0,1,0,.49c-.21,2,1.28,4.92-1,5.81-1.8.68-3.12-2-4.49-3.4q-34.54-34.46-69-69c-1.5-1.49-2.71-3.42-5-3.86l-.61-.2c-.15-.6-.1-1.28-.63-1.75v-4c1.18-.18.88-1.26,1.19-2,2.83-.72,4.25,1.47,5.82,3,23.69,23.54,47.2,47.27,70.93,70.77A15.89,15.89,0,0,1,80.81,310.78Z"/><path class="cls-14" d="M265.9,0a6,6,0,0,1-7,0Z"/><path class="cls-15" d="M247.9,1l-2-1h7C251.46,1.45,249.59.83,247.9,1Z"/><path class="cls-16" d="M1,259.91c-.24,2,.68,4.22-1,6v-6Z"/><path class="cls-17" d="M248.77,510.87c0,.31.08.63.13.94h-6l1-1.16C245.58,509.41,247.22,509.12,248.77,510.87Z"/><path class="cls-18" d="M262.9,511.81c1.66-1.18,3.33-1.57,5,0Z"/><path class="cls-19" d="M511.8,270.9c-1.49-1-1.11-2,0-3Z"/><path class="cls-20" d="M1.24,240.86l-.41,3c-.21.71-.49.74-.83.08v-3c.3-.65.58-.65.85,0Z"/><path class="cls-21" d="M271.9,0c-.67,1.29-1.34,1.07-2,0Z"/><path class="cls-22" d="M511.8,241.91l-1.16-1,1.16-1Z"/><path class="cls-23" d="M0,243.91a4.58,4.58,0,0,0,.83-.08A1.91,1.91,0,0,1,0,245.91Z"/><path class="cls-24" d="M.85,240.93H.43l-.43,0v-2C1.12,239.23.94,240.1.85,240.93Z"/><path class="cls-25" d="M0,270.9c1.14.66,1.33,1.33,0,2Z"/><path class="cls-26" d="M450,421.92a170,170,0,0,1-25.37,25.86c-2.49,1.44-4.1-.3-5.58-1.76q-14.4-14.11-28.53-28.51c-1.52-1.54-2.95-3.22-2.49-5.68a8.54,8.54,0,0,1,3-3.84A119.83,119.83,0,0,0,409,389.4c1.2-1.6,2.5-3.13,4.7-3.38,2.39.05,3.92,1.65,5.44,3.16q14.14,14,28.17,28.14C448.61,418.62,449.9,419.93,450,421.92Z"/><path class="cls-27" d="M430.91,208.82c2.34.41,3.6,2.3,5.11,3.81q33.74,33.69,67.43,67.42c1.88,1.89,3.72,3.81,6.27,4.83C510,289,509,293,508.09,297c-3.26,1.76-5-.87-6.77-2.62-6.93-6.72-13.68-13.64-20.54-20.45-16.43-16.3-32.58-32.9-49.24-49a8.09,8.09,0,0,1-2.27-3.24c-.33-4.32-1.83-8.77,1.41-12.69Z"/><path class="cls-28" d="M201,431l5.26-.31c1.46-1.67,3.28-1.57,5.18-1.05,3.44,2.11,5.73,5.45,8.53,8.24q32.28,32.14,64.4,64.46c1.9,1.91,5.3,3.46,3.55,7.3l-10,1c-.31-2.4-2.28-3.6-3.78-5.09q-34.68-34.76-69.4-69.47C203.22,434.6,201.21,433.42,201,431Z"/><path class="cls-29" d="M304.87,506.74c-3.2,1.31-6.6,1.55-10,1.9-8.15-7.61-15.84-15.7-23.75-23.56q-23.71-23.61-47.29-47.37c-2-2-5.54-4-2.44-7.84,2.5-1.31,5.08-1.14,7.7-.48,2.51,1.06,4.36,3,6.22,4.88q33.36,33.27,66.62,66.65C303.5,502.47,305.74,503.89,304.87,506.74Z"/><path class="cls-30" d="M220.92,430.85c.21,2.43,2.18,3.64,3.67,5.13Q258,469.46,291.46,502.9c1.62,1.61,3.67,3,3.43,5.74l-7,1c-.33-2.4-2.31-3.59-3.8-5.09q-33.67-33.75-67.41-67.43c-1.89-1.89-3.82-3.73-4.76-6.33C214.94,428.11,217.94,428.08,220.92,430.85Z"/><path class="cls-31" d="M316.91,504a14.76,14.76,0,0,1-6.06,1.67,14.44,14.44,0,0,1-6.2-4c-21.14-21.2-42.36-42.32-63.43-63.59-2.06-2.08-6-4-2.84-8.18a8.22,8.22,0,0,1,6.89-.29c9.71,8.8,18.69,18.37,28,27.6q20.18,20,40.18,40.22C315.2,499.18,317.91,500.65,316.91,504Z"/><path class="cls-32" d="M237.91,430.9c.25,2.42,2.22,3.62,3.71,5.12q32.56,32.63,65.18,65.23c1.41,1.4,2.7,2.92,4.05,4.38-2,.42-3.85,1.49-6,1.11-2.5-2.65-4.94-5.36-7.52-7.94Q265.66,467,233.91,435.32c-1.4-1.41-2.67-2.95-4-4.43C232.58,428.27,235.25,428.26,237.91,430.9Z"/><path class="cls-33" d="M506.89,302.9c.55,2.16-1.34,3.88-1.09,6-1.92.88-3.24-.36-4.36-1.49-23.77-23.83-48-47.19-71.18-71.62a4.34,4.34,0,0,1-.7-1.31,7.31,7.31,0,0,1,.36-6c1.53-1.81,3-.71,4.36.2a28.22,28.22,0,0,1,4,3.7q31.71,31.69,63.42,63.38A21.56,21.56,0,0,1,506.89,302.9Z"/><path class="cls-34" d="M316.91,504c-1.29-1.5-2.5-3.09-3.89-4.49Q281.34,467.75,249.64,436c-1.49-1.5-3.46-2.7-3.73-5.11,1.6-2.19,3.79-2,6.05-1.51a5.79,5.79,0,0,1,2.48,1.59c21.37,22.14,43.46,43.55,65.06,65.45,1.66,1.69,4.09,3.13,3.35,6.19C320.94,503.4,319,504.22,316.91,504Z"/><path class="cls-35" d="M503.85,316.88c.39,2.15-.55,4-1.22,6-2,.76-3.09-.69-4.24-1.84q-33.57-33.52-67.08-67.09a6.35,6.35,0,0,1-1.72-2.43,6.25,6.25,0,0,1,.38-5.21c3.08-2.64,4.81,0,6.6,1.81Q453,264.5,469.44,280.93q15.17,15.22,30.41,30.35A19.15,19.15,0,0,1,503.85,316.88Z"/><path class="cls-36" d="M332.85,499.69l-6,1.91a27.27,27.27,0,0,1-4.8-3.52c-19.86-19.94-39.82-39.77-59.61-59.77-2.12-2.15-5.66-4.21-3.14-8.32a7.06,7.06,0,0,1,6-.43c3.41,1.92,5.5,5.24,8.19,7.91q27.74,27.58,55.32,55.34C330.71,494.7,333.54,496.22,332.85,499.69Z"/><path class="cls-37" d="M499.67,332.87l-2,6c-2.15.77-3.5-.68-4.74-1.93-20.58-20.66-41.58-40.92-61.69-62.05a6.66,6.66,0,0,1-1.69-2.43,7.31,7.31,0,0,1,.36-6c1.53-1.8,3-.71,4.36.21a28.21,28.21,0,0,1,4,3.73l57.44,57.44C497.25,329.34,498.93,330.74,499.67,332.87Z"/><path class="cls-38" d="M377.82,480.62c-2.19,1.34-4.18,3.13-7,3.13a14.14,14.14,0,0,1-4.36-3.24c-14.4-14.46-28.86-28.84-43.24-43.32-1.93-1.94-4.49-3.65-4-7a2.83,2.83,0,0,1,1-1.22c2.55-1.38,5.19-1.23,7.86-.48,3.3,1.77,5.31,4.94,7.88,7.5q19.13,19,38.1,38.11C375.86,475.87,378.47,477.36,377.82,480.62Z"/><path class="cls-39" d="M388.84,473.73a18,18,0,0,1-6.86,4.49,7.85,7.85,0,0,1-3.18-2.28c-12.84-13.13-26-26-38.86-39-2-2.07-4.64-4-3.9-7.54a3,3,0,0,1,.88-1.25,10.88,10.88,0,0,1,8.27-1.19c13.13,13.61,26.72,26.78,40,40.27C386.93,469,389.58,470.46,388.84,473.73Z"/><path class="cls-40" d="M506.89,302.9c-1.5-1.31-3.08-2.53-4.48-3.93q-33.57-33.53-67.11-67.07c-1.4-1.4-2.95-2.66-4.44-4-1.64-1.65-1.63-3.32,0-5,2.57,1,4.42,2.9,6.31,4.8q32.67,32.7,65.37,65.36c1.62,1.62,3,3.68,5.58,3.92Z"/><path class="cls-41" d="M430.87,234.91c1.84,1.68,3.74,3.3,5.5,5.06q32.5,32.46,65,64.94c1.41,1.4,3,2.65,4.45,4-.35,1.66-.71,3.33-1.06,5-2.26.81-3.35-.93-4.6-2.17-22.73-22.62-45.27-45.43-68.09-67.95a8.2,8.2,0,0,1-2.57-3.62C429.07,238.16,429,236.28,430.87,234.91Z"/><path class="cls-42" d="M353.93,492a9.23,9.23,0,0,1-5,2c-2-.21-3.19-1.68-4.48-3q-27.21-27.16-54.37-54.38c-1.79-1.8-4.45-3.53-1.8-6.62a6.87,6.87,0,0,1,6.06-.32c19.59,18.87,38.57,38.37,57.84,57.58C353.42,488.46,354.9,489.81,353.93,492Z"/><path class="cls-43" d="M319.87,430.83q13.78,14,27.57,28.05c6.77,6.85,13.62,13.63,20.42,20.45,1.27,1.28,2.84,2.38,3,4.42-1.56,1.17-2.88,2.74-5,2.95a12.49,12.49,0,0,1-4-2.85Q338.46,460.38,315,437a15.41,15.41,0,0,1-2.85-3.44c-.76-1.4-1.21-2.82.65-3.81C315.3,429.24,317.77,428.85,319.87,430.83Z"/><path class="cls-44" d="M398.83,467.79l-6,3.91a9,9,0,0,1-5.06-2.93c-11.5-11.5-23.05-23-34.46-34.54-2.3-2.33-5.1-4.85-1.63-8.43a6.72,6.72,0,0,1,5.89-1.09,18,18,0,0,1,5.08,3.89c11,11,22,21.95,32.95,33C397.25,463.28,399.65,464.74,398.83,467.79Z"/><path class="cls-45" d="M258.9,430.94a19.11,19.11,0,0,0,4.5,5.91q29.85,29.81,59.66,59.67c1.49,1.5,3.47,2.7,3.81,5.08l-4,1q-16.31-16.48-32.63-33T257.4,436.85a19,19,0,0,1-4.5-5.92Q255.9,427.84,258.9,430.94Z"/><path class="cls-46" d="M361.86,488.61l-5,2.13a13,13,0,0,1-4-2.92c-16.76-16.8-33.59-33.55-50.3-50.4-1.94-1.95-5.07-3.88-2.33-7.45a6.75,6.75,0,0,1,6.05-.27c18.48,17.45,36.1,35.77,54.07,53.73C361.71,484.77,363.4,486.31,361.86,488.61Z"/><path class="cls-47" d="M450,421.92c-10.93-9.5-20.55-20.34-31-30.35-1.79-1.72-3.28-3.78-5.59-4.91-1.09-3.75.65-6,3.89-7.55,2.66-.24,4.25,1.56,5.88,3.18,10.91,10.84,21.74,21.77,32.68,32.58A24.61,24.61,0,0,1,450,421.92Z"/><path class="cls-48" d="M332.85,499.69c-9.08-9.21-18.13-18.46-27.25-27.64Q288,454.4,270.38,436.84a18.89,18.89,0,0,1-4.48-5.91c1.36-1.91,3.23-1.83,5.2-1.34,2.14,1,3.52,3,5.13,4.59q28.72,28.67,57.36,57.41c1.8,1.82,4.93,3.35,3.27,6.94Z"/><path class="cls-49" d="M336.86,498.53c-.32-2.19-2.11-3.31-3.49-4.7q-28.86-28.9-57.74-57.79c-1.49-1.49-3.46-2.7-3.73-5.11,1.06-1.59,2.62-1.63,4.28-1.36,2.57,1,4.39,3,6.25,4.82q28.27,28.17,56.44,56.46c1.56,1.57,3.77,3,3,5.84Z"/><path class="cls-50" d="M408.81,460.71a21.71,21.71,0,0,1-5.94,4.2,6.13,6.13,0,0,1-3.24-2.2c-10.63-10.78-21.43-21.39-32.06-32.17-1.95-2-4.34-3.86-3.44-7.25,1.78-2.73,4.41-3.41,7.45-3.09,4.51,2.94,7.76,7.22,11.55,10.93q11.78,11.5,23.27,23.3C408,456.09,410.57,457.65,408.81,460.71Z"/><path class="cls-51" d="M430.88,272.91c4.67,4.51,9.37,9,14,13.53q26.44,26.18,52.82,52.41c-.34,1-.69,2-1,3-1.21,2.28-2.75,1.19-4.14.31a24.64,24.64,0,0,1-4.05-3.66q-26.55-26.55-53.1-53.12c-2.2-2.22-4.56-4.35-5.88-7.31C429.08,276.15,429,274.27,430.88,272.91Z"/><path class="cls-52" d="M336.87,429.84c.17,2.24,1.93,3.4,3.31,4.78q19.14,19.2,38.32,38.35c1.5,1.51,3.31,2.84,3.48,5.25l-4.16,2.4q-22.08-22.25-44.16-44.48c-1.88-1.89-3.79-3.73-4.79-6.27a3.36,3.36,0,0,1,3.06-1.55C333.71,428.38,335.52,428.35,336.87,429.84Z"/><path class="cls-53" d="M341.85,496.69Q321.21,475.86,300.57,455q-11.86-12-23.68-24.11c1.64-2.16,3.83-2,6.1-1.47,3.34,1.27,4.53,4.69,6.85,7q26.93,26.58,53.53,53.46c1.4,1.41,3.81,2.51,2.65,5.29Z"/><path class="cls-54" d="M430.88,278.91c5.72,5.56,11.49,11.07,17.15,16.7,14.63,14.56,29.18,29.2,43.83,43.74,1.26,1.25,2.13,3.73,4.79,2.55-.71,2-1.42,3.93-2.12,5.9-2,.68-3.09-.76-4.24-1.91C470.6,326.31,451,306.61,431.36,287a6.61,6.61,0,0,1-1.88-2.9C429.08,282.14,429,280.27,430.88,278.91Z"/><path class="cls-55" d="M418.83,452.82l-6,4.78a11.19,11.19,0,0,1-4.38-3.13c-9.56-9.6-19.19-19.13-28.7-28.77-1.92-1.94-4.4-3.74-3.49-7.14a6.88,6.88,0,0,1,6.41-3.42c2.22.54,3.66,2.19,5.18,3.7,9.27,9.23,18.55,18.46,27.74,27.78C417.25,448.3,419.67,449.76,418.83,452.82Z"/><path class="cls-56" d="M474.76,387.84q-1.54,2.51-3.11,5c-3.3,1.64-4.86-1.13-6.6-2.84-10.62-10.46-21.12-21-31.64-31.58-2.33-2.34-4.72-4.61-7.23-6.76-.95-2-.43-3.92.4-5.81,1.65-3,3.78-2.79,6.14-.91a48.73,48.73,0,0,1,3.95,3.79q17.41,17.4,34.82,34.83C472.76,384.84,474.34,385.91,474.76,387.84Z"/><path class="cls-57" d="M501.71,325.86c.29,1.51-.71,2.66-1.08,4-2.84.74-4.23-1.46-5.8-3Q464,296.06,433.21,265.18c-1.15-1.16-2.65-2-3.41-3.58a5.66,5.66,0,0,1,.16-5.19c2.85-2.41,4.19.39,5.66,1.85,10.18,10.05,20.26,20.19,30.37,30.3L498.45,321C499.85,322.42,501.45,323.69,501.71,325.86Z"/><path class="cls-58" d="M430.89,261.91c2.42.24,3.63,2.21,5.12,3.7q30.15,30.08,60.24,60.19c1.41,1.41,2.92,2.7,4.38,4l-1,3c-2.4-.29-3.6-2.27-5.1-3.76q-29.64-29.58-59.25-59.21c-1.41-1.4-2.95-2.66-4.43-4A2.55,2.55,0,0,1,430.89,261.91Z"/><path class="cls-59" d="M361.86,488.61c-.28-2.21-2.08-3.34-3.46-4.73q-24-24-48-48c-1.51-1.51-3.36-2.81-3.67-5.18l.61-.61c1.75-.76,3.36-.86,4.56,1q25.11,25.28,50.2,50.57c1.48,1.5,3.46,2.69,3.74,5.1Z"/><path class="cls-60" d="M487.93,362.91a7.34,7.34,0,0,1-1.86,4.07c-1.75.92-2.83-.27-3.88-1.31-17.48-17.48-35.17-34.75-52.32-52.58a6.83,6.83,0,0,1-.36-3.92c.38-2.35,1.71-3.11,3.91-2a14.74,14.74,0,0,1,3.81,3.18l47.28,47.26C486,359.11,487.68,360.56,487.93,362.91Z"/><path class="cls-61" d="M364.83,423.76c.16,2.23,1.88,3.41,3.26,4.79q15.75,15.79,31.53,31.57c1.38,1.38,3.1,2.56,3.25,4.79a9.76,9.76,0,0,1-4,2.88Q380.67,449.39,362.5,431c-1.62-1.65-3.11-3.43-4.66-5.15C359.27,422,361.78,422,364.83,423.76Z"/><path class="cls-62" d="M418.83,452.82q-15.49-15.75-31-31.51c-1.73-1.76-3.34-3.65-5-5.49.55-3.54,2.73-4.55,6-3.84a5.49,5.49,0,0,0,2,3.33l30.51,30.51a5.17,5.17,0,0,0,3.33,2Z"/><path class="cls-63" d="M481.77,374.85c.14,1.71-.81,2.9-1.9,4-1.91.91-3.23-.33-4.37-1.45-15.08-14.91-30.18-29.8-44.92-45.05a7.43,7.43,0,0,1-2-2.85,6.11,6.11,0,0,1,.38-5.21c3.23-2.16,4.83.69,6.55,2.38,9.56,9.4,19,18.92,28.48,28.4,4.79,4.8,9.58,9.61,14.4,14.38C480,371,481.38,372.61,481.77,374.85Z"/><path class="cls-64" d="M487.93,362.91c-4.25-3-7.53-7-11.18-10.65-13.71-13.6-27.31-27.29-41-40.92-1.26-1.26-2.27-2.87-4.41-3.61-.88,1.74-.33,3.54-.34,5.27a12.08,12.08,0,0,1,1.18,3.15c.08,1.48.06,2.93-1.28,3.94a1.66,1.66,0,0,1-1.63-.4c-2.45-5.65-2.11-11.28.1-16.9,2.36-2.7,4.11-.76,5.79.88C440.63,309,446,314.5,451.42,319.9c11.44,11.39,22.81,22.86,34.27,34.24,1.66,1.65,3.39,3.22,3.83,5.67Z"/><path class="cls-65" d="M492.51,352.86l-1.79,4c-2,.76-3.09-.67-4.25-1.83q-27.72-27.64-55.38-55.33a5.68,5.68,0,0,1-1.4-2.05,5.07,5.07,0,0,1,.4-4.39c2.9-2.06,4.23.62,5.71,2.09q22.51,22.31,44.81,44.83C484.7,344.27,489.32,347.91,492.51,352.86Z"/><path class="cls-66" d="M427,351.88c2.65-1.26,3.51,1.23,4.77,2.47,11.77,11.65,23.45,23.4,35.18,35.09,1.38,1.37,2.51,3.15,4.72,3.41l-3.13,4.93c-2.14.62-3.46-.81-4.74-2.06-12.83-12.56-25.23-25.53-38.23-37.91a3.24,3.24,0,0,1-.68-1.33C424.52,354.47,424.86,352.77,427,351.88Z"/><path class="cls-67" d="M429.78,329.92c4.85,3.54,8.63,8.21,12.91,12.34,12.51,12.09,24.27,24.94,37.18,36.62a8.6,8.6,0,0,1-2.19,3.94c-2.73.83-3.87-1.44-5.32-2.88q-19.68-19.53-39.24-39.19c-1.53-1.54-2.81-3.49-5.31-3.68C426.8,334.22,426.5,331.58,429.78,329.92Z"/><path class="cls-68" d="M299.88,430.82c.2,2.43,2.17,3.64,3.65,5.14q24.8,24.85,49.62,49.67c1.49,1.49,3.46,2.69,3.71,5.11a4.2,4.2,0,0,1-2.93,1.22c-2-2.2-3.93-4.48-6-6.59Q323.26,460.67,298.58,436c-1.5-1.5-3.46-2.71-3.69-5.14C296.54,429.22,298.2,429.23,299.88,430.82Z"/><path class="cls-69" d="M430.88,240.91c2.78,2.63,5.62,5.19,8.32,7.88q30.57,30.53,61.11,61.08c1.41,1.4,2.95,2.67,4.43,4l-.89,3c-1.49-1.3-3.05-2.54-4.45-3.93Q467.69,281.28,436,249.61c-1.5-1.49-2.7-3.46-5.12-3.7Q428.4,243.42,430.88,240.91Z"/><path class="cls-70" d="M501.71,325.86,468.42,293,430.9,255.91a2.54,2.54,0,0,1,0-4c4,3.81,8,7.56,11.85,11.43q30,29.73,59.88,59.51Z"/><path class="cls-71" d="M351.87,427c-1.78,2.7.61,3.92,2,5.35q17.6,17.69,35.25,35.3c1.29,1.29,2.45,2.7,3.67,4.06-1.2.93-2.18,2.29-4,2q-20.26-20.48-40.47-41c-1.24-1.25-3.74-2.1-2.5-4.75C347.52,425.61,349.46,425,351.87,427Z"/><path class="cls-72" d="M376.85,418.92c.22,2.23,2,3.38,3.37,4.76q14.56,14.63,29.16,29.22c1.38,1.38,3.17,2.5,3.45,4.7l-4,3.11c-.18-2.24-2-3.36-3.35-4.74q-15.06-15.14-30.17-30.23c-1.38-1.38-3.16-2.51-3.43-4.71C372.7,418.38,374.23,417.35,376.85,418.92Z"/><path class="cls-73" d="M430,319.9l.82,0c2.26-1,3.36.81,4.59,2q22.93,22.85,45.8,45.76a7.36,7.36,0,0,1,2.48,4.18c0,1.44-1.41,1.93-1.93,3Q466.7,360,451.62,345.17,440.81,334.52,430,323.89C428.62,322.54,428.61,321.21,430,319.9Z"/><path class="cls-74" d="M346,495.16c-1.28-1.51-2.46-3.12-3.85-4.51q-26.88-27-53.82-53.84a18.57,18.57,0,0,1-4.46-5.91,2.55,2.55,0,0,1,4,0c.25,2.41,2.22,3.62,3.7,5.11q26.69,26.75,53.41,53.46c1.4,1.4,2.61,3,3.92,4.46C348.2,494.94,347,494.87,346,495.16Z"/><path class="cls-75" d="M430.87,284.91c4.64,4.48,9.34,8.91,13.92,13.46q24.9,24.69,49.74,49.43l-.87,2.06c-1.82,1.36-3.1.24-4.31-1Q460,319.55,430.66,290.17a4.2,4.2,0,0,1-.93-1.74A3.24,3.24,0,0,1,430.87,284.91Z"/><path class="cls-76" d="M430.84,288.91c4.55,4.37,9.15,8.68,13.62,13.13q22.26,22.17,44.45,44.41c1.39,1.38,2.53,3.17,4.75,3.41-.38,1-.76,2-1.15,3-2.18-.34-3.3-2.13-4.69-3.51q-26.28-26.24-52.54-52.5c-1.4-1.39-3-2.63-4.46-3.94A2.62,2.62,0,0,1,430.84,288.91Z"/><path class="cls-77" d="M474.76,387.84c-2.25-.18-3.39-2-4.78-3.35-12.49-12.45-24.93-24.95-37.46-37.35-1.11-1.1-2.13-4.14-4.52-1.26-2.39-2.13-1.56-4.34-.18-6.57,1.9-1.62,3.38-.56,4.74.81,14.44,14.47,29,28.82,43.3,43.42a4.25,4.25,0,0,1,.71,1.31Z"/><path class="cls-78" d="M430.78,297.91c1.73,1.54,3.54,3,5.17,4.62q25.2,25.14,50.36,50.31c1.4,1.4,2.93,2.67,4.41,4l-1.2,3q-27.13-27-54.29-54c-1.4-1.39-3-2.59-4.48-3.88A2.71,2.71,0,0,1,430.78,297.91Z"/><path class="cls-79" d="M483.7,371.84q-24-23.83-48.08-47.66c-1.53-1.51-3.19-2.87-4.79-4.31L431,316c1.9-.79,2.72.82,3.7,1.8q24.24,24.15,48.41,48.38a6.48,6.48,0,0,1,2,2.82Z"/><path class="cls-80" d="M425.93,356.88a18.68,18.68,0,0,1,5.9,4.46q18.33,18.24,36.69,36.44L466,401.21c-1.83,0-3-1.23-4.21-2.41q-17.51-17.46-34.95-35a9.87,9.87,0,0,1-2.8-4.07C424,358.33,424.41,357.25,425.93,356.88Z"/><path class="cls-81" d="M425,359.89c13.89,13.55,27.93,26.95,41,41.32-.38.56-.77,1.11-1.15,1.66-1.75,1.24-3.15.42-4.39-.83-12.32-12.32-24.77-24.51-36.89-37a3.19,3.19,0,0,1-.61-1.36C422.83,362,423.23,360.54,425,359.89Z"/><path class="cls-82" d="M459.85,409.85l-3.05,3.92a5.26,5.26,0,0,1-3.55-1.62c-11.71-11.82-23.84-23.23-35.12-35.48a3.65,3.65,0,0,1,2.13-4.4c1.88-.46,3.16.59,4.36,1.8,11.57,11.66,23.31,23.15,34.81,34.89A2.1,2.1,0,0,1,459.85,409.85Z"/><path class="cls-83" d="M476.57,384.85c-2.37-.37-3.56-2.35-5.06-3.84Q450.2,360,429,338.88a.6.6,0,0,1-.22-.68c.08-.21.17-.32.25-.32,2.38-2.86,3.4.14,4.51,1.24,13.43,13.3,26.76,26.69,40.14,40,1.29,1.28,2.69,2.44,4,3.66Z"/><path class="cls-84" d="M418.89,376.86a9.25,9.25,0,0,1,2.62,1.27q17.69,17.78,35.29,35.64l-.9,1.1c-2.69.25-4.18-1.63-5.81-3.27Q436,397.56,422,383.52c-1.39-1.39-3-2.56-4.51-3.83A1.93,1.93,0,0,1,418.89,376.86Z"/><path class="cls-85" d="M485.08,369c-1.74-1.52-3.57-3-5.21-4.58Q455.39,340.21,431,316l0-3q20.7,20.49,41.42,40.94c4.49,4.41,8.53,9.3,13.65,13.05Z"/><path class="cls-86" d="M423.94,363.88q17.9,17.69,35.78,35.34c1.51,1.49,2.73,3.44,5.16,3.65l-2.09,3c-1.71.71-2.84-.28-3.92-1.37-11.94-12-24-23.88-35.87-36a3.68,3.68,0,0,1-.92-1.74C422,365.32,422.42,364.24,423.94,363.88Z"/><path class="cls-87" d="M423,366.88q17.52,17.33,35.06,34.63c1.53,1.51,3.19,2.88,4.78,4.32l-1.53,2.2c-1.71.91-2.84-.1-3.93-1.19-11.87-11.91-23.85-23.71-35.61-35.72a3.08,3.08,0,0,1-.64-1.35C421,368.33,421.41,367.25,423,366.88Z"/><path class="cls-88" d="M421.9,369.87q17.22,17,34.45,34c1.53,1.51,2.85,3.28,4.91,4.18l-1.41,1.82c-2.24-.16-3.41-1.92-4.8-3.3-10-9.95-19.95-19.95-29.95-29.9-1.4-1.39-3-2.59-4.5-3.88C419.88,371.29,420.44,370.37,421.9,369.87Z"/><path class="cls-26" d="M64,87.14A163.55,163.55,0,0,1,89.76,61.87c2.12-.83,3.52.51,4.8,1.77q15.09,14.83,29.91,29.93a5.71,5.71,0,0,1,2.06,4.37,5.91,5.91,0,0,1-2.54,3.58c-8,5.75-14.8,12.8-21.06,20.39a5.51,5.51,0,0,1-2.81,2c-2.86.44-4.63-1.41-6.38-3.14Q80,107.17,66.43,93.41C64.79,91.74,62.49,90.11,64,87.14Z"/><path class="cls-27" d="M302.88,80.79l-3.27.32c-2.9,2.81-6.33,1.89-9.69,1.39a8.14,8.14,0,0,1-3.59-2.59C264.14,56.71,241,34.46,218.51,11.56c-2-2.08-5.49-3.8-3.68-7.81,4-1,7.94-2,12.09-1.68,1,2.55,2.94,4.39,4.82,6.27Q265.45,42,299.09,75.71C300.58,77.2,302.55,78.4,302.88,80.79Z"/><path class="cls-28" d="M80.81,310.78c-2.42-.88-4.14-2.68-5.9-4.45Q40.24,271.65,5.56,237c-1.4-1.4-2.91-2.7-4.37-4.05l1-9a2.54,2.54,0,0,1,2.77-.53,7.82,7.82,0,0,1,3.4,2C32.84,249.86,57.7,273.93,81.53,299a4.11,4.11,0,0,1,.69,1.33c.49,1.92.58,3.76-1.1,5.22Z"/><path class="cls-29" d="M3.16,216.9c.4-3,.44-6.15,1.77-9,3.55-1.85,5.18,1.22,7,3q17.56,17.27,34.87,34.8C58,257,69.6,268,80.37,279.68a8.11,8.11,0,0,1,2,2.84,10.84,10.84,0,0,1-.27,7.69c-1.62,2.27-3.44,1.41-5.19.24a30.57,30.57,0,0,1-4.4-4q-32.79-32.76-65.6-65.52C5.58,219.6,4.68,218,3.16,216.9Z"/><path class="cls-89" d="M5.93,202.9c-.14-2.86.85-5.49,1.65-8.16,3.56-1.09,5.07,1.89,6.94,3.74q31.14,31,62.13,62.07a30.19,30.19,0,0,1,5.66,6.91,9,9,0,0,1-.33,6.89c-1.48,2-3.16,1.33-4.82.31a20.85,20.85,0,0,1-3.74-3.28C51.58,249.68,30,227.73,8,206.19A5.61,5.61,0,0,1,5.93,202.9Z"/><path class="cls-30" d="M3.16,216.9c2.67-1.2,3.53,1.29,4.79,2.54q34,33.83,67.85,67.75c1.49,1.49,2.7,3.47,5.14,3.7,2.79,3,2.76,6,.07,9-1.49-1.31-3.06-2.54-4.47-3.94Q42.8,262.24,9.1,228.51c-2-2-3.9-4.15-6.93-4.59Z"/><path class="cls-34" d="M80.88,266.9c-5.71-5.58-11.48-11.11-17.14-16.75q-25.65-25.58-51.26-51.21c-1.52-1.51-3.26-2.8-4.9-4.2l1.56-5.81c3.08-1.71,4.62.87,6.28,2.47,6.35,6.13,12.53,12.44,18.77,18.69q21,21,42,42.06c2.34,2.34,4.83,4.6,6.23,7.72C83,262.45,83.35,265,80.88,266.9Z"/><path class="cls-33" d="M203.92,5.87c1.51-1.12,3.23-1.1,5-1a12.23,12.23,0,0,1,5.4,3.43Q247.68,41.75,281,75.17c1.7,1.7,4.55,3.34,2.45,6.62a7.18,7.18,0,0,1-6,.51A26.84,26.84,0,0,1,270.93,77Q239,45.18,207.22,13.25C205.32,11.32,202,9.68,203.92,5.87Z"/><path class="cls-35" d="M189,9.16c1.92-.72,3.82-1.56,6-1.21s3.44,1.87,4.86,3.29q31.89,31.95,63.81,63.88c1.76,1.77,4.51,3.43,2.06,6.61a6.1,6.1,0,0,1-5.2.54c-1.67-.52-2.69-1.88-3.86-3q-32.38-32.37-64.74-64.78C190.42,13,188.12,11.9,189,9.16Z"/><path class="cls-37" d="M173.83,13.73l5.1-1.6a12.35,12.35,0,0,1,4.35,3.23Q213,45.11,242.68,74.88c1.76,1.77,5,3.34,2.8,6.92a7.24,7.24,0,0,1-6,.5A27.45,27.45,0,0,1,232.91,77Q205,49.15,177.17,21.19C175.22,19.23,172,17.51,173.83,13.73Z"/><path class="cls-38" d="M27.55,140.81,31.16,134c2.13-.68,3.49.71,4.76,2,15.63,15.3,30.81,31,46.56,46.22a4.22,4.22,0,0,1,.74,1.29,9.9,9.9,0,0,1-.1,7.09,3.7,3.7,0,0,1-1.6,1.67c-2.53.76-4.11-.92-5.62-2.41-15.66-15.41-31-31.12-46.7-46.51A10,10,0,0,1,27.55,140.81Z"/><path class="cls-39" d="M33.87,128.9l3.79-6.09c3.09-1.06,4.54,1.43,6.2,3.07,10.83,10.69,21.55,21.49,32.32,32.25,2.79,2.8,5.55,5.62,8.57,8.19.94,2.58.3,5-.7,7.4-2.13,3-4.51,2.2-6.8.31-3-2.43-5.52-5.3-8.23-8Q53.48,150.52,38,135C36.22,133.22,34.2,131.62,33.87,128.9Z"/><path class="cls-40" d="M283.89,81c-1.32-1.48-2.58-3-4-4.44Q246.39,42.94,212.84,9.39c-1.4-1.4-2.63-3-3.94-4.48,1.79-1.36,3.92-.94,5.93-1.16.24,2.61,2.32,4,3.93,5.57q31.77,31.82,63.58,63.57A39.35,39.35,0,0,1,288.89,81C287.2,82.58,285.54,82.59,283.89,81Z"/><path class="cls-32" d="M5.93,202.9c2.58,1,4.43,2.87,6.32,4.76Q44,239.43,75.77,271.17c1.49,1.49,2.7,3.46,5.12,3.72q3.56,3.5,0,7c-4.3-4.16-8.66-8.26-12.9-12.48Q39,240.5,10.1,211.55c-1.5-1.5-2.73-3.45-5.17-3.65C5,206.17,4.74,204.39,5.93,202.9Z"/><path class="cls-53" d="M15.12,170l1.53-4.17c2.27-1.13,3.83.21,5.27,1.64Q51.62,197,81.19,226.64a5.28,5.28,0,0,1,1,1.69,7.32,7.32,0,0,1-.35,6c-1.52,1.82-3,.72-4.37-.19a21.46,21.46,0,0,1-3.33-3L19.12,176.09C17.36,174.32,15.45,172.65,15.12,170Z"/><path class="cls-41" d="M203.92,5.87c.14,2.45,2.08,3.68,3.57,5.18q32.7,32.75,65.43,65.47c1.4,1.4,2.65,3,4,4.43-1.37,1.82-3.23,1.77-5.19,1.39a7.83,7.83,0,0,1-3.61-2.55C245.66,57.06,222.94,34.62,200.43,12c-1.3-1.32-3.46-2.36-2.5-4.91C199.86,6.32,201.78,5.53,203.92,5.87Z"/><path class="cls-42" d="M17.84,162.88a9.58,9.58,0,0,1,2-5c2.41-1,3.77.78,5.11,2.13,19,19.09,38.32,37.92,57.09,57.28a6.83,6.83,0,0,1-.14,6c-2.89,2.72-4.48,0-6.12-1.63C65.18,211.17,54.65,200.53,44,190c-8.14-8.08-16-16.4-24.47-24.19A5.13,5.13,0,0,1,17.84,162.88Z"/><path class="cls-43" d="M27.55,140.81c2.61.19,4,2.21,5.62,3.83Q54.86,166.29,76.52,188c1.4,1.4,3,2.64,4.44,4,1.57.93,1.44,2.49,1.45,4s.11,3.17-1.42,4-2.86-.25-4-1.14A39.16,39.16,0,0,1,73,195q-22-22-44-44c-1.53-1.53-3.1-3-3.89-5.09Z"/><path class="cls-45" d="M80.87,258.9c-7.6-7.46-15.24-14.89-22.79-22.4q-22.12-22-44.19-44.15c-1.38-1.38-2.52-3.17-4.75-3.42l1-4c1.54-1.49,3.05-.82,4.52.1a17.8,17.8,0,0,1,3,2.6q31.92,31.89,63.78,63.81a4.27,4.27,0,0,1,.76,1.29C82.88,255,83.09,257.25,80.87,258.9Z"/><path class="cls-36" d="M80.87,251.9c-2.4-.27-3.61-2.23-5.1-3.72q-29.94-29.88-59.84-59.8c-1.62-1.61-3-3.68-5.74-3.45.66-2,.42-4.26,1.91-6,2.62-.82,4,1.15,5.48,2.61,21.42,21.37,42.9,42.68,64.15,64.22a2.91,2.91,0,0,1,.47.89C82.72,248.66,82.79,250.53,80.87,251.9Z"/><path class="cls-46" d="M21.06,154.94l2.12-5c3.3-1.65,4.87,1.12,6.61,2.84q19.65,19.41,39.09,39.05c4.43,4.47,9.26,8.56,13.22,13.5A7,7,0,0,1,82,211.4c-1.5,2-3.18,1.28-4.83.27a21.3,21.3,0,0,1-3.7-3.34Q49.06,184,24.7,159.63A14.48,14.48,0,0,1,21.06,154.94Z"/><path class="cls-90" d="M80.88,245.91c-2.41-.27-3.62-2.24-5.11-3.74Q46.12,212.59,16.51,183c-1.4-1.41-2.94-2.68-4.41-4l1.16-4c3.32-1.6,4.86,1.19,6.6,2.91q18.81,18.57,37.41,37.36C65,223,73.06,230.44,80.34,238.67a7.18,7.18,0,0,1,1.88,2.9C82.53,243.25,82.48,244.82,80.88,245.91Z"/><path class="cls-52" d="M33.87,128.9c8,6.75,15,14.6,22.43,21.9,7.25,7.08,14.34,14.31,21.51,21.46,1.37,1.37,2.6,3.31,5,1.67,3,3.32,2.37,6.29-.87,9-2.55-1-4.38-2.91-6.27-4.79Q53.43,156,31.16,134Z"/><path class="cls-49" d="M80.88,240.91c-8.52-8.38-17.07-16.73-25.55-25.16-12.48-12.41-24.9-24.9-37.37-37.32-1.38-1.38-2.51-3.18-4.7-3.49l1.86-5Q36,190.59,56.79,211.22q12,11.88,24.1,23.69Q84,237.91,80.88,240.91Z"/><path class="cls-51" d="M173.83,13.73c.25,2.61,2.32,3.95,3.94,5.57q28.56,28.62,57.15,57.2c1.4,1.41,2.65,3,4,4.45-1.36,1.82-3.23,1.77-5.18,1.39-2.3-.75-3.9-2.53-5.51-4.13Q199.78,50,171.51,21.56A10.74,10.74,0,0,1,168.86,18c-.49-1.25-.32-2.28,1.06-2.84Z"/><path class="cls-44" d="M40.1,119l3.9-6c1.91-.74,3.26.38,4.42,1.54,12.42,12.3,24.94,24.49,37,37.15a6.59,6.59,0,0,1,1.65,2.49A6.47,6.47,0,0,1,86,160c-3,2.89-5.18.64-7.21-1.29-5.4-5.15-10.56-10.54-15.88-15.78-6.73-6.63-13.19-13.54-20.21-19.88A7.34,7.34,0,0,1,40.1,119Z"/><path class="cls-54" d="M169.92,15.15c-1.2,2.66,1.27,3.53,2.53,4.79q28.19,28.33,56.47,56.56c1.4,1.4,2.65,3,4,4.44-1.37,1.83-3.23,1.78-5.18,1.4s-3-2-4.29-3.28C204.62,60.22,185.73,41.45,167,22.55c-1.43-1.44-3.72-2.56-3-5.29Z"/><path class="cls-55" d="M54.2,99,59,93c1.9-.75,3.24.37,4.41,1.52,10.75,10.57,21.48,21.17,32,32a5.67,5.67,0,0,1,1.46,2.58c.26,2.88-1.1,4.89-3.41,6.41-2.2.84-3.92-.23-5.37-1.64-11-10.61-21.65-21.47-32.39-32.29A8,8,0,0,1,54.2,99Z"/><path class="cls-91" d="M126,97.83c-11.8-12.25-23.6-24.51-36.2-36a16.88,16.88,0,0,1,6-5c2.08-.77,3,.94,4.1,2q14.77,14.73,29.51,29.51c1.62,1.64,3.44,3.2,3.34,5.85C131.47,97.39,129.48,99.06,126,97.83Z"/><path class="cls-92" d="M46.84,108.9l4.23-5.9c3-.8,4.49,1.61,6.17,3.27q12.56,12.35,24.9,24.89c3,3.06,6.42,5.67,9.33,8.84a8,8,0,0,1-3,8.21c-2.07.74-3.56-.44-4.87-1.71-12.17-11.78-23.92-24-36.07-35.79A3,3,0,0,1,46.84,108.9Z"/><path class="cls-56" d="M119,40.15A14.54,14.54,0,0,1,124,37a5.09,5.09,0,0,1,2.52,1.51c13.1,13.12,26.26,26.19,39.3,39.38,2.18,2.2,4.29,4.69.25,7.24-1.87.86-3.78,1.39-5.8.5-12.32-13.21-25.51-25.57-38.07-38.55C120.38,45.27,117.23,43.74,119,40.15Z"/><path class="cls-57" d="M182,11.17l4-1.09c2,.27,3.2,1.61,4.49,2.91q31.51,31.53,63,63.07c1.46,1.47,4.21,2.76,2.09,5.68a5.56,5.56,0,0,1-5.18.34C227.94,60.31,206.07,38,184,15.91,182.68,14.65,181.24,13.32,182,11.17Z"/><path class="cls-59" d="M81.12,204.93c-2.46-.14-3.7-2.09-5.2-3.58q-24-24-48-48c-1.38-1.38-2.52-3.18-4.73-3.44.64-1.34,1.27-2.67,1.91-4,2.23.21,3.37,2,4.76,3.37q23.09,23,46.09,46.15A27.84,27.84,0,0,1,79,200l2-1v-7.09l.84-1C85.23,195.41,84.94,201.29,81.12,204.93Z"/><path class="cls-58" d="M182,11.17q22.63,22.8,45.26,45.6c6.44,6.48,12.93,12.91,19.37,19.39,1.37,1.39,3.15,2.54,3.32,4.79a2.6,2.6,0,0,1-4,0c-4.61-4.78-9.16-9.62-13.85-14.32q-24.81-24.91-49.7-49.75c-1.38-1.39-3.17-2.53-3.41-4.75Z"/><path class="cls-60" d="M144.82,25.7a7.63,7.63,0,0,1,4.07-1.84c2.33.27,3.79,1.89,5.31,3.42,15.82,15.82,31.67,31.6,47.41,47.5,1.78,1.8,4.95,3.36,3,6.93-1.66,1-3.43.74-5.21.5a6.37,6.37,0,0,1-2.77-2C180.27,63.77,163.81,47.45,147.51,31,146.12,29.57,143.7,28.47,144.82,25.7Z"/><path class="cls-61" d="M46.84,108.9c2.56,1,4.43,2.84,6.32,4.72q17.32,17.19,34.7,34.32c1.66,2.71,1.64,4.9-1.84,6q-15.61-15.36-31.24-30.7C51.23,119.79,47.6,116.4,44,113A10.36,10.36,0,0,1,46.84,108.9Z"/><path class="cls-62" d="M95.83,129q-16-15.85-32.08-31.69C62.23,95.76,60.57,94.4,59,93Q61.5,90,64,87.14c.07,1.45,1,2.39,2,3.33Q81.25,105.74,96.51,121a5.3,5.3,0,0,0,3.35,1.94C100.74,126.44,99,128.19,95.83,129Z"/><path class="cls-71" d="M40.1,119a37.46,37.46,0,0,1,8,6.59Q64.25,141.7,80.4,157.82c1.17,1.16,2,3.34,4.42,2.12,2,2.4,1.37,4.34-1,6-2.65,1.24-3.5-1.25-4.75-2.49-12.34-12.21-24.59-24.53-36.89-36.78-1.4-1.39-3-2.57-4.5-3.85Z"/><path class="cls-72" d="M90.81,140c-2.74.24-4.12-1.82-5.75-3.42q-17-16.75-34-33.53l3.13-4c2.2.28,3.33,2.07,4.71,3.45,9.76,9.71,19.48,19.47,29.23,29.18,1.39,1.38,2.54,3.15,4.77,3.35C94.45,137.56,93.42,139.09,90.81,140Z"/><path class="cls-63" d="M132.92,31.92a7.5,7.5,0,0,1,3.92-2.17,8.33,8.33,0,0,1,4.25,2.4c15,15,30,30,44.93,45,1.42,1.44,3.33,3,1.59,5.51a5.93,5.93,0,0,1-5.2.55,21.76,21.76,0,0,1-5.83-4.58Q156.5,58.58,136.44,38.45C134.69,36.68,132,35.21,132.92,31.92Z"/><path class="cls-65" d="M155,21.08l4-1.78A18.93,18.93,0,0,1,163.57,23C181,40.56,198.58,58,216,75.54c1.56,1.57,4.56,2.84,2.67,6.07a4.94,4.94,0,0,1-4.37.55c-1.66-.54-2.67-1.94-3.83-3.1q-26.41-26.23-52.65-52.65C156.38,25,154.12,23.81,155,21.08Z"/><path class="cls-66" d="M119,40.15c.25,2.21,2,3.35,3.41,4.73,11.69,11.73,23.44,23.41,35.09,35.18,1.24,1.25,3.73,2.12,2.46,4.77-.67,1.73-2,2.14-3.73,2a10.42,10.42,0,0,1-4.44-3.1q-17.52-17.46-35-35c-1.48-1.49-3.41-2.86-2.77-5.47Z"/><path class="cls-68" d="M21.06,154.94c2.41.25,3.62,2.22,5.11,3.71Q51,183.43,75.84,208.26c1.49,1.49,2.71,3.46,5.14,3.66,1.6,1.68,1.61,3.34,0,5-2.43-.23-3.64-2.2-5.14-3.69q-25.76-25.68-51.47-51.42c-1.4-1.39-3-2.62-4.47-3.92A4,4,0,0,1,21.06,154.94Z"/><path class="cls-67" d="M132.92,31.92c9.57,10.81,20.33,20.46,30.31,30.87,6.19,6.45,13.06,12.25,18.65,19.27-1.37,2.91-3.7,2.75-6.22,2-13.94-15.54-29.37-29.64-43.88-44.63-1.41-1.47-3.68-2.6-2.81-5.33A8.18,8.18,0,0,1,132.92,31.92Z"/><path class="cls-69" d="M197.93,7.05c2.86,3,5.66,6.09,8.6,9Q236.7,46.3,266.91,76.5c1.4,1.41,2.66,3,4,4.45q-2.49,2.44-5,0c-.21-2.43-2.18-3.64-3.67-5.13Q230.56,44.1,198.85,12.4c-1.39-1.4-2.62-3-3.93-4.45A3.38,3.38,0,0,1,197.93,7.05Z"/><path class="cls-64" d="M204.88,80.73q-25.86-26-51.71-52c-1.51-1.52-2.86-3.21-4.28-4.83l3.11-1.6a10.19,10.19,0,0,1,4.91,3.18Q182,50.61,207.18,75.73c.47.47,1,.92,1.4,1.42,1.08,1.25,2.59,2.66.89,4.22C208,82.74,206.15,82.79,204.88,80.73Z"/><path class="cls-70" d="M255.9,81c-1.68-1.83-3.28-3.74-5-5.49Q220.42,45,190,14.5c-1.4-1.41-2.67-2.94-4-4.42l3-.92q23.12,23.3,46.23,46.6c8.27,8.36,16.48,16.79,24.71,25.19A2.58,2.58,0,0,1,255.9,81Z"/><path class="cls-73" d="M187.91,81.86q-23.43-23.64-46.84-47.28c-1.5-1.52-2.83-3.21-4.23-4.83A5.25,5.25,0,0,1,140,28.1c2.16.25,3.47,1.79,4.88,3.19q22.41,22.38,44.75,44.8c1.49,1.49,3.46,2.79,3,5.41a2.22,2.22,0,0,1-1,1.18C190.16,83.21,188.89,83.19,187.91,81.86Z"/><path class="cls-93" d="M191.92,81.8l0-.81c.92-1.36,2.31-1.46,3.76-1.37a12,12,0,0,1,3.11,1.19l6.06-.08H210L152,22.26l3-1.18c13.42,13.56,26.88,27.08,40.24,40.71,6.26,6.39,13.05,12.27,18.69,19.26a4.3,4.3,0,0,1-3.42,2.59,60.71,60.71,0,0,1-16.27-.06A3.16,3.16,0,0,1,191.92,81.8Z"/><path class="cls-75" d="M164,17.26Q193.3,46.72,222.6,76.17c1.51,1.52,2.87,3.2,4.29,4.8a3.27,3.27,0,0,1-3.51,1.1c-1.56-.35-2.46-1.6-3.5-2.65q-27.8-27.77-55.54-55.59c-1.48-1.48-4.2-2.71-2.4-5.69Z"/><path class="cls-76" d="M161.94,18.14c.31,2.4,2.28,3.6,3.77,5.1Q192.31,49.91,219,76.53c1.4,1.4,2.63,3,3.94,4.46a2.66,2.66,0,0,1-4,.05c-1.3-1.49-2.51-3.08-3.91-4.48Q188.73,50.27,162.46,24c-1.38-1.39-3.17-2.51-3.52-4.69Z"/><path class="cls-77" d="M165.92,83.81c2.87-2.39-.15-3.41-1.25-4.52-12.41-12.54-24.91-25-37.37-37.47-1.38-1.39-3.16-2.54-3.34-4.79l3-1.85A10.78,10.78,0,0,1,130.43,38Q150.51,58,170.58,78.16c1.52,1.52,4,2.91,2,5.76C170.32,85.36,168.09,86.2,165.92,83.81Z"/><path class="cls-79" d="M195.85,80.85,192,81c-7.31-7.47-14.59-15-21.92-22.41Q155,43.33,140,28.1l2.85-1.4c1.84.59,2.93,2.12,4.21,3.39q23,23,46,46C194.28,77.41,196.6,78.27,195.85,80.85Z"/><path class="cls-80" d="M114,43.27q18.75,18.88,37.49,37.78c1.51,1.53,2.94,3.14,4.41,4.72-.64,1.77-2,2.18-3.71,2-2.16-.63-3.62-2.25-5.14-3.77q-16.71-16.67-33.38-33.38c-1.39-1.39-3-2.66-3.11-4.89Z"/><path class="cls-81" d="M110.58,45.78c6.71,5.22,12.21,11.7,18.24,17.62,7.81,7.68,15.41,15.58,23.1,23.38-.65,1.78-2,2.18-3.75,2-1.57-.34-2.51-1.56-3.56-2.61C133.36,74.93,122,63.71,110.82,52.38c-1.46-1.47-3.54-2.85-1.88-5.45Z"/><path class="cls-74" d="M17.84,162.88c1.5,1.3,3.09,2.52,4.49,3.92Q48.69,193.1,75,219.44a18.64,18.64,0,0,0,5.93,4.47,2.53,2.53,0,0,1,0,4q-14-13.77-28-27.57-15-14.9-29.9-29.9a18.29,18.29,0,0,0-6.36-4.66C17,164.77,16.84,163.6,17.84,162.88Z"/><path class="cls-82" d="M98,55,102,52c6.5,5.21,11.92,11.55,17.87,17.33,5.73,5.56,11.32,11.27,17,17,1.38,1.39,3.12,2.64,2.63,5a3.64,3.64,0,0,1-4.27,2.37C122.85,82.38,111.44,70.22,99.61,58.5A4.51,4.51,0,0,1,98,55Z"/><path class="cls-83" d="M172.92,82.86q-21.09-21.28-42.16-42.59c-1.48-1.51-3.47-2.7-3.8-5.09l2-1.13q21.74,22,43.44,44c1.23,1.26,3.76,2.09,2.51,4.76A1.26,1.26,0,0,1,172.92,82.86Z"/><path class="cls-84" d="M98,55q17.84,17.63,35.64,35.29a8.81,8.81,0,0,1,1.27,2.61c-.46,1.46-1.38,2-2.84,1.4-6-7.54-13.4-13.75-20-20.69-5.38-5.63-10.86-11.16-16.3-16.73Z"/><path class="cls-85" d="M195.85,80.85c-13.56-13.71-27.17-27.39-40.67-41.17-4.18-4.26-8.88-8-12.36-13l2-1c1.28,1.5,2.47,3.11,3.87,4.5q23.22,23.29,46.49,46.55c1.29,1.28,2.43,2.7,3.64,4.06Z"/><path class="cls-86" d="M108.94,46.93c.21,2.43,2.16,3.65,3.65,5.16Q130.23,70,147.92,87.87c-.36,1.51-1.43,1.95-2.84,1.86-1.9-.49-3-2-4.26-3.32q-16-16-32.06-32.08c-1.43-1.44-3.7-2.59-2.79-5.32Z"/><path class="cls-87" d="M106,49q15.38,15.6,30.72,31.22c2.79,2.84,5.5,5.76,8.24,8.64-.36,1.5-1.42,1.94-2.83,1.86a5.34,5.34,0,0,1-2.8-1.93q-17-17-34-34c-1.06-1.05-2.22-2-2.15-3.74Z"/><path class="cls-88" d="M103.11,51c13.26,12.64,26.28,25.53,38.83,38.89-.65,1.44-1.55,2.07-3,.93Q122.26,74,105.62,57.11c-1.49-1.51-3.46-2.72-3.67-5.16Z"/><path class="cls-94" d="M315.9,7.18A225.76,225.76,0,0,1,365,24.58c1,2.66,3.49,4,5.34,5.8q55.46,55.58,111,111c1.86,1.85,3.2,4.29,5.77,5.4a209.12,209.12,0,0,1,17.08,48c-2,1.37-3.46-.06-5-1a29.45,29.45,0,0,1-4.84-4.3Q407.75,102.9,321.12,16.19C318.66,13.72,315.16,11.61,315.9,7.18Z"/><path class="cls-95" d="M315.9,7.18a52,52,0,0,0,7.73,9.09Q410,102.58,496.3,188.93c2.36,2.37,4.77,4.63,7.92,5.93,2.29,8.56,4.35,17.15,4.7,26.06-2.64-.2-3.93-2.35-5.53-4q-39.52-39.45-79.07-78.88c-.93-.93-2-4.92-4.5-1.1-2.66.34-3.3-1.89-4.15-3.52a86.67,86.67,0,0,0-37.31-37.31c-1.65-.86-3.84-1.52-3.57-4.15,1.44-.32,2.19-1,1.07-2.39-.95-1.15-2.05-2.18-3.1-3.24q-39-39-77.94-78c-1.6-1.6-3.75-2.89-3.94-5.54C299.45,3,307.63,5.34,315.9,7.18Z"/><path class="cls-96" d="M487.14,146.82c-2.49.46-4-1-5.58-2.62q-57-57-114-114c-1.58-1.58-3-3.14-2.54-5.61A239.33,239.33,0,0,1,426.28,65a254.55,254.55,0,0,1,59.14,77.66C486.07,144,486.57,145.44,487.14,146.82Z"/><path class="cls-97" d="M27.6,371a173.48,173.48,0,0,1-14.7-35.94c1.59-2.07,1.65-2.14,3.35-1.27a18.92,18.92,0,0,1,4.55,3.87Q97.48,414.32,174.15,491a19.3,19.3,0,0,1,3.87,4.54c.87,1.7.8,1.76-1.24,3.35a168.59,168.59,0,0,1-35.95-14.75c-1.12-2.56-3.56-3.91-5.42-5.77q-50.94-51.08-102-102C31.54,374.5,30.24,372,27.6,371Z"/><path class="cls-98" d="M5.94,309a67.63,67.63,0,0,1-3.19-18.06c2.47-1.45,4.09.32,5.72,1.62a66.83,66.83,0,0,1,5.74,5.55c25.45,25.64,51.3,50.87,76.45,76.8A15,15,0,0,0,94,377.09a14.94,14.94,0,0,1,4.06,5,88.69,88.69,0,0,0,33,32.34c1.73,1,3.57,1.82,4.44,3.81a7.68,7.68,0,0,0,2.34,3.68c26.6,26.27,52.95,52.79,79.34,79.27,2.07,2.07,5.28,3.94,3.7,7.87a69.15,69.15,0,0,1-18-3.17Q104.55,407.25,5.94,309Z"/><path class="cls-99" d="M5.94,309c2.49-1.05,3.62,1,4.93,2.31q94.85,94.77,189.63,189.63c1.31,1.31,3.35,2.44,2.33,4.93a43.87,43.87,0,0,1-12-2.75,76,76,0,0,1-8.72-8.1Q97.48,410.43,12.86,325.85c-1.53-1.52-2.64-3.37-4.19-4.86A43,43,0,0,1,5.94,309Z"/><path class="cls-100" d="M27.6,371c2.47-.46,4,1,5.6,2.56q52.49,52.53,105,105c1.57,1.56,3.07,3.09,2.62,5.57-15.41-6.75-29.07-16.33-42.24-26.6a255.89,255.89,0,0,1-69.17-82.48C28.72,373.76,28.2,372.35,27.6,371Z"/><path class="cls-101" d="M8.67,321c2.39.54,4.08,2.12,5.74,3.79q86.3,86.31,172.6,172.6c1.67,1.67,3.24,3.36,3.82,5.73a51.91,51.91,0,0,1-14.05-4.22c2-3-1.17-3.78-2.4-5q-55-55.22-110.14-110.26-23.31-23.31-46.68-46.57c-1.13-1.12-2-4.06-4.66-2A47.12,47.12,0,0,1,8.67,321Z"/><path class="cls-102" d="M93.17,377.43c-2.74,1.47-3.37-1.37-4.5-2.49q-39.86-39.62-79.52-79.4c-1.88-1.89-3.7-3.86-6.4-4.61-1.22-2.47-.75-5.13-.91-7.73.3-1.07-.37-2.74.76-3.16,1.47-.55,2.19,1.19,3.07,2.06Q42.84,319.19,80,356.35c2,2,3.91,4.12,6.94,4.51C90.82,363.61,94.34,372.9,93.17,377.43Z"/><path class="cls-102" d="M220.87,509c-.77-2.7-2.73-4.51-4.63-6.4q-39.93-39.93-79.8-79.93c-.88-.88-4-1.33-1.79-3.85,6.34-.44,12,.92,16.3,6-.28,3,2,4.42,3.7,6.14q37.51,37.56,75,75.1c.89.88,2.62,1.61,2.1,3.07-.42,1.15-2.09.46-3.16.76C226,509.81,223.34,510.27,220.87,509Z"/><path class="cls-103" d="M151,424.88l-16.3-6c-13.94-7.71-26.1-17.46-35-30.84-2.29-3.43-4.3-7.05-6.44-10.58q-3.14-8.28-6.28-16.57l-2.94-13c-1.74-5.63-.13-11.62-1.86-17.25-.07-1.25-.13-2.5-.2-3.75,0-7.11.26-14.22-.77-21.29,0-1.9-.07-3.8-.11-5.7,0-3-.05-6-.07-9s0-6,0-9v-7c0-2.66,0-5.33,0-8s0-5.33,0-8v-18q0-3,0-6v-7c0-1.33,0-2.66,0-4l0-7,0-5,.14-7c.88-4.64.73-9.33.68-14,0-2.66.09-5.32.14-8l.87-9,1-8,1-6c.55-2,1.42-3.86,1.2-6a15,15,0,0,0,1.84-6l3-8,2.1-5a15.69,15.69,0,0,0,2.92-6l4-6A114,114,0,0,1,126,97.83l6.14-3.53,2.84-1.4c1.72.07,2.64-1.41,4-2.05,1.25.48,2.13-.21,3-.93a3.85,3.85,0,0,0,3-1l3-1,4-1.09,4-1,4-.94,6-1,7-1,2-.08a17.62,17.62,0,0,0,7-.72l6-.2,4-.06a166.11,166.11,0,0,0,22-.75,10.08,10.08,0,0,0,5,0l4-.05,4,0,6,0h51a10.32,10.32,0,0,0,5,.06,41.37,41.37,0,0,0,10.72.1c8.73,1.11,17.51.77,26.27.78l3.78.19,24.13,3.16,21,6.76c15.29,7.5,28.09,18,37.6,32.17,2.74,4.09,5,8.53,7.43,12.81a206.09,206.09,0,0,1,7.84,26.32l2.07,18.84.18,3.79c0,7.7-.39,15.41.77,23.08a76.83,76.83,0,0,0,.15,13.9l0,5v7q0,3,0,6c0,1.67,0,3.33,0,5q0,3,0,6v14q0,3.51,0,7v12l0,4c0,1.33,0,2.67,0,4,0,1.67,0,3.34,0,5l0,4a110.07,110.07,0,0,0-.74,18l0,4q-.11,3-.19,6a22.51,22.51,0,0,0-.79,8l0,1-1,7-1,6c-.42,1.65-1.35,3.2-1.05,5l-.9,3c-.36,1.33-.72,2.66-1.09,4l-1,3a4.24,4.24,0,0,0-1.05,3c-.43,1-.87,1.93-1.3,2.9a8,8,0,0,0-1.71,4.09l-1.43,2.83-4,7A116.35,116.35,0,0,1,388.84,412l-6,3.84-6,3.1-5,2.11-7,2.73a18.45,18.45,0,0,0-7,2.05c-2.12-.25-4,.68-6,1.18l-6,1-9,1c-1.74.7-3.68-.12-5.41.69l-2.59.14-9,.15c-4.34.93-8.81-.35-13.14.72v-.07l-6.86.15-5,0-7,0h-11l-5,0h-26l-8,0h-8l-9,0-9-.07-5.69-.1c-7.74-1.11-15.53-.79-23.3-.85l-1.64-.09c-2.56-.63-5.29-1-7.63.09-3.92,1.81-6.87.55-9.72-2Z"/><path class="cls-11" d="M163.94,427.82c5.65,1.81,11.7.09,17.35,1.92-2.18.56-5.49-1.13-6.42,1.08s2.28,3.65,3.83,5.21q35.38,35.55,70.88,71c.9.9,2.58,1.64,2.24,3s-2,.52-3,.81l-4.88-.22c-.37-2.64-2.07-4.44-3.85-6.22q-34.9-34.87-69.77-69.81C168.09,432.43,164.85,431.2,163.94,427.82Z"/><path class="cls-46" d="M306.74,430.74c4.34-1,8.75-.73,13.14-.72,0,.27,0,.54,0,.81l-8,.2Z"/><path class="cls-38" d="M331.46,429.73a11,11,0,0,1,5.41-.69c0,.26,0,.53,0,.8Z"/><path class="cls-26" d="M122.85,146.75c5.65-11.46,14.18-19.9,26-24.86,2.59-.85,4.45.47,6.13,2.14q25.22,25.1,50.3,50.34c1.77,1.79,3.33,3.79,2.48,6.62-1.67,3.29-5,4.72-7.61,7a149.69,149.69,0,0,0-14,14.15c-1.18,1.4-2.3,2.86-4.12,3.5-2.67.56-4.41-1.08-6.06-2.71q-25.42-25.25-50.68-50.66C123.83,150.8,122.2,149.26,122.85,146.75Z"/><path class="cls-26" d="M389.93,363A50.09,50.09,0,0,1,365,389c-2.5.6-4-1-5.57-2.5q-25.31-25.21-50.52-50.54c-1.63-1.65-3.33-3.36-2.84-6.05.64-2,2.33-3.14,3.79-4.48,6.25-5.69,12.55-11.33,17.46-18.3,1.15-1.62,2.37-3.22,4.46-3.76,2.66-.13,4.23,1.74,5.86,3.36q24.78,24.68,49.45,49.46C389,358,391.26,359.76,389.93,363Z"/><path class="cls-104" d="M113,257.9v-8c3.21-.91,4.37,1.91,6,3.53q62.33,62.21,124.57,124.49c5.3,5.29,10.62,10.55,15.86,15.9,1.31,1.34,3.4,2.43,2.45,4.94h-8a40.33,40.33,0,0,1-6.48-5.42q-64.46-64.51-129-129A39.91,39.91,0,0,1,113,257.9Z"/><path class="cls-46" d="M272.88,398.75l-7,0a18.74,18.74,0,0,1-5.62-4q-71.58-71.65-143.22-143.22a18.2,18.2,0,0,1-4-5.63v-4c3.18-1.84,4.52,1.06,6.11,2.62,12.34,12.14,24.55,24.4,36.76,36.65,6.69,6.72,13.43,13.39,20,20.19a12.86,12.86,0,0,0,5.76,3.72c4,2.81,6.41,7.14,9.85,10.52,5.24,5.14,10.55,10.13,16.76,14.11,1.81,1.16,3.61,2.4,4.47,4.54a7.26,7.26,0,0,0,2,3.87c18.46,17.7,36.26,36.06,54.39,54.1C271,394,273.61,395.48,272.88,398.75Z"/><path class="cls-89" d="M210.92,398.7l-5,0c-1.57-.68-3.26-.09-4.86-.43-2.59-.93-4.5-2.77-6.39-4.66Q156.35,355.29,118.05,317a18.16,18.16,0,0,1-4.41-6c-.45-1.34.16-2.8-.5-4.12l0-6c1.77-1.39,3.11-.15,4.44.8a24.28,24.28,0,0,1,2.94,2.71q43.47,43.46,86.88,87C209.27,393.28,212.69,394.85,210.92,398.7Z"/><path class="cls-27" d="M324.87,113.94c6.47-.17,12.9.1,19.16,2,.06,1.92,1.69,2.81,2.81,3.94Q369.28,142.53,392,165c1.13,1.12,2,2.75,3.91,2.85,1.83,6.25,2.14,12.65,2,19.11-1.7,1.38-3.24.47-4.42-.65Q381.34,175,370,162.89a11,11,0,0,1-1.4-2.61c-2.2-9.14-8-14.69-17-17.15-9.12-7.79-17.12-16.7-25.56-25.18C325,116.92,324,115.63,324.87,113.94Z"/><path class="cls-51" d="M398.79,238.92c0,2.33,0,4.66,0,7-3.49.76-5-2.11-6.88-4q-40.12-40-80.12-80.05-21.17-21.16-42.3-42.37c-1.76-1.77-4.42-3.25-3.61-6.53h7a22.76,22.76,0,0,1,7.24,5.15c15.48,15.78,31.46,31.08,46.7,47.1.82.86,1.94,1.3,2.75,2.14,3.25,6.33,8.26,11,14.11,14.88,1.06,2.15,3,3.48,4.66,5.12q22.32,22.4,44.72,44.72A41.51,41.51,0,0,1,398.79,238.92Z"/><path class="cls-54" d="M265.89,113c1,1.13,1.88,2.33,2.93,3.38Q332.11,179.68,395.43,243c1.05,1.05,2.24,2,3.37,2.94v6c-2.26.94-3.36-.84-4.59-2.07L262,117.58c-1.23-1.23-3-2.33-2.06-4.6Z"/><path class="cls-105" d="M113.06,287.89q0-4,0-8c3.72-.74,5.25,2.38,7.23,4.36q49.3,49.13,98.47,98.39c3.53,3.53,7.12,7,10.55,10.62,1.41,1.5,3.43,2.84,2.61,5.47h-8a38.36,38.36,0,0,1-6.51-5.36q-49.46-49.53-99-99A37.85,37.85,0,0,1,113.06,287.89Z"/><path class="cls-53" d="M248.9,398.78h-5a22.33,22.33,0,0,1-7.25-5.13q-59.19-59.29-118.49-118.49a22.18,22.18,0,0,1-5.13-7.25v-5c1.76-1.4,3.12-.22,4.46.74a24.1,24.1,0,0,1,2.9,2.73q62.54,62.52,125,125.09C247.3,393.38,250.75,394.91,248.9,398.78Z"/><path class="cls-106" d="M113.14,306.91c1,1.16.77,2.61.86,4,1.56,4.13,4.31,7.36,7.41,10.45Q156,355.8,190.47,390.4c3.08,3.1,6.32,5.84,10.45,7.41,1.67.16,3.47-.36,5,.86-7.35.39-14.65-.28-21.95-.94a35.7,35.7,0,0,1-6.53-5.37q-28.93-29-58-58a35.72,35.72,0,0,1-5.36-6.53C113.46,320.9,112.79,313.93,113.14,306.91Z"/><path class="cls-107" d="M114.08,327.87c2,.2,3.13,1.78,4.4,3.05q31.21,31.18,62.41,62.4c1.27,1.28,2.85,2.37,3,4.41-4.07.43-8.05-.34-12-1.06a28.34,28.34,0,0,1-8-5.81q-21.42-21.54-43-43a28.34,28.34,0,0,1-5.81-8C114.43,335.92,113.64,332,114.08,327.87Z"/><path class="cls-64" d="M398.79,268.9v5c-2.41.84-3.76-.93-5.11-2.28-18.39-18.35-36.9-36.57-55-55.19-1.32-1.36-2.55-2.57-4.45-2.93a7.45,7.45,0,0,1-3.15-3.09,93.38,93.38,0,0,0-30-30,6,6,0,0,1-2.67-2.86,7.13,7.13,0,0,0-2.23-3.77c-18.82-17.93-36.86-36.63-55.28-55-1.56-1.55-3.82-2.95-3-5.82h5a20.34,20.34,0,0,1,6,4.33q72.71,72.86,145.55,145.55A19.46,19.46,0,0,1,398.79,268.9Z"/><path class="cls-108" d="M113,267.91c1.13,1,2.31,1.89,3.37,2.95Q178.7,333.13,241,395.42c1.06,1.05,2,2.24,3,3.36l-6,0a21.42,21.42,0,0,1-7.25-5.12q-56.21-56.29-112.49-112.49A21.56,21.56,0,0,1,113,273.9C113,271.91,113,269.91,113,267.91Z"/><path class="cls-65" d="M398.8,259.91v5c-2.29.94-3.34-.93-4.56-2.15Q321.6,190.18,249,117.56c-1.22-1.22-3.09-2.27-2.14-4.57h5a20.66,20.66,0,0,1,6,4.33q68.22,68.35,136.57,136.58A20,20,0,0,1,398.8,259.91Z"/><path class="cls-48" d="M113,273.9c1,.87,2.07,1.67,3,2.6Q175.7,336.11,235.3,395.76c.93.93,1.73,2,2.6,3h-6c-.86-1-1.67-2.06-2.6-3Q172.69,339.11,116.05,282.5c-.94-.93-2-1.73-3-2.59Z"/><path class="cls-34" d="M210.92,398.7c-.25-2.22-2-3.36-3.42-4.75q-44.81-44.85-89.65-89.64c-1.38-1.39-2.52-3.17-4.74-3.43l0-8c2.62-.8,4,1.17,5.48,2.63q48.91,48.78,97.7,97.71c1.46,1.46,3.42,2.85,2.64,5.47Z"/><path class="cls-109" d="M248.9,398.78c-.2-2.23-2-3.39-3.36-4.77q-63.85-63.9-127.74-127.74c-1.38-1.38-2.53-3.16-4.77-3.37v-5c2.24.21,3.39,2,4.77,3.37Q184.19,327.62,250.54,394c1.38,1.39,3.16,2.54,3.36,4.78Z"/><path class="cls-45" d="M218.9,398.72c-.75-.88-1.45-1.82-2.27-2.64Q166.2,345.62,115.72,295.17c-.81-.81-1.75-1.51-2.64-2.26,0-1.68,0-3.35,0-5,2.23.23,3.38,2,4.77,3.39Q169.19,342.61,220.53,394c1.38,1.38,3.16,2.53,3.39,4.76Z"/><path class="cls-3" d="M395.89,167.82c-1.45,3.62-2.82.74-3.8-.22-7.23-7.09-14.37-14.29-21.53-21.45-8.69-8.69-17.42-17.34-26-26.14-.88-.9-4.56-2.27-.52-4.12A38.52,38.52,0,0,1,358.88,120a307.91,307.91,0,0,1,32.9,32.91A38.91,38.91,0,0,1,395.89,167.82Z"/><path class="cls-78" d="M246.9,113c.86,1,1.65,2.09,2.58,3q73.13,73.17,146.3,146.3c.93.94,2,1.73,3,2.59v4c-1-.86-2.07-1.65-3-2.58Q320.62,191.17,245.48,116c-.93-.93-1.72-2-2.58-3Z"/><path class="cls-110" d="M113,245.91c1,.87,2.08,1.66,3,2.6q73.65,73.61,147.26,147.26c.93.93,1.73,2,2.59,3h-4c-.86-1-1.65-2.07-2.58-3Q187.69,324.13,116,252.5c-.93-.93-2-1.73-3-2.58Z"/><path class="cls-47" d="M206.93,180.54c.16-2.3-1.48-3.57-2.88-5l-50.71-50.71c-1.28-1.28-2.44-2.77-4.45-3a17.52,17.52,0,0,1,7.8-3.06c2.38-1,3.76.68,5.15,2.06Q186.92,146,212,171.05c1.42,1.42,2.81,2.89,2.66,5.15C213,179.23,211.08,181.91,206.93,180.54Z"/><path class="cls-47" d="M389.93,363a11.33,11.33,0,0,0-1.58-3Q360.23,331.87,332,303.87c-1.17-3.45.72-5.3,3.51-6.67,2.47-.24,4,1.38,5.53,2.9q24.57,24.5,49.09,49.07c1.65,1.65,3.24,3.34,2.86,6A17.7,17.7,0,0,1,389.93,363Z"/><path class="cls-76" d="M398.8,259.91c-1.13-1-2.32-1.89-3.37-3q-70.32-70.27-140.6-140.59c-1.05-1.05-2-2.25-2.94-3.38h4a20.45,20.45,0,0,1,6,4.39Q328.1,183.7,394.42,249.94a20.06,20.06,0,0,1,4.39,6Z"/><path class="cls-55" d="M117.83,159.66a11.22,11.22,0,0,1,2-5.93c2.68-.31,4.33,1.46,6,3.08q25,24.8,49.77,49.74a10,10,0,0,1,3.06,4.48,6.89,6.89,0,0,1-3.37,6.47c-2.68.87-4.46-.77-6.1-2.4q-24.56-24.3-48.88-48.85C118.5,164.47,117,162.46,117.83,159.66Z"/><path class="cls-55" d="M358.08,392c-1.85,1.09-3.73,2.08-6,2-2.82.84-4.81-.68-6.6-2.46q-24.42-24.31-48.71-48.74c-1.63-1.64-3.32-3.39-2.53-6.11a6.84,6.84,0,0,1,6.41-3.48c2.06.47,3.45,1.95,4.86,3.36q24.57,24.53,49.09,49.12C356.37,387.4,358.38,389.09,358.08,392Z"/><path class="cls-75" d="M398.81,255.91c-1-.86-2.08-1.65-3-2.58Q327.12,184.69,258.47,116c-.93-.93-1.72-2-2.57-3h4c.85,1,1.63,2.09,2.56,3q66.66,66.69,133.33,133.33c.93.93,2,1.72,3,2.57C398.81,253.24,398.81,254.57,398.81,255.91Z"/><path class="cls-111" d="M113.05,226.91q0-5.47,0-11c3.26-.7,4.73,1.92,6.52,3.69q20.34,20.18,40.52,40.54c2,2,4,3.39,6.87,2.66,2.91,5,3.42,10.52,3,16.17-1.57,2.48-3.44,1.26-5.14.27A25.22,25.22,0,0,1,160,275q-21.15-21.14-42.31-42.26A40.37,40.37,0,0,1,113.05,226.91Z"/><path class="cls-92" d="M114.84,175.71c0-2.64-.26-5.32,1.1-7.77,3.9-1.31,5.76,1.81,7.87,3.9q22.11,21.89,44,44c2,2,4.34,3.63,5.7,6.2.39,3.26-.36,6.1-3.1,8.18-2.77.77-4.35-1.18-6-2.78-15.94-15.77-31.7-31.73-47.63-47.52C115.72,178.79,114.27,177.69,114.84,175.71Z"/><path class="cls-92" d="M343.86,395.84c-2.48,1.31-5.17,1.12-7.83,1.1-2.23.57-3.31-1.16-4.52-2.38-15.27-15.36-30.66-30.59-45.9-46-1.95-2-4.34-3.86-3.46-7.24,1.76-2.75,4.4-3.42,7.43-3.13a10.4,10.4,0,0,1,3.49,2.75c15.57,15.71,31.31,31.25,46.85,47C342,390.07,345.15,391.92,343.86,395.84Z"/><path class="cls-38" d="M295.89,398.71l-10,0a16.86,16.86,0,0,1-4.07-2.85c-15.43-15.66-31.12-31-46.51-46.75-1.72-1.76-5-3.69-1.78-7,5.35-.55,10.54-.13,15.39,2.45.06,3,1.8,5.08,3.84,7.1q20.06,20,40,40C294.51,393.59,297.64,395.14,295.89,398.71Z"/><path class="cls-39" d="M113.11,208.92c-.11-5.76-.48-11.53.69-17.23a2.64,2.64,0,0,1,1.12.92c.32,4.08,2.68,7,5.46,9.73Q141.26,223.1,162,244c2,2,4.06,3.94,5.27,6.58a10.64,10.64,0,0,1-.31,7.73c-2.47,2.78-4.51.83-6.34-.78-3.6-3.17-6.87-6.71-10.27-10.1q-16-16-32-32A32.84,32.84,0,0,1,113.11,208.92Z"/><path class="cls-112" d="M328.86,397.7l-8.73.27a3.17,3.17,0,0,1-2.12.26c-3.81-2.47-6.71-6-9.88-9.1-12.5-12.45-25-24.89-37.39-37.46-2-2-5-3.9-2.79-7.57a8.07,8.07,0,0,1,7.41-1.5,20,20,0,0,1,5.83,4.55q22,22,44,44C326.94,393,329.53,394.46,328.86,397.7Z"/><path class="cls-113" d="M358.08,392q-26.49-26.7-53-53.43c-1.51-1.52-2.84-3.22-4.26-4.83.72-3.35,2.78-4.51,6-3.72.15,1.63,1.28,2.64,2.34,3.7q26.73,26.73,53.47,53.44A22.19,22.19,0,0,0,365,389,14.52,14.52,0,0,1,358.08,392Z"/><path class="cls-113" d="M177.79,210.92q-24.49-24.31-49-48.63c-2.93-2.91-6-5.71-9-8.56a16.61,16.61,0,0,1,3-7c2.24,2.44,4.39,4.95,6.72,7.29q23.72,23.78,47.49,47.48c1.38,1.38,2.52,3.15,4.73,3.41C182.67,208.4,181,210.17,177.79,210.92Z"/><path class="cls-112" d="M114.19,193l-.39-1.33.3-8.74c2.39-.76,3.76,1,5.13,2.31q23.58,23.4,47,47a13.32,13.32,0,0,1,2.92,4,7.94,7.94,0,0,1-1.33,7.38c-3.54,1.9-5.19-1.15-7-3-13.5-13.31-26.86-26.74-40.24-40.17C118.24,198.2,115.21,196.45,114.19,193Z"/><path class="cls-43" d="M232.91,343c.21,2.23,2,3.38,3.37,4.77q22.53,22.57,45.11,45.12a18.38,18.38,0,0,1,4.48,5.91h-8a17.79,17.79,0,0,1-4.42-3.21c-16.49-16.69-33.16-33.21-49.72-49.83a19.11,19.11,0,0,1-3.27-3.75c-.88-1.53-1.61-3.12.88-4C225.75,338.35,230.37,338.23,232.91,343Z"/><path class="cls-114" d="M334.88,212.8c1.95-.39,2-.41,3.82,1.45Q365,240.5,391.2,266.73c2.46,2.46,5.05,4.79,7.58,7.18v7c-3.26.73-4.74-1.91-6.52-3.68q-22.81-22.65-45.5-45.43c-2.11-2.1-4.09-4.37-7-5.44C337,222.26,333.89,218.26,334.88,212.8Z"/><path class="cls-114" d="M237.89,113c7.79,7.94,15.53,15.91,23.37,23.8,12.06,12.13,24.22,24.17,36.21,36.36.81.83,4.07,1.33,1.54,3.76-5.47,1-9.53-2-13.58-4.94-.55-2.2-2.16-3.66-3.68-5.18-15.72-15.75-31.5-31.45-47.17-47.24-1.77-1.78-4.4-3.26-3.68-6.52Z"/><path class="cls-61" d="M328.86,397.7q-24.39-24.57-48.76-49.15c-1.51-1.52-2.84-3.21-4.26-4.83,1.57-3.53,4-3.77,7-1.88.22,2.43,2.18,3.65,3.67,5.15q21,21,41.95,42c2.58,2.59,5,5.3,7.54,7.95C333.73,398,331.29,397.88,328.86,397.7Z"/><path class="cls-115" d="M317.89,397.6l2.24.37c-8.05,1.34-16.15.84-24.24.74-.25-2.22-2-3.36-3.41-4.74q-21.8-21.86-43.61-43.71c-1.32-1.34-5.27-3.49.35-4.56,1.27-1.38,2.79-1.35,4.4-.8,16,15.18,31.38,31.06,47,46.7,3.78,3.8,7.87,5.23,13,4.41A7,7,0,0,1,317.89,397.6Z"/><path class="cls-61" d="M168.05,236c-4.83-3.57-8.66-8.2-12.91-12.38q-20.58-20.25-41-40.63c-.16-2.46-.39-4.92.74-7.24l50.21,49.81c1.53,1.51,3.16,2.93,4.74,4.39C171.55,232.6,171.38,234.73,168.05,236Z"/><path class="cls-52" d="M113.11,208.92c2.21.25,3.35,2,4.73,3.41q21.49,21.43,42.94,42.88c1.49,1.49,2.7,3.45,5.12,3.7a2.44,2.44,0,0,1,.2,3.69c-.37,1.2.4,3-1.09,3.56s-2.29-1-3.17-1.9q-22.2-22.12-44.36-44.3c-1.41-1.4-2.93-2.69-4.39-4Z"/><path class="cls-43" d="M113.05,226.91c2.24.22,3.38,2,4.77,3.39q22.65,22.59,45.23,45.23c1.78,1.78,3.55,3.53,6,4.33,4.77,2.08,4.33,6.51,4.77,10.55-1.41,3.3-3.44,1.76-5.15.46-2-1.5-3.41-3.62-5.18-5.37-15.81-15.69-31.36-31.64-47.37-47.12a16.78,16.78,0,0,1-3.1-4.46C113,231.59,113.05,229.25,113.05,226.91Z"/><path class="cls-72" d="M172.69,221.92c-2.19-.32-3.32-2.1-4.71-3.48q-23.07-23-46.1-46.1a17.38,17.38,0,0,0-5.94-4.4,16.79,16.79,0,0,1,1.89-8.28c.18,2,1.57,3.23,2.87,4.52q25,25,50.06,50c1.16,1.17,2.21,2.53,4.05,2.69C176,219.39,175.42,221.11,172.69,221.92Z"/><path class="cls-72" d="M343.86,395.84a17.53,17.53,0,0,0-4.42-5.93q-23.07-23-46.08-46.09c-1.38-1.39-3.16-2.52-3.47-4.71.8-2.73,2.53-3.31,5-2.13.22,2.22,2,3.37,3.38,4.75q24.3,24.34,48.63,48.64c1.51,1.51,2.81,3.36,5.21,3.59A16.46,16.46,0,0,1,343.86,395.84Z"/><path class="cls-116" d="M220.9,338.87c-.62,2.4,1.66,3,2.79,4.18q24.76,25,49.7,49.78a18.59,18.59,0,0,1,4.49,5.92h-5q-15-15.25-30.09-30.49C233.2,358.6,223.5,349,214,339.3c-1.07-1.09-4.2-2-1.6-4.59C215.92,334.64,219.4,334.73,220.9,338.87Z"/><path class="cls-116" d="M113,233.92a45.87,45.87,0,0,1,8.74,7.29c14.74,14.8,29.44,29.62,44.37,44.21,2,2,2.49,6.24,6.78,5.49,4.57,1.7,5.24,5.34,4.73,9.55-2.61,2.62-3.8-.25-5.11-1.53-10.15-10-20.2-20.14-30.29-30.22-8.92-8.91-17.8-17.85-26.77-26.71a11.22,11.22,0,0,1-2.45-3.08Z"/><path class="cls-66" d="M397.92,321.27c-.06,1.87-.12,3.74-.17,5.61-2.16.77-3.49-.7-4.74-1.95q-23.88-23.7-47.6-47.58a10.14,10.14,0,0,1-2.56-3.65,5.92,5.92,0,0,1,1.37-5.71c2.54-1.4,4.11.47,5.57,1.92q22.86,22.56,45.45,45.39a11.29,11.29,0,0,1,2.92,4.58A2.47,2.47,0,0,1,397.92,321.27Z"/><path class="cls-37" d="M398.79,238.92c-2-.17-3.14-1.72-4.42-3q-24.28-24.25-48.55-48.55c-1.27-1.27-2.82-2.39-3-4.43,2.09-2.22,4.39-1.27,6.68-.44,11.2,9.41,20.88,20.4,31.38,30.55,4.3,4.15,8.41,8.5,12.72,12.64a21,21,0,0,1,5.15,7.23Z"/><path class="cls-66" d="M184.92,114.05l5.58-.16a2.88,2.88,0,0,1,1.39-.26,16.1,16.1,0,0,1,6,4.27q21.27,21.27,42.5,42.58c1.85,1.87,4.72,3.47,3.51,7a5.89,5.89,0,0,1-5.67,1.52c-2.23-.89-3.83-2.59-5.48-4.24q-22.24-22.25-44.48-44.53C186.62,118.55,184.14,117.14,184.92,114.05Z"/><path class="cls-117" d="M115.13,339.89q28.82,28,56.78,56.78a32.94,32.94,0,0,1-10-2,512.94,512.94,0,0,1-44.84-44.85A33.57,33.57,0,0,1,115.13,339.89Z"/><path class="cls-79" d="M230.9,113q21,21.18,41.94,42.34c3.85,3.88,7.78,7.69,11.56,11.63,1,1,3.18,1.87,1.42,4-2.36,2-4.43.79-6.5-.55-4.53-5.09-9.61-9.63-14.41-14.47-12.18-12.29-24.47-24.46-36.65-36.75-1.67-1.68-4.15-3.08-3.35-6.16Z"/><path class="cls-79" d="M340.81,226c2.95-1,4.11,1.55,5.62,3q24,23.86,47.94,47.85c1.4,1.41,2.93,2.68,4.4,4l0,6c-2.39.8-3.74-.92-5.1-2.28-16.17-16.27-32.66-32.22-48.52-48.8-1.16-1.21-2.5-2.18-3.73-3.3C340,230.44,338.8,228.36,340.81,226Z"/><path class="cls-63" d="M398.73,291.89q0,3,0,6c-3.25.68-4.73-1.93-6.51-3.7q-20.85-20.68-41.52-41.52c-1.7-1.7-3.36-3.07-5.92-2.7-2.41-2.34-1.93-5.27-1.68-8.15,1-3.81,3.07-3.84,5.79-1.71a35,35,0,0,1,3.24,3.09Q373,264.1,394,285A19.83,19.83,0,0,1,398.73,291.89Z"/><path class="cls-63" d="M213.92,113.08h6a19.89,19.89,0,0,1,5.84,3.71q22,22.16,44.12,44.18a19.17,19.17,0,0,1,2,2.21c1.94,2.64,1.74,4.6-1.77,5.5-2.88.31-5.8.77-8.2-1.52.4-2.2-.38-3.71-2.05-5.36q-21.28-20.94-42.26-42.2C215.84,117.81,213.23,116.32,213.92,113.08Z"/><path class="cls-67" d="M213.92,113.08,260.47,160c.93.95,1.95,1.81,2.78,2.84.64.79,2.35,1.35,1.36,2.66-.44.57-1.85.4-2.82.57a2.21,2.21,0,0,1-2,.54c-1.66-.55-2.65-2-3.81-3.1Q233.36,141,210.84,118.4c-1.43-1.43-3.73-2.55-2.91-5.28Z"/><path class="cls-67" d="M345.73,250c.4-1-.44-2.65.92-3s1.88,1.12,2.67,1.91q22.51,22.46,45,45c1.4,1.4,2.92,2.69,4.38,4l0,6c-1.74.71-2.83-.42-3.88-1.47-16.31-16.34-32.72-32.57-48.9-49a3.18,3.18,0,0,1-.71-1.3A2.2,2.2,0,0,1,345.73,250Z"/><path class="cls-118" d="M328.7,168a5.57,5.57,0,0,1-3.32-2l-51.33-51.36a14.26,14.26,0,0,1-1.17-1.6l6,0a21.12,21.12,0,0,1,7.2,5.13c13.77,14.1,28.11,27.65,41.6,42a8.57,8.57,0,0,1,1.52,2C329.93,164.17,330.82,166.2,328.7,168Z"/><path class="cls-82" d="M395,348.1c0,1.36.14,2.78-1,3.87-1.47-.17-2.29-1.27-3.22-2.21q-26.49-26.5-53-53a5.49,5.49,0,0,1-1.48-2c-.29-1.94.19-3.54,2.09-4.47,2.37-.53,3.63,1.18,5,2.56q24.45,24.39,48.83,48.84C394,343.47,395.92,345.18,395,348.1Z"/><path class="cls-84" d="M337,294.9c2,.17,3.13,1.75,4.4,3q24.64,24.61,49.26,49.25c1.4,1.4,3,2.67,3.35,4.81-.07,1.14.06,2.35-1,3.16-1.29-1.5-2.49-3.1-3.89-4.5q-24.46-24.54-49-49c-1.4-1.4-3-2.59-4.51-3.87C335,296.27,335.48,295.34,337,294.9Z"/><path class="cls-82" d="M159.82,117.8c1.1-1.13,2.53-.92,3.9-1,2.7-.91,4.39.75,6.05,2.4q24.73,24.64,49.39,49.39c1.29,1.28,2.77,2.49,2.37,4.65-.83,2-2.42,2.47-4.38,2.25a2.18,2.18,0,0,1-.88-.42C197.72,156.85,179.42,138.35,161,120A4.62,4.62,0,0,1,159.82,117.8Z"/><path class="cls-84" d="M159.82,117.8c2,.31,3.17,1.7,4.46,3l50,50c1.16,1.16,2.52,2.21,2.66,4.05-.44,1.52-1.37,2-2.86,1.41-1.25-2.44-3.43-4.05-5.29-5.93Q183.82,145.12,158.8,120a9,9,0,0,0-2.11-1.19C157.5,117.77,158.69,117.87,159.82,117.8Z"/><path class="cls-73" d="M270.75,167.1c3.06-1.77,0-2.68-.71-3.41-7.43-7.6-15-15.06-22.49-22.61q-13.85-14-27.63-28l5,0q24,24.15,47.89,48.34c2.42,2.45,5.34,4.48,6.95,7.68C276.14,171.21,273,171,270.75,167.1Z"/><path class="cls-73" d="M398.73,291.89q-24.93-24.75-49.94-49.42c-.88-.86-1.64-4.31-4.1-1.4-3.9-2.29-4.09-5.4-2-9,2,.68,3.15,2.38,4.54,3.77q23.57,23.5,47.1,47.06c1.4,1.4,2.93,2.67,4.39,4C398.75,288.56,398.74,290.22,398.73,291.89Z"/><path class="cls-86" d="M168.76,115.81c2.18-1.25,4.58-.94,6.93-.94a1.71,1.71,0,0,1,1.36-.21c2,.6,3.31,2.15,4.71,3.55C197,133.42,212.23,148.72,227.49,164c1.7,1.7,4,3.2,2.92,6.27a3.24,3.24,0,0,1-3.18,1.53c-2.27-.55-3.51-2.46-5-4q-23.49-23.49-47-47c-1.64-1.64-3.14-3.48-5.64-3.88A2.47,2.47,0,0,1,168.76,115.81Z"/><path class="cls-80" d="M344,273.91q24.32,24.13,48.64,48.26c1.64,1.62,3.39,3.14,5.09,4.71.11,3.07.44,6.17-.78,9.13a2.64,2.64,0,0,1-1.11-.9,10.93,10.93,0,0,0-3.39-5.79c-15.88-15.64-31.6-31.44-47.34-47.22a10.82,10.82,0,0,1-3.12-4.44C341.86,276,342.28,274.58,344,273.91Z"/><path class="cls-80" d="M177,115.21l-1.31-.34c3-1.27,6.12-.92,9.23-.82q20.27,20.46,40.52,40.93c4.18,4.23,8.3,8.53,12.45,12.8-.66,1.74-2,2.15-3.72,2-1.78-.35-2.71-1.82-3.88-3q-23.65-23.64-47.29-47.3C181.23,117.73,179.52,115.92,177,115.21Z"/><path class="cls-119" d="M117.1,349.86c1.64.15,2.64,1.3,3.7,2.35L159.59,391c1.06,1.06,2.21,2.06,2.35,3.7a27.28,27.28,0,0,1-9-2.95A295.22,295.22,0,0,1,120,358.87,26,26,0,0,1,117.1,349.86Z"/><path class="cls-35" d="M398.71,211.9l0,7c-1.74.76-2.83-.37-3.89-1.42q-17.06-17.05-34.11-34.12a4,4,0,0,1-1.37-2.58c.42-2.37,2.08-3.33,4.24-3.71,2.28-.08,3.52,1.59,4.91,3,8.89,8.84,17.74,17.75,26.67,26.56A16.27,16.27,0,0,1,398.71,211.9Z"/><path class="cls-35" d="M292.9,113.07l7,0a16.09,16.09,0,0,1,5,3.22c9.13,9.2,18.32,18.34,27.47,27.52,1.18,1.19,2.39,2.35,2.39,4.21-.3,2.19-1.27,3.83-3.58,4.37-1.89,0-2.89-1.51-4-2.66Q311.23,133.91,295.4,118C294.07,116.68,292,115.57,292.9,113.07Z"/><path class="cls-58" d="M327.9,162c-8.3-8.14-16.67-16.21-24.89-24.42S286.93,121.2,278.9,113h6a39.38,39.38,0,0,1,6.45,5.37c11.08,11.15,22.24,22.23,33.32,33.39,2.3,2.31,5,4.5,4.51,8.38A2.83,2.83,0,0,1,327.9,162Z"/><path class="cls-58" d="M398.79,232.92c-16.67-16-33.07-32.25-49-49a3,3,0,0,1,1.06-1c3-1.11,5.25.49,7.15,2.35,12.8,12.58,25.43,25.34,38.13,38,1.08,1.07,1.5,2.59,2.6,3.64Z"/><path class="cls-86" d="M396.59,334.81c.13.4.25.8.38,1.2-.05,2.38.29,4.82-1,7l-.65-.3a19.35,19.35,0,0,0-4.91-6.74q-23.19-23.08-46.29-46.27c-1.51-1.51-3.38-2.77-4.07-5a3,3,0,0,1,1.45-3.17c3.22-.67,4.78,1.83,6.58,3.62q21.33,21.19,42.53,42.5C392.82,329.91,395.84,331.42,396.59,334.81Z"/><path class="cls-88" d="M395,348.1a6.58,6.58,0,0,0-2.19-3.81Q366.44,318,340.12,291.73a7.71,7.71,0,0,0-1.24-.84c-1.09-1.29-.49-2.29.56-3.21,2.18-.87,3.38.68,4.66,1.95q24.27,24.25,48.55,48.5a15.56,15.56,0,0,1,3,4.52,1.48,1.48,0,0,0,.35.4C395.89,344.78,396.21,346.6,395,348.1Z"/><path class="cls-88" d="M220.91,172.91c-7.79-7.95-15.55-15.95-23.4-23.86q-14.23-14.36-28.58-28.59c-1.52-1.51-2.83-3.35-5.21-3.62,1.5-1.25,3.31-.93,5-1a1.65,1.65,0,0,0,.4.35,16.14,16.14,0,0,1,5.56,4.06q23.16,23.22,46.35,46.43c1.54,1.54,4,2.75,3.07,5.7C223.21,173.41,222.21,174,220.91,172.91Z"/><path class="cls-83" d="M207.93,113.12q23.83,24,47.64,48c1.51,1.52,2.87,3.2,4.3,4.8a3.29,3.29,0,0,1-3.51,1.11c-2.93-1.35-5-3.74-7.27-6q-21.37-21.32-42.67-42.74c-2.22-2.24-4.39-3.42-7.48-2.4-2.54.32-4.71-.84-6.95-1.69l-1.49-.36C196.26,112.62,202.11,113,207.93,113.12Z"/><path class="cls-83" d="M345.87,251.94C352.44,257.3,358,263.69,364,269.6c11.6,11.36,23.11,22.84,34.65,34.26.11,5.82.48,11.64-.76,17.4l-.36-1.44c-.85-2.24-2-4.4-1.7-6.92,1-3.06-.1-5.24-2.37-7.48Q372,284.19,350.75,262.75c-2.21-2.23-4.6-4.34-6-7.27A3.26,3.26,0,0,1,345.87,251.94Z"/><path class="cls-120" d="M305.91,113.12c5.44-.11,10.89-.54,16.27.69-.86,2.26.9,3.32,2.14,4.57,5.85,5.89,11.76,11.7,17.56,17.63,1.69,1.72,3.9,3.28,3.34,6.26a5,5,0,0,1-5.18,2.42c-2.47-.78-4.12-2.68-5.87-4.42-6.8-6.76-13.75-13.39-20.25-20.42C311.48,117.21,307.56,116.54,305.91,113.12Z"/><path class="cls-57" d="M398.78,226.92c-2.22-.21-3.37-2-4.75-3.35q-18.27-18.21-36.48-36.5c-1.95-2-3.94-3.5-6.86-3.23.44-2.55,2.49-2.45,4.35-2.68,3,.1,5.22,1.59,7.3,3.7q16.13,16.29,32.41,32.42a17.4,17.4,0,0,1,4,5.63Z"/><path class="cls-121" d="M391.78,152.93c-2.72-1.06-4.62-3.17-6.61-5.16q-11.09-11.11-22.2-22.18a17.51,17.51,0,0,1-4.09-5.57Q383,128.81,391.78,152.93Z"/><path class="cls-57" d="M328.07,160.27c0-2.8-1.82-4.47-3.6-6.25q-18.14-18.09-36.23-36.23c-1.38-1.38-3.14-2.54-3.35-4.76h4a18.25,18.25,0,0,1,5.6,4q16.1,16.22,32.32,32.31c2.08,2.06,3.78,4.16,3.7,7.27C330.35,158.26,330.05,159.83,328.07,160.27Z"/><path class="cls-122" d="M120,358.87a221.37,221.37,0,0,1,32.89,32.89Q128.91,382.88,120,358.87Z"/><path class="cls-123" d="M344.87,141.87q-12.08-12.28-24.12-24.58c-.77-.78-2.32-1.45-1.75-2.72s2.1-.47,3.18-.76l2.69.13,19.07,19.59c2.66,2.73,5.29,5.48,7.93,8.22C349.57,144.28,347.24,144.22,344.87,141.87Z"/><path class="cls-124" d="M305.91,113.12c4.2.55,7,3.23,9.81,6.12,8,8.23,16.08,16.33,24.14,24.49-.3,2.27-1.89,2.82-3.85,2.87-1.78-.33-2.74-1.78-3.89-2.93Q319.27,130.88,306.48,118c-1.31-1.33-3.41-2.38-2.58-4.89Z"/><path class="cls-125" d="M370.05,159.94c4.86,6.49,11.08,11.67,16.79,17.34,3.44,3.43,6.07,7.9,11,9.65,1.15,6.62,1,13.3.82,20a1.11,1.11,0,0,1-1.43-.23A9.74,9.74,0,0,1,396,201.4c.95-3.8-.53-6.74-3.15-9.37-6.43-6.44-12.89-12.86-19.3-19.32-2-2-4-3.93-5.13-6.62C368,163.78,367.71,161.51,370.05,159.94Z"/><path class="cls-70" d="M328.94,156.1c.21-2.9-1.88-4.45-3.62-6.21L288.9,113l4,0q16.83,17,33.65,34.07c1.51,1.53,2.89,3.19,4.33,4.79C332.09,154.18,331.5,155.6,328.94,156.1Z"/><path class="cls-70" d="M398.75,222.91,361.9,186.47c-1.76-1.75-3.33-3.82-6.22-3.62.52-2.52,1.92-3.13,4.17-1.93q15.11,14.87,30.24,29.72c2.84,2.79,5.76,5.51,8.65,8.26Z"/><path class="cls-126" d="M113,238.92c8.87,8.73,17.77,17.42,26.6,26.19,10.84,10.77,21.6,21.61,32.43,32.39,1.49,1.48,2.74,3.46,5.3,3.23,2.86.49,4.07,2.17,3.6,5-3,1.08-4.11-1.53-5.6-3q-28.67-28.5-57.21-57.11c-1.5-1.5-2.71-3.47-5.12-3.73Z"/><path class="cls-69" d="M397.86,206.91h.82l0,5Q383.65,197,368.59,182.19c-1.53-1.51-3.2-2.86-4.81-4.28-.35-1.6.59-2.28,1.9-2.7,2.65-.11,4.19,1.78,5.82,3.39,7.45,7.36,14.78,14.83,22.25,22.15C395.6,202.56,396.61,204.78,397.86,206.91Z"/><path class="cls-69" d="M303.9,113.12q14.09,14.25,28.15,28.53c1.37,1.4,2.58,3,3.87,4.45.13,1.49-.49,2.19-2,1.92-8.4-9.65-18-18.16-26.81-27.36-2.41-2.51-4.79-5-7.18-7.56Z"/><path class="cls-103" d="M181,305.76l-3.6-5c-.72-3.62-2.67-6.68-4.44-9.82q-1.94-5.52-3.86-11.05l-3-17.26c-.07-1.23-.14-2.46-.2-3.69,0-3,.08-6,.11-9-.74-2.14-1.41-4.26.78-6l1.26-7.93a17,17,0,0,0,1.74-6.05c1-2.66,1.93-5.33,2.9-8q1-2.5,2.12-5a17.77,17.77,0,0,0,3-6l4-6a107.42,107.42,0,0,1,25.14-24.39l7.11-4.32,2.86-1.41a7.76,7.76,0,0,0,4-1.9,4.13,4.13,0,0,0,3-1.1,2.41,2.41,0,0,1,3-1l3-1c1.09-1.22,2.31-2,4-1l4-1,6-1c1.8-2.44,4.71-1.76,7.1-2.53,1.84-.08,3.35.81,4.88,1.62l4,.05,1.92.14c2.9,1.06,5.95.82,8.95,1l9,2c1.91,1,3.8,2.06,6.07,1.91L299,176.92a99.73,99.73,0,0,1,35.87,35.88L340.81,226c-.13,2.27.91,4.16,1.91,6.07.66,3,1.32,6,2,9,.22,3,0,6,1,8.94,0,.64.09,1.28.14,1.92l.06,4c.8,1.54,1.69,3,1.61,4.87-.78,2.4-.07,5.32-2.53,7.12l-1,6-1,4a2.81,2.81,0,0,1-1.05,4l-1,3a2.4,2.4,0,0,1-1,3,4.25,4.25,0,0,0-1.11,3,8.16,8.16,0,0,0-1.89,4c-.48,1-.95,1.9-1.42,2.86L332,303.87A109.54,109.54,0,0,1,306.88,330l-6.05,3.72L294.89,337l-5,2.13-7,2.73a19.13,19.13,0,0,0-7,1.88L267.9,345c-1.66,2-4.29,1.59-6.35,2.61-2.8.55-5.42.31-7.65-1.7l-4.68-.22L232.91,343l-12-4.08c-2.62-1.83-6.16-1.8-8.53-4.16A105.74,105.74,0,0,1,181,305.76Z"/><path class="cls-127" d="M200.92,397.81c-3.76.54-6.52-.85-9.24-3.59q-36.9-37.2-74.1-74.1c-2.74-2.71-4.13-5.48-3.58-9.23a4.3,4.3,0,0,1,.84.54q42.78,42.75,85.54,85.54A4.82,4.82,0,0,1,200.92,397.81Z"/><path class="cls-103" d="M333.9,148l2-1.92,3.94-2.37,5-1.86,7-.12q15.06,3.12,18.18,18.19l-.12,7c.91,2.26.2,4.3-.88,6.29a4.74,4.74,0,0,1-3.34,2.62c-.65.68-1.29,1.37-1.93,2l-3.93,3-4.17,1.93a10.85,10.85,0,0,0-5,1l-.43-.12-.42.17-7-.95c-6.89-2.94-11.8-7.75-14.16-15q-.39-3-.8-6c.06-.56.11-1.13.17-1.69.91-1.26.77-2.74.87-4.17l1.94-4.17Z"/><path class="cls-71" d="M166.79,243.89a13,13,0,0,1-.78,6c-6.25-5-11.5-11.07-17.19-16.67-10.56-10.41-20.92-21-31.52-31.38-2.65-2.59-4-5.24-3.11-8.85,3.77,2.22,6.72,5.37,9.79,8.41Q145.35,222.69,166.79,243.89Z"/><path class="cls-128" d="M261.88,345.78a12.75,12.75,0,0,1,6-.77c.25,2.23,2,3.37,3.42,4.76q21.51,21.57,43.07,43.12c1.38,1.38,3.16,2.53,3.5,4.71l-5,.15a20.69,20.69,0,0,1-6.56-4.42c-13.6-13.7-27.3-27.3-40.88-41C263.65,350.55,261,349.09,261.88,345.78Z"/><path class="cls-129" d="M261.88,345.78c4.41,5.67,9.89,10.31,14.88,15.41,12,12.24,24.05,24.38,36.09,36.56-6,1.19-10.22-1.32-14.38-5.63-13.53-14-27.46-27.63-41.21-41.42-1.39-1.38-3.16-2.54-3.36-4.78Z"/><path class="cls-130" d="M345,267.93a18.07,18.07,0,0,1,.83-7c2.42-1,3.75.78,5.09,2.11q22,21.78,43.79,43.7c1.48,1.47,2.06,3.37,3,5.12-.05,2.64-.11,5.29-.16,7.93q-23.9-23.76-47.79-47.5C348.24,270.8,346.6,269.39,345,267.93Z"/><path class="cls-130" d="M250.85,166a18.72,18.72,0,0,1-7,.84Q223,145.7,202.08,124.61c-3.39-3.43-6.73-6.91-10.09-10.36l7.93-.17a19.23,19.23,0,0,1,6.19,4c13.82,13.92,27.75,27.74,41.56,41.67C249.31,161.46,251.89,162.83,250.85,166Z"/><path class="cls-87" d="M226.86,170.77l-3,1q-22.77-23-45.51-45.94c-3.13-3.17-6.14-6.47-9.21-9.71a5.1,5.1,0,0,1,5,1.51Q200.49,144.23,226.86,170.77Z"/><path class="cls-81" d="M233.86,168.74l-4,1c-.28-2.42-2.27-3.6-3.75-5.1Q201.6,139.93,177,115.21a5.29,5.29,0,0,1,5.38,1.68Q208.09,142.84,233.86,168.74Z"/><path class="cls-81" d="M342,281.93l1.05-4Q369,303.7,394.92,329.43a5.31,5.31,0,0,1,1.68,5.38c-16.28-13.43-30-29.44-45.26-43.95Q346.66,286.4,342,281.93Z"/><path class="cls-87" d="M340,287.93c.35-1,.69-2,1-3q26.55,26.35,53.12,52.72a5.13,5.13,0,0,1,1.51,5c-5.59-5.42-11.22-10.79-16.76-16.25Q359.41,307.2,340,287.93Z"/><path class="cls-77" d="M250.85,166c-4.4-5.66-9.87-10.29-14.86-15.38-12-12.22-24-24.34-36.07-36.49a7.42,7.42,0,0,1,6.8,2.11q23.92,24.1,48,48.08a12.76,12.76,0,0,1,1.17,1.61Z"/><path class="cls-77" d="M397.72,311.89q-23.52-23.34-47.05-46.67c-1.53-1.5-3.22-2.85-4.83-4.27l.09-5q15.3,15,30.58,30.11c6.15,6.09,12.17,12.31,18.4,18.32C397.15,306.53,398.31,308.81,397.72,311.89Z"/><path class="cls-120" d="M367.64,172.86q1.14-3,2.29-5.91,13.15,13,26.33,25.92c2.39,2.34,1.35,5.31,1.57,8-1.92.87-3.21-.39-4.35-1.49-8.44-8.15-16.66-16.51-24.93-24.83A4.46,4.46,0,0,1,367.64,172.86Z"/><path class="cls-41" d="M367.64,172.86c2.4.18,3.66,2.06,5.16,3.53q12.54,12.26,25,24.53l0,6q-13.49-13.23-27-26.44c-1.65-1.62-3.45-3.08-5.17-4.62C366.35,174.86,367,173.86,367.64,172.86Z"/><path class="cls-26" d="M204.79,228.65a50.75,50.75,0,0,1,26-24.83c2.67-1.15,4.46.43,6.12,2.09q34.59,34.44,69,69c1.66,1.67,3.21,3.47,2.08,6.13A50.92,50.92,0,0,1,283.12,307c-2.73.62-4.32-1.23-5.94-2.84q-34.83-34.74-69.56-69.56C206,233,204.18,231.38,204.79,228.65Z"/><path class="cls-47" d="M308,281.07c-.23-2.2-1.88-3.44-3.28-4.84q-34.54-34.58-69.12-69.12c-1.4-1.39-2.63-3.06-4.83-3.29a14.5,14.5,0,0,1,7.18-2.93c2.88-1,4.71.85,6.45,2.58q32,31.92,63.94,64c1.72,1.73,3.58,3.55,2.58,6.44A14.63,14.63,0,0,1,308,281.07Z"/><path class="cls-113" d="M204.79,228.65a35.76,35.76,0,0,0,2.49,3.09q36.36,36.4,72.76,72.77a37.32,37.32,0,0,0,3.08,2.5,16.61,16.61,0,0,1-7.08,3.25c-2.38-.58-4-2.22-5.68-3.88q-32.46-32.47-64.93-64.93c-1.66-1.66-3.3-3.3-3.89-5.67A17.11,17.11,0,0,1,204.79,228.65Z"/><path class="cls-92" d="M265.05,313c-4.65,1.69-9.42,1-14.17.74a16.13,16.13,0,0,1-5.1-3.92Q223.94,287.86,202,266a16.05,16.05,0,0,1-3.92-5.11c-.24-4.75-.93-9.53.73-14.19,2.75,1.44,4.12,4.25,6.23,6.35q26.93,26.74,53.67,53.67C260.81,308.84,263.61,310.23,265.05,313Z"/><path class="cls-55" d="M201.54,235.78a38.79,38.79,0,0,1,3.47,2.75q34.17,34.11,68.26,68.26a39,39,0,0,1,2.77,3.47,11.25,11.25,0,0,1-5.91,1.73c-2.59,1-4.05-.85-5.54-2.34q-31.17-31.25-62.42-62.42c-1.47-1.48-3.37-2.92-2.34-5.52A10.47,10.47,0,0,1,201.54,235.78Z"/><path class="cls-131" d="M199.83,241.71c.64,2.7,3.2,3.71,4.91,5.43Q236.3,279.06,268,310.8a9,9,0,0,0,2.11,1.19c-1.5,1.32-3.33.95-5.08,1-2.41.1-3.95-1.37-5.51-2.94q-28.88-28.92-57.81-57.8c-1.56-1.57-3-3.12-2.92-5.52C198.84,245,198.53,243.18,199.83,241.71Z"/><path class="cls-132" d="M198.08,260.91a19.19,19.19,0,0,1,5.55,4.17q21.51,21.59,43.09,43.09a18.68,18.68,0,0,1,4.16,5.55,35.72,35.72,0,0,1-11-2q-20.15-19.65-39.8-39.79A34.8,34.8,0,0,1,198.08,260.91Z"/><path class="cls-133" d="M200.11,271.89c2.29-.2,3.63,1.31,5,2.73q16,16,32,32c1.41,1.42,2.93,2.76,2.73,5Q209.39,302.41,200.11,271.89Z"/><path class="cls-134" d="M310.91,273.86c-.25-2.21-2-3.39-3.36-4.78q-32.4-32.43-64.83-64.83c-1.39-1.39-2.58-3.11-4.79-3.36,1.09-1.19,2.53-1,3.93-1,2.86-.91,4.74.83,6.49,2.58q30.57,30.48,61,61.05c1.75,1.76,3.46,3.65,2.57,6.51C312,271.37,312.06,272.79,310.91,273.86Z"/><path class="cls-82" d="M312,270c-.27-2.19-1.93-3.42-3.32-4.81q-31-31-62-62c-1.4-1.4-2.61-3.07-4.8-3.34,1.45-1.26,3.2-1.06,4.92-1,2.56-.55,3.91,1.31,5.39,2.79q28.92,28.86,57.77,57.76c1.29,1.29,2.65,2.53,3.22,4.35a1.41,1.41,0,0,1-.2,1.33C313,266.78,313.23,268.53,312,270Z"/><path class="cls-81" d="M312.91,247c-.55,2.1.95,3.91.86,6-2.25.84-3.35-.9-4.59-2.14Q285.11,226.7,261,202.62c-1.24-1.24-3-2.34-2.14-4.59,2.11-.18,4.22-.35,6.16.8a31.1,31.1,0,0,1,8.14,6.39q17,17.17,34.19,34.18A24.8,24.8,0,0,1,312.91,247Z"/><path class="cls-88" d="M312.62,263.94q-30.51-30.41-61-60.81c-1.52-1.51-3.2-2.87-4.81-4.3a5.44,5.44,0,0,1,4.14-.75,15.91,15.91,0,0,1,5.67,3.9c17.76,17.89,35.65,35.64,53.44,53.5C312.39,257.85,314.65,260.23,312.62,263.94Z"/><path class="cls-135" d="M271.87,200.12c4.86.83,9,3.18,13,5.94A154.6,154.6,0,0,1,305.78,227a32.68,32.68,0,0,1,5.9,13c-2.3,1.5-3.82-.18-5.17-1.51Q289.83,222,273.38,205.29C272.05,203.94,270.37,202.42,271.87,200.12Z"/><path class="cls-87" d="M312.62,263.94c.94-3.14-1.1-4.92-3-6.83q-27.35-27.3-54.65-54.64c-1.4-1.41-2.69-2.92-4-4.39l4-.07a17.74,17.74,0,0,1,5.62,4q24.59,24.69,49.28,49.28a17.63,17.63,0,0,1,4,5.63c.15,2.76.54,5.55-.83,8.15Z"/><path class="cls-80" d="M271.87,200.12a5.62,5.62,0,0,0,2,3.31l34.46,34.47a5.66,5.66,0,0,0,3.31,2c.76,2.28,1.71,4.52,1.23,7-13.29-13.13-26.62-26.22-39.84-39.42-2.79-2.77-6.07-5.14-8-8.7A14,14,0,0,1,271.87,200.12Z"/><path class="cls-86" d="M313.79,256.91q-22.86-22.65-45.69-45.32c-4.48-4.45-8.81-9.05-13.2-13.58l4,0q27,27.91,54.87,54.87C313.77,254.24,313.78,255.57,313.79,256.91Z"/><path class="cls-136" d="M305.78,227c-4.2-1.41-6.47-5.14-9.29-8.08-4-4.15-9.08-7.34-11.62-12.81A43.12,43.12,0,0,1,305.78,227Z"/></g></g></svg>