<svg xmlns="http://www.w3.org/2000/svg" viewBox="0 0 500.06 499.61"><defs><style>.cls-1{fill:#0375b4;}.cls-2{fill:#0b6293;}.cls-3{fill:#0170aa;}.cls-4{fill:#066ca5;}.cls-5{fill:#0c6599;}.cls-6{fill:#096191;}.cls-7{fill:#0e6496;}.cls-8{fill:#0771ad;}.cls-9{fill:#0572b0;}.cls-10{fill:#046da8;}.cls-11{fill:#0a679d;}.cls-12{fill:#08699e;}.cls-13{fill:#076aa1;}.cls-14{fill:#0474b2;}.cls-15{fill:#fff;}.cls-16{fill:#0e4d6d;}.cls-17{fill:#0e4e6f;}.cls-18{fill:#0c5c88;}.cls-19{fill:#09608e;}.cls-20{fill:#0a5f8f;}.cls-21{fill:#0b5b85;}.cls-22{fill:#0c5881;}.cls-23{fill:#0b5e8b;}.cls-24{fill:#0a5983;}.cls-25{fill:#085e8d;}.cls-26{fill:#0d6496;}.cls-27{fill:#104f71;}.cls-28{fill:#095f8e;}.cls-29{fill:#0f557b;}.cls-30{fill:#09577f;}.cls-31{fill:#0b557d;}.cls-32{fill:#0e5e8a;}.cls-33{fill:#145275;}.cls-34{fill:#0f4c6c;}.cls-35{fill:#104d6c;}.cls-36{fill:#0d5b87;}.cls-37{fill:#0c557d;}.cls-38{fill:#114f73;}.cls-39{fill:#0d5379;}.cls-40{fill:#0f5175;}.cls-41{fill:#0f5277;}.cls-42{fill:#0c547b;}</style></defs><g id="Layer_2" data-name="Layer 2"><g id="Layer_1-2" data-name="Layer 1"><path class="cls-1" d="M197.11,493.58a206.91,206.91,0,0,1-55.86-19.08C70.83,438.85,24.57,383,7,306c-18.73-82.19.28-156.4,55.19-220.54,36.09-42.15,81.9-69.55,136.37-80,93.23-17.88,173,8.34,237.69,78,33.07,35.63,52.69,78.37,60.49,126.31a242.21,242.21,0,0,1-7.85,112.88c-4.18,2.34-5-2.62-7.72-3.51-1.83-1.12-2.69-3.16-4.28-4.52-3.43-3-6.51-6.36-9.75-9.55-1.76-1.08-2.6-3-4.09-4.35a58.7,58.7,0,0,1-5-5.06c-2.22-1.74-3.92-4-6.16-5.75-3.36-2.61-5.59-6.32-8.8-9.07-2.53-2.14-4.56-4.79-7.14-6.88-3.32-2.71-5.81-6.21-8.83-9.21-2.71-2-4.6-4.89-7.22-7-4.37-4.31-8.76-8.59-12.94-13.09-5.76-5.52-11.65-10.89-16.7-17.09a21.47,21.47,0,0,0-6.9-5.65c-3.25-2.6-5.41-6.25-8.67-8.88-11.12-9-24.13-12.39-38-14.43-19.57-2.87-36.18,3.54-51.81,14.23-1.92,1.3-3.69,2.87-6.17,3-5.77-1-8.38-6-12.14-9.54-1.19-1.12-1.91-2.7-3.77-2.92-4.25-1.17-8.7.08-13-1-8.27-5.75-14.65-13.53-21.8-20.49a10.83,10.83,0,0,0-1.82-1.63c-6.39-5.14-11.18-11.84-17.07-17.47q-14.83-14.13-29-29c-3.78-3.49-7.65-6.88-10.74-11.05a15.74,15.74,0,0,0-5.77-4.65c-4.46-4.42-8.5-9.19-14.46-12-21.28-10-46.15,4.91-46.8,28.43-.24,8.61,3,16.25,8.81,22.72,2.22,2.48,4.69,4.71,7,7.08,4.23,6,10.75,9.81,15.28,15.55,4.8,4.54,9.62,9.08,14,14,1.71,1.91,3.81,4.28.09,6.5-10.29,1.18-20.61.29-30.92.56-2.16.06-4.32,0-6.49.1-3,.14-4.56,1.66-4.72,4.67-.07,1.33-.1,2.66-.1,4q0,90.65,0,181.28a52.43,52.43,0,0,0,.22,5.47,10,10,0,0,0,.8,3.07c5.7,6.14,12,11.67,17.63,17.92a84.69,84.69,0,0,1,6.1,6.18,70.49,70.49,0,0,1,6.05,6c2.4,2.26,4.84,4.48,7.07,6.92s4.91,4.46,7,7c2.87,3.12,6.25,5.75,8.93,9,4.44,4.14,8.8,8.36,12.87,12.85a92.86,92.86,0,0,1,7,7,63.2,63.2,0,0,1,5,5.05c1.82,1.51,3.21,3.46,5,4.95a27.29,27.29,0,0,1,3.26,3.28C194.11,488.33,198.22,489.38,197.11,493.58Z"/><path class="cls-2" d="M218.08,497.4l-18-3c-1.83-2-.71-3.7.47-5.36a36.08,36.08,0,0,1,4.08-4.39q60.94-60.93,121.88-121.86a25.19,25.19,0,0,1,5.23-4.61c1.89-1.07,4-2.28,5.51.58a148,148,0,0,1,.16,16.58c-1.58,3.14-4.17,5.44-6.6,7.86q-53.25,53.26-106.51,106.51A32.47,32.47,0,0,0,218.08,497.4Z"/><path class="cls-3" d="M482,317.68c2.62,1.21,3.74,4.49,6.88,5a41.92,41.92,0,0,1-3.83,11c-48.42,49.18-97.65,97.56-146.16,146.66-1.53,1.54-3.53,2.53-4.78,4.33-6.41,2.79-12.95,5.13-19.94,6-1.76.6-1.5-.75-1.35-1.59.37-2.08,1.92-3.45,3.32-4.86q40.23-40.29,80.49-80.53Q436.5,363.79,476.39,324C478.39,322,479.63,319.31,482,317.68Z"/><path class="cls-4" d="M298.09,494.57a83.61,83.61,0,0,1-20.86,3.11c-2.09-1.55-2.16-1.64-1.4-3.34a16.24,16.24,0,0,1,3.76-4.61q42.84-42.9,85.75-85.72c2.31-2.31,4.6-4.78,7.91-5.79,5.55-.05,11.1-.31,16.64.14,2.87,1.33,2.18,3.36.91,5.33a22.85,22.85,0,0,1-3.42,3.61q-39.45,39.46-78.91,78.95C305.31,489.43,302.38,492.83,298.09,494.57Z"/><path class="cls-5" d="M336.05,376.64v-19c-2.66-1.86-2-4.69-2.1-7.27-.09-1.82.59-3.61.28-5.44-.93-3.34.69-6.76-.33-10.1-.36-2.73,1.07-5.46,0-8.18-.44-3.36,1.09-6.72,0-10.08-.42-4.67.85-9.35,0-14,0-3.73-.08-7.48.2-11.2.13-1.78.41-3.57,1.94-4.83,2.71.23,2.95,2.3,3.15,4.32.23,2.32.16,4.66.16,7q0,45,0,89.91a56.14,56.14,0,0,0,.24,7.46c.33,1.75,1.73,2.8,2.78,4.09.85,3.88-2.27,5.65-4.39,7.77q-42.81,43-85.75,85.8c-1.89,1.88-3.85,3.67-4.09,6.56-6.7.53-13.32-.52-20-1-1.53-1.95-.2-3.43.87-4.87a44,44,0,0,1,4.46-4.7q47.07-47.08,94.19-94.11c3.88-3.87,7.48-7.54,6.51-13.66C333.88,379.41,334.84,377.88,336.05,376.64Z"/><path class="cls-6" d="M336.05,344.66v13a18.16,18.16,0,0,0-5.95,4.45q-63.24,63.27-126.5,126.52c-1.62,1.63-3.66,3-3.47,5.77a4.19,4.19,0,0,1-3-.82q-3-3.49-5.89-7c.28-2.19,2-3.41,3.36-4.8q66.64-66.63,133.34-133.23C330,346.44,331.78,342.66,336.05,344.66Z"/><path class="cls-7" d="M336.05,376.64c1.39,8.77-2,15-8.43,21.27-32.2,31.51-63.88,63.55-95.72,95.43-1.49,1.49-3.43,2.72-3.78,5.09l-10-1c-2.17-1.52-1.47-2.88.1-4.4,3.36-3.24,6.61-6.58,9.91-9.87q51.22-51.22,102.46-102.43C332.16,379.09,333.47,377,336.05,376.64Z"/><path class="cls-8" d="M334.12,484.68c.66-3.07,2.68-5.29,4.8-7.41L477.66,338.52c2.13-2.12,4.35-4.12,7.4-4.83-1.94,5.9-3.62,11.91-6.89,17.28-3.23,1.91-4.48,5.52-7.05,8.07q-55.58,55.27-110.87,110.83c-2.82,2.82-6.57,4.54-8.86,7.92A80.24,80.24,0,0,1,334.12,484.68Z"/><path class="cls-9" d="M351.39,477.79c-1.38-2.29,1-2.9,1.95-3.88q60.42-60.56,121-121c1-1,1.56-3.33,3.86-2a166.37,166.37,0,0,1-15.65,29.81c-1.84.23-2.84,1.63-4,2.84-22.32,24.21-46.37,46.7-69.38,70.23-2.49,2.55-6.27,3.86-7.45,7.69C372.53,468.66,361.73,472.8,351.39,477.79Z"/><path class="cls-10" d="M482,317.68c.55,3.52-1.92,5.42-4,7.53q-80.43,80.42-160.8,160.87c-1.24,1.25-3.62,2-3,4.58a18.6,18.6,0,0,1-8.05,2.26c-1.78-3.42.87-5.19,2.78-7.11q31.54-31.62,63.14-63.2c7.74-7.77,15.72-15.29,23.1-23.41a7.61,7.61,0,0,0,2.43-2.76c.65-1.89.33-4,1.4-5.81,23.79-24.41,48.13-48.28,72.18-72.43,1.95-2,3.59-4.51,6.86-4.53C479.88,314.48,480.63,316.39,482,317.68Z"/><path class="cls-11" d="M248.08,499.43c-5.15-1.33-2.05-3.24-.32-5q45.15-45.18,90.31-90.34c1.4-1.4,2.66-2.95,4-4.43,2.93-2.81,6.47-1.17,9.75-1.35,3,1.23,2.26,3.3,1.08,5.3a27,27,0,0,1-4.66,5.19Q307.12,450,266,491.1a26.25,26.25,0,0,0-4.1,4.48c.36,1.86,3,1.31,3.42,3.13C259.61,500,253.83,499.55,248.08,499.43Z"/><path class="cls-12" d="M265.31,498.71c-2.48-.63-6.33,1.27-7.23-1.31-.8-2.32,2.85-4.06,4.66-5.88q43.1-43.22,86.26-86.35c1.61-1.61,3.72-2.9,4.06-5.48,2.92-2.79,6.44-1.19,9.72-1.32,2.51,1,1.85,2.78.89,4.48a22.65,22.65,0,0,1-3.93,4.48q-43,43-85.93,86a29.58,29.58,0,0,1-7.72,5.28l-.38.17Z"/><path class="cls-13" d="M266.09,498.63c1.43-1.61,2.79-3.29,4.31-4.81q44.82-44.86,89.65-89.7c1.41-1.4,2.68-2.94,4-4.42,2.66-2.19,5.32-2.18,8,0-1.32,1.48-2.58,3-4,4.43q-44.21,44.25-88.39,88.51c-1.26,1.27-4.34,2.1-2.44,5.05C273.61,499.09,269.83,498.61,266.09,498.63Z"/><path class="cls-14" d="M381.73,461.54c-1.33-2.18.31-3.39,1.58-4.66q36.94-37,73.92-74c1.5-1.5,3.1-2.48,5.29-2.14-9.73,15.2-20.3,29.71-32.91,42.71A242.51,242.51,0,0,1,381.73,461.54Z"/><path class="cls-10" d="M396.05,399.69c-.29,2.39-2.21,3.63-3.71,5.13Q351.71,445.52,311,486.16c-2,2-4.14,3.88-4.89,6.76-2.62.83-5.21,1.81-8,1.65,1.32-1.48,2.58-3,4-4.44q42.45-42.48,84.91-85c1.61-1.61,3.72-2.91,4.07-5.48C392.72,398,394.38,398,396.05,399.69Z"/><path class="cls-15" d="M400.08,390.64l-.13,7.72c-.68,1-1.75.76-2.71.76q-28.87,0-57.75,0a3.62,3.62,0,0,1-2.36-.53q-.06-50.85-.13-101.69c0-3.47.39-7-.79-10.37a2.75,2.75,0,0,1-1.25-.93c-1.9-3.43-.61-7.59-2.52-11-1.23-3.05-1.94-6.32-3.62-9.2-1.56-3.07-2.85-6.34-6-8.29a53.39,53.39,0,0,0-9.39-4,47.72,47.72,0,0,0-11.37-.9,69.08,69.08,0,0,0-7.88,1.06c-11.16,2.51-18.46,9.35-21.86,20.2-1.23,3.92-2.79,7.83-2.71,12.07,0,4.52-1.31,9-.31,13.52.36,4.87-.76,9.73,0,14.59.45,4.65-.9,9.29,0,13.93.23,4.36-.43,8.71-.22,13.07.84,4.33-.8,8.7.22,13,.34,5.62-.69,11.24,0,16.87.46,4.69-.9,9.38,0,14.07.33,3.54-1,7-.25,10.6-.34,3.58-2.34,5.41-5.9,5.27-17.88-.7-35.77-.09-53.65-.32-2,0-4,.26-5.77-1a5.17,5.17,0,0,1-1.37-4.09c.5-62.68.1-125.36.25-188,0-2.14-.32-4.35.81-6.36a4.85,4.85,0,0,1,4.6-1.66c10.62-.86,21.26-.33,31.89-.49a16.86,16.86,0,0,1,9.1,2.1c5.05.89,10.28-.9,15.27,1C267,206,266,211,266.19,215.73c.1,2.11-.41,4.27.45,6.61,3.74-2.87,6.32-7.26,11.5-7.53,10.73-7.57,21.56-15.24,34.81-17.41,22-3.63,42.93-.73,61.51,12.78,4.07,3,6.92,7.08,10.36,10.64C394,230,397.45,241.63,399,254.05a63.57,63.57,0,0,1,2.12,19.56c-.07,1.83-.19,3.62.78,5.27,1,4.27-.7,8.59.34,12.85.22,5.94-.48,11.88,0,17.82.38,5-.82,10,0,15,.27,5.61-.6,11.23-.05,16.84.34,3.73-.48,7.41-.32,11.13,1,3.64-.73,7.36.33,11,.25,2.79-1,5.58,0,8.36,0,4.12,0,8.24-.07,12.35C402.19,386.62,401.78,388.84,400.08,390.64Z"/><path class="cls-15" d="M103.94,398.83c-1.46-1.57-.74-3.5-.75-5.24,0-63.13,0-126.27-.14-189.4,0-4.49,1.16-5.53,5.51-5.46,13.49.24,27,0,40.46-.09,5.5-3.72,11.44-2.41,17.18-1.13,2.64.59,2.57,3.56,2.74,5.9.81,11.73.4,23.48.12,35.22.52,10.69.37,21.38.08,32.06a13.29,13.29,0,0,0,.26,4.87c-.24,12.27.29,24.55-.4,36.82,1,5-.47,10.1.37,15.12.25,4.41-.44,8.79-.32,13.19.62,6.92.21,13.84-.05,20.75.81,4.06-.15,8.11,0,12.16,1,4.37-.7,8.8.35,13.17-.17,4.22.42,8.56-2,12.42-2,1.29-4.17.92-6.3.93q-24.94,0-49.89,0C108.69,400.13,106.17,400.28,103.94,398.83Z"/><path class="cls-15" d="M117,165.79c-1.76-1.63-3.55-3.23-5.28-4.89-10.1-9.72-13.76-21.46-9.92-35,4-13.9,13.58-22.43,27.75-24.75,13.52-2.22,24.85,2.47,33.31,13.49.6.78,1.28,1.5,1.92,2.25,6.79,7.11,9,15.32,6,24.82a9.1,9.1,0,0,0-.22,2.45c-3.59,13.71-12.33,22.45-25.78,26.64-2.29.15-4.52.75-6.8,1C130.22,172.65,123.08,171.12,117,165.79Z"/><path class="cls-16" d="M145.13,168.85c11.88-4.2,19.68-12.39,23.76-24.23,3.23-4.87,6-10.22,12.27-12q15,14,29,29c.88,2.31-.56,3.85-2,5.25-11.68,11.83-23.39,23.62-35.29,35.24-1.46,1.43-3.15,3.24-5.62,1.54.47-4.08-1.25-5.38-5.34-5-4.27.4-8.61,0-12.92-.07L131.9,180.8C134.85,175.2,139.8,171.82,145.13,168.85Z"/><path class="cls-17" d="M167.29,203.71a7.19,7.19,0,0,0,2.22-1c13.58-13.64,27.6-26.84,40.64-41,6.45,4.94,11,11.73,16.95,17.21,1.45,1.93.37,3.59-.9,4.85-5.84,5.81-10.9,12.47-18.08,16.84l-3.9.23c-1.28,1.44-.2,3.24-.72,4.8-9.3,11.63-20.6,21.33-31,31.9-1.33,1.34-3,2.8-5.21,1.18Z"/><path class="cls-18" d="M171.24,466.54a90,90,0,0,1-13-13c-.17-2.49,1.56-3.95,3.07-5.46,15.14-15.25,30.39-30.39,45.56-45.6,1.6-1.61,3.14-3.58,5.86-3.35h23.72c2.46-.1,2.29,1.37,1.65,2.94-.78,1.89-2.31,3.23-3.72,4.64q-28,28.08-56.14,56.09C176.36,464.7,174.73,467.49,171.24,466.54Z"/><path class="cls-4" d="M400.08,390.64v-19a25.24,25.24,0,0,1,6-8.43q27.57-27.4,55-54.95c2-2,3.89-4.13,6.92-4.56a57,57,0,0,1,10,10c-1.2,1.37-2.33,2.81-3.62,4.09q-34.56,34.62-69.17,69.18C403.72,388.44,402.48,390.36,400.08,390.64Z"/><path class="cls-19" d="M336.05,344.66c-2.59.33-3.89,2.44-5.5,4Q263.61,415.6,196.7,482.5c-1.61,1.6-2.9,3.74-5.48,4.08a7,7,0,0,1-3.06-3.07c-1.38-1.68-.45-3.12.51-4.51a24.34,24.34,0,0,1,3-3.32Q260.35,407,329.06,338.37c1.88-1.88,3.49-4.7,7-3.71Z"/><path class="cls-20" d="M336.05,334.66c-1.48,1.32-3,2.58-4.44,4Q261.9,408.31,192.24,478c-1.61,1.61-3.75,2.89-4.08,5.48a14.62,14.62,0,0,1-4.94-4.95c0-3.29,2.55-4.92,4.49-6.87,23.14-23.21,46.33-46.38,69.87-69.91-2.59-.29-4.9.13-7.1-.46-4.19-.17-8.71,2.19-12.42-1.63h-27c-2.54,1.2-5.22,3.29-6.92-1.06,19.55,0,39.09,0,58.63.16,3.33,0,4.42-1.17,4.3-4.16a26.7,26.7,0,0,1,6.34-8.75c18.58-18.48,37.06-37.07,55.66-55.53,1.87-1.87,3.47-4.7,7-3.69Z"/><path class="cls-21" d="M204.16,398.64c2.1,1.71,4.62.71,6.93,1.06a30.18,30.18,0,0,1-3.07,4.47q-24,24.15-48.17,48.19a12.42,12.42,0,0,1-1.59,1.19,44.85,44.85,0,0,1-9-9c.28-2.38,2.14-3.67,3.64-5.18,13.86-13.85,27.37-28.07,41.71-41.4,6.54-6.08,7.32-12.78,6.29-20.59q-.06-6,.35-12c-1-4.53.55-9.12-.38-13.65-.49-4,1-8,0-12-.47-4,1-8.07,0-12.11-.21-6.91.45-13.82,0-20.74-.25-4.4.39-8.78.32-13.18-.79-4.72.19-9.47-.16-14.2-.26-12.6-.28-25.2.12-37.8-.55-10-.21-20.05-.21-30.07a8.53,8.53,0,0,1,2.07-5.91c.25-1.67-.4-3.56,1.18-4.9-.05,10.16-.15,20.31-.15,30.47q0,80.68,0,161.37C204,394.65,204.12,396.65,204.16,398.64Z"/><path class="cls-22" d="M203,365.64v13a23.89,23.89,0,0,1-6,8.45c-15.83,15.71-31.52,31.55-47.38,47.22-1.93,1.91-3.61,5.24-7.41,3.23a28.56,28.56,0,0,1-7-7c-.21-2.47,1.49-3.93,3-5.44,7.8-7.83,15.57-15.69,23.52-23.49-3-.11-6.08.38-9.08-.28a57.55,57.55,0,0,1-12.92.12c-9.59.71-19.19.25-28.78.33-2,0-3.88-.77-5.81-1.23l-1.26-1.74,63.1-.22c1.58-3.75,4.26-6.64,7.13-9.45,7.26-7.09,14.29-14.42,21.61-21.45C197.72,365.84,199.75,363.24,203,365.64Z"/><path class="cls-23" d="M238.06,399.69h14c1,2.6-.86,4.1-2.31,5.56q-32.88,33.08-65.94,65.95c-1.49,1.48-3,3.26-5.6,2.34a27.24,27.24,0,0,1-7-7c4.42-4.25,8.89-8.45,13.23-12.78Q209.32,429,234.1,404.13C235.5,402.73,236.75,401.17,238.06,399.69Z"/><path class="cls-5" d="M400.11,341.64v-17a23.84,23.84,0,0,1,6-8.44c11.11-11,22.13-22.08,33.18-33.13,1.4-1.39,2.58-3.11,4.76-3.42,3.68,2.33,5.89,6.12,9,9.06.9,2.56-.84,4.1-2.32,5.6q-22.41,22.6-45,45C404.19,340.78,402.69,342.65,400.11,341.64Z"/><path class="cls-24" d="M142.28,437.57c2.42-.27,3.63-2.25,5.12-3.74q25.64-25.56,51.21-51.16c1.41-1.4,3-2.67,4.44-4,1.58,9.27-1.64,16.11-8.72,22.6C180.41,414,167.43,427.84,154,441.2c-1.38,1.38-2.54,3.14-4.75,3.38A28.3,28.3,0,0,1,142.28,437.57Z"/><path class="cls-25" d="M178.23,473.54c1.71-1.55,3.49-3,5.13-4.68q32.38-32.34,64.74-64.74c1.4-1.4,2.66-2.95,4-4.43h8.69c.55,1.73-.52,2.26-1.16,2.91q-37,37.06-74.08,74.08a27.85,27.85,0,0,1-2.31,1.88A14.71,14.71,0,0,1,178.23,473.54Z"/><path class="cls-11" d="M400.11,341.64q21.11-20.88,42.2-41.77c3.65-3.63,7.13-7.43,10.69-11.15a21.1,21.1,0,0,1,6,5.95c.91,2.55-.81,4.11-2.29,5.6q-25,25.23-50.29,50.26c-1.66,1.64-3.39,4-6.35,2.12Z"/><path class="cls-2" d="M400.12,309.65v-18a23,23,0,0,1,5.95-8.41c5.48-5.3,10.78-10.77,16.2-16.12,1.63-1.6,3.12-3.52,5.77-3.47,3.68,2.34,5.9,6.11,8.95,9.08,1.07,2.89-.75,4.84-2.45,6.6q-13.65,14.21-27.87,27.86C405,308.86,403,310.82,400.12,309.65Z"/><path class="cls-12" d="M400.1,352.65c1.63-.14,2.68-1.23,3.74-2.29q26.85-26.85,53.68-53.71a17.51,17.51,0,0,0,1.51-2,16.53,16.53,0,0,1,5,5c.93,2.57-.82,4.12-2.31,5.61q-27.93,28.11-56,56c-1.47,1.46-3,3.33-5.56,2.32Z"/><path class="cls-26" d="M400.12,309.65A269.69,269.69,0,0,0,437,272.74a27.89,27.89,0,0,1,7,6.92,8.76,8.76,0,0,1-1.24,2.63q-21.3,21.22-42.68,42.36Z"/><path class="cls-13" d="M400.1,363.64c5.93-5.77,11.91-11.5,17.78-17.34q21.14-21,42.19-42.19c1.39-1.4,2.64-2.95,3.95-4.44,1.86.82,2.63,2.72,4,4-2.61,2.78-5.16,5.62-7.84,8.32q-27.8,27.86-55.65,55.64c-1.4,1.4-2.95,2.66-4.43,4C400.09,369,400.1,366.31,400.1,363.64Z"/><path class="cls-27" d="M208.12,200.58c1.5-4.29,5.57-6.36,8.26-9.62,3.43-4.15,8.39-6.94,10.72-12.07C235,185.54,242,193.06,249,200.59Z"/><path class="cls-28" d="M400,278.69q-1.35-12.51-2.71-25c2.77-4.24,5.36-8.66,10.8-10a110,110,0,0,1,13,13c1.23,1.66.65,3.26-.49,4.54a202.52,202.52,0,0,1-16.91,16.88A3,3,0,0,1,400,278.69Z"/><path class="cls-29" d="M105.2,400.57c2.41-1.65,5.14-.87,7.71-.89,9.08-.09,18.16,0,27.23,0,1.56,1.66,1.15,3.46,0,4.94a107.24,107.24,0,0,1-13.21,13.32,3.4,3.4,0,0,1-3.7.67A250.83,250.83,0,0,1,105.2,400.57Z"/><path class="cls-30" d="M154.11,399.68h10.76l-29.58,30.88a20.75,20.75,0,0,1-6-6c-.21-2.07,1.1-3.41,2.37-4.71,5.45-5.59,11-11,16.5-16.6C149.88,401.49,152.16,400.91,154.11,399.68Z"/><path class="cls-6" d="M400,278.69c7.37-7,15.46-13.33,21.08-22a32.23,32.23,0,0,1,7,7c-8.87,9.77-18.27,19-27.92,28Z"/><path class="cls-31" d="M154.11,399.68c-7.86,8.7-16.2,16.92-24.81,24.87a26,26,0,0,1-6.12-5.94q7.68-7.46,15.37-14.9a5.11,5.11,0,0,0,1.59-4Z"/><path class="cls-32" d="M408.06,243.67c-3.26,3.71-6.16,7.8-10.8,10-2.23-11.68-6-22.78-12.44-32.87C393.34,227.65,400.6,235.76,408.06,243.67Z"/><path class="cls-33" d="M278.14,214.81l-13.83,12.72V201.61Z"/><path class="cls-34" d="M181.16,132.67c-3.7,4.39-7.47,8.69-12.27,12a38.8,38.8,0,0,0-4.08-27.69C171.16,121.24,175.93,127.19,181.16,132.67Z"/><path class="cls-35" d="M145.13,168.85c-4.22,4.2-7.45,9.48-13.23,12a158.4,158.4,0,0,1-14.87-15c5.6,1.52,10.83,4.39,16.91,4.23A77.47,77.47,0,0,0,145.13,168.85Z"/><path class="cls-3" d="M337.13,398.6c20.94,0,41.88.5,62.82-.24-.94,1.49-2.49,1.21-3.9,1.33h-54C340.38,399.49,338.53,400.08,337.13,398.6Z"/><path class="cls-18" d="M336.1,285.68a.67.67,0,0,1,.11.86l-.15,16.13c-1.36,3.47-3.73,6.16-6.34,8.76-18.58,18.5-37.07,37.08-55.67,55.55-1.87,1.87-3.46,4.71-7,3.66a116.08,116.08,0,0,1,0-17,26.87,26.87,0,0,1,6.36-8.75c18.59-18.5,37.08-37.09,55.69-55.57C331,287.47,332.6,284.62,336.1,285.68Z"/><path class="cls-23" d="M267.08,370.64c1.49-1.32,3.06-2.56,4.46-4q30.06-30,60.07-60c1.41-1.4,3-2.65,4.45-4q0,7,0,14c-1.35,3.48-3.73,6.16-6.34,8.76-18.58,18.49-37.06,37.07-55.66,55.54-1.87,1.86-3.47,4.7-7,3.67A78,78,0,0,1,267.08,370.64Z"/><path class="cls-25" d="M267.08,384.65c1.73-1.56,3.53-3,5.17-4.68q29.69-29.64,59.35-59.31c1.41-1.4,3-2.65,4.45-4v10c-2.9,2.74-5.87,5.41-8.69,8.22q-27.93,27.87-55.82,55.78c-1.4,1.4-3,2.65-4.45,4A40.72,40.72,0,0,1,267.08,384.65Z"/><path class="cls-21" d="M330.25,264.37c2.87,2.35,2.63,6,3.93,9.07.72,3.16-.93,5.41-3,7.45q-28.38,28.46-56.86,56.81c-1.93,1.91-3.86,4.42-7.27,3a66.43,66.43,0,0,1,0-13,26.59,26.59,0,0,1,6.35-8.75c16.83-16.73,33.56-33.54,50.36-50.28C325.64,266.79,327.21,264.43,330.25,264.37Z"/><path class="cls-24" d="M330.25,264.37a28.41,28.41,0,0,1-2.12,2.73q-29.34,29.38-58.72,58.72a24.66,24.66,0,0,1-2.32,1.84,77.82,77.82,0,0,1,0-14,26.55,26.55,0,0,1,6.35-8.74q22.4-22.24,44.66-44.61c1.75-1.76,3.37-3.7,6-4.27C327,258.16,329.78,260.41,330.25,264.37Z"/><path class="cls-36" d="M267.09,340.66a17.86,17.86,0,0,0,6-4.43q28.75-28.8,57.54-57.56c1.51-1.52,3.32-2.85,3.6-5.23a27.82,27.82,0,0,1,1.92,12.24c-1.49,1.31-3.06,2.55-4.46,4q-30.06,30-60.1,60.05c-1.4,1.4-3,2.65-4.46,4A67.12,67.12,0,0,1,267.09,340.66Z"/><path class="cls-22" d="M324.07,256.05a6.15,6.15,0,0,1-2.13,3.28q-26.44,26.42-52.88,52.84a18.25,18.25,0,0,1-2,1.5,87.37,87.37,0,0,1,0-15,26,26,0,0,1,6.35-8.76c11.45-11.32,22.8-22.73,34.17-34.13,1.89-1.89,3.75-3.8,6.54-4.29A17.14,17.14,0,0,1,324.07,256.05Z"/><path class="cls-30" d="M314.16,251.49c-4.47,5.81-10,10.58-15.18,15.74-10.54,10.57-21.24,21-31.88,31.44-.11-4.73-.61-9.5.92-14.12,10.3-12.3,21.86-23.35,33.78-34C306,249.5,310.12,250.16,314.16,251.49Z"/><path class="cls-37" d="M301.8,250.51c1.28,1.74-.49,2.39-1.28,3.2q-14.77,14.88-29.66,29.67c-.73.72-1.33,2.17-2.84,1.17C269.63,260,285.38,249.71,301.8,250.51Z"/><path class="cls-38" d="M203,241.71q0,19,0,38a24.13,24.13,0,0,1-4.79,6.27c-8.14,8-16.1,16.19-24.28,24.15-1.77,1.72-3.46,4.33-6.68,2.55v-37a21,21,0,0,1,5.52-8.08c7.9-7.74,15.61-15.68,23.54-23.4C198.12,242.47,199.82,239.87,203,241.71Z"/><path class="cls-27" d="M203,241.71c-2.37.29-3.59,2.22-5.09,3.7q-15.35,15.09-30.64,30.25v-37c2.18-.29,3.34-2,4.72-3.39,8.78-8.74,17.51-17.51,26.28-26.25,1.39-1.37,2.56-3.09,4.75-3.34Q203,223.71,203,241.71Z"/><path class="cls-39" d="M203,306.71q0,10.49,0,21a23.12,23.12,0,0,1-6,8.47c-7.74,7.58-15.28,15.35-23,22.9-1.78,1.73-3.47,4.38-6.72,2.59v-21c1.91-3.79,5-6.55,8-9.47,7.17-7.16,14.28-14.38,21.53-21.46C198.47,308.09,200,305.68,203,306.71Z"/><path class="cls-40" d="M167.29,312.67c2.2-.3,3.36-2.05,4.76-3.43q12.55-12.51,25.06-25.07A18.43,18.43,0,0,1,203,279.7q0,7,0,14c-2.94,5.34-7.73,9-11.88,13.29q-8.86,9.07-18,17.92c-1.59,1.55-3.09,3.67-5.9,2.77Z"/><path class="cls-41" d="M167.29,327.65q15.32-15.13,30.65-30.27c1.5-1.48,2.72-3.39,5.09-3.71q0,6.52,0,13-15.34,15.1-30.68,30.2c-1.5,1.47-2.71,3.4-5.07,3.75Z"/><path class="cls-30" d="M203,365.64c-2.47-.18-3.91,1.5-5.44,3q-13.2,13.21-26.43,26.4c-1.28,1.27-2.75,2.36-4.13,3.54q.12-6,.25-12a21,21,0,0,1,5.55-8.09c8-7.89,15.91-15.95,23.95-23.83,1.68-1.64,3.2-4,6.25-3Z"/><path class="cls-31" d="M203,351.67q-15.16,14.94-30.33,29.88c-1.76,1.73-3.61,3.38-5.42,5.07v-13c1.91-3.79,5-6.55,8-9.47,7.17-7.16,14.27-14.38,21.52-21.45,1.69-1.65,3.2-4.05,6.26-3C203,343.68,203,347.68,203,351.67Z"/><path class="cls-42" d="M203,339.69q-15.33,15.1-30.67,30.21c-1.5,1.47-2.71,3.4-5.07,3.75v-12c2.36-.35,3.57-2.28,5.07-3.75q15.36-15.07,30.67-30.21Z"/></g></g></svg>