<svg xmlns="http://www.w3.org/2000/svg" viewBox="0 0 485.02 485.25"><defs><style>.cls-1{fill:#f0575e;}.cls-2{fill:#592d84;}.cls-3{fill:#fdbb51;}.cls-4{fill:#fff;}.cls-5{fill:#ef4549;}.cls-6{fill:#e6f4f8;}.cls-7{fill:#fffdfd;}.cls-8{fill:#fffefe;}.cls-9{fill:#f6b26e;}.cls-10{fill:#fefefe;}.cls-11{fill:#896aa9;}.cls-12{fill:#8869a8;}.cls-13{fill:#fcb22e;}.cls-14{fill:#f4a01f;}.cls-15{fill:#fdc27e;}.cls-16{fill:#e6f5f8;}.cls-17{fill:#5f99d2;}.cls-18{fill:#6099d2;}.cls-19{fill:#fffffe;}.cls-20{fill:#ffca6c;}.cls-21{fill:#ffc96b;}.cls-22{fill:#fed19d;}.cls-23{fill:#fcfdff;}.cls-24{fill:#fffefd;}</style></defs><g id="Layer_2" data-name="Layer 2"><g id="Layer_1-2" data-name="Layer 1"><path class="cls-1" d="M283.66,481.43c-15.22,3.26-30.67,4.12-46.15,3.74C191,484,148,471.15,109.38,445.25,53.3,407.64,17.3,355.74,4.83,289.24-10.8,205.94,11.63,133,70.38,72c36-37.34,80.43-60,131.73-68.5C266-7,324.94,6.18,378.91,41.85a14.76,14.76,0,0,1,1.8,1.66c-1.28,3.17-4.41,2.77-6.83,3.16-18,2.9-31.87,11.89-41.49,27.42-1.14,1.83-2.4,3.66-4.89,3.88-4.86-.19-8.77-3-13-4.82a184.65,184.65,0,0,0-64.43-14.3c-33.44-1.36-64.68,6-94.24,21.39C143.64,86.57,132.88,95,121.9,103c-.37.27-.49.86-.7,1.32a3.46,3.46,0,0,1-.88,1.2c-6.94,2.8-12.6,6.91-14.89,14.51A4.47,4.47,0,0,1,104,122c-4.18,2.5-6.13,6.95-8.87,10.61C76.05,158,64.7,186.67,60,218c-.65,4.36-2.46,8.59-.76,13.07a52.66,52.66,0,0,0,1,35.54c1.62,19.1,8,36.85,15.76,54.13,10.93,24.22,27.45,44.29,46.85,62.16a23.31,23.31,0,0,0,3.27,2.27c2,1.8,2.24,4.41,3,6.74,7.23,21.59,26.17,35,49.16,35.85a48.72,48.72,0,0,0,20-3.8c2-.82,4-1.79,6.22-.78,23.73,3.57,47.46,4.85,71.24.51,3-.54,6.2-2,9,.75,1.24,1.75,1.14,3.8,1.17,5.77.16,14.79.13,29.57,0,44.36C285.89,477.09,286,479.67,283.66,481.43Z"/><path class="cls-1" d="M442.64,105.73c15.46,21.71,27,45.46,33.4,71.22q35.82,143.25-71,245.74c-.71.68-1.55,1.22-2.33,1.83a2.74,2.74,0,0,1-2.2-2.93c.69-7.66-3.14-13.15-8.38-18-.65-4-1.63-7.92-1.36-12a474,474,0,0,0,7.93-51.11c7.24-11.41,12.65-23.7,17.33-36.33A176.92,176.92,0,0,0,426.9,241c-.18-23.23-4.37-46-13.58-67.6-2-4.72-4.93-9.1-5.82-14.28-.09-2.32,1.37-3.59,3.16-4.64,16.48-9.73,25.84-24.2,28.81-43C439.82,109.32,439.93,106.73,442.64,105.73Z"/><path class="cls-2" d="M393.77,403.19c6.34,3.16,9.23,8.28,8.83,15.35-.11,2,.08,4,.13,6-13,12.62-28,22.37-43.73,31.06a242.85,242.85,0,0,1-71.38,25.57,32.37,32.37,0,0,1-4,.28q-.11-28.46-.22-56.89c-5.22-6.62-1.11-19.77,8.25-23,2.63-1.27,5.45-1.35,8.29-1.35q42.4-.07,84.82,0C388.09,400.19,391.58,399.81,393.77,403.19Z"/><path class="cls-3" d="M442.64,105.73q-2.75,35.61-34.07,52.76c-.55,2.64-2.62,3.58-4.84,4.43A59.17,59.17,0,0,1,383,166.59c-34,1.63-65.18-29.47-63.36-63.26-.46-8.07,1.69-15.61,4.49-23a5.63,5.63,0,0,1,3.84-3.5C339.52,56.18,357,45,380.71,43.51c32.48.37,52.94,21.69,59.22,43.61A82.56,82.56,0,0,1,442.64,105.73Z"/><path class="cls-4" d="M321.52,103.86c1.75,35.19,24.78,58.26,60.57,60.7,2.41,1.31,2.72,3.62,2.75,6,.16,15.92.23,31.83,0,47.75,0,2.37-.48,4.63-2.52,6.22-2.61,1.31-5.44,1.44-8.28,1.45q-27,.08-53.92,0c-2.5,0-5,0-7.32-1.18-2.11-1.05-2.38-3.05-2.38-5a78.5,78.5,0,0,0-1.79-14.1,18.37,18.37,0,0,1,3.48-6.52c4.76-6.42,3-13.47-4.13-17.07-3.74-1.88-7.83-2.81-11.84-3.89-3.56-1-6.39-2.68-5.82-6.8s3.88-5,7.48-5a52.69,52.69,0,0,1,10,.44c1.73.3,3.56.21,4.15-1.79s-1-3.11-2.62-3.63c-6.69-2.12-13.5-2.51-20,.4a11.42,11.42,0,0,0-7,11.24c.14,5,3,8.3,7.75,10,3.93,1.38,7.88,2.67,11.88,3.82,3.08.89,5.63,2.63,4.9,6.4-.68,3.51-3.4,4.12-6.51,3.92-4.45-.29-9,.7-13.37-.83a2.83,2.83,0,0,0-3.56,1c-.84,1.36-.19,2.58.77,3.61,1.24,1.34,2.57,2.61,3.06,4.48A82.79,82.79,0,0,0,285.77,220c0,1.81-.3,3.62-2.12,4.68C281,226,278.19,226,275.37,226q-60,.08-120.09,0a23.63,23.63,0,0,1-6.91-.72c-2.88.08-4.85-1.23-6.54-3.61-4.93-7-11-12.67-18.88-16.28-2.22-1-4.61-2.09-4.87-5.09a26.67,26.67,0,0,1-.81-7.44q0-39.74,0-79.46c0-3.12-.4-6.42,2.29-8.89.11-.23.23-.46.34-.7,3.1-3,7.08-2.49,10.83-2.5,28.77-.09,57.54-.05,86.31,0,31.77,0,63.54,0,95.3,0C315.57,101.31,319.16,100.55,321.52,103.86Z"/><path class="cls-5" d="M291.44,403.47c-8.44,4.84-8,13-8,21.07a188.73,188.73,0,0,1-33.54,4.18,194.46,194.46,0,0,1-43.51-3.23,20.41,20.41,0,0,1-2.8-.93c-.88-2.63,1.17-3.47,2.8-4.57,22.65-15.25,30.45-39.6,20.9-65.14-6.74-18-26.43-31.14-45.68-32.1-26.12-1.29-52.72,17.75-55.48,49.64a30.42,30.42,0,0,0,.4,8c.41,2.28.72,4.72-1.78,6.25-11.84-8.82-21.82-19.52-30.65-31.23-19.74-26.17-32-55.47-36.28-88.07,3.73-.28,4.47,3,5.94,5.2,7.63,11.3,17.91,18.44,31.41,21,25.35,4.8,50.94-13.78,54.07-39.42.38-3.12.91-6.21.42-9.42-.38-2.43.26-4.67,3-5.58,2.73-1.07,5.58-.85,8.39-.85q56.6-.06,113.2,0c2.81,0,5.67-.2,8.36.89,2.83.85,3.14,3.2,3.17,5.59.22,19.32.19,38.64,0,58,0,2,0,4.27-2.36,5.06-2.62.89-3.89-1.26-5.21-3-1.12-1.44-2.06-3-3.19-4.46-4.35-5.53-10.93-6.85-16.39-3.33a12.52,12.52,0,0,0-4.05,16.36,94.19,94.19,0,0,0,5.41,9c10.38,15.69,20.43,31.6,30.8,47.29,1.55,2.35,3.28,4.64,3.76,7.55-.08,4.77.25,9.54.09,14.31C294,395.57,294.8,400.09,291.44,403.47Z"/><path class="cls-5" d="M321.52,103.86l-200.11,0c-.5,0-1-.08-1.49-.12-.88-1.5.37-2.07,1.23-2.8,27.61-23.36,59.27-38.13,95.07-43,39-5.32,76.5.52,111.7,18.82A72.18,72.18,0,0,0,321.52,103.86Z"/><path class="cls-3" d="M124.75,386.6c-2.09-13.91-.52-27.19,6.85-39.46,11.74-19.53,34.49-30.13,56.21-26.2,23.8,4.3,40.84,21.36,45.24,45.28,4,21.74-6.54,44.42-26.1,56.2-1.14.69-2.24,1.43-3.36,2.14-16.37,7.1-32.76,7.9-49-.15-14.44-7.16-23.85-18.68-28.56-34.07C125.62,389.08,125.17,387.84,124.75,386.6Z"/><path class="cls-3" d="M151.85,240.6c1.73,16.56-2.78,31-15,42.6-23.28,22.12-60.43,16.42-76.57-11.61-.82-1.43-1.67-2.86-2.5-4.29a55.46,55.46,0,0,1-1.08-36.52c3.2-17.46,15.48-26.32,30.78-32a33.4,33.4,0,0,1,15.7-2.14,31,31,0,0,1,11.62.87c2.29.5,3.64,2,4.83,3.81,11.54,4.31,20.15,12.13,26.68,22.41C151.85,227.27,154.51,235.42,151.85,240.6Z"/><path class="cls-5" d="M102.82,198.47c-22.11,1.14-37.17,12.34-46.08,32.31.52-19.87,5.42-38.82,12.6-57.18a175.91,175.91,0,0,1,28.14-48c1.46-1.78,2.47-4.36,5.35-4.59,2.23,1.37,2.1,3.68,2.11,5.79q.27,32.91,0,65.81C104.94,194.79,104.71,196.94,102.82,198.47Z"/><path class="cls-6" d="M102.82,198.47q0-38.73,0-77.47c2.49-8.63,6.88-15.35,16.75-16.51l.09,96.81A58.86,58.86,0,0,0,102.82,198.47Z"/><path class="cls-7" d="M119.83,74c0,4,0,8,0,11.95,0,3.11-1.21,5.36-4.41,5.5s-4.79-1.85-4.87-5c-.22-8.3-.48-16.6-.66-24.91-.07-3.12.9-5.78,4.54-5.92,3.93-.14,5,2.62,5.07,5.95.07,4.15,0,8.3,0,12.46Z"/><path class="cls-8" d="M76.73,118.27c-4.15,0-8.3.06-12.45,0-3.12,0-5.71-1-5.69-4.76s2.51-4.73,5.68-4.78l24.9-.33c3.11,0,5.32,1.39,5.29,4.6s-2.16,4.67-5.28,4.69c-4.15,0-8.3,0-12.45,0Z"/><path class="cls-7" d="M81.17,74.73a6.29,6.29,0,0,1,4.3,2.12l16.58,15.82c2.4,2.28,4,4.91,1.22,7.73s-5.4,1.47-7.8-.86q-8.41-8.13-16.86-16.25c-1.69-1.63-2.56-3.5-1.4-5.79A5,5,0,0,1,81.17,74.73Z"/><path class="cls-5" d="M381.57,223.63c1.16-4.58.52-9.23.54-13.85.08-15.07,0-30.14,0-45.22a75.08,75.08,0,0,0,26.48-6.07c9.36,16.21,14.66,33.82,17.95,52.12a159.62,159.62,0,0,1,2.77,29.75c-.19,18.3-2.2,36.49-7.54,54.17a189.34,189.34,0,0,1-18.66,42.93,34.44,34.44,0,0,1-2.4,3.15c-3.29-1.7-2.54-4.87-2.32-7.49,1.61-18.88-1.08-37.72-.35-56.6.2-5.39-2-10-7.2-12.62-6.5-1.83-11.77-.19-15.58,5.55-.83,1.24-1.64,2.67-3.46,2.32s-2.14-1.9-2.62-3.32c-.26-.79-.56-1.57-.76-2.37-1.25-5.13-4.25-8.63-9.51-9.74s-9.31,1.35-12.53,5.38c-1.22,1.52-2.24,3.69-4.65,3s-2.18-3.05-2.56-5c-1-5.38-4-9.2-9.47-10.35-5.21-1.11-9.43,1-12.47,5.35-1.15,1.65-2.18,3.73-4.59,2.93s-2.41-3.13-2.24-5.08c.39-4.44-1.83-9.35,2.23-13.18,2.64-1.26,5.48-1.17,8.29-1.18,12.43,0,24.86-.19,37.28.05,9.15.17,16.12-3,20.49-11.27A14,14,0,0,1,381.57,223.63Z"/><path class="cls-9" d="M390.52,261.72c6.6,2.21,10.12,6.92,10,14.21-.4,21.56,1.54,43.11.19,64.68-1.28,17.31-3.16,34.52-8.3,51.2-2.74,1.54-5.55.1-8.33.12-29.46.29-58.94-.64-88.4.54a5.26,5.26,0,0,1-2.87-.65l-.17-15.24c20.3,3.32,40.74,1.11,61.11,1.48,17.24.31,27.7-9,30.54-26,4.29-25.75,4.55-51.66,3.44-77.66C387.52,270.12,386.81,265.3,390.52,261.72Z"/><path class="cls-10" d="M292.79,391.82c2.42-2.05,5.22-2.6,8.35-2.6q41.44.09,82.91,0c3.11,0,5.93.52,8.34,2.59,1.9,3.62,1.46,7.52,1.38,11.38a25.8,25.8,0,0,0-7.88-.78q-42.57,0-85.14,0a31.37,31.37,0,0,0-9.31,1.08C291.43,399.54,290.82,395.53,292.79,391.82Z"/><path class="cls-11" d="M324.79,414.51c-7.31,0-14.62,0-21.93,0-2.1,0-4.87.37-5-2.66s2.59-3.05,4.72-3.06q22.44-.07,44.87,0c2,0,4.49.14,4.55,2.73.07,3-2.57,3-4.75,3C339.75,414.53,332.27,414.5,324.79,414.51Z"/><path class="cls-12" d="M364.22,414.62c-2.66-.55-6.88,1.11-6.93-2.93s4.13-3,6.71-2.89,7.19-1.44,7.24,2.83C371.3,416.19,366.66,413.79,364.22,414.62Z"/><path class="cls-13" d="M410.52,73.67C430.73,93.1,427,126.12,402.63,140c-16.51,9.4-37.65,6.54-49.08-6.16C334.89,111,348.2,77.52,374.88,69.11c11.13-3.51,22.62-3.66,32.94,3.58C408.62,73.24,409.39,74,410.52,73.67Z"/><path class="cls-14" d="M410.52,73.67c-1.8,1.21-3.14-.23-4.6-.83-10.77-4.4-21.74-4.93-32.52-.61-24,9.62-32.16,35.45-21.43,58,.57,1.19,1,2.41,1.58,3.62-11.82-10.29-16.4-28.37-10.95-43.24,6-16.46,20.93-27.46,37-28C391.52,62.11,401.76,65.61,410.52,73.67Z"/><path class="cls-15" d="M390.52,261.72c0,14.95.1,29.91,0,44.86a296.19,296.19,0,0,1-4.1,48.12A30.49,30.49,0,0,1,356,380.52c-19,.08-38-.06-56.95.1-3.31,0-5.39-.94-6.45-4C279.38,356.26,266,336,253,315.57a15,15,0,0,1,4.48-21.05c7.1-4.39,15.12-2.36,20.34,5.19a31.64,31.64,0,0,0,5.67,6.88v-66c-3.52-5.62-3.1-11.29-.17-17,.71-6.32-1-13,2.44-18.93-.48-4.77,2.85-6.37,6.48-7.3a26,26,0,0,1,11.77-.08c3.63.78,6.29,2.93,6,7.23,3.5,6,2,12.7,2.67,19.09,3.17,4.51,3.17,12.48,0,17L312.58,253v4.2c4.85-8,10.53-12.84,19.39-9.74,7.2,2.51,9.88,8.34,9.88,16.87,4.55-8,10-12.75,18.6-10.33,7.83,2.2,10.54,8.5,11.08,16.86C376.25,263.29,381.63,258.52,390.52,261.72Z"/><path class="cls-16" d="M283.29,223.59q.09,8.49.17,17l-131.61,0c-.87-5.94-3.16-11.42-5.5-16.89Z"/><path class="cls-17" d="M260.73,160.76c0-5.49,0-10.3,0-15.1,0-4,1.64-7,6.05-6.94,4.15.05,5.69,3,5.7,6.74q.06,27.19,0,54.39c0,2.69-.93,4.86-3.58,6a5.24,5.24,0,0,1-6.39-1.23c-1.42-1.58-2.42-1.38-4.2-.55-10.7,5-21.15,2.83-27.87-5.6-7.18-9-7.32-23.4-.31-32.57,6.47-8.46,17-10.82,27.83-6.21C258.57,160,259.18,160.17,260.73,160.76Z"/><path class="cls-17" d="M191.05,190.57a5.57,5.57,0,0,1-1,0c-9-1.8-14.58,1.32-16.88,10.71-1.18,4.81-4.89,6.24-8.31,4.55-4.15-2.06-3.8-5.36-2.28-8.93q10.51-24.83,21-49.64c1.47-3.48,3.6-5.89,7.78-5.87s6.26,2.48,7.72,5.94q10.5,24.82,21,49.64c1.51,3.58,1.82,7-2.4,8.86s-7.25-.28-8.07-4.11c-2.13-10-8.25-12.93-17.6-11.15A5.57,5.57,0,0,1,191.05,190.57Z"/><path class="cls-16" d="M312.67,240.57v-17l68.9,0c-.91,9.61-9.09,16.85-19.43,16.91C345.65,240.63,329.16,240.57,312.67,240.57Z"/><path class="cls-18" d="M310,204.51c-8.25-8.84-16.22-8.79-24.27.15-1-.52-2.1-1-3.11-1.59-2.66-1.53-3.85-3.82-2.63-6.72,1.3-3.08,3.8-4.09,7-2.86a28.1,28.1,0,0,0,13.17,2.19c2.36-.24,5.07-.43,5.33-3.4.24-2.73-2.6-2.66-4.32-3.26-3.93-1.36-8-2.21-11.91-3.69-6.4-2.45-9.47-6.84-9.43-12.75a14.23,14.23,0,0,1,9.76-13.75c7.36-2.62,14.75-2,22,.61,2.88,1,4.47,3.11,3.76,6.16-.76,3.29-3.27,4.57-6.48,4-4.1-.78-8.16-1.72-12.36-1.09-2.19.32-4.64.77-4.91,3.39-.29,2.88,2.37,3.21,4.4,3.81,3,.89,6.13,1.59,9.14,2.54C311,180,315.83,183,317,189.67S315.2,200.92,310,204.51Z"/><path class="cls-13" d="M206.64,349.55c10.29,11.46,13,24.76,7.62,38.92-5.25,14-15.84,22.28-31,24.11-12.32,1.48-22.9-2.18-31.64-11-3.63-6.89-6.87-13.66-6.49-22,.73-16.12,8.52-27.44,22.4-34.44,13.08-6.58,26-5.55,37.85,3.62C205.79,349,206.22,349.28,206.64,349.55Z"/><path class="cls-14" d="M206.64,349.55c-7.44-3.3-14.82-6.3-23.33-6.09-19.08.47-35.26,16.83-35.85,35.87-.25,7.89,2.57,14.86,4.18,22.21-15.43-18.13-14.47-39,2.5-55C168.39,333.06,193.91,334.54,206.64,349.55Z"/><path class="cls-13" d="M127.71,224.6a34,34,0,0,1-1.59,48c-13,12.09-34.81,11.67-46.46-.9-13.09-16.71-6.09-34.34,3.06-43.86C94,216,112.58,212.55,127.71,224.6Z"/><path class="cls-14" d="M127.71,224.6c-6.33-2.36-12.34-5.23-19.5-5.13A33.52,33.52,0,0,0,77.67,266.6c.74,1.66,1.33,3.38,2,5.08-9.86-8.81-11.92-20.17-9.22-32.26,2.92-13.09,11.73-21.4,24.73-24.59C107.74,211.75,118.73,215.09,127.71,224.6Z"/><path class="cls-19" d="M395.14,113.29c-.34,4.12-1.41,6.83-3.48,9.17-2.37,2.67-6.55,3.39-7.18,8.12-.31,2.31-5.2,1.68-5.59-1.06s-1.92-3.79-4-5a12.23,12.23,0,0,1-5.85-9.4c-.26-2.17.15-4.12,2.63-4.64s3.72.77,4.16,3.13c.65,3.43,2.31,6,6.16,6,3.5,0,5.7-2.1,5.87-5.54.21-4-2.06-5.92-6-6.5-9.6-1.42-14.63-8.31-12.41-16.64A12,12,0,0,1,373,85c2.43-2.2,6.07-3.21,6.35-7.44.08-1.14,1.86-1.85,3.32-1.48s2.71,1.25,2.66,2.63c-.1,2.74,1.7,3.58,3.61,4.69a12.08,12.08,0,0,1,6,9.29c.32,2.33.05,4.47-2.76,5-2.52.44-3.61-1.12-4-3.37a14.78,14.78,0,0,0-.39-1.45c-1.06-3.43-3.49-4.73-6.9-4.22-3.11.46-4.63,2.65-4.77,5.55-.15,3.23,1.69,5.34,4.76,6.18,1.91.53,4,.5,5.82,1.17C392.07,103.47,395.42,108.75,395.14,113.29Z"/><path class="cls-20" d="M415.77,104.27c0,8.24-3.31,15.16-8.1,21.51-1.7,2.26-4.08,4.15-6.73,2s-1-4.71.82-6.85c5.59-6.49,7.05-14.05,5.7-22.31-.44-2.7-1.09-5.78,2.42-6.54,3.87-.82,4.51,2.53,5.06,5.32C415.38,99.66,415.51,102,415.77,104.27Z"/><path class="cls-21" d="M405.5,89.17a6.91,6.91,0,0,1-5.74-5.93c-.41-2.13.85-3.5,3-3.82,2.35-.35,6.38,3.51,6.31,6C409,87.61,407.73,88.78,405.5,89.17Z"/><path class="cls-22" d="M302.57,285.34q0,13,0,25.94c0,3.44-.82,6.82-4.84,6.79s-5.07-3.32-5.08-6.77q-.06-26.19,0-52.38c0-3.36,1.24-6.05,5-6.17,4.12-.13,4.81,3,4.84,6.15.1,8.81,0,17.63,0,26.44Z"/><path class="cls-4" d="M260.73,182.27c0,9.56-3.45,13.43-12,13.44-7.54,0-12.2-5.35-12.11-13.9.08-8.32,4.68-13.42,12.07-13.41C257.41,168.41,260.73,172.23,260.73,182.27Z"/><path class="cls-23" d="M191.35,158.2c2.89,7,5.26,12.75,7.7,18.52,1,2.41-.14,2.72-2.21,2.9-15,1.31-15,1.34-9.33-12.31C188.59,164.72,189.69,162.13,191.35,158.2Z"/><path class="cls-19" d="M190.71,365.64c.06,1.89-.56,3.4-2.52,3.77s-3.15-.63-3.62-2.55a13.6,13.6,0,0,0-.89-2.84,5.34,5.34,0,0,0-10.13,1.76c-.24,2.83.86,4.9,3.65,5.77,1.42.44,3,.53,4.4.88a11.83,11.83,0,0,1,4.39,21c-2,1.46-4.32,2.34-4.45,5.42,0,1.18-1.37,1.76-2.68,1.75-1.53,0-2.91-.81-2.91-2.17,0-2.75-1.93-3.53-3.74-4.68a11.55,11.55,0,0,1-5.22-8.69c-.28-2.05.54-3.72,2.66-4.16s3,1,3.62,2.68a18.42,18.42,0,0,0,.57,2.41c1.21,2.49,3.2,3.92,6,3.34a5.46,5.46,0,0,0,.2-10.7c-1.44-.36-3-.41-4.4-.81-5-1.4-7.84-4.91-8.57-9.94a11.09,11.09,0,0,1,5.06-11.19c1.76-1.22,3.74-1.9,3.76-4.65a2.71,2.71,0,0,1,2.82-2.36c1.5-.06,2.84.69,2.91,2.15.14,2.88,2.32,3.66,4.2,5A11.36,11.36,0,0,1,190.71,365.64Z"/><path class="cls-20" d="M209.6,374c-.22,8.78-2.7,15.51-7.58,21.34-1.65,2-3.69,3.28-6,1.3s-.92-3.79.58-5.63c5-6.13,7.07-13.06,5.38-20.95-.48-2.21-.72-4.58,2.14-5.26,3.11-.74,4,1.52,4.53,4C209.1,370.85,209.43,373,209.6,374Z"/><path class="cls-20" d="M203.49,357.89c-.18,2.41-1.26,3.72-3.18,3.44a6,6,0,0,1-5.27-5.14,2.77,2.77,0,0,1,3.34-3.26C201.23,353.4,202.58,355.76,203.49,357.89Z"/><path class="cls-24" d="M92.73,257.4c-.25-2.63.17-4.23,2.2-4.62,1.82-.35,2.7.9,3.19,2.46a12.18,12.18,0,0,0,.72,2.38c1.15,2.08,2.94,3.22,5.36,2.62a4.5,4.5,0,0,0,3.69-4.18,4.61,4.61,0,0,0-3.07-5.14c-1.21-.46-2.64-.32-3.91-.67-4.37-1.2-7.35-4-8.15-8.48A10.05,10.05,0,0,1,97.36,231c1.53-1,3.18-1.69,3.24-4A2.31,2.31,0,0,1,103,224.9c1.25-.1,2.59.54,2.6,1.79,0,2.8,2.21,3.41,3.9,4.65a9.87,9.87,0,0,1,4.2,7.59c.1,1.62-.24,3.07-2,3.52s-2.83-.51-3.36-2.15c-.2-.63-.34-1.28-.56-1.91a4.55,4.55,0,0,0-5.4-3.33,4.36,4.36,0,0,0-3.9,4.49c-.06,2.93,1.42,4.5,4.32,5.14,8,1.76,11.08,5.06,11,11.15a9.74,9.74,0,0,1-3.79,7.79c-1.91,1.5-4.16,2.36-4.57,5.37-.21,1.52-3.11,2.24-3.51.88-1.36-4.66-6.68-5.73-8.28-9.95C93.16,258.85,92.84,257.75,92.73,257.4Z"/><path class="cls-20" d="M130.66,246.66c-.32,7.25-2.23,13-6.1,18-1.46,1.91-3.17,4-5.69,2.11-2.33-1.78-.7-3.76.59-5.61,3.72-5.32,6.05-11,4.48-17.73-.48-2.05-1-4.75,2-5.33s3.51,2,4,4.09A43.84,43.84,0,0,1,130.66,246.66Z"/><path class="cls-21" d="M125.15,232.41c-.37,1.92-1.44,3.25-3.34,2.81a4.76,4.76,0,0,1-4-4.9,2.42,2.42,0,0,1,3-2.51C123.4,228.16,124.59,230.06,125.15,232.41Z"/></g></g></svg>