<svg xmlns="http://www.w3.org/2000/svg" viewBox="0 0 511.92 511.95"><defs><style>.cls-1{fill:#d9d6eb;}.cls-2{fill:#f1f1f8;}.cls-3{fill:#e45b6e;}.cls-4{fill:#d73045;}.cls-5{fill:#fcb43a;}.cls-6{fill:#f47b21;}.cls-7{fill:#160e01;}.cls-8{fill:#88451e;}.cls-9{fill:#835e25;}.cls-10{fill:#364b68;}.cls-11{fill:#476389;}.cls-12{fill:#4887c7;}.cls-13{fill:#5fbae9;}</style></defs><g id="Layer_2" data-name="Layer 2"><g id="Layer_1-2" data-name="Layer 1"><path class="cls-1" d="M511.92,24V74.91c-1.11,7.54-.71,15.17-1.45,22.74A371.66,371.66,0,0,1,495.88,170c-10.79,35.49-26.7,68.49-48.89,98.31-16.43,22.06-34.3,42.84-54.93,61.15-4.72,4.19-9.55,8.29-14.05,12.73-17.29,13.77-34.89,27.09-54,38.26-9.05,5.28-18.37,10-27.78,14.61-1.49.73-3,1.54-4.73,1.19-1.84-.58-3-2-4.3-3.32Q247.08,352.82,207,312.74a15.55,15.55,0,0,1-3.2-3.8,3.81,3.81,0,0,1-.23-1.42c.4-2.31,2.17-3.68,3.68-5.19q42.87-42.93,85.79-85.8c1.29-1.28,2.45-2.76,4.34-3.26a3,3,0,0,1,1.48.26c8,6.81,16.43,12.94,26.5,16.55,43.55,15.57,89.17-11.33,97.48-54.39,4.89-25.29-2.19-47-19.22-65.84a3.92,3.92,0,0,1-.93-2.82c1.79-2.65,4.39-4.52,6.61-6.74q44.06-44.17,88.22-88.24c1.73-1.73,3.15-3.94,5.83-4.48,5.68,2.29,7,7.34,8,12.6C511.62,21.43,511,22.81,511.92,24Z"/><path class="cls-2" d="M297.22,213.66c-1.3,1.49-2.53,3.07-3.93,4.47q-42.53,42.59-85.07,85.13c-1.4,1.41-2.64,3-3.95,4.46-2.45.58-3.59-1.37-4.92-2.7q-40.51-40.39-80.92-80.89a9.53,9.53,0,0,1-2.66-3.55c1.23-7.74,5.75-14.05,9.34-20.7a393.94,393.94,0,0,1,45.27-66.12c30.12-35.59,64.71-66,105.2-89.29,29.92-17.21,62.2-28.59,95.9-35.93,21.14-4.61,42.45-8,64.18-8A2,2,0,0,0,437,0h4c.94.88,2.1.37,3.16.51C445.44.32,446.82,1,448,0h4a10.36,10.36,0,0,0,7,0h10c1.92,1.07,4,.25,6,.51,2-.26,4.07.56,6-.51h6c4.25,1.06,8.95.46,12.67,3.47,1.48,1.2,3.64,1.89,3.34,4.44-.95,1.14-1.82,2.36-2.86,3.41q-46.19,46.22-92.39,92.4c-1.39,1.38-2.55,3.17-4.83,3.24-2.85.28-4.57-1.78-6.43-3.32a69.16,69.16,0,0,0-45.72-16c-42.25.51-73,34.76-73.16,72.08a74.14,74.14,0,0,0,16,47.2C295.1,208.9,297.57,210.56,297.22,213.66Z"/><path class="cls-3" d="M93.34,289.68c-14.21-2.32-28.42-4.68-42.64-6.95-9.17-1.46-18.41-2.47-27.51-4.24-10.15-2-17.29-7.92-21-17.82-.49-1.31-.17-3.06-1.68-4v-9c1.7-6.7,5.39-12.36,9.16-18C24,208.25,38.74,187.11,52.16,165.15c10.28-16.84,24.64-23.62,43.73-24.5,25-1.16,50-3.68,75.06-5.61-20.71,25.22-38.92,52.05-52.84,81.66-.63,1.35-1.19,2.73-1.78,4.09.84,2.13-.38,3.85-1.15,5.64a307.07,307.07,0,0,0-18.54,57C96.15,285.78,96.2,288.54,93.34,289.68Z"/><path class="cls-4" d="M254.23,511.42c-.19-.26-.32-.68-.56-.76-14.35-4.42-19.67-15.13-21.55-29.13-2.82-21-6.51-41.86-9.82-62.78.5-2.29,2.48-2.48,4.21-2.85a287.12,287.12,0,0,0,57.6-18.62c2.21-1,4.44-2.38,7.1-1.84,11.07-3.94,21.1-10,31.2-15.82a368.53,368.53,0,0,0,51.15-35.87,38.85,38.85,0,0,1,3.25-2.23c-2.2,27.84-4.49,55.67-6.57,83.51-.95,12.81-6.53,23.08-17,30.15-25.91,17.47-52.09,34.53-78.15,51.78-3.34,2.22-7.23,3-10.85,4.46Z"/><path class="cls-5" d="M.53,492.44c2.58-4.87,6.44-8.66,10.29-12.5q43.4-43.32,86.73-86.69c7.24-7.23,14.61-7.73,22-1.67,1.22,3.16-1.43,4.53-3.06,6.18q-23.88,24.06-47.91,48Q39.86,474.47,11.1,503.17C9.29,505,7.76,507.51,4.53,507c-3.05-1.12-2.83-4.25-4-6.54Z"/><path class="cls-6" d="M4.73,506.54c2-.39,3-2,4.3-3.26q53.69-53.65,107.35-107.35c1.27-1.27,2.84-2.37,3.17-4.35,6.68,6.09,6.92,15.1.3,21.9-8.35,8.57-16.89,16.94-25.35,25.4Q62.43,471,30.4,503a40.85,40.85,0,0,1-10.89,8.38h-8C9.08,510,4.73,511.32,4.73,506.54Z"/><path class="cls-7" d="M4.73,506.54c1.37,2.87,4.7,3,6.79,4.88-3.66,0-8.76,1.43-10.59-.4s-.4-6.93-.4-10.59Z"/><path class="cls-8" d="M108.5,510.57c0,.28-.08.56-.1.85h-6a4.12,4.12,0,0,0-.09-.86C104.38,508.65,106.45,508.64,108.5,510.57Z"/><path class="cls-9" d="M1.33,408.64a4.4,4.4,0,0,1-.8-.11v-5l.81-.11Q3.92,406,1.33,408.64Z"/><path class="cls-10" d="M291.21,395.44a230.92,230.92,0,0,1-41.77,16.09c-9,2.51-18.09,4.82-27.14,7.22-6.21.46-12.44,1.94-18.61-.23-2.82-1-5.75-2-7.89-4.08-16.37-16-32.72-32-48.48-48.6-1.31-2.32.27-3.8,1.65-5.19Q174,335.41,199.3,310.33c1.35-1.34,2.76-3.11,5.13-1.76q30.13,30,60.26,60C273.6,377.45,282.37,386.48,291.21,395.44Z"/><path class="cls-11" d="M204.43,308.57c-2.06.11-3.16,1.68-4.42,2.95q-24.94,24.92-49.86,49.86c-1.26,1.26-2.84,2.36-2.83,4.46-16.24-16.18-32.62-32.23-48.67-48.59-6.26-6.38-7.26-14.59-5.83-23.17.24-1.45.35-2.93.52-4.4,2.38-9.08,4.56-18.22,7.18-27.23a261.91,261.91,0,0,1,15.81-41.66c1.35,1.2,2.78,2.33,4,3.61q39.92,39.85,79.8,79.74c1.28,1.28,2.72,2.39,4.09,3.58A8,8,0,0,0,204.43,308.57Z"/><path class="cls-10" d="M404.24,108.78c16.75,17.08,24,37.61,20.83,61.25-4.38,32.32-22.68,54-53.82,62.93-27.49,7.89-52.5,1.62-73.14-19.08-.69-2,.74-3.11,1.85-4.26q7.11-7.29,14.41-14.4c1.44-1.4,3-2.64,5.26-2.21,5.37,2.62,9.83,6.73,15.54,8.88,18.28,6.92,38.19,1.21,50.87-14.89,11.09-14.07,11.35-35.66.65-50.92-1.52-2.16-3.51-4-4.24-6.69a4.38,4.38,0,0,1,1.39-3.55c5.18-5.5,10.54-10.81,16-16C401.05,108.65,402.45,107.74,404.24,108.78Z"/><path class="cls-11" d="M404.24,108.78c-3.1.43-4.53,3.1-6.46,5-5,4.95-9.85,10.07-14.76,15.12a1.86,1.86,0,0,1-1.46.33c-2-.5-3.4-2-5-3.16-14.3-10.08-29.49-11.63-45.07-3.67-15.23,7.78-23.48,20.33-23.94,37.81-.27,10.46,3,19.55,9.1,27.81a20.91,20.91,0,0,1,2.75,4.13,1.9,1.9,0,0,1-.12,1.51c-3.66.87-5.39,4.12-7.81,6.47-4.59,4.44-8.92,9.15-13.35,13.74l-.89-.22a80.9,80.9,0,0,1-20.62-42.27c-6.55-40.24,25.28-81.09,65.88-84.67,23.25-2,43.15,4.9,60.4,20.24Z"/><path class="cls-5" d="M1.33,408.64c0-1.73,0-3.47,0-5.21.53-3.45,2.51-6.05,4.9-8.44q23.45-23.42,46.87-46.86c7-6.95,15.85-7.37,22.1-1.18s5.81,15.39-.93,22.17q-23.56,23.67-47.23,47.22c-4.43,4.42-9.68,6.36-15.86,4.2C5.56,418.57,2,414.75,1.33,408.64Z"/><path class="cls-6" d="M108.5,510.57h-6.18c-12.19-3.65-15.82-16.36-7-25.34,15.87-16.13,31.92-32.09,48-48,6.32-6.27,15.61-6.41,21.5-.61,6.05,5.94,6.14,14.94-.24,21.4-16,16.23-32.2,32.29-48.34,48.4A13.41,13.41,0,0,1,108.5,510.57Z"/><path class="cls-12" d="M319.27,193.67a7.12,7.12,0,0,1-.13-.91c.21-1.82,1.57-2.87,2.72-4,19.63-19.75,39.47-39.3,59-59.15a3.28,3.28,0,0,1,1.26-.77,5.28,5.28,0,0,1,.9.1c8.79,10,13.81,21.37,13,34.85-1.39,23.64-20.84,40.47-40.37,42.15C341.54,207.12,329.7,202.81,319.27,193.67Z"/><path class="cls-13" d="M382.12,128.81c-.06,1.46-1,2.39-2,3.33Q350.25,162,320.35,191.9a8,8,0,0,1-1.21.86c-12.55-12.61-16.2-27.85-11.3-44.5,5.12-17.4,17.39-28,35.33-31.37C358.13,114.07,371.05,118.58,382.12,128.81Z"/></g></g></svg>