<svg xmlns="http://www.w3.org/2000/svg" viewBox="0 0 511.81 511.81"><defs><style>.cls-1{fill:#595a67;}.cls-2{fill:#f05262;}.cls-3{fill:#f26d7b;}.cls-4{fill:#eff8fd;}.cls-5{fill:#fff;}</style></defs><g id="Layer_2" data-name="Layer 2"><g id="Layer_1-2" data-name="Layer 1"><path class="cls-1" d="M253.9,511.81c-4.87-2.15-6.41-5.95-6.33-11.13.17-10.55-.09-21.1-.17-31.64,3.69-3.74,13.32-3.74,17,0-.08,10.54-.34,21.09-.17,31.63.08,5.18-1.48,9-6.34,11.14Z"/><path class="cls-1" d="M469.07,247.62c10.49,0,21,.18,31.47,0,5.21-.12,9.1,1.37,11.27,6.32v4c-2.17,4.94-6.06,6.44-11.27,6.33-10.49-.22-21-.05-31.47,0C465.3,260.31,465.3,251.49,469.07,247.62Z"/><path class="cls-1" d="M0,253.9c2.16-5,6.06-6.41,11.26-6.33,10.48.15,21-.13,31.44-.23a2.16,2.16,0,0,1,1.86,1.46,35.55,35.55,0,0,1,0,14.2,2.19,2.19,0,0,1-1.85,1.47c-10.48-.1-21-.38-31.45-.23-5.2.08-9.09-1.4-11.27-6.34Z"/><path class="cls-1" d="M247.32,42.57c.11-10.45.39-20.9.25-31.35C247.5,6,249,2.14,253.9,0h4c4.64,2.1,6.45,5.65,6.33,10.75-.26,10.46-.15,20.93-.19,31.4C260.12,45.22,251,45.45,247.32,42.57Z"/><path class="cls-2" d="M469.07,247.62v16.57c-2.06,39-12.8,75.27-34.51,107.84-34.28,51.46-81.88,83-142.9,94-9,1.63-18.13,2.3-27.25,3.06h-17c-47.13-2.56-89.34-18.1-126.1-47.91-7-5.65-13.77-11.5-19.58-18.38,1.25-2,3.13-1.37,4.92-1.18,12.19,1.28,20.11-7.25,17.08-19.08-4-15.8-7.38-31.67-8.79-47.94a186.89,186.89,0,0,1-.27-20.9c0-1.86.4-3.69,2.54-4.41,4.11.24,4.68,3.9,5.88,6.58a147.78,147.78,0,0,0,21.24,33.7c15.65,18.87,35.1,32.53,57.69,41.74a140.26,140.26,0,0,0,65.12,9.92c30.14-2.49,57.35-13,80.81-32.39,30.28-25.05,48.18-57.11,52.44-96.15C405.8,223,389.43,181.13,353,147.29A133.81,133.81,0,0,0,299.55,117c-2.87-.86-5.69-1.9-8.56-2.77-2-.58-3.26-1.66-3-3.94,1.71-3.47,5.21-3.19,8.19-3.68,20.8-3.44,41.64-3.38,62.56-1,13.95,1.59,20.81-6.45,17.58-20-.42-1.74-1.36-3.53.48-5,25.86,17.35,46.33,39.78,62.31,66.41C457.71,178,467.15,211.67,469.07,247.62Z"/><path class="cls-3" d="M117.76,310c-1.63,7.39-1,14.88-.47,22.28a249.32,249.32,0,0,0,9,49.38c3.2,11.26-2.71,20.49-13.86,22.81-3.85.81-7.16-.92-10.68-1.7C87.8,389.44,77.1,373.72,68,356.91a210.24,210.24,0,0,1-25.28-92.43q0-8.58,0-17.14c1.3-31.42,8.53-61.42,23.48-89.1Q116,66,219.16,45.88a231.77,231.77,0,0,1,28.16-3.31L264,42.15c8.36.94,16.78,1.56,25.08,2.88,31.94,5.12,61.42,16.42,87.7,35.55,1,2.63,2.63,5,3,7.88,1.64,13.05-7.38,21.75-20.49,19.9a211.15,211.15,0,0,0-64.9,1c-1.94.33-4,.49-5.61,1.86-1.38,1.93-3.33,1.84-5.35,1.46-11.22-2.09-22.58-2.22-33.93-2.7-1.61-.07-2.86.59-4.26.92-15.1-.28-29.48,3.53-43.09,9.39-51.4,22.11-82.07,60.77-90.85,116.29-1.62,10.17-2.59,20.44-.45,30.72-.8,5.94,1.39,11.5,2.25,17.21,1,6.53,3.15,12.8,5.16,19.09C119,305.72,120.24,308.07,117.76,310Z"/><path class="cls-4" d="M244,108.25a153.14,153.14,0,0,1,44.84,3c47.67,12,82.42,40,102.63,84.83,39.47,87.49-16,190.26-110.61,205.86-69,11.38-134.94-25.11-162-89.71-.32-.77-.69-1.51-1-2.27-5.09-13.91-8.78-28.14-9.55-43,1.46-1.17,2.75-.3,4.17.22,5.4,2,8.38.62,10.23-5.14,2.4-7.44,4.54-15,7.48-22.21a213.75,213.75,0,0,1,45.89-70c18.27-18.59,38.65-34,62.39-44.86,1.21-.55,2.39-1.17,3.55-1.82,5.56-3.11,6.26-5.79,2.9-11.29C244.13,110.7,243.1,109.72,244,108.25Z"/><path class="cls-5" d="M244,108.25c8.58,6.52,8.12,13-1.79,17.48-27.79,12.49-51.41,30.62-71.55,53.18a203.4,203.4,0,0,0-44.55,80.5c-.23.8-.4,1.62-.64,2.41-3.1,10.29-9,12.06-17.23,5.13-3.16-31.59,4.34-60.82,20.78-87.61,23.86-38.89,58.7-62.14,103.61-70.12C236.29,108.57,240.09,107.45,244,108.25Z"/><path class="cls-2" d="M328.53,264.71c-6.23,35.79-28,57.61-63.82,63.82-2.92-.42-3-2.7-3.16-4.88-.24-4.16-.09-8.33-.13-12.49a24.84,24.84,0,0,0-.24-4.48c-.58-3.07-2-5.45-5.52-5.31-3.2.13-4.66,2.44-5,5.31-.65,5.47-.06,11-.37,16.47-.14,2.29,0,4.87-3.19,5.39-35.78-6.25-57.62-28.08-63.84-63.82.42-2.91,2.7-3.05,4.88-3.17,4-.23,8-.09,12-.13a25,25,0,0,0,5-.28c3-.61,5.46-2,5.32-5.52-.12-3.21-2.45-4.58-5.32-5-3.8-.54-7.64-.19-11.46-.26-2.16,0-4.33,0-6.48-.19-2-.2-3.61-.8-3.89-3.1,6.24-35.78,28-57.55,63.83-63.83,2.91.43,3,2.7,3.17,4.89.23,4,.09,8,.12,12a28.57,28.57,0,0,0,.25,5c.57,3.08,2,5.45,5.52,5.31,3.2-.12,4.66-2.43,5-5.31.65-5.47.06-11,.37-16.47.13-2.29,0-4.87,3.2-5.39,35.77,6.23,57.65,28.11,63.81,63.84-.42,2.92-2.7,3-4.88,3.16-4.16.24-8.33.08-12.49.12a25.79,25.79,0,0,0-4.48.25c-3.07.58-5.45,2-5.31,5.52.13,3.2,2.44,4.66,5.31,5,5.47.65,11,.06,16.47.37C325.44,261.65,328,261.49,328.53,264.71Z"/><path class="cls-1" d="M264.72,183.26c-.17,7.6-.15,15.21-.56,22.8a8,8,0,0,1-8,7.84,8.1,8.1,0,0,1-8.47-7.35,45,45,0,0,1-.24-5.45c-.13-5.95-.23-11.89-.35-17.84.16-7.94.17-15.89.55-23.83a7.85,7.85,0,0,1,8-7.82c4.67-.11,8,2.92,8.55,7.83.2,2,.1,4,.15,6Q264.53,174.34,264.72,183.26Z"/><path class="cls-1" d="M328.53,264.71c-6.82-.12-13.64-.2-20.46-.36-6.55-.16-10.17-3.21-10.17-8.45s3.61-8.28,10.17-8.44c6.82-.16,13.64-.25,20.46-.36,8,.16,15.9.16,23.84.54a7.84,7.84,0,0,1,7.81,8c.12,4.7-2.88,8-7.81,8.55-2,.2-4,.1-6,.15Z"/><path class="cls-1" d="M247.1,328.54c.16-7.6.14-15.21.54-22.8a8,8,0,0,1,8-7.84c4.58-.12,8,2.94,8.55,7.84.22,2,.13,4,.17,5.95q.18,8.42.34,16.84c-.16,8-.22,15.9-.53,23.83a7.52,7.52,0,0,1-6.55,7.63,8,8,0,0,1-9.2-4.28c-1.1-1.95-.92-4.17-1-6.32Q247.28,339,247.1,328.54Z"/><path class="cls-1" d="M183.26,247.09c7.6.16,15.21.15,22.8.55a8,8,0,0,1,7.84,8,8.09,8.09,0,0,1-7.35,8.47,43,43,0,0,1-5.45.24q-8.91.19-17.84.36c-7.94-.17-15.89-.16-23.82-.56a7.89,7.89,0,0,1-7.82-8.51c.11-4.45,3.08-7.58,7.81-8.05,2-.19,4-.1,6-.14Z"/><path class="cls-1" d="M256.15,238.92a17,17,0,1,1-17.23,16.48A17,17,0,0,1,256.15,238.92Z"/></g></g></svg>