<svg xmlns="http://www.w3.org/2000/svg" viewBox="0 0 447.97 448.25"><defs><style>.cls-1{fill:#f1f0f0;}.cls-2{fill:#f26452;}.cls-3{fill:#d3d3d3;}.cls-4{fill:#f9b419;}.cls-5{fill:#515151;}.cls-6{fill:#3d3d3d;}.cls-7{fill:#db9728;}.cls-8{fill:#dc4732;}.cls-9{fill:#4cc0b0;}.cls-10{fill:#66c8f0;}.cls-11{fill:#66c8ef;}.cls-12{fill:#f0f0f0;}.cls-13{fill:#f9b41a;}</style></defs><g id="Layer_2" data-name="Layer 2"><g id="Layer_1-2" data-name="Layer 1"><path class="cls-1" d="M284.84,352a97.65,97.65,0,0,0,28.88,31.18c-.52,1.49-1.7.87-2.55.87q-138.54,0-277.09,0c-.66,0-1.33-.1-2-.15-2.4-2.45-1.85-5.58-1.86-8.52q-.07-32.94,0-65.89,0-85.62,0-171.24c0-3.44-.63-7,1.56-10.17,2.05-1.83,4.6-1.74,7.08-1.75q64.53-.08,129.06,0a21.62,21.62,0,0,1,7.71,1.75c11.52,7.77,23.77,13.52,37.8,15.33,20,2.58,38.16-1.84,54.89-12.82,1.38-.9,2.82-1.69,4.23-2.54a22.76,22.76,0,0,1,9.73-1.75q78.21.06,156.43.06c3.09,0,6.4-.65,9,1.84q.08,60.35.12,120.69c0,.25-.24.51-.47,1-23.87-31.29-55-45.66-94.42-40.53-4.47-4.59-10.23-3.4-15.7-3.48-3.82-.05-7.65-.13-11.47.08-1.59.08-3.74-.07-3.64,2.35s2.24,2.08,3.81,2.19c2.82.19,5.67-.13,8.48.19,1.59.19,3.79-.29,4.13,2.31-20,6.1-35.75,18.21-48.3,34.73-.68.9-1.45,1.73-2.18,2.6a3.69,3.69,0,0,1-1.4-2C284.63,242,284.63,242,278,242c-15.14,0-30.28,0-45.41,0-6.26,0-6.7.4-6.71,6.38q-.1,47.91,0,95.81c0,5.7.42,6.06,6.44,6.1,14.8.07,29.6,0,44.41,0C279.53,350.3,282.36,350.3,284.84,352Z"/><path class="cls-2" d="M447.75,128.2H278.54c-2,0-4-.09-6-.14,11.95-10.17,21.55-22,26.8-37.08a74.2,74.2,0,0,0,4.5-22.83c.07-2.88.57-4,3.81-4q68.37.18,136.72,0c2.33,0,3.61.26,3.58,3.15C447.8,87.62,447.8,107.91,447.75,128.2Z"/><path class="cls-3" d="M32.05,128.39q0,127.77,0,255.55c-9.66.05-19.32,0-29,.21-2.39,0-3.41-.65-3.05-3.07a10.58,10.58,0,0,0,0-1.49q0-124,0-247.91c0-1.16.1-2.32.16-3.48a4.28,4.28,0,0,1,3.06-1.49c9.12-.19,18.25-.93,27.35.44A3.15,3.15,0,0,1,32.05,128.39Z"/><path class="cls-4" d="M232.22,1.12c23.22,1.3,45.88,20.68,53.14,45.43,10.49,35.77-12.62,73.59-49.19,80.48a35,35,0,0,1-4,.28A23.77,23.77,0,0,1,219,126.12c-23-8.48-38-24.49-43-48.56-5.12-24.67,2.35-45.89,21.05-62.64C205.25,7.57,214.84,2,226.3.9A13.91,13.91,0,0,1,232.22,1.12Z"/><path class="cls-2" d="M175.64,128.08q-68.56.06-137.12.12c-2.16,0-4.32.13-6.47.19V128c-2.93-5.11-2.12-10.36-.61-15.63,2.76-2.64,6.26-1.64,9.5-1.83,5-.29,5.39-.61,5.42-6.08,0-5.87-.35-6.27-5.46-6.57-3.23-.19-6.74.82-9.5-1.88-2.32-7-.85-14.11-1.09-21.16-.12-3.52-1-7.34,1.73-10.47q54.44-.08,108.88-.17c1.83,0,3.07.09,3.16,2.56C145,92.12,156.32,112.17,175.64,128.08Z"/><path class="cls-2" d="M284.84,352c-19,0-38,0-57,.16-3,0-4-.73-3.94-3.87q.16-52.23,0-104.45c0-3.29,1.18-3.78,4.05-3.76,18.15.11,36.32.23,54.47-.07,4.67-.07,6.23,1.3,5.57,5.76a26,26,0,0,0,.1,4.49c-6.25,11.63-11.94,23.37-14.35,36.62-4,21.9-.31,42.39,9.64,62C283.92,349.93,284.36,351,284.84,352Z"/><path class="cls-5" d="M377,225.09c16.16,1.27,30.16,7.78,42.36,18.09,14.32,12.1,23.59,27.45,27,46,4.65,25.63-1.73,48.41-18.91,68a75.66,75.66,0,0,1-39.82,24.24c-2.63.64-3.88,1.83-3.73,4.8.25,4.65,0,9.32,0,14-4.72,2.8-9.73,1.49-14.67,1.08a4.3,4.3,0,0,1-1.45-.84c-2.16-4.59-1.24-9.42-.88-14.17.21-2.66,2.22-2.89,4.18-2.23-28.89-4.69-49-21-61.5-47.23-1-2-2.27-4.19-.8-6.59,3-.42,3.33,2.21,4.33,3.9,12.67,21.46,31.44,32.58,56.35,32.49,46.39-.18,76.32-52.43,53.17-92.65-12.15-21.11-30.63-32.25-54.92-32.13s-42.52,11.57-54.69,32.62c-.95,1.64-1.44,3.88-4,3.89-1.79-2.26-.65-4.52.29-6.54,10.94-23.37,28.43-39.27,53.57-46A29.32,29.32,0,0,1,377,225.09Z"/><path class="cls-6" d="M377,225.09c-17.52.58-32.33,7.55-45.46,18.88a82.87,82.87,0,0,0-20.09,26.24c-1.25,2.52-2.51,5.07-2.44,8,1.48,2.12.34,4.17-.29,6.15a63.67,63.67,0,0,0,0,39.51c.63,2,1.77,4,.31,6.15,1.55,9.33,6.7,17,12.49,23.92,10.83,13,24.08,22.74,40.77,27.1,3.49.91,7,1.64,10.73,2.7-4.36-.29-5.46,1.88-5.13,5.69.31,3.46.08,7,.09,10.45-5.25,3.16-10.57,2.73-15.93.3-.12-5.65,1.7-12.58-.94-16.56-2.39-3.62-9.79-3.68-14.7-5.93-26.5-12.16-42.78-32.47-47.42-61.43-4.26-26.61,3.7-49.78,22.38-68.74,17.1-17.34,38.52-24.74,62.88-23.32A11.5,11.5,0,0,1,377,225.09Z"/><path class="cls-7" d="M232.22,1.12c-20.62,2.18-36.54,12.46-46.89,30-13.51,22.88-12.91,46.3,1.6,68.75,9.25,14.32,22.87,22.86,39.34,26.89a39.84,39.84,0,0,0,5.92.58c-14,2.79-27.08-.31-39.23-7.11-23.82-13.34-35.66-37.63-32.66-63.47A63.78,63.78,0,0,1,210.06,1.6C217.33,0,224.79-.77,232.22,1.12Z"/><path class="cls-8" d="M32.05,64.37l.06,32a16.86,16.86,0,0,1,0,15.74q0,8,0,15.91L.25,128.2C.19,108.09.18,88,0,67.86c0-2.77.71-3.76,3.6-3.7C13.1,64.37,22.58,64.32,32.05,64.37Z"/><path class="cls-6" d="M376.91,445.06c-5.14,4-10.75,4-16.25,1.25A15,15,0,0,1,352,432.36c-.05-5.45,0-10.91.07-16.36,5-2.7,10.19-2,15.38-.64,1.87,1.31,2,3.33,2.06,5.32a62.27,62.27,0,0,1,0,8.42C368.91,435.9,372.22,440.77,376.91,445.06Z"/><path class="cls-5" d="M376.91,445.06c-5.12-1.09-8.8-6.09-8.94-12.46-.11-5.43,0-10.87,0-16.31.2-.24.39-.49.58-.73,5.14-1.63,10.26-2.18,15.27.47,0,5.14.28,10.3.06,15.44C383.64,437,381.8,441.85,376.91,445.06Z"/><path class="cls-7" d="M368,416.29,352,416V400.19l15.93-.3-.05.39a16.2,16.2,0,0,1,0,15.63Z"/><path class="cls-4" d="M367.92,415.91V400.28l15.9-.12V416Z"/><path class="cls-5" d="M338.59,213c-4.83-1.69-9.82-.7-14.71-.66-3.46,0-4-1.21-4-4.27s.62-4.05,3.82-3.93c7,.26,13.95.21,20.91,0,4.09-.1,8-.44,8.39,5.19Z"/><path class="cls-9" d="M64.06,295.62c0-16.82.1-33.64-.08-50.46,0-3.72.7-5.16,4.85-5.11,18.32.24,36.64.17,55,0,3.12,0,4.33.68,4.31,4.09q-.16,52,0,103.91c0,3.47-1.27,4.09-4.35,4.07-18.49-.12-37-.16-55.46,0-3.7,0-4.34-1.33-4.31-4.63C64.13,330.26,64.06,312.94,64.06,295.62Z"/><path class="cls-4" d="M208,296.64c0,17-.07,34,.07,51,0,3.24-.45,4.65-4.21,4.61-18.65-.21-37.31-.16-56,0-3,0-4-.69-4-3.85q.18-52.2,0-104.41c0-3.2,1-3.85,4-3.83,18.65.13,37.31.18,56,0,3.8,0,4.21,1.43,4.19,4.63C207.93,262,208,279.33,208,296.64Z"/><path class="cls-9" d="M95.65,192.17c-9.32,0-18.64-.09-28,.06-2.85,0-3.74-.9-3.69-3.71.16-8.32.14-16.65,0-25,0-2.65.9-3.42,3.46-3.41q28.47.12,56.93,0c2.84,0,3.74.9,3.69,3.71-.16,8.15-.19,16.31,0,24.47.08,3.11-1,4-4,3.92C114.63,192.06,105.14,192.17,95.65,192.17Z"/><path class="cls-4" d="M176,192.17c-9.32,0-18.64-.09-28,.06-2.82,0-4.18-.38-4.08-3.73.26-8.31.18-16.64,0-25,0-2.59.69-3.42,3.35-3.41q28.71.15,57.43,0c2.19,0,3.33.35,3.29,2.95-.14,8.66-.16,17.32,0,26,.06,2.92-1.3,3.16-3.61,3.14C195,192.12,185.47,192.17,176,192.17Z"/><path class="cls-2" d="M256.42,160.18c9.32,0,18.64.1,28-.06,2.82,0,3.71.78,3.65,3.64q-.25,12.48,0,25c.07,3-1.13,3.51-3.78,3.5-18.81-.09-37.61-.12-56.42,0-3.06,0-4-.78-3.92-3.89.22-8.15.24-16.31,0-24.46-.1-3.3,1.18-3.81,4-3.76C237.45,160.28,246.93,160.18,256.42,160.18Z"/><path class="cls-10" d="M335.7,192.17c-9.16,0-18.32-.11-27.48.06-3.19.06-4.41-.83-4.32-4.19.21-8,.19-16,0-24-.07-3.14,1.11-3.94,4.07-3.93q28,.17,56,0c3,0,4.13.8,4.06,3.94-.18,8.15-.15,16.32,0,24.48.05,2.89-1.07,3.7-3.81,3.67C354.69,192.1,345.19,192.17,335.7,192.17Z"/><path class="cls-5" d="M176.34,204.17c4.15,0,8.32.26,12.43-.08,3.92-.31,3.08,2.18,3.28,4.4.23,2.65-.4,3.82-3.43,3.75-8.45-.21-16.92-.28-25.36,0-3.92.14-3.07-2.19-3.28-4.41-.24-2.65.4-3.92,3.44-3.74C167.71,204.36,172,204.17,176.34,204.17Z"/><path class="cls-5" d="M256,204.17c3.81,0,7.64.15,11.44,0,3.05-.16,4.72.12,4.72,4s-1.7,4.11-4.73,4.05c-8-.16-15.92-.25-23.87,0-3.45.13-3.63-1.4-3.64-4.09s.21-4.34,3.65-4.07C247.68,204.42,251.85,204.17,256,204.17Z"/><path class="cls-5" d="M96.41,204.17c4,0,8,.23,11.93-.07,3.24-.25,3.94,1,3.77,3.94-.15,2.47.16,4.35-3.5,4.22-8.45-.3-16.92-.29-25.36,0-3.94.13-3-2.26-3.23-4.45-.27-2.69.49-3.87,3.46-3.69C87.78,204.35,92.1,204.17,96.41,204.17Z"/><path class="cls-1" d="M205.49,37.08c1.26,1.11,1.91,1.62,2.48,2.2,1.6,1.66,2.86,3.31,5.81,1.82,2.61-1.31,4.65-2.33,4-5.69-.51-2.8,1.05-3.41,3.48-3.2a25.11,25.11,0,0,0,5,0c3-.36,4.52.63,3.89,3.79-.68,3.46,2,3.9,4.14,5.11s3.76.6,5.05-1.19c2.06-2.84,3.86-2.31,5.75.18a13.13,13.13,0,0,0,2.47,2.47c2.89,2.2,3.82,4.39.22,6.78-2.06,1.36-1.47,3-.53,4.72s1,4.37,4.16,4c7.12-.88,3.92,4.59,4.51,7.6.67,3.33-.24,5.55-4.34,4.78-3.39-.63-3.36,2.4-4.48,4.24s-.87,3.41.92,4.66c2.88,2,2.89,4,0,6.1a23.73,23.73,0,0,0-3.89,3.87c-1.4,1.69-2.54,1.69-4,.06-1.62-1.83-3-3.55-6.22-1.95-2.84,1.4-4.28,2.75-3.79,5.88.4,2.56-1,3.11-3.22,3a26.83,26.83,0,0,0-5,0c-3.14.36-4.82-.63-4.15-4,.72-3.65-2.42-3.65-4.36-4.95-2.42-1.61-3.76-.15-5,1.44-2,2.64-3.63,2.16-5.43-.16a15.06,15.06,0,0,0-2.81-2.83c-2.73-2.1-3.71-4.14-.22-6.43,1.9-1.25,1.87-2.82.81-4.68s-1.15-4.83-4.53-4.18c-4.2.81-5-1.67-4.22-4.83.63-2.55-2.57-7,2.55-7.39,3.25-.27,4.82-1.09,6.24-4.14,1.52-3.28-.42-4.53-2.14-6.17-1.34-1.28-1.56-2.21-.05-3.62C201.07,42,203.2,39.53,205.49,37.08Z"/><path class="cls-5" d="M32.11,112.08V96.34c4.32,0,8.74-.68,12.94,0,6.5,1.06,2,6.4,2.78,9.66.45,1.82,2.5,6.17-2.76,6.18C40.75,112.19,36.43,112.12,32.11,112.08Z"/><path class="cls-5" d="M104,112.2c-8,0-8,0-8-9.25,0-6.75,0-6.75,9.51-6.74,6.49,0,6.56,0,6.47,9.75C112,113.31,113.25,112.06,104,112.2Z"/><path class="cls-5" d="M72.53,96.21c7.52,0,7.52,0,7.52,9.22,0,6.78,0,6.78-9.47,6.77-6.53,0-6.53,0-6.52-9.72C64.06,96.21,64.06,96.21,72.53,96.21Z"/><path class="cls-1" d="M248.17,312V280.22c7.49,5,14.46,9.66,21.49,14.27,2.41,1.58,1.13,2.51-.42,3.53Z"/><path class="cls-11" d="M309,330a69,69,0,0,1,0-51.81c7.86-15.3,18.93-27.4,35.33-33.5,24.21-9,46.83-5.52,66.06,11.82,19.8,17.85,26.41,40.58,18.53,66.19-7.64,24.88-25.05,40.06-50.83,44.39-28,4.71-54.18-9-67.28-34.17C310.29,331.94,309.62,331,309,330Z"/><path class="cls-12" d="M88.16,312V280.22c7.61,5.08,14.71,9.8,21.78,14.56,1.77,1.2.84,2.16-.41,3Z"/><path class="cls-1" d="M168.47,280.49c7.3,4.87,14.31,9.52,21.3,14.21,2.8,1.88.27,2.61-.9,3.41-6.6,4.46-13.24,8.85-20.4,13.63Z"/><path class="cls-13" d="M224.19,51.31A13.28,13.28,0,0,1,236.9,64.16a13.28,13.28,0,0,1-13.1,13c-7-.13-13-6.47-12.71-13.36A13.27,13.27,0,0,1,224.19,51.31Z"/><path class="cls-1" d="M367.93,336.11a32,32,0,1,1,32-32.11A32.18,32.18,0,0,1,367.93,336.11Z"/><path class="cls-11" d="M375.82,308.1c-12.62.17-12,.58-11.88-11.91,0-2.66-.07-5.32.07-8,.11-2.26,1.4-3.84,3.71-4,2.59-.13,4,1.51,4.16,4a75,75,0,0,1,0,8.48c-.14,2.63,1,3.55,3.51,3.43,2.82-.13,5.65-.1,8.47,0a3.74,3.74,0,0,1,3.91,3.73c.11,2.59-1.52,4-4,4.14C381.14,308.22,378.48,308.1,375.82,308.1Z"/></g></g></svg>