<svg xmlns="http://www.w3.org/2000/svg" viewBox="0 0 468.1 467.94"><defs><style>.cls-1{fill:#f8f2f1;}.cls-2{fill:#76cede;}.cls-3{fill:#abdfea;}.cls-4{fill:#fad97f;}.cls-5{fill:#b6da9e;}.cls-6{fill:#f59596;}.cls-7{fill:#010101;}.cls-8{fill:#010202;}.cls-9{fill:#020202;}.cls-10{fill:#f6f1ef;}.cls-11{fill:#f29494;}.cls-12{fill:#f8d77e;}.cls-13{fill:#d5e5af;}.cls-14{fill:#fff;}</style></defs><g id="Layer_2" data-name="Layer 2"><g id="Layer_1-2" data-name="Layer 1"><path class="cls-1" d="M234,87q114.18,0,228.37-.11c4.5,0,5.66,1,5.66,5.62-.15,85-.29,169.9,0,254.85.06,15.12-11.13,27.65-26.81,26.6a237.8,237.8,0,0,0-25.47,0c-4.08.16-5.22-.81-5.2-5.07.18-43.14.09-86.28.13-129.43,0-6.3-1.5-11.85-6.95-15.67a15.59,15.59,0,0,0-9.32-3c-13.32.08-26.65,0-40,0-8.44.05-14.81,5.81-15.83,14.22a53.84,53.84,0,0,0-.25,6.48q0,63.72.07,127.43c0,3.74-.7,5.32-4.79,4.95a80.36,80.36,0,0,0-13,0c-3.15.22-3.85-.81-3.82-3.86.15-17,.08-34,.07-51,0-11.71-6.49-18.21-18.17-18.23-12.16,0-24.32,0-36.48,0-10.86,0-17.35,6.5-17.38,17.36,0,17.16-.08,34.32.06,51.47,0,3.1-.55,4.48-4,4.22a86.66,86.66,0,0,0-13,0c-3.82.29-5-.79-5-4.82.19-29.81-.26-59.64.28-89.44.23-12.15-8.44-19.57-19.07-19-11.95.68-24,.13-36,.17-10.45,0-17.16,6.66-17.18,17.14-.05,30.15-.09,60.3.08,90.45,0,4.1-.53,6.05-5.25,5.49a79.09,79.09,0,0,0-13-.05c-2.69.14-3.37-.81-3.3-3.37.16-6.66.15-13.33,0-20-.2-11.13-6.79-17.61-17.85-17.64q-18.48,0-37,0c-10.41,0-17.17,6.6-17.45,17-.17,6.49-.21,13,0,19.49.14,3.32-.53,4.61-4.22,4.5-9.66-.28-19.32,0-29-.11a23.79,23.79,0,0,1-24.11-24c-.12-17.49,0-35,0-52.47Q.12,194.74,0,92.05c0-4.17,1-5.12,5.14-5.12Q119.6,87.14,234,87Z"/><path class="cls-2" d="M233.52,75q-113.94,0-227.89.11C1.06,75.13-.09,74,0,69.45.31,54.63.09,39.8.13,25,.17,10.47,10.47,0,24.89,0Q234,0,443.19,0c14.38,0,24.7,10.47,24.74,25,.05,15-.15,30,.12,45,.08,4.16-1,5.15-5.13,5.14Q348.22,74.9,233.52,75Z"/><path class="cls-3" d="M350.57,351.4q0-55.47,0-110.94c0-7.13.45-7.55,7.68-7.56h33.48c5.95,0,6.91.92,6.91,6.93q0,38,0,76c0,49-.05,97.94.1,146.91,0,4.11-.92,5.33-5.13,5.23-12.82-.28-25.65-.24-38.47,0-3.67.07-4.7-.77-4.69-4.59C350.64,426,350.57,388.71,350.57,351.4Z"/><path class="cls-4" d="M211.11,371.62c0,30.46-.07,60.92.08,91.38,0,3.81-.82,5-4.83,4.94-13.14-.28-26.3-.21-39.45,0-3.13,0-3.84-.89-3.84-3.93q.13-92.37,0-184.76c0-4.77,2-6.45,6.64-6.38,11.48.19,23,.05,34.45.07,6.28,0,6.92.62,6.92,6.83Q211.12,325.67,211.11,371.62Z"/><path class="cls-5" d="M257,391.17q0-35.48,0-71c0-6.52.71-7.27,7-7.28,11.5,0,23,.1,34.49-.06,4.7-.07,6.53,1.83,6.52,6.53q-.12,72.23,0,144.44c0,3.36-1,4.11-4.18,4.07-13.33-.17-26.66-.21-40,0-3.53.06-4-1.25-4-4.28C257,439.49,257,415.33,257,391.17Z"/><path class="cls-6" d="M117.39,407.52c0,18.64-.08,37.28.08,55.92,0,3.39-.73,4.54-4.33,4.48-13.14-.22-26.29-.2-39.44,0-3.32,0-4.12-1-4.12-4.18q.17-56.18,0-112.34c0-4.77,1.93-6.5,6.58-6.42,11.32.17,22.64,0,34,.06,6.58,0,7.24.63,7.24,7.07Q117.41,379.8,117.39,407.52Z"/><path class="cls-7" d="M358.82,169.59a45.46,45.46,0,0,1-6.14-1c-3-1-4.92-3.12-4.5-6.34s2.45-5.71,6.06-5.28c7.41.86,14.85,1.8,22.16,3.28,3.28.66,4.48,3.64,4,7.07-.87,5.91-1.64,11.84-2.51,17.76-.75,5.18-3.24,7.61-7.29,6.91-4.76-.83-5.43-4.19-4.73-8.27.17-1,.12-2,.22-3.82l-24.51,18.53c-11.53,8.73-23,17.51-34.6,26.18-2.2,1.65-2.95,3-2.2,6.09,3.69,15.21-5.94,28.76-21.53,30.94-13.54,1.9-26.62-9.73-27.1-24.32-.08-2.52-.66-3.69-3.19-4.62q-21.23-7.74-42.26-16c-2.26-.88-3.39-.56-5.07,1.14-9.69,9.82-20.93,11-32.87,3.47a3.24,3.24,0,0,0-4.28.11c-16.29,11.2-32.59,22.39-49,33.42-2.31,1.55-2.17,2.87-1.67,5.28a25,25,0,0,1-19,29.5c-12.45,2.87-25.32-4.95-29.06-17.63a24.51,24.51,0,0,1,8.73-26.25c8.3-6.33,19.81-7,28.39-1.26,2.46,1.65,3.94,1.9,6.44.16Q137,228.15,161,212c2.06-1.4,2.63-2.53,2.16-5.15-2.72-15,6.55-28.49,20.38-30,15.88-1.71,27.53,8.34,28.39,24.72.12,2.31,1,3.07,2.91,3.8q21.38,8,42.68,16.26c2.07.8,3.35.44,5-1.35,8.54-9.2,20-10.76,31.25-4.53,1.62.9,2.78,1.71,4.79.17,19.51-15,39.13-29.84,58.71-44.74A18.28,18.28,0,0,0,358.82,169.59Z"/><path class="cls-8" d="M368.73,56.82c-18.8,0-37.6.07-56.4,0-8.07,0-14.56-3.27-18.3-10.71-3.41-6.82-2.74-13.51,1.62-19.74,3.94-5.64,9.69-8,16.34-8,37.76-.06,75.53-.13,113.3,0,11.91.05,20.33,8.54,20.1,19.49s-8.78,18.87-20.76,18.92C406,56.88,387.37,56.82,368.73,56.82Z"/><path class="cls-9" d="M22.76,37.75A19.12,19.12,0,0,1,41.48,18.38C51.87,18.13,61.05,27.16,61,37.6A19.76,19.76,0,0,1,41.86,56.79C31.6,56.87,22.86,48.16,22.76,37.75Z"/><path class="cls-8" d="M118.37,37.44A19.31,19.31,0,0,1,99.59,56.79c-10.3.2-19.52-9-19.43-19.38a19.52,19.52,0,0,1,19.2-19A19.13,19.13,0,0,1,118.37,37.44Z"/><path class="cls-8" d="M176.06,37.7a19,19,0,1,1-38-.55,19,19,0,1,1,38,.55Z"/><path class="cls-5" d="M293.53,236.72A13,13,0,0,1,281,249.65a12.79,12.79,0,0,1-.3-25.58A13,13,0,0,1,293.53,236.72Z"/><path class="cls-4" d="M187.3,188.81a12.58,12.58,0,1,1-12.77,12.48A12.44,12.44,0,0,1,187.3,188.81Z"/><path class="cls-6" d="M106.14,265.49A12.56,12.56,0,1,1,81,265.12a12.56,12.56,0,0,1,25.12.37Z"/><path class="cls-10" d="M368.89,30.47h54.44c2.32,0,4.7-.16,6.76,1.2a6.66,6.66,0,0,1,3.08,6.85,6.54,6.54,0,0,1-4.38,5.53c-2.07.87-4.25.69-6.4.69H315c-.83,0-1.66,0-2.49,0-5.33-.23-8.48-2.89-8.51-7.15s3-7,8.45-7.08C331.27,30.42,350.08,30.47,368.89,30.47Z"/><path class="cls-11" d="M48.85,37.66a7.33,7.33,0,0,1-7.17,6.88,6.9,6.9,0,0,1-6.76-7.09,6.6,6.6,0,0,1,7-6.75A7.06,7.06,0,0,1,48.85,37.66Z"/><path class="cls-12" d="M99.56,30.64a6.7,6.7,0,0,1,6.68,7.12,6.93,6.93,0,0,1-7.09,6.8,7.3,7.3,0,0,1-6.88-7.2A7.17,7.17,0,0,1,99.56,30.64Z"/><path class="cls-13" d="M157.19,44.62a7.09,7.09,0,0,1-7.14-6.78,6.78,6.78,0,0,1,6.58-7.22,6.89,6.89,0,0,1,7.44,6.91A7.17,7.17,0,0,1,157.19,44.62Z"/><path class="cls-6" d="M270.13,108.29c6.43,6.29,11.12,13.56,13.35,22.4a43.93,43.93,0,0,1-37.23,54.22c-23.71,2.82-45.29-13.17-48.92-36.56-2.23-14.35,1.86-26.94,11.77-37.59.77-.83,1.56-1.65,2.34-2.47,5.7-4.37,11.75-8,18.88-9.66q20.61-4.66,37.48,8C268.57,107.19,269.35,107.73,270.13,108.29Z"/><path class="cls-14" d="M245.9,126.58c-1.58,0-3.15,0-4.73,0-3.11.11-5.12,2-5.2,4.75-.09,2.94,1.83,5,5.09,5.13a14.58,14.58,0,0,1,6.71,27.35,3.56,3.56,0,0,0-2.24,3.8c.11,3.34-1.83,5.39-4.71,5.41s-4.71-1.92-4.8-5.33c0-1.51-.5-2-2-1.92a16.1,16.1,0,0,1-3.4-.1,4.85,4.85,0,0,1,.43-9.69c3-.1,5.95,0,8.93,0,3.36,0,5.44-1.74,5.57-4.58.15-3.06-1.67-5-5.23-5.25a14.59,14.59,0,0,1-6.68-27.31c1.66-.9,2.44-1.75,2.37-3.73-.13-3.46,1.64-5.37,4.6-5.44s4.88,1.73,4.88,5.17c0,1.87.75,2.25,2.34,2.14a17.68,17.68,0,0,1,3.41.09,4.77,4.77,0,0,1-.12,9.48c-1.74.14-3.5,0-5.25,0Z"/></g></g></svg>